<?xml version="1.0" encoding="UTF-8" standalone="no"?>
<svg
   width="1550"
   height="1000"
   viewBox="0 0 1162.5 749.99998"
   version="1.1"
   id="svg69"
   xmlns="http://www.w3.org/2000/svg"
   xmlns:svg="http://www.w3.org/2000/svg">
  <defs
     id="defs73">
    <filter
       style="color-interpolation-filters:sRGB"
       id="filter2606"
       x="-0.01277755"
       y="-0.043985736"
       width="1.0255551"
       height="1.0879715">
      <feGaussianBlur
         stdDeviation="3.4520438"
         id="feGaussianBlur2608" />
    </filter>
    <filter
       style="color-interpolation-filters:sRGB"
       id="filter2610"
       x="-0.024359584"
       y="-0.037062441"
       width="1.0487192"
       height="1.0741249">
      <feGaussianBlur
         stdDeviation="3.4520438"
         id="feGaussianBlur2612" />
    </filter>
  </defs>
  <g
     id="layer2"
     style="display:inline">
    <g
       id="g2586"
       style="fill:#333333;fill-opacity:1;filter:url(#filter2606)"
       transform="translate(0,-4.5)">
      <path
         fill="#a7a9ac"
         opacity="1"
         d="m 995.99,561.22 c 9.95,-4.88 20,-9.57 30.05,-14.24 7.26,5.8 15.22,10.65 22.75,16.11 4.18,3.16 9.1,5.47 12.59,9.47 4.12,5.53 2.87,12.86 0.81,18.95 -1.16,3.74 -5.21,5.23 -8.03,7.51 -41.59,29.52 -86.19,55.18 -133.9,73.42 -53.93,21.02 -111.55,31.96 -169.29,34.43 -21.67,2 -43.35,-0.71 -65.02,-1.33 -9.69,-0.03 -19.33,-1.23 -29.02,-1.21 -8.59,-1.29 -17.32,-0.56 -25.89,-1.92 -21.93,-1.99 -43.97,-4.35 -65.21,-10.39 -2.94,-1.11 -5.96,0 -8.85,0.68 -11.04,2.48 -22.12,4.78 -33.07,7.65 -5.55,-2.19 -10.89,-4.89 -16.43,-7.11 -11.41,-4.74 -22.42,-10.67 -34.53,-13.49 -7.7,-2.65 -15.79,-4.9 -22.49,-9.68 6.91,2.57 13.5,5.98 20.61,8.04 6.59,1.83 13.07,4.17 19.88,5.09 8.97,1.03 17.94,-0.46 26.87,-1.2 11.15,-1.17 22.2,-3.05 33.26,-4.82 6.83,-1.36 13.99,-2.22 20.06,-5.89 6.46,-3.58 11.79,-8.76 16.94,-13.97 12.17,-12.8 21.05,-28.16 31.01,-42.61 7.83,-1.68 16.24,0.78 22.74,5.31 3.61,2.3 4.23,6.76 5.96,10.35 1.94,4.06 4.07,8.03 6.05,12.08 20.03,0.58 40.08,0.18 60.13,-0.09 25.53,-1.39 51.07,-3.38 76.36,-7.35 30.8,-4.45 61.2,-11.41 91.12,-19.94 2.97,-0.9 4.96,-3.43 7.1,-5.51 4.19,-4.17 8.03,-8.7 12.54,-12.52 3.27,-2.82 7.63,-3.64 11.64,-4.92 21.06,-6.9 42.11,-13.88 62.71,-22.07 6.88,-2.88 13.97,-5.29 20.55,-8.83 z"
         id="path53"
         style="fill:#333333;fill-opacity:1" />
      <path
         fill="#a7a9ac"
         opacity="1"
         d="m 961.24,533.48 c 9.95,-4.88 20,-9.57 30.05,-14.24 7.26,5.8 15.22,10.65 22.75,16.11 4.18,3.16 9.1,5.47 12.59,9.47 4.12,5.53 2.87,12.86 0.81,18.95 -1.16,3.74 -5.21,5.23 -8.03,7.51 -41.59,29.52 -86.19,55.18 -133.9,73.42 -53.93,21.02 -111.55,31.96 -169.29,34.43 -21.67,2 -43.35,-0.71 -65.02,-1.33 -9.69,-0.03 -19.33,-1.23 -29.02,-1.21 -8.59,-1.29 -17.32,-0.56 -25.89,-1.92 -21.93,-1.99 -43.97,-4.35 -65.21,-10.39 -2.94,-1.11 -5.96,0 -8.85,0.68 -11.04,2.48 -22.12,4.78 -33.07,7.65 -5.55,-2.19 -10.89,-4.89 -16.43,-7.11 -11.41,-4.74 -22.42,-10.67 -34.53,-13.49 -7.7,-2.65 -15.79,-4.9 -22.49,-9.68 6.91,2.57 13.5,5.98 20.61,8.04 6.59,1.83 13.07,4.17 19.88,5.09 8.97,1.03 17.94,-0.46 26.87,-1.2 11.15,-1.17 22.2,-3.05 33.26,-4.82 6.83,-1.36 13.99,-2.22 20.06,-5.89 6.46,-3.58 11.79,-8.76 16.94,-13.97 12.17,-12.8 21.05,-28.16 31.01,-42.61 7.83,-1.68 16.24,0.78 22.74,5.31 3.61,2.3 4.23,6.76 5.96,10.35 1.94,4.06 4.07,8.03 6.05,12.08 20.03,0.58 40.08,0.18 60.13,-0.09 25.53,-1.39 51.07,-3.38 76.36,-7.35 30.8,-4.45 61.2,-11.41 91.12,-19.94 2.97,-0.9 4.96,-3.43 7.1,-5.51 4.19,-4.17 8.03,-8.7 12.54,-12.52 3.27,-2.82 7.63,-3.64 11.64,-4.92 21.06,-6.9 42.11,-13.88 62.71,-22.07 6.88,-2.88 13.97,-5.29 20.55,-8.83 z"
         id="path2576"
         style="fill:#333333;fill-opacity:1" />
    </g>
    <g
       id="g2582"
       style="fill:#333333;fill-opacity:1;filter:url(#filter2610)"
       transform="translate(-1.5,-7.5)">
      <path
         fill="#a7a9ac"
         opacity="1"
         d="m 126.9,398.44 c 41.56,17.38 82.88,35.38 124.33,53.01 35.31,15.13 70.65,30.21 105.96,45.34 3.66,27.6 9.73,55 19.4,81.15 -75,-32.92 -150.79,-64.04 -225.16,-98.39 -3.64,-1.45 -7.65,-0.89 -11.47,-1.16 -11.76,-0.9 -23.55,-1.1 -35.27,-2.31 -8.81,-2.97 -16.63,-8.17 -25.04,-12.03 -4.1,-1.82 -8.61,-0.15 -12.81,0.43 -9.93,2.04 -20.99,0.47 -29.38,-5.38 4.92,1.83 9.79,3.95 15.04,4.67 7.18,1.67 14.39,-0.73 21.53,-1.45 10.28,-1.06 20.3,-3.64 30.54,-4.93 8,-7.29 11.94,-17.72 15.65,-27.61 3.29,-10.17 6.16,-20.61 6.68,-31.34 z"
         id="path49"
         style="fill:#333333;fill-opacity:1" />
      <path
         fill="#a7a9ac"
         opacity="1"
         d="m 125.92135,354.40089 c 41.56,17.38 82.88,35.38 124.33,53.01 35.31,15.13 70.65,30.21 105.96,45.34 3.66,27.6 9.73,55 19.4,81.15 -75,-32.92 -150.79,-64.04 -225.16,-98.39 -3.64,-1.45 -7.65,-0.89 -11.47,-1.16 -11.76,-0.9 -23.55,-1.1 -35.27,-2.31 -8.809997,-2.97 -16.629997,-8.17 -25.039997,-12.03 -4.1,-1.82 -8.61,-0.15 -12.81,0.43 -9.93,2.04 -20.99,0.47 -29.38,-5.38 4.92,1.83 9.79,3.95 15.04,4.67 7.18,1.67 14.39,-0.73 21.53,-1.45 10.28,-1.06 20.3,-3.64 30.539997,-4.93 8,-7.29 11.94,-17.72 15.65,-27.61 3.29,-10.17 6.16,-20.61 6.68,-31.34 z"
         id="path2578"
         style="fill:#333333;fill-opacity:1" />
    </g>
  </g>
  <g
     id="layer3"
     style="display:inline">
    <g
       id="#ffffffff">
      <path
         fill="#ffffff"
         opacity="1"
         d="m 317.25,14.19 c 3.54,-0.85 7.2,-0.7 10.81,-1.04 1.93,-0.54 3.93,-0.71 5.94,-0.65 18.36,-0.35 36.72,-0.01 55.08,0.34 8.41,0.9 16.99,0.67 25.47,0.71 l 0.04,0.84 c 6.52,0.01 13.04,0.22 19.55,0.4 4.47,1.29 9.27,0.41 13.87,1.01 5.67,0.73 11.4,0.54 17.09,1.07 5.29,1.05 10.79,0.07 16.06,1.37 3.73,0.45 7.51,0.36 11.27,0.4 l 0.15,0.73 c 7.79,0.17 15.59,0.85 23.32,1.79 2.55,0.2 5.12,0.32 7.7,0.32 l -0.07,0.81 c 10.52,0.04 20.95,1.74 31.39,2.82 5.87,0.3 11.61,1.85 17.53,1.6 l -0.01,0.73 c 7.77,0.58 15.41,2.26 23.13,3.17 l -0.11,0.88 c 2.03,0.05 4.06,0.17 6.1,0.26 0.02,0.43 0.07,1.31 0.09,1.75 -6.05,-1.63 -12.47,-1.23 -18.51,-2.73 -5.71,-0.44 -11.35,-1.4 -17.05,-1.92 -6.98,-0.88 -14.07,-0.93 -20.98,-2.06 -5.61,-0.76 -11.52,0.32 -16.96,-1.18 -3.42,-0.25 -6.84,-0.24 -10.26,-0.47 -8.58,-1.13 -17.3,-0.34 -25.9,-1.32 -37.01,-0.77 -74.03,-0.54 -111.03,0.09 -8.29,0.85 -16.68,0.29 -25.01,0.7 -9.34,0.08 -18.63,0.98 -27.98,0.88 0.83,2.72 2.83,4.8 4.36,7.13 5.95,8.66 11.91,17.3 17.89,25.94 1.51,2.21 3.06,4.41 4.53,6.66 8.31,11.72 16.25,23.7 24.6,35.4 l 0.3,0.72 c 1.43,1.91 2.77,3.88 4.11,5.86 3.93,5.4 7.46,11.06 11.44,16.43 1.47,2.21 2.95,4.43 4.52,6.58 1.39,1.97 2.7,4 4.04,6.01 3.93,5.43 7.62,11.02 11.46,16.51 3.75,5.72 7.94,11.13 11.53,16.95 5.35,0.18 10.94,0.42 16.14,-0.91 3.87,-0.28 7.75,-0.44 11.63,-0.44 l -0.08,-0.82 c 7.52,-0.28 14.99,-1.35 22.49,-1.94 1.98,-0.13 4.04,0.01 5.9,-0.8 2.87,-0.24 5.75,-0.32 8.62,-0.34 l 0.03,-0.8 c 3.79,-0.04 7.59,-0.15 11.36,-0.69 2.7,-0.63 5.43,-1.25 8.03,-2.25 0.68,-0.04 2.03,-0.14 2.71,-0.18 l 0.06,-0.78 c 6.45,-0.67 12.87,-1.91 19.26,-2.96 5.45,-0.18 10.77,-1.46 16.23,-1.62 5.23,-0.98 10.63,-0.47 15.9,-1.29 4.9,-0.74 10.08,0.4 14.84,-1.07 10.55,-0.15 21.1,-0.58 31.65,-0.39 l -0.02,-0.77 c 10.51,-0.04 21.02,-0.39 31.54,-0.28 1.34,0 2.67,-0.16 4,-0.48 20.31,-0.13 40.63,-0.5 60.96,-0.51 19.27,-0.91 38.6,-0.62 57.89,-0.99 6.3,-1.16 12.74,-0.47 19.11,-0.76 4.35,0.09 8.71,-0.44 13.05,0.18 4.47,1.49 9.37,1.05 13.89,2.36 2.17,0.3 4.36,0.42 6.56,0.45 l 0.01,0.8 c 7.18,0.51 14.33,1.67 21.44,2.75 1.42,0.14 2.87,0.26 4.31,0.43 3.14,1.43 6.8,0.75 10.16,1.08 l 0.19,0.71 c 14.84,1.28 29.57,3.73 44.32,5.73 2.49,0.33 4.99,0.47 7.51,0.52 l 0.09,0.8 c 2.17,0.02 4.34,0.12 6.51,0.37 4.84,1.3 9.94,1.27 14.85,2.31 4.13,0.23 8.1,1.57 12.25,1.68 6.37,1.18 12.83,2.44 19.32,2.83 l 0.1,0.78 c 1.93,0.06 3.88,0.16 5.84,0.23 l 0.17,0.72 c 5.69,0.25 11.18,2.04 16.87,2.33 l 0.09,0.79 c 1.62,0.02 3.26,0.07 4.91,0.1 l 0.13,0.78 c 5.15,0.55 10.34,1.41 15.3,2.93 1.7,0.19 3.41,0.34 5.13,0.52 0.89,0.7 1.93,1.08 3.11,1.15 3.24,0.83 6.66,1.05 9.79,2.31 1.07,0.14 2.14,0.29 3.23,0.44 4.09,1.71 8.67,1.82 12.76,3.58 0.64,0.08 1.94,0.23 2.59,0.31 l 0.11,0.72 c 11.05,3.24 19.44,11.87 25.69,21.2 0.13,0.32 0.4,0.95 0.53,1.26 0.91,2.24 1.91,4.43 2.96,6.61 -15.23,1.71 -30.31,4.59 -45.56,6.17 -7.56,1.03 -15.19,1.59 -22.69,2.96 -0.42,0.11 -1.26,0.33 -1.69,0.44 -4.46,0.99 -9.18,0.05 -13.55,1.47 -6.73,0.12 -13.35,1.59 -20.09,1.38 -7.43,-0.6 -14.72,1.51 -22.14,1.16 -6.39,-0.21 -12.67,1.26 -19.04,1.22 -8.01,0.01 -16.03,0.26 -23.99,1.15 -17.01,0.74 -34.08,-0.14 -51.07,0.99 -11.66,-0.17 -23.34,0.4 -34.97,-0.55 -14.64,-0.06 -29.28,-0.01 -43.91,-0.4 -14.29,-1.69 -28.72,-0.43 -42.99,-2.12 -6.41,-0.59 -12.86,0.05 -19.25,-0.67 -8.91,-1.16 -17.93,-0.63 -26.82,-2 -10.34,-0.15 -20.58,-1.6 -30.91,-1.8 -5.63,-0.89 -11.32,-1.06 -17,-1.36 -6.95,-1.19 -14.02,-1.16 -21.01,-2.05 -16.22,-0.84 -32.3,-3.22 -48.51,-4.34 0.52,1.84 1.22,3.62 2.08,5.34 0.43,0.91 0.81,1.83 1.2,2.77 1.21,3.38 2.54,6.71 3.97,10.01 0.99,1.98 1.94,3.97 2.9,5.97 4.97,9.02 11.97,17.48 21.62,21.63 l 0.23,0.67 c 2.44,0.82 4.87,1.73 7.24,2.78 4.2,1.82 8.74,2.57 13.04,4.08 1.52,0.16 3.07,0.3 4.62,0.41 l -0.08,0.7 c 4.81,0.96 9.76,1.42 14.45,2.88 1.2,0.12 2.42,0.22 3.64,0.32 l 0.07,0.7 c 4.29,0.71 8.47,2.02 12.58,3.46 0.96,0.44 1.95,0.83 2.98,1.16 2.43,0.91 4.77,2.06 7.27,2.8 l 0.2,0.64 c 2.87,0.93 5.55,2.38 8.11,3.98 8.98,4.93 16.92,11.57 24.18,18.75 5.52,6.56 11.48,12.86 18.58,17.76 1.67,1.29 3.52,2.34 5.33,3.45 2.31,1.48 4.88,2.53 7.17,4.07 0.29,0.04 0.87,0.11 1.17,0.15 2.01,1.64 4.68,2.06 7,3.18 4.5,1.78 9.2,2.99 13.77,4.57 1.19,0.12 2.39,0.24 3.59,0.34 v 0.8 c 1.54,0.12 3.07,0.25 4.63,0.43 4.11,1.54 8.6,1.22 12.78,2.4 1.42,0.14 2.87,0.26 4.31,0.38 3.44,1.39 7.27,0.65 10.89,1.22 6.17,1.2 12.57,0.4 18.81,1.19 14.35,0.54 28.73,0.54 43.08,0.09 5.97,0.37 12.12,-1.23 17.9,0.98 6.98,5.34 11.97,12.71 17.36,19.54 4.59,6.17 8.86,12.59 13.45,18.76 3.54,3.07 7.63,5.64 12.17,6.92 3.5,0.42 7.04,0.08 10.56,0.02 l 0.03,-0.77 c 5.01,-0.65 9.91,-2.19 15.01,-2.19 l 0.08,-0.76 c 1.54,-0.07 3.12,-0.14 4.69,-0.26 7.13,-1.33 14.52,-1.44 21.73,-2.54 4.52,-0.25 8.92,-1.64 13.48,-1.39 l 0.14,-0.76 c 2.17,-0.07 4.34,-0.24 6.51,-0.5 4.42,-0.72 8.83,-1.67 13.32,-1.77 l 0.13,-0.79 c 1.96,-0.04 3.93,-0.13 5.91,-0.18 l 0.09,-0.75 c 5.46,-0.71 11.02,-1.51 16.32,-2.97 1.18,-0.12 2.37,-0.21 3.57,-0.28 l 0.11,-0.71 c 5.75,-0.58 11.2,-2.79 16.95,-3.38 v -0.64 c 3.52,-0.76 7.04,-1.61 10.4,-2.95 0.65,-0.07 1.97,-0.2 2.63,-0.27 v -0.73 c 2.98,-0.35 5.83,-1.37 8.61,-2.47 0.99,-0.34 2,-0.68 3.03,-1 0.9,-0.55 1.88,-0.95 2.94,-1.19 1.66,-0.62 3.33,-1.27 5.03,-1.82 1.24,-0.48 2.62,-0.77 3.72,-1.6 2.85,-1.11 5.6,-2.52 8.57,-3.31 l 0.11,-0.69 c 2.81,-0.66 5.12,-2.52 7.91,-3.26 l 0.14,-0.67 c 3.32,-1 6.41,-2.72 9.85,-3.38 l 0.14,-0.74 c 0.67,-0.06 2,-0.19 2.67,-0.25 0.22,-4.09 -0.28,-8.14 -0.83,-12.17 -1.55,0.45 -3.04,1.06 -4.48,1.75 -2.38,1.16 -4.86,2.11 -7.41,2.76 l -0.03,0.62 c -1.15,0.28 -2.28,0.58 -3.39,0.91 -2.8,1.01 -5.61,2.03 -8.56,2.5 0.01,0.2 0.01,0.6 0.02,0.79 -0.67,0.07 -2,0.21 -2.66,0.28 -3.36,1.28 -6.84,2.23 -10.37,2.9 l -0.02,0.68 c -1.2,0.13 -2.38,0.27 -3.54,0.44 -4.03,1.33 -8.18,2.36 -12.37,2.96 l -0.06,0.6 c -4.19,0.74 -8.32,1.74 -12.46,2.68 -2.64,0.88 -5.35,1.53 -8.12,1.81 -3.22,1.02 -6.62,1.31 -9.82,2.35 -1.55,0.16 -3.06,0.31 -4.58,0.44 0,0.19 0,0.58 -0.01,0.77 -6.45,0.52 -12.68,2.6 -19.13,3.19 l 0.04,0.72 c -1.87,0.08 -3.74,0.22 -5.57,0.44 -3.84,1.19 -7.91,1.28 -11.76,2.37 -1.5,0.16 -2.97,0.33 -4.44,0.54 -6.73,1.76 -13.76,2.12 -20.59,3.49 -1.87,0.2 -3.74,0.36 -5.61,0.44 l -0.06,0.76 c -3.29,-0.22 -6.48,0.6 -9.61,1.45 -1.41,0.59 -2.8,1.19 -4.18,1.8 -3.41,1.45 -6.02,4.04 -8.95,6.16 -0.32,0.41 -0.97,1.23 -1.3,1.64 l -1.09,-0.05 0.24,1.34 -0.89,-0.35 c -0.55,1.45 -1.69,3.31 -3.49,2.89 2.21,-0.79 2.83,-3.16 4.36,-4.7 3.85,-3.82 7.37,-8.29 12.58,-10.33 5.71,-2.62 12.12,-3.58 18.37,-3.8 v -0.8 c 6.83,-0.46 13.7,-1.53 20.41,-2.87 1.52,-0.16 3.09,-0.25 4.65,-0.31 l -0.01,-0.8 c 7,-0.45 13.88,-2.05 20.77,-3.34 2.14,-0.88 4.5,-0.83 6.78,-1.15 6.29,-1.57 12.73,-2.44 19.02,-4.07 4.45,-0.95 8.91,-1.92 13.39,-2.75 l 0.01,-0.65 c 5.46,-0.42 10.61,-2.53 16.01,-3.33 v -0.71 c 1.18,-0.12 2.38,-0.26 3.58,-0.41 3.4,-1.23 6.94,-2 10.45,-2.87 l 0.02,-0.68 c 1.16,-0.14 2.33,-0.29 3.52,-0.44 3.08,-1.65 6.68,-1.92 9.77,-3.53 3.25,-0.99 6.29,-2.61 9.62,-3.37 l 0.16,-0.57 c 3.14,-0.87 5.83,-2.88 9.03,-3.59 -0.05,-0.84 -0.16,-2.53 -0.21,-3.37 -1.06,-1.51 -2.09,-3.04 -2.89,-4.69 -0.74,-2.45 1.59,-4.25 2.92,-5.97 0.03,-0.29 0.09,-0.88 0.13,-1.17 3.26,-3.37 1.91,-8.65 -0.37,-12.18 -0.42,-0.76 -0.82,-1.51 -1.2,-2.27 1.65,-0.39 3.29,-1.32 5.06,-1 5.14,3.96 9.35,9.11 12.6,14.72 1.59,2.49 2.99,5.1 3.99,7.89 1.72,2.71 2.07,5.99 3.58,8.8 0.07,0.64 0.21,1.93 0.28,2.57 l 0.73,0.03 c 0.77,4.17 1.87,8.27 2.84,12.41 0.58,3.07 1.41,6.1 1.72,9.23 2.19,7.22 -1.46,14.56 -0.37,21.91 -0.3,-1.82 -0.61,-3.64 -0.92,-5.44 0.21,4.81 -0.16,9.66 -1.29,14.36 -0.26,0.34 -0.76,1.02 -1.02,1.36 -2.27,0.66 -4.44,1.57 -6.69,2.27 l -0.18,0.6 c -3.23,0.99 -6.37,2.22 -9.48,3.52 -1.1,0.45 -2.23,0.78 -3.37,0.99 l -0.07,0.63 c -3.39,0.86 -6.47,2.57 -9.87,3.34 l -0.15,0.6 c -2.55,0.68 -5.07,1.47 -7.52,2.42 -1.02,0.38 -2.04,0.71 -3.06,1 -0.93,0.55 -1.92,0.94 -2.97,1.16 -2.75,1.02 -5.48,2.09 -8.33,2.76 l -0.1,0.7 c -0.64,0.1 -1.92,0.3 -2.56,0.41 -3.03,1.26 -6.22,2.09 -9.38,2.91 l -0.04,0.6 c -4.46,0.61 -8.49,2.82 -12.95,3.42 l 0.02,0.74 c -0.66,0.09 -1.97,0.26 -2.63,0.35 -8,2.61 -16.09,5.16 -24.33,6.94 l -0.1,0.6 c -5.95,1.21 -11.75,3.03 -17.61,4.55 -4.13,1.5 -8.68,1.76 -12.68,3.53 -0.57,0.09 -1.73,0.28 -2.3,0.38 -2.86,1.02 -5.88,1.42 -8.75,2.33 -1.16,0.21 -2.3,0.43 -3.42,0.65 -1.25,0.5 -2.56,0.81 -3.85,1.1 -4.17,1.41 -8.59,1.92 -12.72,3.39 -1.38,0.24 -2.74,0.51 -4.05,0.93 -3.99,1.1 -8.24,1.47 -12.05,3.08 -1.07,0.17 -2.12,0.33 -3.17,0.5 -4.01,1.29 -8.15,2.29 -12.32,2.89 l -0.12,0.74 c -1.2,0.08 -2.38,0.18 -3.55,0.3 -2.8,1.22 -5.88,1.49 -8.76,2.44 -1.08,0.18 -2.16,0.38 -3.22,0.59 -1.29,0.9 -2.92,0.73 -4.39,0.93 l -0.11,0.59 c -4.38,1.7 -8.3,4.36 -12.18,6.96 -2.44,1.53 -4.76,3.22 -7,5.02 -8.34,6.64 -15.55,14.55 -22.06,22.96 -3.2,4.49 -6.5,8.92 -9.36,13.64 -2.27,3.62 -6.18,5.98 -10.32,6.81 l -0.02,0.72 c -1.21,0.1 -2.41,0.22 -3.59,0.37 -1.14,0.79 -2.58,0.59 -3.85,0.67 -5.04,0.1 -10.07,0.24 -15.1,0.46 -8.92,1.01 -17.95,0.26 -26.86,1.34 -8.5,0.24 -17,0.52 -25.5,0.39 l -0.09,0.87 c -16.53,-0.01 -33.06,0.27 -49.6,0.3 -5.3,1.36 -10.9,0.2 -16.32,0.68 l -0.15,-0.81 c -13.16,0.12 -26.33,0.06 -39.49,-0.32 -5.54,-1.18 -11.24,-0.56 -16.85,-1.02 -8.41,-0.86 -16.86,-1.16 -25.25,-2.15 -3.05,-0.65 -6.17,-0.71 -9.27,-0.71 l -0.16,-0.82 c -2.99,-0.04 -6.02,-0.09 -8.89,-0.98 -1.72,-5.56 -3.64,-11.06 -5.67,-16.51 -0.29,-1.03 -0.63,-2.03 -1.03,-3 -0.36,-1 -0.71,-2 -1.04,-3 -0.55,-1.71 -1.19,-3.37 -1.9,-5.01 -0.37,-1 -0.75,-2 -1.13,-2.98 -1.5,-3.59 -2.52,-7.37 -4.12,-10.9 -1.13,-2.36 -1.62,-5 -3.06,-7.18 -0.02,-0.3 -0.05,-0.9 -0.06,-1.2 -1.77,-2.31 -2.29,-5.24 -3.58,-7.8 -1.79,-3.95 -3.17,-8.08 -5.25,-11.89 -1.05,-2.55 -2.56,-4.9 -3.28,-7.57 l -0.71,-0.22 c -1.04,-3.64 -3.07,-6.86 -4.52,-10.33 -1.12,-1.73 -2.18,-3.52 -2.8,-5.49 l -0.63,-0.18 c -0.68,-2.79 -2.76,-4.96 -3.44,-7.74 l -0.61,-0.18 c -1.08,-3.06 -3.25,-5.54 -4.57,-8.48 -5.43,-9.15 -11.2,-18.09 -17.33,-26.78 -1.02,-1.32 -2.04,-2.62 -3.04,-3.94 -13.84,-18.66 -30.27,-35.73 -49.9,-48.33 -2.58,-1.64 -4.95,-3.7 -7.88,-4.7 -2.29,-1.51 -4.85,-2.52 -7.15,-4 -2.22,-1.18 -4.6,-2.01 -6.93,-2.91 -1.27,-0.52 -2.52,-1.02 -3.73,-1.63 -2.34,-1.06 -4.78,-1.89 -7.28,-2.48 -5.22,-1.68 -10.49,-3.31 -15.95,-4.01 -4.81,-1.39 -9.92,-0.98 -14.87,-0.83 -6.02,0.08 -11.7,2.32 -17.6,3.21 l -0.04,0.66 c -3.76,0.56 -7.14,2.42 -10.78,3.4 l -0.18,0.65 c -15.7,6.92 -28.03,20 -36.17,34.9 -1.18,1.98 -2.31,4.02 -3.03,6.23 l -0.63,0.11 c -0.73,3 -2.21,5.73 -3.38,8.57 -1.49,4.07 -3.17,8.13 -3.91,12.43 l -0.69,-0.04 c -0.12,1.19 -0.25,2.39 -0.39,3.59 -1.32,2.76 -1.45,5.9 -2.47,8.78 -0.17,1.55 -0.3,3.11 -0.4,4.67 l -0.78,-0.04 c -0.09,1.21 -0.21,2.43 -0.33,3.65 -1.34,4.8 -1.32,9.9 -2.39,14.78 -0.29,2.84 -0.44,5.7 -0.5,8.56 l -0.76,0.05 c -0.07,4.2 -0.23,8.41 -0.36,12.63 -0.21,0.63 -0.64,1.9 -0.86,2.54 -0.38,-0.1 -1.14,-0.29 -1.53,-0.39 -4.79,-4.31 -10.76,-6.58 -16.89,-8.26 -4.25,-1.52 -8.59,-2.78 -12.82,-4.36 -8.02,-2.58 -16.02,-5.24 -23.99,-7.99 -8.02,-2.6 -16.04,-5.24 -24,-8.02 -4.03,-1.23 -8.04,-2.52 -11.99,-3.99 -3.48,-1.04 -6.9,-2.24 -10.31,-3.46 -2.93,-1.22 -6.02,-1.92 -8.99,-2.99 -0.99,-0.38 -2,-0.72 -3.01,-1.01 -2.92,-1.24 -6.02,-1.92 -9,-2.99 -0.99,-0.38 -1.99,-0.71 -3,-1.01 -2.92,-1.24 -6.01,-1.93 -8.98,-2.99 -1,-0.37 -2.01,-0.7 -3.02,-1.01 -2.92,-1.24 -6.02,-1.92 -8.99,-3 -1,-0.35 -2,-0.68 -3,-1.01 -3.93,-1.53 -8.04,-2.53 -12,-3.97 -3.92,-1.59 -8.05,-2.55 -12.01,-4 -3.9,-1.6 -8.04,-2.53 -11.99,-4.01 -0.98,-0.44 -1.99,-0.79 -3.03,-1.07 -2.98,-1.01 -6,-1.87 -8.96,-2.92 -0.98,-0.46 -1.99,-0.81 -3.03,-1.07 -2.97,-1.03 -6.01,-1.88 -8.98,-2.93 -0.98,-0.45 -1.98,-0.81 -3.02,-1.06 -2.97,-1.06 -6.02,-1.89 -8.99,-2.94 -0.97,-0.46 -1.98,-0.81 -3.02,-1.05 -2.25,-0.8 -4.5,-1.59 -6.71,-2.48 -0.65,-0.08 -1.93,-0.24 -2.58,-0.31 l -0.09,-0.72 c -1.14,-0.23 -2.27,-0.51 -3.39,-0.83 -1.99,-0.68 -3.99,-1.33 -5.94,-2.13 -0.65,-0.08 -1.94,-0.25 -2.59,-0.33 l -0.1,-0.72 c -3.17,-0.71 -6.22,-1.82 -9.3,-2.82 -1.03,-0.29 -2.04,-0.64 -3.03,-1.06 -1.01,-0.31 -2.03,-0.62 -3.04,-0.92 -2.07,-0.71 -4.55,-1.73 -4.81,-4.23 l -0.7,-0.21 c -0.79,-2.81 -1.73,-5.57 -2.86,-8.25 -0.07,-0.66 -0.21,-1.97 -0.29,-2.63 l -0.85,-0.08 c -0.07,-0.65 -0.22,-1.96 -0.29,-2.62 -1.26,-3.38 -2.33,-6.85 -2.93,-10.41 l -0.7,0.05 c -0.12,-1.2 -0.26,-2.4 -0.41,-3.59 -0.93,-2.24 -1.47,-4.62 -2.1,-6.95 -0.36,-1.45 -0.64,-2.91 -0.87,-4.37 l -0.75,-0.04 c -0.06,-0.67 -0.18,-2 -0.24,-2.66 -1.66,-3.76 -1.98,-7.97 -3.65,-11.71 -0.87,-2.69 -1.77,-5.36 -2.74,-8.01 -0.33,-1.03 -0.71,-2.03 -1.16,-3 -0.93,-2.95 -2.49,-5.66 -3.32,-8.64 l -0.93,-0.15 c 0,-0.37 0,-1.12 0,-1.5 -3.94,-6.93 -8.4,-13.91 -15.31,-18.23 -2.69,-1.02 -5.28,-2.88 -8.23,-2.82 -5.74,1.49 -10.74,5.89 -12.7,11.52 l -0.59,0.22 c -1,2.99 -2.13,5.96 -2.1,9.17 -1.47,-1.9 -0.81,-4.64 -0.85,-6.88 0.87,-5.28 0.5,-10.66 1.34,-15.95 0.37,-4.13 1.6,-8.14 1.69,-12.3 l 0.77,-0.05 c 0.05,-0.67 0.16,-2.01 0.21,-2.67 1.58,-3.4 1.65,-7.21 2.43,-10.81 0.21,-4.53 0.51,-9.05 0.47,-13.58 l 0.83,0.01 c -0.01,-6.87 1.21,-13.71 2.74,-20.38 0.2,-1.53 0.36,-3.05 0.5,-4.59 l 0.78,-0.01 c 0.06,-0.66 0.17,-1.97 0.23,-2.63 0.94,-1.92 1.5,-3.99 2.02,-6.05 0.48,-1.3 1.05,-2.56 1.81,-3.71 0.01,-0.3 0.04,-0.9 0.06,-1.2 1.52,-2.16 2.11,-4.83 3.85,-6.85 0.03,-0.28 0.09,-0.85 0.12,-1.13 0.85,-1.11 1.6,-2.29 2.24,-3.52 6.4,-0.64 13.19,1.13 19.29,-1.38 7.72,-4.22 10.29,-13.27 15.23,-19.98 1.11,-2.38 2.62,-4.54 4.04,-6.73 1.11,-1.88 2.24,-3.75 3.33,-5.64 1.47,-2.27 3.06,-4.5 4.06,-7.03 l 0.59,-0.18 c 2.31,-4.36 5.18,-8.38 7.81,-12.56 1.32,-2.21 2.78,-4.34 4.17,-6.51 1.33,-2.05 2.69,-4.08 4.02,-6.12 1.39,-1.94 2.74,-3.92 4.04,-5.92 2.09,-4 6.92,-7.04 6.32,-11.98 -0.97,0.03 -2.92,0.1 -3.89,0.14 -5.75,1.6 -11.9,1.85 -17.66,3.59 -2.56,0.55 -5.11,1.16 -7.69,1.6 2.65,-4.65 6.67,-8.19 10.16,-12.15 7.28,-6.92 15.18,-13.48 24.49,-17.46 2.34,-1.26 4.84,-2.19 7.46,-2.69 l 0.04,-0.69 c 1.75,-0.19 3.56,-0.26 5.21,-0.97 4.88,-0.81 9.69,-2.09 14.64,-2.4 l 0.15,-0.72 c 1.22,-0.07 2.43,-0.17 3.65,-0.27 5.9,-1.62 12.12,-1.74 18.08,-3.17 2.65,-0.77 5.43,-0.72 8.16,-0.78 l 0.06,-0.82 c 4.16,0.05 8.21,-1.06 12.36,-1.3 2.45,-0.37 5.06,-0.3 7.38,-1.32 3.37,-0.46 6.78,-0.48 10.17,-0.59 l 0.12,-0.79 c 3.11,-0.1 6.24,-0.1 9.3,-0.78 6.02,-0.68 12.19,-0.84 18.09,-2.06 5.75,0.07 11.31,-1.43 17.05,-1.45 8.26,-1.19 16.72,-1.12 24.89,-2.53 7.12,-0.11 14.1,-1.52 21.23,-1.63 10.67,-1.18 21.43,-1.91 32.12,-2.97 m -1.68,8.41 -0.12,0.75 c -4.83,0.2 -9.62,0.97 -14.37,1.77 -2.17,0.27 -4.35,0.41 -6.52,0.48 l -0.17,0.77 c -1.86,0.05 -3.72,0.12 -5.57,0.3 -7.49,1.51 -15.24,2.15 -22.86,3.1 -2.92,1.27 -6.26,0.72 -9.37,0.95 v 0.78 c -6.39,0.3 -12.63,2.04 -19.03,2.12 l -0.14,0.79 c -2.21,0.03 -4.41,0.13 -6.61,0.26 -0.51,0.3 -1.54,0.88 -2.06,1.18 -0.92,3.03 -1.78,6.08 -2.88,9.05 -0.36,1.3 -0.61,2.65 -1.27,3.84 -1.65,4.75 -2.95,9.61 -4.54,14.38 -0.83,2.56 -1.37,5.2 -2.19,7.77 -0.32,1.33 -0.48,2.72 -1.11,3.96 -1.04,3.65 -1.85,7.37 -3,11 -0.15,1.22 -0.28,2.44 -0.4,3.67 l -0.76,-0.06 c -0.13,1.18 -0.27,2.35 -0.42,3.53 -0.97,2.63 -1.37,5.42 -2,8.15 -0.79,2.23 -0.78,4.62 -0.78,6.96 -0.23,-1.08 -0.45,-2.15 -0.67,-3.22 -0.33,5.74 -1.95,11.32 -2.91,16.98 -0.1,0.6 -0.29,1.8 -0.38,2.4 -1.35,1.99 -0.77,4.6 -1.24,6.86 -1.24,4.17 -1.22,8.59 -2.35,12.78 -0.31,2.47 -0.49,4.95 -0.56,7.44 l -0.81,0.13 c -0.06,2.37 -0.15,4.73 -0.21,7.09 6.67,1.24 13.55,0.5 20.16,2.13 0.06,1.42 0.19,2.85 0.59,4.23 1.72,1.75 4.1,2.56 6.52,2.7 l -0.04,0.7 c 2.55,0.01 5.1,0.13 7.65,0.39 1.22,0.44 2.49,0.68 3.79,0.74 7.52,0.56 14.96,2.22 22.53,2.14 l 0.06,0.78 c 9.82,0.16 19.64,0.57 29.47,0.4 1.66,-0.11 3.47,-0.05 4.89,-1.09 2.35,-0.94 4.8,-1.69 6.96,-3.05 15.05,-1.02 30.2,-0.45 45.27,0.05 1.82,1.05 3.99,0.86 6,1.26 5.73,0.74 11.44,2.04 17.25,1.68 l 0.2,0.8 c 11.28,0.28 22.56,0.19 33.85,-0.03 l 0.19,-0.75 c 5.07,0.12 10.03,-1.1 15.08,-1.39 -0.13,-1.06 0.11,-2.3 -0.77,-3.11 -4.21,-6.45 -8.45,-12.88 -12.68,-19.31 -1.41,-1.98 -2.73,-4 -4.01,-6.04 -2.58,-4.08 -5.33,-8.04 -7.95,-12.08 -1.38,-1.94 -2.74,-3.87 -4.02,-5.86 -8.04,-11.76 -15.9,-23.64 -24.04,-35.33 -1.38,-1.87 -2.67,-3.8 -3.99,-5.71 -4.05,-5.66 -7.98,-11.4 -11.96,-17.11 -1.53,-2.08 -3,-4.21 -4.48,-6.33 -4.11,-5.97 -8.4,-11.81 -12.58,-17.73 -1.8,-2.53 -3.67,-5 -5.34,-7.61 -0.66,-0.56 -1.24,-1.22 -1.58,-2.04 -2.21,-3.14 -4.52,-6.22 -6.74,-9.36 -1.66,-0.15 -3.32,-0.04 -4.98,-0.03 M 215.16,38.29 c -1.1,0.14 -2.2,0.28 -3.29,0.44 -4.73,1.84 -10.12,1.61 -14.76,3.6 -1.21,0.1 -2.43,0.18 -3.65,0.24 l 0.02,0.77 c -4.88,0.4 -9.7,1.56 -14.38,2.93 -2.05,0.25 -4.11,0.34 -6.17,0.3 1.08,0.23 2.16,0.47 3.24,0.7 -5.12,0.36 -10.21,1.49 -15.1,2.98 -1.51,0.17 -3.02,0.28 -4.52,0.36 l -0.1,0.73 c -3.56,0.33 -7,1.43 -10.53,1.98 -3.66,0.57 -7.39,1.83 -9.92,4.68 -7.22,8.57 -13.98,17.53 -20.22,26.84 -1.27,2.07 -2.63,4.07 -3.94,6.11 -1.34,2.3 -2.73,4.57 -4.17,6.8 -1.39,2.3 -2.6,4.7 -3.98,7.01 -1.34,2.41 -2.45,4.96 -4.15,7.15 -0.02,0.3 -0.05,0.88 -0.07,1.18 -1.87,1.93 -2.13,4.83 -3.94,6.82 0.02,0.37 0.06,1.11 0.08,1.48 l -0.97,0.21 c -1.08,3.68 -3.08,6.97 -4.56,10.48 -0.68,1.62 -1.4,3.24 -2.22,4.8 -0.94,1.96 -1.5,4.06 -1.85,6.21 -0.97,2.94 -0.27,6.01 1.07,8.7 0.8,0.64 1.45,1.53 2.43,1.93 0.37,0.31 1.12,0.92 1.5,1.23 9.29,0.65 18.64,0.57 27.96,0.77 9.98,0.78 20,1.44 30.01,1.21 4.36,-0.46 8.64,0.65 12.98,0.71 7.98,0.81 16.01,0.44 24.01,0.58 3.56,-0.08 7.07,1.52 10.6,0.34 1.53,-7.81 2.34,-15.74 4.08,-23.53 1.42,-10.46 4.42,-20.6 6.33,-30.97 1.12,-6.27 3.76,-12.32 4.05,-18.7 0.95,-2.69 1.2,-5.59 2.32,-8.23 0.12,-0.55 0.35,-1.65 0.46,-2.21 0.9,-2.58 1.45,-5.27 2.33,-7.86 0.19,-1.04 0.4,-2.07 0.62,-3.1 0.56,-0.95 0.94,-1.97 1.14,-3.06 1.28,-4.36 2.66,-8.68 4,-13.02 1.27,-3.84 2.07,-7.85 3.94,-11.48 -3.66,-0.23 -7.22,0.86 -10.68,1.89 z"
         id="path2" />
      <path
         fill="#ffffff"
         opacity="1"
         d="m 235.44,116.36 0.14,-0.76 c 15.78,-0.62 31.59,0.12 47.39,-0.13 4.39,0.04 8.79,-0.17 13.17,0.21 3.21,1.13 6.41,2.31 9.34,4.07 2.83,2.4 5.92,4.57 8.28,7.48 1.83,2.03 3.3,4.33 4.74,6.64 0.02,0.3 0.07,0.9 0.09,1.2 1.2,1.64 1.92,3.77 3.84,4.74 l 0.18,0.7 c 4.28,-0.04 8.56,-0.06 12.85,-0.12 l 0.03,-0.81 c 6.64,0.26 13.28,-0.19 19.93,-0.01 l 0.08,0.89 c 0.63,0.05 1.89,0.16 2.52,0.21 3.56,1.73 6.31,4.53 9.16,7.2 1.45,2.03 2.74,4.2 4.49,6 -1.01,-0.57 -2.04,-1.12 -3.07,-1.64 l -0.08,-0.59 c -1.88,-0.84 -3.69,-1.82 -5.41,-2.94 -0.56,-0.1 -1.67,-0.28 -2.23,-0.37 -3.3,-1.79 -7.27,-0.85 -10.87,-1.08 -4.95,0.36 -10.08,-0.35 -14.9,0.96 -7.52,0.22 -15.08,0.83 -22.6,0.16 l -0.05,-0.74 c -5.13,-0.63 -7.27,-5.73 -9.15,-9.84 -2.77,-6.1 -5.89,-12.84 -12.19,-15.98 -3.28,-1.05 -6.82,-0.31 -10.2,-0.64 -4.57,-0.96 -9.28,-0.25 -13.91,-0.46 -10.61,0.25 -21.28,-0.5 -31.85,0.39 -3.39,0.41 -6.72,1.15 -10.08,1.75 1.31,-1.28 2.67,-2.52 4.06,-3.71 1.99,-1.15 4,-2.37 6.3,-2.78 z"
         id="path4" />
      <path
         fill="#ffffff"
         opacity="1"
         d="m 699.01,133.33 c 8.02,-1.44 16.27,-0.4 24.38,-0.63 0.14,0.46 0.42,1.39 0.56,1.85 -1.65,0.02 -3.32,0.03 -4.88,0.63 -4.28,0.47 -8.87,-0.53 -12.93,1.13 -1.8,0.25 -3.6,0.41 -5.39,0.55 -0.6,-1.17 -1.18,-2.34 -1.74,-3.53 z"
         id="path6" />
      <path
         fill="#ffffff"
         opacity="1"
         d="m 670.82,139.29 c 8.29,-1.4 16.72,-0.85 25.04,-1.94 0.6,0.75 1.2,1.51 1.8,2.27 0.3,0.45 0.9,1.34 1.2,1.79 -9.47,1.68 -19.3,0.14 -28.77,1.74 -3.45,0.23 -6.92,0.27 -10.36,0.54 -0.13,1.25 -0.25,2.51 -0.36,3.76 l -0.94,0.1 0.11,1.35 c -8.41,-1.75 -16.99,-2.47 -25.41,-4.08 -2.88,-0.28 -5.78,-0.37 -8.66,-0.35 l 0.04,-0.81 c -7.88,0.15 -15.63,-1.61 -23.52,-1.34 -13.54,-1 -27.12,-0.67 -40.68,-0.64 0.04,-0.57 0.13,-1.71 0.18,-2.28 1.19,-0.08 2.38,-0.16 3.58,-0.25 0.91,-0.39 1.87,-0.59 2.87,-0.61 13.35,-0.07 26.72,-0.39 40.07,0 3.29,0.14 6.7,-0.43 9.89,0.64 2.84,0.21 5.72,-0.01 8.55,0.41 6.37,1.63 13.02,1.09 19.51,2.02 8.67,0.25 17.21,-1.88 25.86,-2.32 z"
         id="path8" />
      <path
         fill="#ffffff"
         opacity="1"
         d="m 490.46,143.5 c 6.67,0.06 13.35,-0.33 20.03,-0.28 0.54,1.77 1.08,3.55 1.6,5.34 -4.42,0.05 -8.85,0 -13.2,0.82 -9.35,0.07 -18.64,1.14 -27.97,1.49 -3.11,0.7 -6.32,0.56 -9.48,0.63 l 0.08,0.85 c -9.21,0.01 -18.37,1.35 -27.44,2.77 -2.18,0.24 -4.36,0.4 -6.54,0.48 l -0.04,0.8 c -1.93,0.06 -3.85,0.16 -5.77,0.25 -0.46,-1.28 -0.94,-2.55 -1.41,-3.81 -0.82,-0.88 -0.82,-2.12 -1.08,-3.21 2.22,-0.1 4.48,-0.1 6.62,-0.81 2.84,-0.27 5.7,-0.38 8.55,-0.42 l 0.08,-0.79 c 3.54,-0.05 7.08,-0.19 10.61,-0.45 8.51,-1.38 17.29,-1.07 25.81,-2.32 6.53,-0.2 13.06,-0.59 19.59,-0.49 z"
         id="path10" />
      <path
         fill="#ffffff"
         opacity="1"
         d="m 1071.96,223.17 c 3.45,1.06 5.59,4.36 7.89,6.94 2.5,2.82 1.92,6.78 1.65,10.23 -0.33,0.11 -1,0.33 -1.33,0.44 -6.89,2.26 -14.1,3.16 -21.2,4.44 -24.8,4.69 -49.87,7.8 -74.93,10.64 -7.82,1.01 -15.8,0.78 -23.49,2.61 -7.36,1.27 -14.9,1.1 -22.31,1.75 -7.76,-1.06 -15.44,1.04 -23.19,0.79 -8.37,-0.22 -16.7,1.01 -25.06,0.82 -1.86,-0.09 -3.67,0.25 -5.44,0.68 -13.59,0.53 -27.25,0.18 -40.85,-0.32 1.96,-0.84 4.14,-0.43 6.22,-0.54 5.76,0.04 11.52,-0.45 17.28,-0.12 8.94,0.36 17.87,-0.48 26.78,-1.12 10.46,0.25 20.79,-1.67 31.25,-1.5 7.45,-1.01 15.13,-0.3 22.43,-2.27 2.66,-0.46 5.38,-0.44 8.08,-0.41 5.43,0.55 10.75,-0.93 16.15,-1.18 11.42,-0.85 22.81,-2.08 34.13,-3.81 8.57,-0.85 17.11,-1.98 25.57,-3.63 13.97,-1.82 27.77,-4.7 41.59,-7.42 -0.43,-0.07 -1.28,-0.2 -1.71,-0.27 l -0.39,-0.06 c 2.49,-0.72 5.71,-0.4 7.53,-2.55 0.61,-2.26 -0.32,-4.42 -1.29,-6.39 -1.46,-2 -2.71,-4.13 -4.01,-6.22 -0.34,-0.38 -1.01,-1.14 -1.35,-1.53 z"
         id="path12" />
      <path
         fill="#ffffff"
         opacity="1"
         d="m 1010.58,273.67 c 6.9,-2.51 14.25,-3.95 21.6,-2.91 3.11,0.75 6.23,1.51 9.16,2.83 2.04,1.27 4.06,2.6 5.86,4.22 0.99,1.35 2.1,2.6 3.26,3.82 0.1,0.9 0.22,1.8 0.35,2.71 -0.32,-1.32 -0.94,-2.42 -1.85,-3.31 -0.92,-0.85 -1.8,-1.72 -2.65,-2.59 l -0.98,0.29 0.17,-1.02 c -2.84,-0.78 -5.4,-2.36 -8.3,-2.92 -7.53,-1.19 -15.48,-0.69 -22.35,2.83 -3.44,2.39 -6.66,5.28 -8.32,9.22 -0.46,2.72 -0.56,5.53 0.38,8.17 1.56,3.07 4.25,5.28 6.96,7.33 8.43,3.93 18.53,4.37 27.08,0.56 4.09,-1.54 7.35,-4.65 9.85,-8.16 2.81,-0.31 5.54,-1.09 8.31,-1.68 4.13,-0.96 8.26,-2.01 12.45,-2.72 l -0.05,-0.64 c 5.11,-0.45 9.87,-2.6 14.93,-3.4 l 0.1,-0.63 c 2.53,0.11 4.55,-1.67 5.15,-4.06 l 0.19,-0.01 c 0.22,-0.01 0.65,-0.03 0.87,-0.04 -0.06,-3.69 -0.19,-7.38 -0.38,-11.06 0.52,-0.03 1.56,-0.09 2.08,-0.12 1.24,4.37 3.31,9.01 1.64,13.56 -1.14,2.92 -4.11,4.22 -6.8,5.32 -4.49,1.5 -8.98,3 -13.5,4.37 -3.81,1.59 -8,2.03 -11.87,3.42 -0.78,0.15 -2.32,0.45 -3.1,0.6 -1.42,1.03 -3.31,0.76 -4.92,1.14 -3.68,1.38 -7.68,1.62 -11.45,2.67 l 0.15,0.84 c -1.96,1.09 -3.87,2.26 -5.8,3.4 -7.5,3.2 -16,3.64 -23.89,1.76 -7.77,-0.53 -15.45,1.62 -23.19,2.13 -3.86,1.42 -8.13,0.76 -12.17,1.04 l -0.11,0.79 c -10.17,0.28 -20.25,2.06 -30.43,2.24 -1.63,0.04 -3.25,0.13 -4.77,0.68 -2.78,0.25 -5.58,0.23 -8.34,0.42 -1.85,0.85 -3.9,0.62 -5.85,0.73 -7.26,0.05 -14.46,1.25 -21.72,1.16 -0.62,-0.29 -1.87,-0.85 -2.49,-1.13 4.32,-0.35 8.82,-0.04 12.88,-1.84 8.54,-0.91 17.1,-1.99 25.69,-2.31 l 0.17,-0.75 c 10.99,-0.31 21.86,-2.68 32.85,-3.25 l 0.19,-0.71 c 9.12,-0.35 18.08,-2.54 27.19,-3.3 -0.96,-2.56 -3.35,-4.2 -4.68,-6.56 -1.35,-4.03 -1.53,-8.79 0.02,-12.76 2.17,-4.28 5.9,-7.87 10.33,-9.77 z"
         id="path14" />
      <path
         fill="#ffffff"
         opacity="1"
         d="m 13.96,289.97 c 2.48,-4.41 5.81,-9.38 11.19,-10.26 4.89,-0.81 9.22,2.42 12.23,5.92 6.69,7.86 10.31,17.74 13.48,27.42 4.89,15.55 7.32,31.77 8.77,47.96 0.28,14.33 0.46,28.68 -0.14,43 -1.08,8.37 -2.21,16.8 -4.65,24.9 -1.73,5.96 -4.08,11.85 -7.84,16.85 -2.36,3.11 -6.03,5.44 -10.01,5.52 -5.22,-0.73 -9.43,-4.61 -12.03,-9.01 C 13.27,422.94 8.61,400.31 6.07,378.13 5.54,373.42 5.5,368.66 4.47,364.02 2.95,351.85 4.01,339.6 4.61,327.41 6.16,314.64 8.1,301.59 13.96,289.97 m 28.61,17.49 c -0.05,1.65 -0.12,3.3 -0.17,4.96 l -0.74,0.15 c -0.47,5.48 -1.85,10.85 -2.12,16.36 -2.21,18 -1.06,36.26 1.76,54.14 0.28,1.27 0.09,2.77 1.04,3.82 0.1,1.19 0.17,2.38 0.23,3.58 l 0.74,0.1 c 0.56,5.75 2.58,11.23 4.48,16.65 0.71,1.92 1.45,3.83 2.31,5.68 0.86,2.12 1.5,4.5 3.57,5.78 l -0.29,-2.03 0.95,-0.28 c 0.04,-1.85 0.15,-3.69 0.35,-5.52 1.35,-2.75 0.68,-5.98 1.17,-8.92 1.22,-5.24 0.45,-10.66 1.03,-15.96 0.49,-4 0.43,-8.04 -0.04,-12.04 -0.4,-4.99 -0.06,-10.02 -0.69,-15 -0.45,-5.47 -1.5,-10.87 -1.78,-16.35 l -0.69,-0.19 c -0.13,-4.63 -1.31,-9.14 -2.32,-13.64 -0.93,-1.45 -0.84,-3.25 -1.13,-4.88 -1.49,-3.96 -2.38,-8.13 -4.06,-12.03 -0.68,-1.47 -1.25,-3 -1.76,-4.53 -0.46,0.04 -1.38,0.11 -1.84,0.15 z"
         id="path16" />
      <path
         fill="#ffffff"
         opacity="1"
         d="m 414.19,366.15 c 6.01,-2.21 12.48,-2.06 18.79,-1.86 3.39,0.12 6.81,0.63 9.99,1.88 1.17,0.17 2.34,0.34 3.53,0.5 l 0.04,0.73 c 3.08,0.7 5.78,2.44 8.82,3.29 l 0.19,0.59 c 11.07,5.72 20.56,14.18 28.63,23.6 6.5,7.3 11.99,15.41 17.15,23.69 1.36,2.36 2.65,4.75 3.98,7.12 1.22,2.17 2.54,4.32 3.28,6.72 l 0.69,0.22 c 1.07,3.68 3.11,6.96 4.6,10.47 1.05,2.39 2.03,4.82 2.73,7.34 l 0.64,0.08 c 0.23,1.14 0.55,2.26 0.97,3.36 1.12,2.44 1.91,5.01 2.46,7.63 l 0.74,0.01 c 0.06,0.66 0.19,1.96 0.25,2.62 1.61,3.23 2.51,6.76 3.06,10.31 l 0.59,0.06 c 0.79,4.77 2.68,9.29 3.24,14.11 h 0.69 c 0.71,6.87 2.58,13.58 3.47,20.45 1.03,3.02 0.76,6.27 0.88,9.41 l 0.8,0.1 c 0,3.78 0.22,7.56 0.72,11.31 0.75,11 0.65,22.05 0.29,33.07 -0.4,4.8 -0.99,9.59 -1.02,14.41 l -0.8,0.15 c -0.08,2.94 -0.25,5.87 -0.33,8.82 l -0.8,0.03 c -0.08,0.67 -0.24,2.02 -0.31,2.7 -0.46,1.93 -0.78,3.89 -1.2,5.84 -0.56,2.4 -1.14,4.8 -1.76,7.2 -1.7,4.47 -2.4,9.36 -4.6,13.66 -0.94,2.84 -2.09,5.6 -3.42,8.28 -1.29,2.16 -2.19,4.52 -3.37,6.73 -1.83,2.57 -3.28,5.39 -5.02,8.02 -1.2,1.46 -2.4,2.92 -3.54,4.43 -5.12,6.22 -11.21,12.17 -18.68,15.4 l -0.2,0.59 c -3.52,1.39 -6.96,3.11 -10.78,3.47 l -0.12,0.75 c -7.3,0.5 -14.63,0.48 -21.93,-0.02 l -0.1,-0.72 c -2.95,-0.44 -5.84,-1.23 -8.59,-2.36 -1.25,-0.53 -2.51,-0.99 -3.68,-1.65 -2.99,-1.1 -5.61,-2.9 -8.33,-4.49 -13.8,-8.47 -24.46,-20.92 -34.05,-33.74 -2.21,-3.83 -4.78,-7.43 -7.08,-11.2 -1.39,-2.37 -2.47,-4.92 -4.16,-7.1 -0.05,-0.28 -0.16,-0.85 -0.22,-1.13 -1.62,-2.03 -2.46,-4.51 -3.65,-6.77 -0.55,-1.09 -1.1,-2.18 -1.62,-3.27 -0.68,-1.73 -1.41,-3.44 -2.51,-4.93 -0.01,-0.29 -0.02,-0.85 -0.03,-1.14 -0.81,-1.16 -1.34,-2.47 -1.82,-3.78 -0.76,-2.11 -1.59,-4.19 -2.37,-6.29 -1.79,-2.98 -2.22,-6.5 -3.52,-9.68 -1.7,-3.92 -2.44,-8.16 -4.03,-12.1 -0.14,-1.21 -0.26,-2.42 -0.35,-3.61 -0.19,0.01 -0.56,0.04 -0.74,0.06 -1.02,-5.37 -2.47,-10.66 -3.31,-16.07 l -0.65,-0.03 c -0.72,-6.13 -1.76,-12.24 -2.93,-18.29 -0.17,-7.43 -1.88,-14.71 -1.57,-22.16 -0.15,-13.48 -0.19,-26.97 0.38,-40.44 l 0.82,-0.04 c -0.49,-7.83 2.7,-15.17 3.31,-22.89 l 0.77,-0.04 c 0.05,-0.66 0.16,-1.99 0.21,-2.66 1.6,-3.44 1.86,-7.33 3.51,-10.76 1.17,-3.17 2.46,-6.3 3.42,-9.54 l 0.74,-0.21 c 0.62,-2.81 2.42,-5.13 3.25,-7.87 l 0.93,-0.15 c -0.01,-0.36 -0.03,-1.08 -0.05,-1.44 4.07,-5.66 7.52,-11.95 12.71,-16.7 3.43,-3.73 7.5,-6.72 11.67,-9.57 2.4,-1.15 4.76,-2.39 7.19,-3.47 0.98,-0.51 2.01,-0.86 3.11,-1.04 m 5.52,28.62 c -0.97,1.64 -1.96,3.29 -3,4.89 -3.4,5.24 -6.41,10.85 -8.35,16.8 l -0.63,0.06 c -0.18,1.18 -0.52,2.31 -1.01,3.39 -0.65,1.99 -1.2,4.01 -1.96,5.96 -0.08,0.64 -0.25,1.94 -0.34,2.59 l -0.81,0.1 c -0.09,1.18 -0.2,2.37 -0.31,3.56 -1.74,5.59 -2.73,11.47 -2.92,17.32 l -0.79,0.12 c -0.28,11.48 -0.58,22.97 -0.19,34.46 -0.15,5.41 1.29,10.69 1.44,16.09 1.07,4.85 1.12,9.89 2.43,14.68 0.36,1.95 0.1,4.12 1.12,5.91 1.19,4 1.29,8.33 2.87,12.2 0.18,1.48 0.33,2.98 0.46,4.48 l 0.73,0.06 c 0.79,4.42 2.46,8.61 3.27,13.02 l 0.71,0.06 c 0.09,0.65 0.26,1.94 0.35,2.58 1.23,2.58 1.99,5.35 2.94,8.05 0.64,1.17 1.13,2.41 1.63,3.66 0.87,2.4 1.58,4.91 3,7.06 0.96,2.57 2.47,4.91 3.29,7.55 l 0.65,0.21 c 1.98,5.05 5.13,9.55 7.95,14.17 6.86,10.5 15.29,20 24.99,27.96 2.23,1.76 4.41,3.6 6.9,5.02 2.15,1.64 4.49,3.02 6.81,4.43 2.48,1.18 4.77,2.81 7.49,3.44 l 0.18,0.67 c 3.31,1.03 6.41,2.66 9.83,3.38 l 0.1,0.71 c 0.65,0.08 1.95,0.23 2.6,0.31 2.8,1.22 5.82,1.86 8.88,1.94 4.76,-6.33 9.32,-12.82 13.45,-19.56 0.04,-0.29 0.13,-0.87 0.17,-1.16 1.35,-1.82 2.15,-3.96 3.19,-5.96 0.57,-1.21 0.9,-2.51 1.47,-3.71 1.25,-2.26 1.93,-4.76 2.93,-7.13 1.17,-2.96 1.9,-6.07 2.93,-9.08 0.08,-0.66 0.25,-1.98 0.33,-2.64 l 0.82,0.01 c 0.1,-1.52 0.22,-3.04 0.4,-4.54 2.36,-7.38 2.42,-15.24 3.71,-22.83 0.31,-11.09 0.4,-22.19 -0.06,-33.27 -1.05,-3.13 -0.53,-6.5 -0.92,-9.72 -0.92,-7.4 -1.57,-14.85 -3.24,-22.13 -4.28,-16.18 -9.03,-32.32 -15.3,-47.86 -0.61,-1.41 -1.2,-2.81 -1.73,-4.23 -1.07,-2.38 -2.17,-4.74 -2.92,-7.23 l -0.63,-0.2 c -0.77,-2.18 -1.71,-4.29 -2.7,-6.37 -2.76,-5.26 -5.68,-10.41 -8.64,-15.55 l -0.53,-0.23 c -1.13,-2.98 -3.45,-5.28 -5.12,-7.94 C 480,399.85 471,390.07 459.88,383.27 c -1.55,-1.16 -3.2,-2.16 -4.91,-3.03 -0.52,-0.26 -1.56,-0.76 -2.08,-1.01 -1.96,-1.1 -4,-2.03 -6.07,-2.88 -2.25,-0.85 -4.52,-2.1 -6.98,-1.91 -7.68,5.76 -14.28,12.75 -20.13,20.33 z"
         id="path18" />
      <path
         fill="#ffffff"
         opacity="1"
         d="m 797.86,521.83 c 1.58,-0.16 2.95,-0.91 4.38,-1.51 l 0.67,0.23 c 1.85,0.87 3.86,1.4 5.88,1.76 -17.49,1.94 -31.84,17.49 -33.96,34.69 -0.98,8.53 1.7,18.14 8.96,23.3 6.87,5.16 16.41,5.39 24.18,2.23 16.96,-6.45 29.19,-25.58 24.94,-43.75 -1.82,-7.42 -7.66,-13.87 -15.2,-15.64 2.89,-2.14 6.44,-0.19 9.57,0.22 1.79,0.47 3.39,1.46 5.03,2.33 3.91,2.28 7.21,5.44 10.02,8.98 1,1.68 2,3.37 2.92,5.11 0.16,1.09 0.55,2.11 1.16,3.04 0.93,5.18 0.24,10.42 0.02,15.63 l -0.84,0.07 c -0.08,0.65 -0.23,1.95 -0.3,2.6 -0.43,0.95 -0.83,1.92 -1.2,2.9 -0.6,1.69 -1.41,3.3 -2.33,4.85 -3.25,5.22 -7.7,9.64 -12.52,13.43 -5.11,3.37 -10.65,6.34 -16.75,7.37 l 0.01,0.68 c -6.42,0.52 -13.03,2.39 -19.39,0.44 -1.72,-0.25 -3.54,-0.05 -5.07,-0.97 -3.4,-0.72 -6.83,-1.5 -9.92,-3.14 -0.64,-0.08 -1.92,-0.23 -2.56,-0.31 l -0.04,-0.78 c -2.77,-0.77 -5.17,-2.43 -7.91,-3.26 l -0.24,-0.7 c -3.33,-1.01 -6.02,-3.3 -8.98,-5.01 -3.57,-2.27 -7.58,-4.58 -9.2,-8.73 -0.55,-1.28 -1.02,-2.61 -1.48,-3.91 -0.45,-3.74 -0.41,-8.06 2.34,-10.98 6.63,-6.7 13.15,-13.57 20.73,-19.24 2.4,-1.55 4.73,-3.22 7.26,-4.56 2.11,-1.46 4.53,-2.34 6.82,-3.48 4.19,-1.75 8.6,-2.8 13,-3.89 z"
         id="path20" />
      <path
         fill="#ffffff"
         opacity="1"
         d="m 784.18,541.06 c 1.2,-0.84 2.68,-0.81 4.1,-0.89 2.56,4.17 1.43,9.35 1.1,13.95 -0.6,0.91 -1.02,1.9 -1.27,2.97 -0.75,1.57 -1.52,3.14 -2.33,4.69 -2.12,2.44 -3.35,6.32 -6.89,6.96 -0.23,-1.92 -0.5,-3.83 -1.1,-5.66 -0.22,-2.74 -0.18,-5.49 -0.03,-8.22 0.9,-5.11 2.63,-10.1 6.42,-13.8 z"
         id="path22" />
    </g>
    <g
       id="#a7a9acff">
      <path
         fill="#a7a9ac"
         opacity="1"
         d="m 314.6,0 h 8.61 c -2.74,0.5 -5.46,1.12 -8.23,1.41 -65.73,7.05 -131.31,16.19 -195.97,30.13 -6.46,0.89 -12.16,4.17 -18.22,6.35 7.53,-5.71 17.18,-7.26 26.22,-9.04 59.42,-12.61 119.68,-20.86 180,-27.66 2.57,-0.14 5.12,-0.47 7.59,-1.19 z"
         id="path25" />
      <path
         fill="#a7a9ac"
         opacity="1"
         d="m 200.9,127.25 c 3.45,-13.94 5.41,-28.3 10.13,-41.89 -0.29,6.38 -2.93,12.43 -4.05,18.7 -1.91,10.37 -4.91,20.51 -6.33,30.97 -1.74,7.79 -2.55,15.72 -4.08,23.53 -3.53,1.18 -7.04,-0.42 -10.6,-0.34 -8,-0.14 -16.03,0.23 -24.01,-0.58 -4.34,-0.06 -8.62,-1.17 -12.98,-0.71 -10.01,0.23 -20.03,-0.43 -30.01,-1.21 -9.32,-0.2 -18.67,-0.12 -27.96,-0.77 -0.38,-0.31 -1.13,-0.92 -1.5,-1.23 3.8,0.13 7.61,0.01 11.41,0.37 17.34,1.3 34.76,0.92 52.08,2.33 7.67,0.16 15.34,0.06 22.99,0.57 6.64,0.82 13.34,0.81 20.02,0.8 0.95,-10.28 3.35,-20.35 4.89,-30.54 z"
         id="path27" />
      <path
         fill="#a7a9ac"
         opacity="1"
         d="m 679.95,137.56 c 5.57,-1.01 11.22,-0.9 16.85,-1.11 0.33,1.04 0.62,2.1 0.86,3.17 -0.6,-0.76 -1.2,-1.52 -1.8,-2.27 -8.32,1.09 -16.75,0.54 -25.04,1.94 -8.65,0.44 -17.19,2.57 -25.86,2.32 -6.49,-0.93 -13.14,-0.39 -19.51,-2.02 8.55,-1.24 16.97,1.9 25.53,0.94 9.61,-1.37 19.25,-2.7 28.97,-2.97 z"
         id="path29" />
      <path
         fill="#a7a9ac"
         opacity="1"
         d="m 1065.81,211.76 c 2.04,1.89 3.36,4.36 4.26,6.97 -15.57,3.07 -31.37,4.73 -47.07,6.96 -7.48,0.71 -14.96,2.21 -22.48,1.81 7.5,-1.37 15.13,-1.93 22.69,-2.96 15.25,-1.58 30.33,-4.46 45.56,-6.17 -1.05,-2.18 -2.05,-4.37 -2.96,-6.61 z"
         id="path31" />
      <path
         fill="#a7a9ac"
         opacity="1"
         d="m 563.58,220.02 c 16.21,1.12 32.29,3.5 48.51,4.34 6.99,0.89 14.06,0.86 21.01,2.05 5.68,0.3 11.37,0.47 17,1.36 10.33,0.2 20.57,1.65 30.91,1.8 8.89,1.37 17.91,0.84 26.82,2 6.39,0.72 12.84,0.08 19.25,0.67 14.27,1.69 28.7,0.43 42.99,2.12 14.63,0.39 29.27,0.34 43.91,0.4 11.63,0.95 23.31,0.38 34.97,0.55 16.99,-1.13 34.06,-0.25 51.07,-0.99 7.96,-0.89 15.98,-1.14 23.99,-1.15 6.37,0.04 12.65,-1.43 19.04,-1.22 7.42,0.35 14.71,-1.76 22.14,-1.16 -0.87,0.82 -1.89,1.48 -3.12,1.35 -6.37,0.28 -12.78,-0.05 -19.08,0.98 -22.29,1.29 -44.61,2.04 -66.91,2.59 -29.03,1.04 -58.1,0.55 -87.15,0.34 -10.54,-1.53 -21.2,-0.42 -31.77,-1.37 -12.73,-0.42 -25.42,-1.14 -38.15,-1.47 -8.87,-1.41 -17.91,-0.26 -26.76,-1.85 -11.43,-0.32 -22.81,-1.56 -34.23,-2.01 -4.66,-0.44 -9.29,-1.18 -13.98,-1.04 -18.66,-1.98 -37.44,-2.9 -56.07,-5.08 -7.59,-0.41 -15.12,-1.57 -22.72,-1.91 0.14,1.34 0.28,2.69 0.41,4.04 -0.86,-1.72 -1.56,-3.5 -2.08,-5.34 z"
         id="path33" />
      <path
         fill="#a7a9ac"
         opacity="1"
         d="m 972.27,254.04 c 31.74,-2.95 63.38,-7.3 94.63,-13.69 1.5,-0.37 3.02,-0.51 4.57,-0.43 0.43,0.07 1.28,0.2 1.71,0.27 -13.82,2.72 -27.62,5.6 -41.59,7.42 -8.46,1.65 -17,2.78 -25.57,3.63 -11.32,1.73 -22.71,2.96 -34.13,3.81 -5.4,0.25 -10.72,1.73 -16.15,1.18 5.24,-2.07 11.08,-1.06 16.53,-2.19 z"
         id="path35" />
      <path
         fill="#a7a9ac"
         opacity="1"
         d="m 1058.97,245.22 c 7.1,-1.28 14.31,-2.18 21.2,-4.44 -0.59,1.8 -2.51,1.91 -4.03,2.26 -33.08,6.68 -66.56,11.33 -100.11,14.58 -5.16,0.25 -10.31,1.68 -15.48,0.85 7.69,-1.83 15.67,-1.6 23.49,-2.61 25.06,-2.84 50.13,-5.95 74.93,-10.64 z"
         id="path37" />
      <path
         fill="#a7a9ac"
         opacity="1"
         d="m 934.99,257.19 c 4.22,-0.23 8.44,-1.25 12.67,-0.55 -7.3,1.97 -14.98,1.26 -22.43,2.27 -10.46,-0.17 -20.79,1.75 -31.25,1.5 -8.91,0.64 -17.84,1.48 -26.78,1.12 l 0.07,-0.88 c 10.61,-0.33 21.23,-0.74 31.83,-1.26 6.68,-1.2 13.51,-0.25 20.2,-1.28 5.19,-0.8 10.46,-0.49 15.69,-0.92 z"
         id="path39" />
      <path
         fill="#a7a9ac"
         opacity="1"
         d="m 915.05,261.01 c 7.75,0.25 15.43,-1.85 23.19,-0.79 -8.62,1.99 -17.52,0.85 -26.23,1.99 -9.14,0.24 -18.33,1.11 -27.46,0.3 1.77,-0.43 3.58,-0.77 5.44,-0.68 8.36,0.19 16.69,-1.04 25.06,-0.82 z"
         id="path41" />
      <path
         fill="#a7a9ac"
         opacity="1"
         d="m 1091.4,263.73 c 1.3,2.07 2.37,4.29 3.05,6.65 -0.52,0.03 -1.56,0.09 -2.08,0.12 0.19,3.68 0.32,7.37 0.38,11.06 -0.22,0.01 -0.65,0.03 -0.87,0.04 0.68,-5.99 -1.56,-12 -0.48,-17.87 z"
         id="path43" />
      <path
         fill="#a7a9ac"
         opacity="1"
         d="m 900.97,314.73 c 5.93,-0.11 11.82,-1.48 17.75,-1.05 -4.06,1.8 -8.56,1.49 -12.88,1.84 0.62,0.28 1.87,0.84 2.49,1.13 l 0.97,0.45 c -12.13,0.16 -24.18,2.09 -36.33,1.55 -1.79,0 -3.82,-0.37 -5.25,1 -0.66,-0.71 -1.31,-1.43 -1.94,-2.14 5.77,-0.54 11.6,-0.34 17.35,-1.12 5.9,-1.04 11.95,-0.42 17.84,-1.66 z"
         id="path45" />
      <path
         fill="#a7a9ac"
         opacity="1"
         d="m 2.24,365.96 c -0.08,-9.87 -1.82,-19.94 0.25,-29.68 1.1,10.28 -0.06,20.57 0.51,30.87 0.37,-0.78 1.1,-2.35 1.47,-3.13 1.03,4.64 1.07,9.4 1.6,14.11 2.54,22.18 7.2,44.81 18.89,64.14 -0.49,0.42 -1.49,1.25 -1.99,1.67 C 12.06,426.77 7.03,406.5 4.18,386.55 3.51,379.69 2.11,372.88 2.24,365.96 Z"
         id="path47" />
      <path
         fill="#a7a9ac"
         opacity="1"
         d="m 802.91,520.55 c 8.05,-0.6 17.11,-1.46 24.37,2.81 -3.13,-0.41 -6.68,-2.36 -9.57,-0.22 -2.98,-0.27 -5.96,-0.53 -8.92,-0.83 -2.02,-0.36 -4.03,-0.89 -5.88,-1.76 z"
         id="path51" />
    </g>
    <g
       id="#231f20ff">
      <path
         fill="#231f20"
         opacity="1"
         d="m 323.21,0 h 56.7 c 4.6,0.77 9.31,0.2 13.92,1.03 8.06,0.66 16.17,0.22 24.24,0.76 6.57,1.12 13.27,0.52 19.87,1.48 14.37,0.4 28.67,1.98 43.04,2.54 0.75,0.14 2.26,0.43 3.02,0.58 14.02,0.87 28,2.38 42.01,3.45 11.96,1.55 24.04,2.54 36.04,3.98 2.94,0.68 5.96,0.8 8.94,1.32 8.4,0.96 16.75,2.26 25.07,3.73 4.31,1.08 8.77,1.69 12.85,3.56 28.38,12.09 55.61,26.75 81.82,42.99 35.33,21.81 68.83,46.38 102.96,69.99 3.29,2.15 6.27,5.11 10.29,5.78 5.71,0.93 11.45,1.69 17.18,2.58 18.87,3.12 37.87,5.51 56.79,8.4 17.7,2.52 35.41,4.98 53.04,7.95 23.47,3.6 46.83,7.85 70.06,12.77 5.97,1.39 12.01,2.47 17.95,4.03 11.9,3.15 24.72,4.73 35,12.05 9.57,6.55 15.5,16.8 21.3,26.55 5.28,8.43 9.88,17.28 13.87,26.4 1.36,3.37 2.69,6.74 3.94,10.16 3.27,8.77 5.76,17.8 8,26.89 1.76,7.67 3.41,15.38 4.62,23.16 13.29,10.53 20.41,26.75 24.15,42.9 0.4,1.33 0.74,2.67 1.14,4.01 0.68,3.64 1.32,7.3 2.18,10.9 1.41,10.42 -1.23,20.78 -2.31,31.1 -0.34,6.65 -2.27,13.21 -1.46,19.91 1.82,12.31 1.41,24.85 0.91,37.25 -1.67,11.44 -3.14,23.52 -9.69,33.39 -2.2,3.8 -6.48,5.3 -10.15,7.24 -9.18,4.76 -18.41,9.43 -27.5,14.35 -1.84,4.74 -4.36,9.28 -7.92,12.95 -13.29,14.46 -31.76,22.32 -49.04,30.85 -10.05,4.67 -20.1,9.36 -30.05,14.24 -6.58,3.54 -13.67,5.95 -20.55,8.83 -20.6,8.19 -41.65,15.17 -62.71,22.07 -4.01,1.28 -8.37,2.1 -11.64,4.92 -4.51,3.82 -8.35,8.35 -12.54,12.52 -2.14,2.08 -4.13,4.61 -7.1,5.51 -29.92,8.53 -60.32,15.49 -91.12,19.94 -25.29,3.97 -50.83,5.96 -76.36,7.35 -20.05,0.27 -40.1,0.67 -60.13,0.09 -1.98,-4.05 -4.11,-8.02 -6.05,-12.08 -1.73,-3.59 -2.35,-8.05 -5.96,-10.35 -6.5,-4.53 -14.91,-6.99 -22.74,-5.31 -9.96,14.45 -18.84,29.81 -31.01,42.61 -5.15,5.21 -10.48,10.39 -16.94,13.97 -6.07,3.67 -13.23,4.53 -20.06,5.89 -11.06,1.77 -22.11,3.65 -33.26,4.82 -8.93,0.74 -17.9,2.23 -26.87,1.2 -6.81,-0.92 -13.29,-3.26 -19.88,-5.09 -7.11,-2.06 -13.7,-5.47 -20.61,-8.04 -14.65,-7.79 -27.92,-18.2 -38.75,-30.78 -11.78,-13.55 -21.17,-29.06 -28.54,-45.4 -2.32,-5.27 -4.63,-10.54 -6.58,-15.95 -9.67,-26.15 -15.74,-53.55 -19.4,-81.15 -35.31,-15.13 -70.65,-30.21 -105.96,-45.34 -41.45,-17.63 -82.77,-35.63 -124.33,-53.01 -0.52,10.73 -3.39,21.17 -6.68,31.34 -3.71,9.89 -7.65,20.32 -15.65,27.61 -10.24,1.29 -20.26,3.87 -30.54,4.93 -7.14,0.72 -14.35,3.12 -21.53,1.45 -5.25,-0.72 -10.12,-2.84 -15.04,-4.67 -6.14,-3.65 -10.66,-9.24 -14.49,-15.16 0.5,-0.42 1.5,-1.25 1.99,-1.67 2.6,4.4 6.81,8.28 12.03,9.01 3.98,-0.08 7.65,-2.41 10.01,-5.52 3.76,-5 6.11,-10.89 7.84,-16.85 2.44,-8.1 3.57,-16.53 4.65,-24.9 0.6,-14.32 0.42,-28.67 0.14,-43 -1.45,-16.19 -3.88,-32.41 -8.77,-47.96 -3.17,-9.68 -6.79,-19.56 -13.48,-27.42 -3.01,-3.5 -7.34,-6.73 -12.23,-5.92 -5.38,0.88 -8.71,5.85 -11.19,10.26 -5.86,11.62 -7.8,24.67 -9.35,37.44 -0.6,12.19 -1.66,24.44 -0.14,36.61 -0.37,0.78 -1.1,2.35 -1.47,3.13 -0.57,-10.3 0.59,-20.59 -0.51,-30.87 0.17,-6.07 0.09,-12.15 0.99,-18.17 1.31,-10.1 -1.16,-20.1 -1.14,-30.19 -0.25,-18.32 -1.19,-36.99 3.65,-54.86 1.18,-3.95 2.18,-7.98 2.3,-12.13 0.18,-7.02 1.15,-13.99 1.51,-21 1.42,-8.64 2.07,-17.43 4.32,-25.92 1.17,-4.37 2.28,-8.78 4.01,-12.97 1.43,-3.66 2.99,-7.28 5.04,-10.64 14.47,-26.86 28.51,-53.98 44.41,-80.04 7.51,-13.85 20.07,-24.2 33.21,-32.47 6.06,-2.18 11.76,-5.46 18.22,-6.35 C 183.67,17.6 249.25,8.46 314.98,1.41 317.75,1.12 320.47,0.5 323.21,0 m -5.96,14.19 c -10.69,1.06 -21.45,1.79 -32.12,2.97 -7.13,0.11 -14.11,1.52 -21.23,1.63 -8.17,1.41 -16.63,1.34 -24.89,2.53 -5.74,0.02 -11.3,1.52 -17.05,1.45 -5.9,1.22 -12.07,1.38 -18.09,2.06 -3.06,0.68 -6.19,0.68 -9.3,0.78 l -0.12,0.79 c -3.39,0.11 -6.8,0.13 -10.17,0.59 -2.32,1.02 -4.93,0.95 -7.38,1.32 -4.15,0.24 -8.2,1.35 -12.36,1.3 l -0.06,0.82 c -2.73,0.06 -5.51,0.01 -8.16,0.78 -5.96,1.43 -12.18,1.55 -18.08,3.17 -1.22,0.1 -2.43,0.2 -3.65,0.27 l -0.15,0.72 c -4.95,0.31 -9.76,1.59 -14.64,2.4 -1.65,0.71 -3.46,0.78 -5.21,0.97 l -0.04,0.69 c -2.62,0.5 -5.12,1.43 -7.46,2.69 -9.31,3.98 -17.21,10.54 -24.49,17.46 -3.49,3.96 -7.51,7.5 -10.16,12.15 2.58,-0.44 5.13,-1.05 7.69,-1.6 5.76,-1.74 11.91,-1.99 17.66,-3.59 0.97,-0.04 2.92,-0.11 3.89,-0.14 0.6,4.94 -4.23,7.98 -6.32,11.98 -1.3,2 -2.65,3.98 -4.04,5.92 -1.33,2.04 -2.69,4.07 -4.02,6.12 -1.39,2.17 -2.85,4.3 -4.17,6.51 -2.63,4.18 -5.5,8.2 -7.81,12.56 l -0.59,0.18 c -1,2.53 -2.59,4.76 -4.06,7.03 -1.09,1.89 -2.22,3.76 -3.33,5.64 -1.42,2.19 -2.93,4.35 -4.04,6.73 -4.94,6.71 -7.51,15.76 -15.23,19.98 -6.1,2.51 -12.89,0.74 -19.29,1.38 -0.64,1.23 -1.39,2.41 -2.24,3.52 -0.03,0.28 -0.09,0.85 -0.12,1.13 -1.74,2.02 -2.33,4.69 -3.85,6.85 -0.02,0.3 -0.05,0.9 -0.06,1.2 -0.76,1.15 -1.33,2.41 -1.81,3.71 -0.52,2.06 -1.08,4.13 -2.02,6.05 -0.06,0.66 -0.17,1.97 -0.23,2.63 l -0.78,0.01 c -0.14,1.54 -0.3,3.06 -0.5,4.59 -1.53,6.67 -2.75,13.51 -2.74,20.38 l -0.83,-0.01 c 0.04,4.53 -0.26,9.05 -0.47,13.58 -0.78,3.6 -0.85,7.41 -2.43,10.81 -0.05,0.66 -0.16,2 -0.21,2.67 l -0.77,0.05 c -0.09,4.16 -1.32,8.17 -1.69,12.3 -0.84,5.29 -0.47,10.67 -1.34,15.95 0.04,2.24 -0.62,4.98 0.85,6.88 -0.03,-3.21 1.1,-6.18 2.1,-9.17 l 0.59,-0.22 c 1.96,-5.63 6.96,-10.03 12.7,-11.52 2.95,-0.06 5.54,1.8 8.23,2.82 6.91,4.32 11.37,11.3 15.31,18.23 0,0.38 0,1.13 0,1.5 l 0.93,0.15 c 0.83,2.98 2.39,5.69 3.32,8.64 0.45,0.97 0.83,1.97 1.16,3 0.97,2.65 1.87,5.32 2.74,8.01 1.67,3.74 1.99,7.95 3.65,11.71 0.06,0.66 0.18,1.99 0.24,2.66 l 0.75,0.04 c 0.23,1.46 0.51,2.92 0.87,4.37 0.63,2.33 1.17,4.71 2.1,6.95 0.15,1.19 0.29,2.39 0.41,3.59 l 0.7,-0.05 c 0.6,3.56 1.67,7.03 2.93,10.41 0.07,0.66 0.22,1.97 0.29,2.62 l 0.85,0.08 c 0.08,0.66 0.22,1.97 0.29,2.63 1.13,2.68 2.07,5.44 2.86,8.25 l 0.7,0.21 c 0.26,2.5 2.74,3.52 4.81,4.23 1.01,0.3 2.03,0.61 3.04,0.92 0.99,0.42 2,0.77 3.03,1.06 3.08,1 6.13,2.11 9.3,2.82 l 0.1,0.72 c 0.65,0.08 1.94,0.25 2.59,0.33 1.95,0.8 3.95,1.45 5.94,2.13 1.12,0.32 2.25,0.6 3.39,0.83 l 0.09,0.72 c 0.65,0.07 1.93,0.23 2.58,0.31 2.21,0.89 4.46,1.68 6.71,2.48 1.04,0.24 2.05,0.59 3.02,1.05 2.97,1.05 6.02,1.88 8.99,2.94 1.04,0.25 2.04,0.61 3.02,1.06 2.97,1.05 6.01,1.9 8.98,2.93 1.04,0.26 2.05,0.61 3.03,1.07 2.96,1.05 5.98,1.91 8.96,2.92 1.04,0.28 2.05,0.63 3.03,1.07 3.95,1.48 8.09,2.41 11.99,4.01 3.96,1.45 8.09,2.41 12.01,4 3.96,1.44 8.07,2.44 12,3.97 1,0.33 2,0.66 3,1.01 2.97,1.08 6.07,1.76 8.99,3 1.01,0.31 2.02,0.64 3.02,1.01 2.97,1.06 6.06,1.75 8.98,2.99 1.01,0.3 2.01,0.63 3,1.01 2.98,1.07 6.08,1.75 9,2.99 1.01,0.29 2.02,0.63 3.01,1.01 2.97,1.07 6.06,1.77 8.99,2.99 3.41,1.22 6.83,2.42 10.31,3.46 3.95,1.47 7.96,2.76 11.99,3.99 7.96,2.78 15.98,5.42 24,8.02 7.97,2.75 15.97,5.41 23.99,7.99 4.23,1.58 8.57,2.84 12.82,4.36 6.13,1.68 12.1,3.95 16.89,8.26 0.39,0.1 1.15,0.29 1.53,0.39 0.22,-0.64 0.65,-1.91 0.86,-2.54 0.13,-4.22 0.29,-8.43 0.36,-12.63 l 0.76,-0.05 c 0.06,-2.86 0.21,-5.72 0.5,-8.56 1.07,-4.88 1.05,-9.98 2.39,-14.78 0.12,-1.22 0.24,-2.44 0.33,-3.65 l 0.78,0.04 c 0.1,-1.56 0.23,-3.12 0.4,-4.67 1.02,-2.88 1.15,-6.02 2.47,-8.78 0.14,-1.2 0.27,-2.4 0.39,-3.59 l 0.69,0.04 c 0.74,-4.3 2.42,-8.36 3.91,-12.43 1.17,-2.84 2.65,-5.57 3.38,-8.57 l 0.63,-0.11 c 0.72,-2.21 1.85,-4.25 3.03,-6.23 8.14,-14.9 20.47,-27.98 36.17,-34.9 l 0.18,-0.65 c 3.64,-0.98 7.02,-2.84 10.78,-3.4 l 0.04,-0.66 c 5.9,-0.89 11.58,-3.13 17.6,-3.21 4.95,-0.15 10.06,-0.56 14.87,0.83 5.46,0.7 10.73,2.33 15.95,4.01 2.5,0.59 4.94,1.42 7.28,2.48 1.21,0.61 2.46,1.11 3.73,1.63 2.33,0.9 4.71,1.73 6.93,2.91 2.3,1.48 4.86,2.49 7.15,4 2.93,1 5.3,3.06 7.88,4.7 19.63,12.6 36.06,29.67 49.9,48.33 1,1.32 2.02,2.62 3.04,3.94 6.13,8.69 11.9,17.63 17.33,26.78 1.32,2.94 3.49,5.42 4.57,8.48 l 0.61,0.18 c 0.68,2.78 2.76,4.95 3.44,7.74 l 0.63,0.18 c 0.62,1.97 1.68,3.76 2.8,5.49 1.45,3.47 3.48,6.69 4.52,10.33 l 0.71,0.22 c 0.72,2.67 2.23,5.02 3.28,7.57 2.08,3.81 3.46,7.94 5.25,11.89 1.29,2.56 1.81,5.49 3.58,7.8 0.01,0.3 0.04,0.9 0.06,1.2 1.44,2.18 1.93,4.82 3.06,7.18 1.6,3.53 2.62,7.31 4.12,10.9 0.38,0.98 0.76,1.98 1.13,2.98 0.71,1.64 1.35,3.3 1.9,5.01 0.33,1 0.68,2 1.04,3 0.4,0.97 0.74,1.97 1.03,3 2.03,5.45 3.95,10.95 5.67,16.51 2.87,0.89 5.9,0.94 8.89,0.98 l 0.16,0.82 c 3.1,0 6.22,0.06 9.27,0.71 8.39,0.99 16.84,1.29 25.25,2.15 5.61,0.46 11.31,-0.16 16.85,1.02 13.16,0.38 26.33,0.44 39.49,0.32 l 0.15,0.81 c 5.42,-0.48 11.02,0.68 16.32,-0.68 16.54,-0.03 33.07,-0.31 49.6,-0.3 l 0.09,-0.87 c 8.5,0.13 17,-0.15 25.5,-0.39 8.91,-1.08 17.94,-0.33 26.86,-1.34 5.03,-0.22 10.06,-0.36 15.1,-0.46 1.27,-0.08 2.71,0.12 3.85,-0.67 1.18,-0.15 2.38,-0.27 3.59,-0.37 l 0.02,-0.72 c 4.14,-0.83 8.05,-3.19 10.32,-6.81 2.86,-4.72 6.16,-9.15 9.36,-13.64 6.51,-8.41 13.72,-16.32 22.06,-22.96 2.24,-1.8 4.56,-3.49 7,-5.02 3.88,-2.6 7.8,-5.26 12.18,-6.96 l 0.11,-0.59 c 1.47,-0.2 3.1,-0.03 4.39,-0.93 1.06,-0.21 2.14,-0.41 3.22,-0.59 2.88,-0.95 5.96,-1.22 8.76,-2.44 1.17,-0.12 2.35,-0.22 3.55,-0.3 l 0.12,-0.74 c 4.17,-0.6 8.31,-1.6 12.32,-2.89 1.05,-0.17 2.1,-0.33 3.17,-0.5 3.81,-1.61 8.06,-1.98 12.05,-3.08 1.31,-0.42 2.67,-0.69 4.05,-0.93 4.13,-1.47 8.55,-1.98 12.72,-3.39 1.29,-0.29 2.6,-0.6 3.85,-1.1 1.12,-0.22 2.26,-0.44 3.42,-0.65 2.87,-0.91 5.89,-1.31 8.75,-2.33 0.57,-0.1 1.73,-0.29 2.3,-0.38 4,-1.77 8.55,-2.03 12.68,-3.53 5.86,-1.52 11.66,-3.34 17.61,-4.55 l 0.1,-0.6 c 8.24,-1.78 16.33,-4.33 24.33,-6.94 0.66,-0.09 1.97,-0.26 2.63,-0.35 l -0.02,-0.74 c 4.46,-0.6 8.49,-2.81 12.95,-3.42 l 0.04,-0.6 c 3.16,-0.82 6.35,-1.65 9.38,-2.91 0.64,-0.11 1.92,-0.31 2.56,-0.41 l 0.1,-0.7 c 2.85,-0.67 5.58,-1.74 8.33,-2.76 1.05,-0.22 2.04,-0.61 2.97,-1.16 1.02,-0.29 2.04,-0.62 3.06,-1 2.45,-0.95 4.97,-1.74 7.52,-2.42 l 0.15,-0.6 c 3.4,-0.77 6.48,-2.48 9.87,-3.34 l 0.07,-0.63 c 1.14,-0.21 2.27,-0.54 3.37,-0.99 3.11,-1.3 6.25,-2.53 9.48,-3.52 l 0.18,-0.6 c 2.25,-0.7 4.42,-1.61 6.69,-2.27 0.26,-0.34 0.76,-1.02 1.02,-1.36 1.13,-4.7 1.5,-9.55 1.29,-14.36 0.31,1.8 0.62,3.62 0.92,5.44 -1.09,-7.35 2.56,-14.69 0.37,-21.91 -0.31,-3.13 -1.14,-6.16 -1.72,-9.23 -0.97,-4.14 -2.07,-8.24 -2.84,-12.41 l -0.73,-0.03 c -0.07,-0.64 -0.21,-1.93 -0.28,-2.57 -1.51,-2.81 -1.86,-6.09 -3.58,-8.8 -1,-2.79 -2.4,-5.4 -3.99,-7.89 -3.25,-5.61 -7.46,-10.76 -12.6,-14.72 -1.77,-0.32 -3.41,0.61 -5.06,1 0.38,0.76 0.78,1.51 1.2,2.27 2.28,3.53 3.63,8.81 0.37,12.18 -0.04,0.29 -0.1,0.88 -0.13,1.17 -1.33,1.72 -3.66,3.52 -2.92,5.97 0.8,1.65 1.83,3.18 2.89,4.69 0.05,0.84 0.16,2.53 0.21,3.37 -3.2,0.71 -5.89,2.72 -9.03,3.59 l -0.16,0.57 c -3.33,0.76 -6.37,2.38 -9.62,3.37 -3.09,1.61 -6.69,1.88 -9.77,3.53 -1.19,0.15 -2.36,0.3 -3.52,0.44 l -0.02,0.68 c -3.51,0.87 -7.05,1.64 -10.45,2.87 -1.2,0.15 -2.4,0.29 -3.58,0.41 v 0.71 c -5.4,0.8 -10.55,2.91 -16.01,3.33 l -0.01,0.65 c -4.48,0.83 -8.94,1.8 -13.39,2.75 -6.29,1.63 -12.73,2.5 -19.02,4.07 -2.28,0.32 -4.64,0.27 -6.78,1.15 -6.89,1.29 -13.77,2.89 -20.77,3.34 l 0.01,0.8 c -1.56,0.06 -3.13,0.15 -4.65,0.31 -6.71,1.34 -13.58,2.41 -20.41,2.87 v 0.8 c -6.25,0.22 -12.66,1.18 -18.37,3.8 -5.21,2.04 -8.73,6.51 -12.58,10.33 -1.53,1.54 -2.15,3.91 -4.36,4.7 1.8,0.42 2.94,-1.44 3.49,-2.89 l 0.89,0.35 -0.24,-1.34 1.09,0.05 c 0.33,-0.41 0.98,-1.23 1.3,-1.64 2.93,-2.12 5.54,-4.71 8.95,-6.16 1.38,-0.61 2.77,-1.21 4.18,-1.8 3.13,-0.85 6.32,-1.67 9.61,-1.45 l 0.06,-0.76 c 1.87,-0.08 3.74,-0.24 5.61,-0.44 6.83,-1.37 13.86,-1.73 20.59,-3.49 1.47,-0.21 2.94,-0.38 4.44,-0.54 3.85,-1.09 7.92,-1.18 11.76,-2.37 1.83,-0.22 3.7,-0.36 5.57,-0.44 l -0.04,-0.72 c 6.45,-0.59 12.68,-2.67 19.13,-3.19 0.01,-0.19 0.01,-0.58 0.01,-0.77 1.52,-0.13 3.03,-0.28 4.58,-0.44 3.2,-1.04 6.6,-1.33 9.82,-2.35 2.77,-0.28 5.48,-0.93 8.12,-1.81 4.14,-0.94 8.27,-1.94 12.46,-2.68 l 0.06,-0.6 c 4.19,-0.6 8.34,-1.63 12.37,-2.96 1.16,-0.17 2.34,-0.31 3.54,-0.44 l 0.02,-0.68 c 3.53,-0.67 7.01,-1.62 10.37,-2.9 0.66,-0.07 1.99,-0.21 2.66,-0.28 -0.01,-0.19 -0.01,-0.59 -0.02,-0.79 2.95,-0.47 5.76,-1.49 8.56,-2.5 1.11,-0.33 2.24,-0.63 3.39,-0.91 l 0.03,-0.62 c 2.55,-0.65 5.03,-1.6 7.41,-2.76 1.44,-0.69 2.93,-1.3 4.48,-1.75 0.55,4.03 1.05,8.08 0.83,12.17 -0.67,0.06 -2,0.19 -2.67,0.25 l -0.14,0.74 c -3.44,0.66 -6.53,2.38 -9.85,3.38 l -0.14,0.67 c -2.79,0.74 -5.1,2.6 -7.91,3.26 l -0.11,0.69 c -2.97,0.79 -5.72,2.2 -8.57,3.31 -1.1,0.83 -2.48,1.12 -3.72,1.6 -1.7,0.55 -3.37,1.2 -5.03,1.82 -1.06,0.24 -2.04,0.64 -2.94,1.19 -1.03,0.32 -2.04,0.66 -3.03,1 -2.78,1.1 -5.63,2.12 -8.61,2.47 v 0.73 c -0.66,0.07 -1.98,0.2 -2.63,0.27 -3.36,1.34 -6.88,2.19 -10.4,2.95 v 0.64 c -5.75,0.59 -11.2,2.8 -16.95,3.38 l -0.11,0.71 c -1.2,0.07 -2.39,0.16 -3.57,0.28 -5.3,1.46 -10.86,2.26 -16.32,2.97 l -0.09,0.75 c -1.98,0.05 -3.95,0.14 -5.91,0.18 l -0.13,0.79 c -4.49,0.1 -8.9,1.05 -13.32,1.77 -2.17,0.26 -4.34,0.43 -6.51,0.5 l -0.14,0.76 c -4.56,-0.25 -8.96,1.14 -13.48,1.39 -7.21,1.1 -14.6,1.21 -21.73,2.54 -1.57,0.12 -3.15,0.19 -4.69,0.26 l -0.08,0.76 c -5.1,0 -10,1.54 -15.01,2.19 l -0.03,0.77 c -3.52,0.06 -7.06,0.4 -10.56,-0.02 -4.54,-1.28 -8.63,-3.85 -12.17,-6.92 -4.59,-6.17 -8.86,-12.59 -13.45,-18.76 -5.39,-6.83 -10.38,-14.2 -17.36,-19.54 -5.78,-2.21 -11.93,-0.61 -17.9,-0.98 -14.35,0.45 -28.73,0.45 -43.08,-0.09 -6.24,-0.79 -12.64,0.01 -18.81,-1.19 -3.62,-0.57 -7.45,0.17 -10.89,-1.22 -1.44,-0.12 -2.89,-0.24 -4.31,-0.38 -4.18,-1.18 -8.67,-0.86 -12.78,-2.4 -1.56,-0.18 -3.09,-0.31 -4.63,-0.43 v -0.8 c -1.2,-0.1 -2.4,-0.22 -3.59,-0.34 -4.57,-1.58 -9.27,-2.79 -13.77,-4.57 -2.32,-1.12 -4.99,-1.54 -7,-3.18 -0.3,-0.04 -0.88,-0.11 -1.17,-0.15 -2.29,-1.54 -4.86,-2.59 -7.17,-4.07 -1.81,-1.11 -3.66,-2.16 -5.33,-3.45 -7.1,-4.9 -13.06,-11.2 -18.58,-17.76 -7.26,-7.18 -15.2,-13.82 -24.18,-18.75 -2.56,-1.6 -5.24,-3.05 -8.11,-3.98 l -0.2,-0.64 c -2.5,-0.74 -4.84,-1.89 -7.27,-2.8 -1.03,-0.33 -2.02,-0.72 -2.98,-1.16 -4.11,-1.44 -8.29,-2.75 -12.58,-3.46 l -0.07,-0.7 c -1.22,-0.1 -2.44,-0.2 -3.64,-0.32 -4.69,-1.46 -9.64,-1.92 -14.45,-2.88 l 0.08,-0.7 c -1.55,-0.11 -3.1,-0.25 -4.62,-0.41 -4.3,-1.51 -8.84,-2.26 -13.04,-4.08 -2.37,-1.05 -4.8,-1.96 -7.24,-2.78 l -0.23,-0.67 c -9.65,-4.15 -16.65,-12.61 -21.62,-21.63 -0.96,-2 -1.91,-3.99 -2.9,-5.97 -1.43,-3.3 -2.76,-6.63 -3.97,-10.01 -0.39,-0.94 -0.77,-1.86 -1.2,-2.77 -0.13,-1.35 -0.27,-2.7 -0.41,-4.04 7.6,0.34 15.13,1.5 22.72,1.91 18.63,2.18 37.41,3.1 56.07,5.08 4.69,-0.14 9.32,0.6 13.98,1.04 11.42,0.45 22.8,1.69 34.23,2.01 8.85,1.59 17.89,0.44 26.76,1.85 12.73,0.33 25.42,1.05 38.15,1.47 10.57,0.95 21.23,-0.16 31.77,1.37 29.05,0.21 58.12,0.7 87.15,-0.34 22.3,-0.55 44.62,-1.3 66.91,-2.59 6.3,-1.03 12.71,-0.7 19.08,-0.98 1.23,0.13 2.25,-0.53 3.12,-1.35 6.74,0.21 13.36,-1.26 20.09,-1.38 4.37,-1.42 9.09,-0.48 13.55,-1.47 0.43,-0.11 1.27,-0.33 1.69,-0.44 7.52,0.4 15,-1.1 22.48,-1.81 15.7,-2.23 31.5,-3.89 47.07,-6.96 -0.9,-2.61 -2.22,-5.08 -4.26,-6.97 -0.13,-0.31 -0.4,-0.94 -0.53,-1.26 -6.25,-9.33 -14.64,-17.96 -25.69,-21.2 l -0.11,-0.72 c -0.65,-0.08 -1.95,-0.23 -2.59,-0.31 -4.09,-1.76 -8.67,-1.87 -12.76,-3.58 -1.09,-0.15 -2.16,-0.3 -3.23,-0.44 -3.13,-1.26 -6.55,-1.48 -9.79,-2.31 -1.18,-0.07 -2.22,-0.45 -3.11,-1.15 -1.72,-0.18 -3.43,-0.33 -5.13,-0.52 -4.96,-1.52 -10.15,-2.38 -15.3,-2.93 l -0.13,-0.78 c -1.65,-0.03 -3.29,-0.08 -4.91,-0.1 l -0.09,-0.79 c -5.69,-0.29 -11.18,-2.08 -16.87,-2.33 l -0.17,-0.72 c -1.96,-0.07 -3.91,-0.17 -5.84,-0.23 l -0.1,-0.78 c -6.49,-0.39 -12.95,-1.65 -19.32,-2.83 -4.15,-0.11 -8.12,-1.45 -12.25,-1.68 -4.91,-1.04 -10.01,-1.01 -14.85,-2.31 -2.17,-0.25 -4.34,-0.35 -6.51,-0.37 l -0.09,-0.8 c -2.52,-0.05 -5.02,-0.19 -7.51,-0.52 -14.75,-2 -29.48,-4.45 -44.32,-5.73 l -0.19,-0.71 c -3.36,-0.33 -7.02,0.35 -10.16,-1.08 -1.44,-0.17 -2.89,-0.29 -4.31,-0.43 -7.11,-1.08 -14.26,-2.24 -21.44,-2.75 l -0.01,-0.8 c -2.2,-0.03 -4.39,-0.15 -6.56,-0.45 -4.52,-1.31 -9.42,-0.87 -13.89,-2.36 -4.34,-0.62 -8.7,-0.09 -13.05,-0.18 -6.37,0.29 -12.81,-0.4 -19.11,0.76 -19.29,0.37 -38.62,0.08 -57.89,0.99 -20.33,0.01 -40.65,0.38 -60.96,0.51 -1.33,0.32 -2.66,0.48 -4,0.48 -10.52,-0.11 -21.03,0.24 -31.54,0.28 l 0.02,0.77 c -10.55,-0.19 -21.1,0.24 -31.65,0.39 -4.76,1.47 -9.94,0.33 -14.84,1.07 -5.27,0.82 -10.67,0.31 -15.9,1.29 -5.46,0.16 -10.78,1.44 -16.23,1.62 -6.39,1.05 -12.81,2.29 -19.26,2.96 l -0.06,0.78 c -0.68,0.04 -2.03,0.14 -2.71,0.18 -2.6,1 -5.33,1.62 -8.03,2.25 -3.77,0.54 -7.57,0.65 -11.36,0.69 l -0.03,0.8 c -2.87,0.02 -5.75,0.1 -8.62,0.34 -1.86,0.81 -3.92,0.67 -5.9,0.8 -7.5,0.59 -14.97,1.66 -22.49,1.94 l 0.08,0.82 c -3.88,0 -7.76,0.16 -11.63,0.44 -5.2,1.33 -10.79,1.09 -16.14,0.91 -3.59,-5.82 -7.78,-11.23 -11.53,-16.95 -3.84,-5.49 -7.53,-11.08 -11.46,-16.51 -1.34,-2.01 -2.65,-4.04 -4.04,-6.01 -1.57,-2.15 -3.05,-4.37 -4.52,-6.58 -3.98,-5.37 -7.51,-11.03 -11.44,-16.43 -1.34,-1.98 -2.68,-3.95 -4.11,-5.86 l -0.3,-0.72 c -8.35,-11.7 -16.29,-23.68 -24.6,-35.4 -1.47,-2.25 -3.02,-4.45 -4.53,-6.66 -5.98,-8.64 -11.94,-17.28 -17.89,-25.94 -1.53,-2.33 -3.53,-4.41 -4.36,-7.13 9.35,0.1 18.64,-0.8 27.98,-0.88 8.33,-0.41 16.72,0.15 25.01,-0.7 37,-0.63 74.02,-0.86 111.03,-0.09 8.6,0.98 17.32,0.19 25.9,1.32 3.42,0.23 6.84,0.22 10.26,0.47 5.44,1.5 11.35,0.42 16.96,1.18 6.91,1.13 14,1.18 20.98,2.06 5.7,0.52 11.34,1.48 17.05,1.92 6.04,1.5 12.46,1.1 18.51,2.73 -0.02,-0.44 -0.07,-1.32 -0.09,-1.75 -2.04,-0.09 -4.07,-0.21 -6.1,-0.26 l 0.11,-0.88 c -7.72,-0.91 -15.36,-2.59 -23.13,-3.17 l 0.01,-0.73 c -5.92,0.25 -11.66,-1.3 -17.53,-1.6 -10.44,-1.08 -20.87,-2.78 -31.39,-2.82 l 0.07,-0.81 c -2.58,0 -5.15,-0.12 -7.7,-0.32 -7.73,-0.94 -15.53,-1.62 -23.32,-1.79 l -0.15,-0.73 c -3.76,-0.04 -7.54,0.05 -11.27,-0.4 -5.27,-1.3 -10.77,-0.32 -16.06,-1.37 -5.69,-0.53 -11.42,-0.34 -17.09,-1.07 -4.6,-0.6 -9.4,0.28 -13.87,-1.01 -6.51,-0.18 -13.03,-0.39 -19.55,-0.4 l -0.04,-0.84 c -8.48,-0.04 -17.06,0.19 -25.47,-0.71 -18.36,-0.35 -36.72,-0.69 -55.08,-0.34 -2.01,-0.06 -4.01,0.11 -5.94,0.65 -3.61,0.34 -7.27,0.19 -10.81,1.04 m 381.76,119.14 c 0.56,1.19 1.14,2.36 1.74,3.53 1.79,-0.14 3.59,-0.3 5.39,-0.55 4.06,-1.66 8.65,-0.66 12.93,-1.13 1.56,-0.6 3.23,-0.61 4.88,-0.63 -0.14,-0.46 -0.42,-1.39 -0.56,-1.85 -8.11,0.23 -16.36,-0.81 -24.38,0.63 m -19.06,4.23 c -9.72,0.27 -19.36,1.6 -28.97,2.97 -8.56,0.96 -16.98,-2.18 -25.53,-0.94 -2.83,-0.42 -5.71,-0.2 -8.55,-0.41 -3.19,-1.07 -6.6,-0.5 -9.89,-0.64 -13.35,-0.39 -26.72,-0.07 -40.07,0 -1,0.02 -1.96,0.22 -2.87,0.61 -1.2,0.09 -2.39,0.17 -3.58,0.25 -0.05,0.57 -0.14,1.71 -0.18,2.28 13.56,-0.03 27.14,-0.36 40.68,0.64 7.89,-0.27 15.64,1.49 23.52,1.34 l -0.04,0.81 c 2.88,-0.02 5.78,0.07 8.66,0.35 8.42,1.61 17,2.33 25.41,4.08 l -0.11,-1.35 0.94,-0.1 c 0.11,-1.25 0.23,-2.51 0.36,-3.76 3.44,-0.27 6.91,-0.31 10.36,-0.54 9.47,-1.6 19.3,-0.06 28.77,-1.74 -0.3,-0.45 -0.9,-1.34 -1.2,-1.79 -0.24,-1.07 -0.53,-2.13 -0.86,-3.17 -5.63,0.21 -11.28,0.1 -16.85,1.11 m -189.49,5.94 0.04,0.85 c -6.53,-0.1 -13.06,0.29 -19.59,0.49 -8.52,1.25 -17.3,0.94 -25.81,2.32 -3.53,0.26 -7.07,0.4 -10.61,0.45 l -0.08,0.79 c -2.85,0.04 -5.71,0.15 -8.55,0.42 -2.14,0.71 -4.4,0.71 -6.62,0.81 0.26,1.09 0.26,2.33 1.08,3.21 0.47,1.26 0.95,2.53 1.41,3.81 1.92,-0.09 3.84,-0.19 5.77,-0.25 l 0.04,-0.8 c 2.18,-0.08 4.36,-0.24 6.54,-0.48 9.07,-1.42 18.23,-2.76 27.44,-2.77 l -0.08,-0.85 c 3.16,-0.07 6.37,0.07 9.48,-0.63 9.33,-0.35 18.62,-1.42 27.97,-1.49 4.35,-0.82 8.78,-0.77 13.2,-0.82 -0.52,-1.79 -1.06,-3.57 -1.6,-5.34 -6.68,-0.05 -13.36,0.34 -20.03,0.28 m 581.5,79.67 c 0.34,0.39 1.01,1.15 1.35,1.53 1.3,2.09 2.55,4.22 4.01,6.22 0.97,1.97 1.9,4.13 1.29,6.39 -1.82,2.15 -5.04,1.83 -7.53,2.55 l 0.39,0.06 c -1.55,-0.08 -3.07,0.06 -4.57,0.43 -31.25,6.39 -62.89,10.74 -94.63,13.69 -5.45,1.13 -11.29,0.12 -16.53,2.19 -2.7,-0.03 -5.42,-0.05 -8.08,0.41 -4.23,-0.7 -8.45,0.32 -12.67,0.55 -5.23,0.43 -10.5,0.12 -15.69,0.92 -6.69,1.03 -13.52,0.08 -20.2,1.28 -10.6,0.52 -21.22,0.93 -31.83,1.26 l -0.07,0.88 c -5.76,-0.33 -11.52,0.16 -17.28,0.12 -2.08,0.11 -4.26,-0.3 -6.22,0.54 13.6,0.5 27.26,0.85 40.85,0.32 9.13,0.81 18.32,-0.06 27.46,-0.3 8.71,-1.14 17.61,0 26.23,-1.99 7.41,-0.65 14.95,-0.48 22.31,-1.75 5.17,0.83 10.32,-0.6 15.48,-0.85 33.55,-3.25 67.03,-7.9 100.11,-14.58 1.52,-0.35 3.44,-0.46 4.03,-2.26 0.33,-0.11 1,-0.33 1.33,-0.44 0.27,-3.45 0.85,-7.41 -1.65,-10.23 -2.3,-2.58 -4.44,-5.88 -7.89,-6.94 m 19.44,40.56 c -1.08,5.87 1.16,11.88 0.48,17.87 l -0.19,0.01 c -0.6,2.39 -2.62,4.17 -5.15,4.06 l -0.1,0.63 c -5.06,0.8 -9.82,2.95 -14.93,3.4 l 0.05,0.64 c -4.19,0.71 -8.32,1.76 -12.45,2.72 -2.77,0.59 -5.5,1.37 -8.31,1.68 -2.5,3.51 -5.76,6.62 -9.85,8.16 -8.55,3.81 -18.65,3.37 -27.08,-0.56 -2.71,-2.05 -5.4,-4.26 -6.96,-7.33 -0.94,-2.64 -0.84,-5.45 -0.38,-8.17 1.66,-3.94 4.88,-6.83 8.32,-9.22 6.87,-3.52 14.82,-4.02 22.35,-2.83 2.9,0.56 5.46,2.14 8.3,2.92 l -0.17,1.02 0.98,-0.29 c 0.85,0.87 1.73,1.74 2.65,2.59 0.91,0.89 1.53,1.99 1.85,3.31 -0.13,-0.91 -0.25,-1.81 -0.35,-2.71 -1.16,-1.22 -2.27,-2.47 -3.26,-3.82 -1.8,-1.62 -3.82,-2.95 -5.86,-4.22 -2.93,-1.32 -6.05,-2.08 -9.16,-2.83 -7.35,-1.04 -14.7,0.4 -21.6,2.91 l -0.1,0.6 c -4.43,1.9 -8.16,5.49 -10.33,9.77 -1.55,3.97 -1.37,8.73 -0.02,12.76 1.33,2.36 3.72,4 4.68,6.56 -9.11,0.76 -18.07,2.95 -27.19,3.3 l -0.19,0.71 c -10.99,0.57 -21.86,2.94 -32.85,3.25 l -0.17,0.75 c -8.59,0.32 -17.15,1.4 -25.69,2.31 -5.93,-0.43 -11.82,0.94 -17.75,1.05 -5.89,1.24 -11.94,0.62 -17.84,1.66 -5.75,0.78 -11.58,0.58 -17.35,1.12 0.63,0.71 1.28,1.43 1.94,2.14 1.43,-1.37 3.46,-1 5.25,-1 12.15,0.54 24.2,-1.39 36.33,-1.55 l -0.97,-0.45 c 7.26,0.09 14.46,-1.11 21.72,-1.16 1.95,-0.11 4,0.12 5.85,-0.73 2.76,-0.19 5.56,-0.17 8.34,-0.42 1.52,-0.55 3.14,-0.64 4.77,-0.68 10.18,-0.18 20.26,-1.96 30.43,-2.24 l 0.11,-0.79 c 4.04,-0.28 8.31,0.38 12.17,-1.04 7.74,-0.51 15.42,-2.66 23.19,-2.13 7.89,1.88 16.39,1.44 23.89,-1.76 1.93,-1.14 3.84,-2.31 5.8,-3.4 l -0.15,-0.84 c 3.77,-1.05 7.77,-1.29 11.45,-2.67 1.61,-0.38 3.5,-0.11 4.92,-1.14 0.78,-0.15 2.32,-0.45 3.1,-0.6 3.87,-1.39 8.06,-1.83 11.87,-3.42 4.52,-1.37 9.01,-2.87 13.5,-4.37 2.69,-1.1 5.66,-2.4 6.8,-5.32 1.67,-4.55 -0.4,-9.19 -1.64,-13.56 -0.68,-2.36 -1.75,-4.58 -3.05,-6.65 M 414.19,366.15 c -1.1,0.18 -2.13,0.53 -3.11,1.04 -2.43,1.08 -4.79,2.32 -7.19,3.47 -4.17,2.85 -8.24,5.84 -11.67,9.57 -5.19,4.75 -8.64,11.04 -12.71,16.7 0.02,0.36 0.04,1.08 0.05,1.44 l -0.93,0.15 c -0.83,2.74 -2.63,5.06 -3.25,7.87 l -0.74,0.21 c -0.96,3.24 -2.25,6.37 -3.42,9.54 -1.65,3.43 -1.91,7.32 -3.51,10.76 -0.05,0.67 -0.16,2 -0.21,2.66 l -0.77,0.04 c -0.61,7.72 -3.8,15.06 -3.31,22.89 l -0.82,0.04 c -0.57,13.47 -0.53,26.96 -0.38,40.44 -0.31,7.45 1.4,14.73 1.57,22.16 1.17,6.05 2.21,12.16 2.93,18.29 l 0.65,0.03 c 0.84,5.41 2.29,10.7 3.31,16.07 0.18,-0.02 0.55,-0.05 0.74,-0.06 0.09,1.19 0.21,2.4 0.35,3.61 1.59,3.94 2.33,8.18 4.03,12.1 1.3,3.18 1.73,6.7 3.52,9.68 0.78,2.1 1.61,4.18 2.37,6.29 0.48,1.31 1.01,2.62 1.82,3.78 0.01,0.29 0.02,0.85 0.03,1.14 1.1,1.49 1.83,3.2 2.51,4.93 0.52,1.09 1.07,2.18 1.62,3.27 1.19,2.26 2.03,4.74 3.65,6.77 0.06,0.28 0.17,0.85 0.22,1.13 1.69,2.18 2.77,4.73 4.16,7.1 2.3,3.77 4.87,7.37 7.08,11.2 9.59,12.82 20.25,25.27 34.05,33.74 2.72,1.59 5.34,3.39 8.33,4.49 1.17,0.66 2.43,1.12 3.68,1.65 2.75,1.13 5.64,1.92 8.59,2.36 l 0.1,0.72 c 7.3,0.5 14.63,0.52 21.93,0.02 l 0.12,-0.75 c 3.82,-0.36 7.26,-2.08 10.78,-3.47 l 0.2,-0.59 c 7.47,-3.23 13.56,-9.18 18.68,-15.4 1.14,-1.51 2.34,-2.97 3.54,-4.43 1.74,-2.63 3.19,-5.45 5.02,-8.02 1.18,-2.21 2.08,-4.57 3.37,-6.73 1.33,-2.68 2.48,-5.44 3.42,-8.28 2.2,-4.3 2.9,-9.19 4.6,-13.66 0.62,-2.4 1.2,-4.8 1.76,-7.2 0.42,-1.95 0.74,-3.91 1.2,-5.84 0.07,-0.68 0.23,-2.03 0.31,-2.7 l 0.8,-0.03 c 0.08,-2.95 0.25,-5.88 0.33,-8.82 l 0.8,-0.15 c 0.03,-4.82 0.62,-9.61 1.02,-14.41 0.36,-11.02 0.46,-22.07 -0.29,-33.07 -0.5,-3.75 -0.72,-7.53 -0.72,-11.31 l -0.8,-0.1 c -0.12,-3.14 0.15,-6.39 -0.88,-9.41 -0.89,-6.87 -2.76,-13.58 -3.47,-20.45 h -0.69 c -0.56,-4.82 -2.45,-9.34 -3.24,-14.11 l -0.59,-0.06 c -0.55,-3.55 -1.45,-7.08 -3.06,-10.31 -0.06,-0.66 -0.19,-1.96 -0.25,-2.62 l -0.74,-0.01 c -0.55,-2.62 -1.34,-5.19 -2.46,-7.63 -0.42,-1.1 -0.74,-2.22 -0.97,-3.36 l -0.64,-0.08 c -0.7,-2.52 -1.68,-4.95 -2.73,-7.34 -1.49,-3.51 -3.53,-6.79 -4.6,-10.47 l -0.69,-0.22 c -0.74,-2.4 -2.06,-4.55 -3.28,-6.72 -1.33,-2.37 -2.62,-4.76 -3.98,-7.12 -5.16,-8.28 -10.65,-16.39 -17.15,-23.69 -8.07,-9.42 -17.56,-17.88 -28.63,-23.6 l -0.19,-0.59 c -3.04,-0.85 -5.74,-2.59 -8.82,-3.29 l -0.04,-0.73 c -1.19,-0.16 -2.36,-0.33 -3.53,-0.5 -3.18,-1.25 -6.6,-1.76 -9.99,-1.88 -6.31,-0.2 -12.78,-0.35 -18.79,1.86 m 383.67,155.68 c -4.4,1.09 -8.81,2.14 -13,3.89 -2.29,1.14 -4.71,2.02 -6.82,3.48 -2.53,1.34 -4.86,3.01 -7.26,4.56 -7.58,5.67 -14.1,12.54 -20.73,19.24 -2.75,2.92 -2.79,7.24 -2.34,10.98 0.46,1.3 0.93,2.63 1.48,3.91 1.62,4.15 5.63,6.46 9.2,8.73 2.96,1.71 5.65,4 8.98,5.01 l 0.24,0.7 c 2.74,0.83 5.14,2.49 7.91,3.26 l 0.04,0.78 c 0.64,0.08 1.92,0.23 2.56,0.31 3.09,1.64 6.52,2.42 9.92,3.14 1.53,0.92 3.35,0.72 5.07,0.97 6.36,1.95 12.97,0.08 19.39,-0.44 l -0.01,-0.68 c 6.1,-1.03 11.64,-4 16.75,-7.37 4.82,-3.79 9.27,-8.21 12.52,-13.43 0.92,-1.55 1.73,-3.16 2.33,-4.85 0.37,-0.98 0.77,-1.95 1.2,-2.9 0.07,-0.65 0.22,-1.95 0.3,-2.6 l 0.84,-0.07 c 0.22,-5.21 0.91,-10.45 -0.02,-15.63 -0.61,-0.93 -1,-1.95 -1.16,-3.04 -0.92,-1.74 -1.92,-3.43 -2.92,-5.11 -2.81,-3.54 -6.11,-6.7 -10.02,-8.98 -1.64,-0.87 -3.24,-1.86 -5.03,-2.33 -7.26,-4.27 -16.32,-3.41 -24.37,-2.81 l -0.67,-0.23 c -1.43,0.6 -2.8,1.35 -4.38,1.51 z"
         id="path56" />
      <path
         fill="#231f20"
         opacity="1"
         d="m 315.57,22.6 c 1.66,-0.01 3.32,-0.12 4.98,0.03 2.22,3.14 4.53,6.22 6.74,9.36 0.34,0.82 0.92,1.48 1.58,2.04 1.67,2.61 3.54,5.08 5.34,7.61 4.18,5.92 8.47,11.76 12.58,17.73 1.48,2.12 2.95,4.25 4.48,6.33 3.98,5.71 7.91,11.45 11.96,17.11 1.32,1.91 2.61,3.84 3.99,5.71 8.14,11.69 16,23.57 24.04,35.33 1.28,1.99 2.64,3.92 4.02,5.86 2.62,4.04 5.37,8 7.95,12.08 1.28,2.04 2.6,4.06 4.01,6.04 4.23,6.43 8.47,12.86 12.68,19.31 0.88,0.81 0.64,2.05 0.77,3.11 -5.05,0.29 -10.01,1.51 -15.08,1.39 l -0.19,0.75 c -11.29,0.22 -22.57,0.31 -33.85,0.03 l -0.2,-0.8 c -5.81,0.36 -11.52,-0.94 -17.25,-1.68 -2.01,-0.4 -4.18,-0.21 -6,-1.26 -15.07,-0.5 -30.22,-1.07 -45.27,-0.05 -2.16,1.36 -4.61,2.11 -6.96,3.05 -1.42,1.04 -3.23,0.98 -4.89,1.09 -9.83,0.17 -19.65,-0.24 -29.47,-0.4 l -0.06,-0.78 c -7.57,0.08 -15.01,-1.58 -22.53,-2.14 -1.3,-0.06 -2.57,-0.3 -3.79,-0.74 -2.55,-0.26 -5.1,-0.38 -7.65,-0.39 l 0.04,-0.7 c -2.42,-0.14 -4.8,-0.95 -6.52,-2.7 -0.4,-1.38 -0.53,-2.81 -0.59,-4.23 -6.61,-1.63 -13.49,-0.89 -20.16,-2.13 0.06,-2.36 0.15,-4.72 0.21,-7.09 l 0.81,-0.13 c 0.07,-2.49 0.25,-4.97 0.56,-7.44 1.13,-4.19 1.11,-8.61 2.35,-12.78 0.47,-2.26 -0.11,-4.87 1.24,-6.86 0.09,-0.6 0.28,-1.8 0.38,-2.4 0.96,-5.66 2.58,-11.24 2.91,-16.98 0.22,1.07 0.44,2.14 0.67,3.22 0,-2.34 -0.01,-4.73 0.78,-6.96 0.63,-2.73 1.03,-5.52 2,-8.15 0.15,-1.18 0.29,-2.35 0.42,-3.53 l 0.76,0.06 c 0.12,-1.23 0.25,-2.45 0.4,-3.67 1.15,-3.63 1.96,-7.35 3,-11 0.63,-1.24 0.79,-2.63 1.11,-3.96 0.82,-2.57 1.36,-5.21 2.19,-7.77 1.59,-4.77 2.89,-9.63 4.54,-14.38 0.66,-1.19 0.91,-2.54 1.27,-3.84 1.1,-2.97 1.96,-6.02 2.88,-9.05 0.52,-0.3 1.55,-0.88 2.06,-1.18 2.2,-0.13 4.4,-0.23 6.61,-0.26 l 0.14,-0.79 c 6.4,-0.08 12.64,-1.82 19.03,-2.12 v -0.78 c 3.11,-0.23 6.45,0.32 9.37,-0.95 7.62,-0.95 15.37,-1.59 22.86,-3.1 1.85,-0.18 3.71,-0.25 5.57,-0.3 l 0.17,-0.77 c 2.17,-0.07 4.35,-0.21 6.52,-0.48 4.75,-0.8 9.54,-1.57 14.37,-1.77 l 0.12,-0.75 m -80.13,93.76 c -2.3,0.41 -4.31,1.63 -6.3,2.78 -1.39,1.19 -2.75,2.43 -4.06,3.71 3.36,-0.6 6.69,-1.34 10.08,-1.75 10.57,-0.89 21.24,-0.14 31.85,-0.39 4.63,0.21 9.34,-0.5 13.91,0.46 3.38,0.33 6.92,-0.41 10.2,0.64 6.3,3.14 9.42,9.88 12.19,15.98 1.88,4.11 4.02,9.21 9.15,9.84 l 0.05,0.74 c 7.52,0.67 15.08,0.06 22.6,-0.16 4.82,-1.31 9.95,-0.6 14.9,-0.96 3.6,0.23 7.57,-0.71 10.87,1.08 0.56,0.09 1.67,0.27 2.23,0.37 1.72,1.12 3.53,2.1 5.41,2.94 l 0.08,0.59 c 1.03,0.52 2.06,1.07 3.07,1.64 -1.75,-1.8 -3.04,-3.97 -4.49,-6 -2.85,-2.67 -5.6,-5.47 -9.16,-7.2 -0.63,-0.05 -1.89,-0.16 -2.52,-0.21 l -0.08,-0.89 c -6.65,-0.18 -13.29,0.27 -19.93,0.01 l -0.03,0.81 c -4.29,0.06 -8.57,0.08 -12.85,0.12 l -0.18,-0.7 c -1.92,-0.97 -2.64,-3.1 -3.84,-4.74 -0.02,-0.3 -0.07,-0.9 -0.09,-1.2 -1.44,-2.31 -2.91,-4.61 -4.74,-6.64 -2.36,-2.91 -5.45,-5.08 -8.28,-7.48 -2.93,-1.76 -6.13,-2.94 -9.34,-4.07 -4.38,-0.38 -8.78,-0.17 -13.17,-0.21 -15.8,0.25 -31.61,-0.49 -47.39,0.13 z"
         id="path58" />
      <path
         fill="#231f20"
         opacity="1"
         d="m 215.16,38.29 c 3.46,-1.03 7.02,-2.12 10.68,-1.89 -1.87,3.63 -2.67,7.64 -3.94,11.48 -1.34,4.34 -2.72,8.66 -4,13.02 -0.2,1.09 -0.58,2.11 -1.14,3.06 -0.22,1.03 -0.43,2.06 -0.62,3.1 -0.88,2.59 -1.43,5.28 -2.33,7.86 -0.11,0.56 -0.34,1.66 -0.46,2.21 -1.12,2.64 -1.37,5.54 -2.32,8.23 -4.72,13.59 -6.68,27.95 -10.13,41.89 -1.54,10.19 -3.94,20.26 -4.89,30.54 -6.68,0.01 -13.38,0.02 -20.02,-0.8 -7.65,-0.51 -15.32,-0.41 -22.99,-0.57 -17.32,-1.41 -34.74,-1.03 -52.08,-2.33 -3.8,-0.36 -7.61,-0.24 -11.41,-0.37 -0.98,-0.4 -1.63,-1.29 -2.43,-1.93 -1.34,-2.69 -2.04,-5.76 -1.07,-8.7 0.35,-2.15 0.91,-4.25 1.85,-6.21 0.82,-1.56 1.54,-3.18 2.22,-4.8 1.48,-3.51 3.48,-6.8 4.56,-10.48 l 0.97,-0.21 c -0.02,-0.37 -0.06,-1.11 -0.08,-1.48 1.81,-1.99 2.07,-4.89 3.94,-6.82 0.02,-0.3 0.05,-0.88 0.07,-1.18 1.7,-2.19 2.81,-4.74 4.15,-7.15 1.38,-2.31 2.59,-4.71 3.98,-7.01 1.44,-2.23 2.83,-4.5 4.17,-6.8 1.31,-2.04 2.67,-4.04 3.94,-6.11 6.24,-9.31 13,-18.27 20.22,-26.84 2.53,-2.85 6.26,-4.11 9.92,-4.68 3.53,-0.55 6.97,-1.65 10.53,-1.98 l 0.1,-0.73 c 1.5,-0.08 3.01,-0.19 4.52,-0.36 4.89,-1.49 9.98,-2.62 15.1,-2.98 -1.08,-0.23 -2.16,-0.47 -3.24,-0.7 2.06,0.04 4.12,-0.05 6.17,-0.3 4.68,-1.37 9.5,-2.53 14.38,-2.93 l -0.02,-0.77 c 1.22,-0.06 2.44,-0.14 3.65,-0.24 4.64,-1.99 10.03,-1.76 14.76,-3.6 1.09,-0.16 2.19,-0.3 3.29,-0.44 z"
         id="path60" />
      <path
         fill="#231f20"
         opacity="1"
         d="m 42.57,307.46 c 0.46,-0.04 1.38,-0.11 1.84,-0.15 0.51,1.53 1.08,3.06 1.76,4.53 1.68,3.9 2.57,8.07 4.06,12.03 0.29,1.63 0.2,3.43 1.13,4.88 1.01,4.5 2.19,9.01 2.32,13.64 l 0.69,0.19 c 0.28,5.48 1.33,10.88 1.78,16.35 0.63,4.98 0.29,10.01 0.69,15 0.47,4 0.53,8.04 0.04,12.04 -0.58,5.3 0.19,10.72 -1.03,15.96 -0.49,2.94 0.18,6.17 -1.17,8.92 -0.2,1.83 -0.31,3.67 -0.35,5.52 l -0.95,0.28 0.29,2.03 c -2.07,-1.28 -2.71,-3.66 -3.57,-5.78 -0.86,-1.85 -1.6,-3.76 -2.31,-5.68 -1.9,-5.42 -3.92,-10.9 -4.48,-16.65 l -0.74,-0.1 c -0.06,-1.2 -0.13,-2.39 -0.23,-3.58 -0.95,-1.05 -0.76,-2.55 -1.04,-3.82 -2.82,-17.88 -3.97,-36.14 -1.76,-54.14 0.27,-5.51 1.65,-10.88 2.12,-16.36 l 0.74,-0.15 c 0.05,-1.66 0.12,-3.31 0.17,-4.96 z"
         id="path62" />
      <path
         fill="#231f20"
         opacity="1"
         d="m 419.71,394.77 c 5.85,-7.58 12.45,-14.57 20.13,-20.33 2.46,-0.19 4.73,1.06 6.98,1.91 2.07,0.85 4.11,1.78 6.07,2.88 0.52,0.25 1.56,0.75 2.08,1.01 1.71,0.87 3.36,1.87 4.91,3.03 11.12,6.8 20.12,16.58 27.75,27.06 1.67,2.66 3.99,4.96 5.12,7.94 l 0.53,0.23 c 2.96,5.14 5.88,10.29 8.64,15.55 0.99,2.08 1.93,4.19 2.7,6.37 l 0.63,0.2 c 0.75,2.49 1.85,4.85 2.92,7.23 0.53,1.42 1.12,2.82 1.73,4.23 6.27,15.54 11.02,31.68 15.3,47.86 1.67,7.28 2.32,14.73 3.24,22.13 0.39,3.22 -0.13,6.59 0.92,9.72 0.46,11.08 0.37,22.18 0.06,33.27 -1.29,7.59 -1.35,15.45 -3.71,22.83 -0.18,1.5 -0.3,3.02 -0.4,4.54 l -0.82,-0.01 c -0.08,0.66 -0.25,1.98 -0.33,2.64 -1.03,3.01 -1.76,6.12 -2.93,9.08 -1,2.37 -1.68,4.87 -2.93,7.13 -0.57,1.2 -0.9,2.5 -1.47,3.71 -1.04,2 -1.84,4.14 -3.19,5.96 -0.04,0.29 -0.13,0.87 -0.17,1.16 -4.13,6.74 -8.69,13.23 -13.45,19.56 -3.06,-0.08 -6.08,-0.72 -8.88,-1.94 -0.65,-0.08 -1.95,-0.23 -2.6,-0.31 l -0.1,-0.71 c -3.42,-0.72 -6.52,-2.35 -9.83,-3.38 l -0.18,-0.67 c -2.72,-0.63 -5.01,-2.26 -7.49,-3.44 -2.32,-1.41 -4.66,-2.79 -6.81,-4.43 -2.49,-1.42 -4.67,-3.26 -6.9,-5.02 -9.7,-7.96 -18.13,-17.46 -24.99,-27.96 -2.82,-4.62 -5.97,-9.12 -7.95,-14.17 l -0.65,-0.21 c -0.82,-2.64 -2.33,-4.98 -3.29,-7.55 -1.42,-2.15 -2.13,-4.66 -3,-7.06 -0.5,-1.25 -0.99,-2.49 -1.63,-3.66 -0.95,-2.7 -1.71,-5.47 -2.94,-8.05 -0.09,-0.64 -0.26,-1.93 -0.35,-2.58 l -0.71,-0.06 c -0.81,-4.41 -2.48,-8.6 -3.27,-13.02 l -0.73,-0.06 c -0.13,-1.5 -0.28,-3 -0.46,-4.48 -1.58,-3.87 -1.68,-8.2 -2.87,-12.2 -1.02,-1.79 -0.76,-3.96 -1.12,-5.91 -1.31,-4.79 -1.36,-9.83 -2.43,-14.68 -0.15,-5.4 -1.59,-10.68 -1.44,-16.09 -0.39,-11.49 -0.09,-22.98 0.19,-34.46 l 0.79,-0.12 c 0.19,-5.85 1.18,-11.73 2.92,-17.32 0.11,-1.19 0.22,-2.38 0.31,-3.56 l 0.81,-0.1 c 0.09,-0.65 0.26,-1.95 0.34,-2.59 0.76,-1.95 1.31,-3.97 1.96,-5.96 0.49,-1.08 0.83,-2.21 1.01,-3.39 l 0.63,-0.06 c 1.94,-5.95 4.95,-11.56 8.35,-16.8 1.04,-1.6 2.03,-3.25 3,-4.89 z"
         id="path64" />
      <path
         fill="#231f20"
         opacity="1"
         d="m 774.83,557 c 2.12,-17.2 16.47,-32.75 33.96,-34.69 2.96,0.3 5.94,0.56 8.92,0.83 7.54,1.77 13.38,8.22 15.2,15.64 4.25,18.17 -7.98,37.3 -24.94,43.75 -7.77,3.16 -17.31,2.93 -24.18,-2.23 -7.26,-5.16 -9.94,-14.77 -8.96,-23.3 m 9.35,-15.94 c -3.79,3.7 -5.52,8.69 -6.42,13.8 -0.15,2.73 -0.19,5.48 0.03,8.22 0.6,1.83 0.87,3.74 1.1,5.66 3.54,-0.64 4.77,-4.52 6.89,-6.96 0.81,-1.55 1.58,-3.12 2.33,-4.69 0.25,-1.07 0.67,-2.06 1.27,-2.97 0.33,-4.6 1.46,-9.78 -1.1,-13.95 -1.42,0.08 -2.9,0.05 -4.1,0.89 z"
         id="path66" />
    </g>
  </g>
</svg>
