<svg width="113" height="73" viewBox="0 0 113 73" fill="none" xmlns="http://www.w3.org/2000/svg">
<g clip-path="url(#clip0_95_430)">
<g filter="url(#filter0_f_95_430)">
<path d="M96.8145 54.1874C97.7817 53.7124 98.7586 53.2559 99.7355 52.8014C100.441 53.3659 101.215 53.838 101.947 54.3694C102.353 54.677 102.831 54.9018 103.171 55.2912C103.571 55.8294 103.45 56.5429 103.249 57.1356C103.137 57.4997 102.743 57.6447 102.469 57.8666C98.4262 60.7399 94.0908 63.2375 89.4532 65.0128C84.211 67.0588 78.6101 68.1236 72.9975 68.364C70.8911 68.5587 68.7837 68.2949 66.6773 68.2346C65.7354 68.2316 64.7983 68.1149 63.8564 68.1168C63.0214 67.9912 62.1728 68.0623 61.3398 67.9299C59.2081 67.7362 57.0657 67.5065 55.0011 66.9186C54.7153 66.8106 54.4218 66.9186 54.1409 66.9848C53.0677 67.2262 51.9907 67.4501 50.9263 67.7294C50.3868 67.5162 49.8678 67.2534 49.3292 67.0374C48.2201 66.576 47.1499 65.9988 45.9728 65.7243C45.2243 65.4664 44.4379 65.2474 43.7867 64.7822C44.4583 65.0323 45.0989 65.3642 45.79 65.5647C46.4306 65.7428 47.0605 65.9706 47.7225 66.0601C48.5944 66.1604 49.4663 66.0154 50.3343 65.9433C51.4182 65.8295 52.4923 65.6465 53.5673 65.4742C54.2313 65.3418 54.9272 65.2581 55.5173 64.9009C56.1452 64.5524 56.6633 64.0483 57.1639 63.5412C58.3469 62.2953 59.2101 60.8002 60.1782 59.3938C60.9393 59.2303 61.7568 59.4697 62.3886 59.9106C62.7395 60.1345 62.7998 60.5686 62.968 60.918C63.1565 61.3132 63.3636 61.6996 63.5561 62.0938C65.5031 62.1503 67.452 62.1113 69.401 62.085C71.8826 61.9498 74.3652 61.7561 76.8235 61.3696C79.8174 60.9365 82.7724 60.2591 85.6807 59.4288C85.9694 59.3412 86.1629 59.095 86.3709 58.8925C86.7782 58.4866 87.1514 58.0457 87.5898 57.6739C87.9077 57.3994 88.3315 57.3196 88.7213 57.195C90.7684 56.5234 92.8145 55.844 94.817 55.0469C95.4857 54.7666 96.1749 54.532 96.8145 54.1874Z" fill="#333333"/>
<path d="M93.4366 51.4873C94.4038 51.0124 95.3807 50.5559 96.3576 50.1013C97.0633 50.6659 97.8371 51.1379 98.569 51.6694C98.9753 51.9769 99.4536 52.2018 99.7928 52.5911C100.193 53.1294 100.072 53.8428 99.8716 54.4356C99.7588 54.7996 99.3651 54.9446 99.091 55.1665C95.0483 58.0398 90.713 60.5374 86.0754 62.3128C80.8331 64.3587 75.2322 65.4235 69.6197 65.6639C67.5132 65.8586 65.4059 65.5948 63.2994 65.5345C62.3575 65.5316 61.4205 65.4148 60.4786 65.4167C59.6436 65.2912 58.795 65.3622 57.962 65.2298C55.8303 65.0361 53.6879 64.8064 51.6233 64.2185C51.3375 64.1105 51.0439 64.2185 50.763 64.2847C49.6899 64.5261 48.6129 64.75 47.5485 65.0293C47.009 64.8162 46.4899 64.5534 45.9514 64.3373C44.8423 63.8759 43.7721 63.2987 42.5949 63.0243C41.8465 62.7663 41.0601 62.5473 40.4088 62.0821C41.0805 62.3322 41.7211 62.6641 42.4122 62.8646C43.0528 63.0428 43.6827 63.2705 44.3446 63.3601C45.2165 63.4603 46.0885 63.3153 46.9565 63.2433C48.0403 63.1294 49.1144 62.9464 50.1895 62.7741C50.8534 62.6417 51.5494 62.558 52.1394 62.2008C52.7674 61.8524 53.2855 61.3482 53.7861 60.8411C54.969 59.5952 55.8322 58.1002 56.8004 56.6937C57.5615 56.5302 58.379 56.7696 59.0108 57.2105C59.3617 57.4344 59.422 57.8685 59.5901 58.2179C59.7787 58.6131 59.9858 58.9995 60.1782 59.3937C62.1252 59.4502 64.0742 59.4113 66.0231 59.385C68.5047 59.2497 70.9873 59.056 73.4456 58.6696C76.4395 58.2364 79.3945 57.559 82.3029 56.7287C82.5916 56.6411 82.785 56.3949 82.993 56.1924C83.4003 55.7866 83.7736 55.3456 84.212 54.9738C84.5298 54.6993 84.9536 54.6195 85.3434 54.4949C87.3905 53.8233 89.4367 53.144 91.4391 52.3468C92.1079 52.0665 92.797 51.8319 93.4366 51.4873Z" fill="#333333"/>
</g>
<g filter="url(#filter1_f_95_430)">
<path d="M12.1894 38.0515C16.2292 39.7432 20.2457 41.4952 24.2748 43.2112C27.7071 44.6838 31.1423 46.1516 34.5746 47.6242C34.9304 50.3106 35.5204 52.9776 36.4603 55.5229C29.17 52.3186 21.8029 49.2896 14.5738 45.9462C14.22 45.8051 13.8302 45.8596 13.4589 45.8333C12.3158 45.7457 11.1697 45.7262 10.0305 45.6085C9.17413 45.3194 8.41399 44.8133 7.5965 44.4376C7.19796 44.2604 6.75957 44.423 6.35131 44.4794C5.38608 44.678 4.311 44.5252 3.49545 43.9558C3.9737 44.1339 4.44708 44.3402 4.95741 44.4103C5.65533 44.5728 6.35618 44.3392 7.05021 44.2692C8.04947 44.166 9.02346 43.9149 10.0188 43.7893C10.7965 43.0798 11.1795 42.0646 11.5401 41.1019C11.8599 40.1121 12.1389 39.0959 12.1894 38.0515Z" fill="#333333"/>
<path d="M12.0943 33.765C16.1341 35.4567 20.1506 37.2087 24.1797 38.9247C27.612 40.3973 31.0472 41.8651 34.4795 43.3378C34.8352 46.0242 35.4253 48.6911 36.3652 51.2364C29.0749 48.0321 21.7078 45.0031 14.4787 41.6597C14.1249 41.5186 13.7351 41.5731 13.3638 41.5468C12.2206 41.4592 11.0746 41.4398 9.93537 41.322C9.079 41.0329 8.31887 40.5268 7.50138 40.1511C7.10284 39.9739 6.66445 40.1365 6.25619 40.1929C5.29095 40.3915 4.21587 40.2387 3.40033 39.6693C3.87857 39.8474 4.35196 40.0537 4.86228 40.1238C5.56021 40.2864 6.26105 40.0527 6.95509 39.9827C7.95435 39.8795 8.92834 39.6284 9.92371 39.5028C10.7013 38.7933 11.0843 37.7781 11.445 36.8154C11.7648 35.8256 12.0437 34.8094 12.0943 33.765Z" fill="#333333"/>
</g>
<path d="M30.8381 1.3812C31.1822 1.29847 31.5379 1.31307 31.8889 1.27997C32.0765 1.22741 32.2709 1.21087 32.4663 1.21671C34.2509 1.18264 36.0356 1.21573 37.8203 1.2498C38.6378 1.3374 39.4718 1.31501 40.2961 1.31891L40.2999 1.40067C40.9337 1.40164 41.5675 1.42208 42.2003 1.4396C42.6348 1.56516 43.1014 1.47951 43.5485 1.53791C44.0997 1.60896 44.6566 1.59047 45.2097 1.64205C45.7239 1.74425 46.2586 1.64887 46.7708 1.7754C47.1334 1.8192 47.5008 1.81044 47.8663 1.81433L47.8809 1.88539C48.6381 1.90193 49.3963 1.96812 50.1477 2.05961C50.3956 2.07908 50.6454 2.09076 50.8962 2.09076L50.8894 2.1696C51.912 2.17349 52.9258 2.33896 53.9406 2.44408C54.5112 2.47328 55.0692 2.62415 55.6446 2.59981L55.6436 2.67087C56.3989 2.72732 57.1416 2.89084 57.892 2.97941L57.8813 3.06507C58.0786 3.06993 58.2759 3.08161 58.4742 3.09037C58.4762 3.13223 58.481 3.21788 58.483 3.26071C57.8949 3.10205 57.2708 3.14099 56.6837 2.99499C56.1287 2.95216 55.5805 2.85872 55.0264 2.80811C54.3479 2.72245 53.6587 2.71759 52.987 2.6076C52.4417 2.53363 51.8673 2.63875 51.3385 2.49275C51.006 2.46841 50.6736 2.46939 50.3412 2.447C49.5071 2.33701 48.6595 2.41391 47.8236 2.31852C44.226 2.24357 40.6275 2.26596 37.031 2.32728C36.2251 2.41001 35.4096 2.35551 34.5999 2.39541C33.692 2.4032 32.789 2.4908 31.8801 2.48107C31.9608 2.74581 32.1552 2.94827 32.3039 3.17505C32.8823 4.01796 33.4616 4.85892 34.0429 5.69988C34.1897 5.91499 34.3404 6.12912 34.4832 6.34812C35.291 7.48887 36.0628 8.65492 36.8745 9.79372L36.9036 9.8638C37.0426 10.0497 37.1729 10.2415 37.3031 10.4342C37.6852 10.9598 38.0283 11.5107 38.4152 12.0334C38.558 12.2485 38.7019 12.4645 38.8545 12.6738C38.9896 12.8656 39.117 13.0631 39.2472 13.2588C39.6292 13.7873 39.9879 14.3314 40.3612 14.8658C40.7257 15.4225 41.133 15.9491 41.482 16.5156C42.002 16.5331 42.5454 16.5564 43.0508 16.427C43.427 16.3997 43.8042 16.3842 44.1813 16.3842L44.1735 16.3043C44.9045 16.2771 45.6306 16.1729 46.3597 16.1155C46.5521 16.1029 46.7524 16.1165 46.9332 16.0377C47.2121 16.0143 47.4921 16.0065 47.7711 16.0046L47.774 15.9267C48.1424 15.9228 48.5118 15.9121 48.8782 15.8595C49.1407 15.7982 49.406 15.7379 49.6588 15.6405C49.7249 15.6366 49.8561 15.6269 49.9222 15.623L49.928 15.5471C50.555 15.4819 51.1791 15.3612 51.8002 15.259C52.33 15.2415 52.8471 15.1169 53.3778 15.1013C53.8862 15.0059 54.4111 15.0556 54.9234 14.9757C55.3997 14.9037 55.9032 15.0147 56.3659 14.8716C57.3914 14.857 58.4169 14.8151 59.4424 14.8336L59.4404 14.7587C60.4621 14.7548 61.4837 14.7207 62.5063 14.7314C62.6365 14.7314 62.7658 14.7159 62.8951 14.6847C64.8693 14.6721 66.8445 14.6361 68.8207 14.6351C70.6938 14.5465 72.5727 14.5747 74.4478 14.5387C75.0602 14.4258 75.6862 14.493 76.3054 14.4647C76.7282 14.4735 77.152 14.4219 77.5739 14.4823C78.0084 14.6273 78.4847 14.5845 78.9241 14.712C79.135 14.7412 79.3479 14.7529 79.5617 14.7558L79.5627 14.8336C80.2606 14.8833 80.9556 14.9962 81.6468 15.1013C81.7848 15.1149 81.9257 15.1266 82.0657 15.1432C82.3709 15.2823 82.7267 15.2162 83.0533 15.2483L83.0718 15.3174C84.5143 15.442 85.9461 15.6804 87.3799 15.8751C87.6219 15.9072 87.8649 15.9209 88.1099 15.9257L88.1186 16.0036C88.3296 16.0055 88.5405 16.0153 88.7514 16.0396C89.2219 16.1661 89.7176 16.1632 90.1949 16.2644C90.5964 16.2868 90.9823 16.4173 91.3857 16.428C92.0049 16.5428 92.6328 16.6655 93.2637 16.7034L93.2734 16.7793C93.461 16.7852 93.6505 16.7949 93.8411 16.8017L93.8576 16.8718C94.4107 16.8961 94.9443 17.0704 95.4974 17.0986L95.5062 17.1755C95.6636 17.1774 95.823 17.1823 95.9834 17.1852L95.9961 17.2611C96.4967 17.3147 97.0012 17.3984 97.4833 17.5463C97.6485 17.5648 97.8148 17.5794 97.982 17.5969C98.0685 17.6651 98.1696 17.7021 98.2843 17.7089C98.5992 17.7897 98.9316 17.8111 99.2359 17.9337C99.3399 17.9473 99.4439 17.9619 99.5499 17.9765C99.9474 18.143 100.393 18.1537 100.79 18.325C100.852 18.3328 100.979 18.3474 101.042 18.3552L101.053 18.4252C102.127 18.7406 102.942 19.5806 103.55 20.4887C103.562 20.5199 103.589 20.5812 103.601 20.6113C103.69 20.8294 103.787 21.0425 103.889 21.2547C102.409 21.4212 100.943 21.7015 99.4604 21.8553C98.7256 21.9555 97.9839 22.01 97.2549 22.1434C97.214 22.1541 97.1324 22.1755 97.0906 22.1862C96.6571 22.2826 96.1983 22.1911 95.7735 22.3293C95.1193 22.341 94.4758 22.484 93.8206 22.4636C93.0984 22.4052 92.3898 22.6106 91.6685 22.5765C91.0474 22.5561 90.437 22.6991 89.8178 22.6953C89.0392 22.6962 88.2596 22.7206 87.4858 22.8072C85.8324 22.8792 84.1731 22.7936 82.5216 22.9035C81.3882 22.887 80.2529 22.9425 79.1224 22.85C77.6993 22.8442 76.2762 22.849 74.8541 22.8111C73.4651 22.6466 72.0624 22.7692 70.6753 22.6047C70.0522 22.5473 69.4253 22.6096 68.8041 22.5395C67.938 22.4266 67.0613 22.4782 66.1971 22.3449C65.192 22.3303 64.1966 22.1891 63.1925 22.1697C62.6453 22.083 62.0922 22.0665 61.5401 22.0373C60.8645 21.9215 60.1773 21.9244 59.4978 21.8377C57.9211 21.756 56.3581 21.5243 54.7824 21.4153C54.833 21.5944 54.901 21.7677 54.9846 21.9351C55.0264 22.0237 55.0633 22.1132 55.1012 22.2047C55.2189 22.5337 55.3481 22.8578 55.4871 23.179C55.5834 23.3717 55.6757 23.5654 55.769 23.7601C56.2521 24.638 56.9326 25.4615 57.8706 25.8654L57.893 25.9306C58.1301 26.0104 58.3663 26.099 58.5967 26.2012C59.005 26.3783 59.4463 26.4513 59.8643 26.5983C60.012 26.6139 60.1627 26.6275 60.3133 26.6382L60.3056 26.7064C60.7731 26.7998 61.2543 26.8446 61.7102 26.9867C61.8268 26.9984 61.9454 27.0081 62.064 27.0178L62.0708 27.086C62.4878 27.1551 62.8941 27.2826 63.2936 27.4227C63.3869 27.4656 63.4832 27.5035 63.5833 27.5356C63.8195 27.6242 64.047 27.7361 64.29 27.8082L64.3094 27.8705C64.5884 27.961 64.8489 28.1021 65.0977 28.2579C65.9706 28.7377 66.7424 29.384 67.4481 30.0829C67.9847 30.7214 68.564 31.3346 69.2542 31.8115C69.4165 31.937 69.5963 32.0392 69.7723 32.1473C69.9968 32.2913 70.2467 32.3935 70.4692 32.5434C70.4974 32.5473 70.5538 32.5541 70.583 32.558C70.7784 32.7177 71.0379 32.7585 71.2634 32.8676C71.7008 33.0408 72.1577 33.1586 72.6019 33.3124C72.7176 33.324 72.8342 33.3357 72.9509 33.3455V33.4233C73.1006 33.435 73.2493 33.4477 73.4009 33.4652C73.8004 33.6151 74.2369 33.5839 74.6432 33.6988C74.7812 33.7124 74.9222 33.7241 75.0622 33.7358C75.3965 33.8711 75.7688 33.799 76.1207 33.8545C76.7205 33.9713 77.3426 33.8934 77.9491 33.9703C79.344 34.0229 80.7418 34.0229 82.1367 33.9791C82.717 34.0151 83.3148 33.8594 83.8766 34.0745C84.5551 34.5942 85.0402 35.3116 85.5641 35.9764C86.0103 36.5769 86.4253 37.2018 86.8715 37.8024C87.2156 38.1012 87.6132 38.3513 88.0545 38.4759C88.3947 38.5168 88.7388 38.4837 89.081 38.4778L89.0839 38.4029C89.5709 38.3396 90.0472 38.1897 90.5429 38.1897L90.5507 38.1158C90.7004 38.109 90.854 38.1021 91.0066 38.0905C91.6996 37.961 92.418 37.9503 93.1188 37.8432C93.5582 37.8189 93.9859 37.6836 94.4291 37.7079L94.4427 37.634C94.6537 37.6272 94.8646 37.6106 95.0755 37.5853C95.5052 37.5152 95.9339 37.4228 96.3703 37.413L96.3829 37.3361C96.5735 37.3322 96.765 37.3235 96.9574 37.3186L96.9662 37.2456C97.4969 37.1765 98.0374 37.0986 98.5525 36.9565C98.6672 36.9448 98.7829 36.9361 98.8996 36.9293L98.9103 36.8602C99.4692 36.8037 99.9989 36.5886 100.558 36.5312V36.4689C100.9 36.3949 101.242 36.3122 101.569 36.1818C101.632 36.1749 101.76 36.1623 101.824 36.1555V36.0844C102.114 36.0504 102.391 35.9511 102.661 35.844C102.758 35.8109 102.856 35.7778 102.956 35.7467C103.043 35.6931 103.139 35.6542 103.242 35.6308C103.403 35.5705 103.565 35.5072 103.731 35.4537C103.851 35.407 103.985 35.3788 104.092 35.298C104.369 35.1899 104.637 35.0527 104.925 34.9758L104.936 34.9086C105.209 34.8444 105.434 34.6634 105.705 34.5913L105.718 34.5261C106.041 34.4288 106.342 34.2614 106.676 34.1971L106.69 34.1251C106.755 34.1193 106.884 34.1066 106.949 34.1008C106.97 33.7027 106.922 33.3085 106.868 32.9162C106.718 32.96 106.573 33.0194 106.433 33.0866C106.202 33.1995 105.96 33.2919 105.713 33.3552L105.71 33.4155C105.598 33.4428 105.488 33.472 105.38 33.5041C105.108 33.6024 104.835 33.7017 104.548 33.7474C104.549 33.7669 104.549 33.8058 104.55 33.8243C104.485 33.8312 104.356 33.8448 104.291 33.8516C103.965 33.9762 103.627 34.0686 103.283 34.1339L103.282 34.2C103.165 34.2127 103.05 34.2263 102.937 34.2429C102.546 34.3723 102.142 34.4726 101.735 34.531L101.729 34.5894C101.322 34.6614 100.92 34.7587 100.518 34.8502C100.261 34.9359 99.998 34.9992 99.7287 35.0264C99.4157 35.1257 99.0852 35.1539 98.7742 35.2551C98.6235 35.2707 98.4767 35.2853 98.329 35.298C98.329 35.3165 98.329 35.3544 98.328 35.3729C97.701 35.4235 97.0955 35.626 96.4685 35.6834L96.4724 35.7535C96.2906 35.7613 96.1088 35.7749 95.9309 35.7963C95.5577 35.9121 95.1621 35.9209 94.7878 36.027C94.642 36.0426 94.4991 36.0591 94.3562 36.0796C93.7021 36.2509 93.0187 36.2859 92.3548 36.4192C92.173 36.4387 91.9913 36.4543 91.8095 36.4621L91.8036 36.536C91.4838 36.5146 91.1738 36.5944 90.8695 36.6772C90.7325 36.7346 90.5973 36.793 90.4632 36.8524C90.1317 36.9935 89.878 37.2456 89.5932 37.452C89.5621 37.4919 89.4989 37.5717 89.4669 37.6116L89.3609 37.6067L89.3842 37.7371L89.2977 37.7031C89.2443 37.8442 89.1334 38.0252 88.9585 37.9844C89.1733 37.9075 89.2336 37.6768 89.3823 37.5269C89.7565 37.1551 90.0987 36.72 90.6051 36.5214C91.1602 36.2664 91.7832 36.173 92.3908 36.1516V36.0737C93.0547 36.0289 93.7225 35.9248 94.3747 35.7944C94.5225 35.7788 94.6751 35.77 94.8267 35.7642L94.8257 35.6863C95.5062 35.6425 96.1749 35.4868 96.8447 35.3612C97.0527 35.2756 97.2821 35.2804 97.5037 35.2493C98.1151 35.0965 98.7411 35.0118 99.3525 34.8532C99.7851 34.7607 100.219 34.6663 100.654 34.5855L100.655 34.5222C101.186 34.4813 101.686 34.276 102.211 34.1981V34.129C102.326 34.1173 102.443 34.1037 102.559 34.0891C102.89 33.9694 103.234 33.8944 103.575 33.8097L103.577 33.7436C103.69 33.7299 103.804 33.7153 103.919 33.7007C104.219 33.5401 104.569 33.5138 104.869 33.3571C105.185 33.2608 105.48 33.1031 105.804 33.0291L105.82 32.9736C106.125 32.889 106.386 32.6933 106.697 32.6242C106.692 32.5425 106.682 32.378 106.677 32.2962C106.574 32.1492 106.474 32.0003 106.396 31.8397C106.324 31.6012 106.551 31.426 106.68 31.2586C106.683 31.2304 106.689 31.173 106.692 31.1448C107.009 30.8167 106.878 30.3028 106.656 29.9592C106.616 29.8853 106.577 29.8123 106.54 29.7383C106.7 29.7003 106.86 29.6098 107.032 29.641C107.531 30.0264 107.941 30.5277 108.256 31.0737C108.411 31.3161 108.547 31.5701 108.644 31.8417C108.811 32.1054 108.846 32.4247 108.992 32.6982C108.999 32.7605 109.013 32.886 109.02 32.9483L109.09 32.9513C109.165 33.3571 109.272 33.7562 109.367 34.1592C109.423 34.458 109.504 34.7529 109.534 35.0576C109.747 35.7603 109.392 36.4747 109.498 37.1901C109.469 37.013 109.438 36.8358 109.408 36.6606C109.429 37.1288 109.393 37.6009 109.283 38.0583C109.258 38.0914 109.209 38.1576 109.184 38.1907C108.963 38.255 108.752 38.3435 108.533 38.4117L108.516 38.4701C108.202 38.5664 107.897 38.6861 107.594 38.8127C107.488 38.8565 107.378 38.8886 107.267 38.909L107.26 38.9704C106.931 39.0541 106.631 39.2205 106.301 39.2954L106.286 39.3538C106.038 39.42 105.793 39.4969 105.555 39.5894C105.456 39.6264 105.357 39.6585 105.258 39.6867C105.167 39.7403 105.071 39.7782 104.969 39.7996C104.702 39.8989 104.436 40.0031 104.159 40.0683L104.15 40.1364C104.087 40.1461 103.963 40.1656 103.901 40.1763C103.606 40.299 103.296 40.3797 102.989 40.4596L102.985 40.518C102.552 40.5773 102.16 40.7924 101.726 40.8508L101.728 40.9229C101.664 40.9316 101.537 40.9482 101.473 40.9569C100.695 41.211 99.9085 41.4592 99.1076 41.6324L99.0979 41.6908C98.5195 41.8086 97.9557 41.9857 97.3861 42.1337C96.9846 42.2797 96.5424 42.305 96.1535 42.4773C96.0981 42.486 95.9854 42.5045 95.93 42.5143C95.652 42.6135 95.3584 42.6525 95.0794 42.741C94.9667 42.7615 94.8559 42.7829 94.747 42.8043C94.6255 42.853 94.4982 42.8832 94.3728 42.9114C93.9674 43.0486 93.5378 43.0983 93.1363 43.2413C93.0022 43.2647 92.87 43.291 92.7426 43.3319C92.3548 43.4389 91.9417 43.4749 91.5713 43.6316C91.4673 43.6482 91.3653 43.6638 91.2632 43.6803C90.8734 43.8059 90.471 43.9032 90.0656 43.9616L90.054 44.0336C89.9373 44.0414 89.8226 44.0512 89.7089 44.0628C89.4367 44.1816 89.1373 44.2079 88.8574 44.3003C88.7524 44.3178 88.6474 44.3373 88.5444 44.3578C88.419 44.4454 88.2606 44.4288 88.1177 44.4483L88.107 44.5057C87.6812 44.6712 87.3002 44.9301 86.923 45.1831C86.6858 45.3321 86.4603 45.4966 86.2426 45.6718C85.4319 46.318 84.7311 47.088 84.0983 47.9065C83.7872 48.3436 83.4664 48.7747 83.1884 49.2342C82.9678 49.5865 82.5877 49.8162 82.1853 49.897L82.1833 49.9671C82.0657 49.9768 81.9491 49.9885 81.8344 50.0031C81.7236 50.08 81.5836 50.0605 81.4601 50.0683C80.9702 50.078 80.4813 50.0917 79.9924 50.1131C79.1253 50.2114 78.2475 50.1384 77.3814 50.2435C76.5552 50.2669 75.729 50.2941 74.9027 50.2815L74.894 50.3661C73.2872 50.3652 71.6804 50.3924 70.0727 50.3953C69.5575 50.5277 69.0131 50.4148 68.4863 50.4615L68.4717 50.3827C67.1925 50.3944 65.9123 50.3885 64.6331 50.3515C64.0946 50.2367 63.5405 50.297 62.9952 50.2523C62.1777 50.1686 61.3563 50.1394 60.5408 50.043C60.2443 49.9797 59.941 49.9739 59.6397 49.9739L59.6242 49.8941C59.3335 49.8902 59.039 49.8853 58.76 49.7987C58.5928 49.2575 58.4062 48.7222 58.2089 48.1917C58.1807 48.0915 58.1476 47.9941 58.1087 47.8997C58.0738 47.8024 58.0397 47.705 58.0077 47.6077C57.9542 47.4413 57.892 47.2797 57.823 47.1201C57.787 47.0227 57.7501 46.9254 57.7131 46.83C57.5673 46.4806 57.4682 46.1127 57.3126 45.7691C57.2028 45.5394 57.1552 45.2824 57.0152 45.0702C57.0133 45.041 57.0103 44.9826 57.0094 44.9534C56.8373 44.7286 56.7868 44.4434 56.6614 44.1942C56.4874 43.8098 56.3532 43.4078 56.151 43.0369C56.049 42.7887 55.9022 42.56 55.8322 42.3001L55.7632 42.2787C55.6621 41.9244 55.4648 41.611 55.3238 41.2733C55.215 41.1049 55.1119 40.9306 55.0517 40.7389L54.9904 40.7214C54.9243 40.4498 54.7222 40.2386 54.6561 39.968L54.5968 39.9505C54.4918 39.6527 54.2808 39.4113 54.1525 39.1251C53.6247 38.2345 53.0638 37.3644 52.468 36.5185C52.3688 36.39 52.2697 36.2635 52.1725 36.135C50.8272 34.3188 49.2301 32.6573 47.322 31.4309C47.0712 31.2713 46.8408 31.0708 46.556 30.9734C46.3334 30.8265 46.0846 30.7282 45.861 30.5841C45.6452 30.4693 45.4139 30.3885 45.1874 30.3009C45.0639 30.2503 44.9424 30.2016 44.8248 30.1422C44.5974 30.039 44.3602 29.9583 44.1172 29.9008C43.6098 29.7373 43.0975 29.5787 42.5668 29.5105C42.0992 29.3752 41.6025 29.4151 41.1213 29.4297C40.5362 29.4375 39.984 29.6556 39.4105 29.7422L39.4066 29.8064C39.0412 29.8609 38.7126 30.042 38.3588 30.1374L38.3413 30.2006C36.8152 30.8742 35.6166 32.1473 34.8254 33.5976C34.7107 33.7903 34.6009 33.9888 34.5309 34.2039L34.4696 34.2146C34.3987 34.5066 34.2548 34.7724 34.1411 35.0488C33.9962 35.4449 33.8329 35.8401 33.761 36.2586L33.6939 36.2548C33.6823 36.3706 33.6696 36.4874 33.656 36.6042C33.5277 36.8728 33.5151 37.1784 33.4159 37.4588C33.3994 37.6096 33.3868 37.7615 33.3771 37.9133L33.3012 37.9094C33.2925 38.0272 33.2808 38.1459 33.2692 38.2647C33.1389 38.7319 33.1408 39.2283 33.0368 39.7033C33.0087 39.9797 32.9941 40.2581 32.9882 40.5364L32.9144 40.5413C32.9076 40.9501 32.892 41.3599 32.8794 41.7706C32.859 41.832 32.8172 41.9556 32.7958 42.0179C32.7588 42.0081 32.685 41.9896 32.647 41.9799C32.1814 41.5604 31.6011 41.3394 31.0053 41.1759C30.5922 41.028 30.1703 40.9053 29.7591 40.7516C28.9795 40.5004 28.2019 40.2415 27.4272 39.9739C26.6476 39.7208 25.868 39.4638 25.0943 39.1932C24.7025 39.0735 24.3128 38.948 23.9288 38.8049C23.5905 38.7037 23.2581 38.5869 22.9266 38.4681C22.6418 38.3494 22.3414 38.2812 22.0528 38.1771C21.9565 38.1401 21.8583 38.107 21.7602 38.0788C21.4763 37.9581 21.175 37.8919 20.8853 37.7878C20.7891 37.7508 20.6919 37.7186 20.5937 37.6894C20.3099 37.5688 20.0095 37.5016 19.7208 37.3984C19.6236 37.3624 19.5254 37.3303 19.4273 37.3001C19.1434 37.1794 18.8421 37.1132 18.5534 37.0081C18.4562 36.974 18.359 36.9419 18.2618 36.9098C17.8798 36.7609 17.4803 36.6636 17.0953 36.5234C16.7143 36.3686 16.3128 36.2752 15.9279 36.1341C15.5488 35.9783 15.1464 35.8878 14.7624 35.7438C14.6672 35.7009 14.569 35.6669 14.4679 35.6396C14.1782 35.5413 13.8847 35.4576 13.597 35.3554C13.5017 35.3106 13.4035 35.2766 13.3024 35.2512C13.0137 35.151 12.7182 35.0683 12.4295 34.9661C12.3343 34.9223 12.2371 34.8872 12.136 34.8629C11.8473 34.7597 11.5508 34.6789 11.2621 34.5767C11.1678 34.532 11.0696 34.4979 10.9685 34.4745C10.7498 34.3967 10.5311 34.3198 10.3163 34.2331C10.2531 34.2254 10.1287 34.2098 10.0655 34.203L10.0568 34.1329C9.94595 34.1105 9.83611 34.0832 9.72725 34.0521C9.53381 33.9859 9.3394 33.9226 9.14985 33.8448C9.08667 33.837 8.96128 33.8205 8.89809 33.8127L8.88837 33.7426C8.58023 33.6735 8.28376 33.5654 7.98437 33.4681C7.88425 33.4399 7.78608 33.4058 7.68984 33.3649C7.59167 33.3348 7.49252 33.3046 7.39434 33.2754C7.19313 33.2063 6.95206 33.107 6.92679 32.8637L6.85875 32.8432C6.78195 32.5697 6.69058 32.3011 6.58074 32.0402C6.57394 31.976 6.56033 31.8485 6.55255 31.7842L6.46993 31.7764C6.46312 31.7132 6.44854 31.5857 6.44174 31.5214C6.31926 31.1924 6.21525 30.8547 6.15693 30.5082L6.08889 30.5131C6.07722 30.3963 6.06362 30.2795 6.04903 30.1636C5.95863 29.9456 5.90614 29.714 5.84491 29.4872C5.80991 29.346 5.78269 29.2039 5.76034 29.0618L5.68743 29.0579C5.6816 28.9927 5.66994 28.8633 5.66411 28.799C5.50275 28.4331 5.47164 28.0233 5.30931 27.6593C5.22474 27.3974 5.13726 27.1375 5.04297 26.8796C5.01089 26.7794 4.97395 26.682 4.93021 26.5876C4.83981 26.3005 4.68817 26.0367 4.60749 25.7467L4.51709 25.7321C4.51709 25.696 4.51709 25.623 4.51709 25.5861C4.13411 24.9115 3.70058 24.2321 3.0289 23.8117C2.76742 23.7124 2.51566 23.5313 2.22891 23.5372C1.67095 23.6822 1.18493 24.1105 0.99441 24.6585L0.93706 24.6799C0.839855 24.9709 0.730015 25.26 0.732931 25.5724C0.59004 25.3875 0.654195 25.1208 0.650307 24.9028C0.734875 24.3889 0.698909 23.8652 0.780561 23.3503C0.816526 22.9483 0.936088 22.558 0.944836 22.1531L1.01968 22.1482C1.02454 22.083 1.03524 21.9526 1.0401 21.8884C1.19368 21.5574 1.20048 21.1866 1.2763 20.8362C1.29672 20.3953 1.32588 19.9553 1.32199 19.5144L1.40267 19.5154C1.4017 18.8467 1.52029 18.1809 1.66901 17.5317C1.68845 17.3828 1.704 17.2349 1.71761 17.085L1.79343 17.084C1.79926 17.0197 1.80995 16.8922 1.81579 16.828C1.90716 16.6411 1.96159 16.4396 2.01214 16.2391C2.0588 16.1126 2.1142 15.99 2.18808 15.878C2.18905 15.8488 2.19197 15.7904 2.19391 15.7612C2.34166 15.551 2.39901 15.2911 2.56815 15.0945C2.57106 15.0672 2.5769 15.0118 2.57981 14.9845C2.66244 14.8765 2.73534 14.7616 2.79755 14.6419C3.41966 14.5796 4.07968 14.7519 4.67262 14.5076C5.42304 14.0968 5.67285 13.216 6.15304 12.5629C6.26094 12.3312 6.40772 12.121 6.54575 11.9078C6.65365 11.7248 6.76349 11.5428 6.86944 11.3588C7.01233 11.1379 7.16688 10.9208 7.26409 10.6746L7.32144 10.6571C7.54598 10.2327 7.82496 9.84141 8.0806 9.43456C8.20891 9.21945 8.35083 9.01213 8.48595 8.80092C8.61523 8.60139 8.74743 8.4038 8.87671 8.20524C9.01182 8.01641 9.14305 7.82369 9.26941 7.62903C9.47257 7.23969 9.94207 6.9438 9.88374 6.46297C9.78946 6.46589 9.59991 6.47271 9.50562 6.4766C8.94669 6.63233 8.34889 6.65667 7.78899 6.82603C7.54015 6.87956 7.29228 6.93893 7.04149 6.98176C7.29908 6.52916 7.68984 6.1846 8.02909 5.79916C8.73673 5.12561 9.50465 4.48711 10.4096 4.09972C10.6371 3.97708 10.8801 3.88656 11.1348 3.83789L11.1387 3.77073C11.3088 3.75224 11.4847 3.74543 11.6451 3.67632C12.1194 3.59748 12.587 3.47289 13.0682 3.44272L13.0827 3.37264C13.2013 3.36583 13.3189 3.35609 13.4375 3.34636C14.011 3.18868 14.6157 3.177 15.195 3.03781C15.4526 2.96287 15.7228 2.96773 15.9882 2.96189L15.994 2.88208C16.3984 2.88695 16.7921 2.77891 17.1955 2.75555C17.4336 2.71953 17.6873 2.72635 17.9128 2.62707C18.2404 2.58229 18.5719 2.58035 18.9014 2.56964L18.9131 2.49275C19.2154 2.48301 19.5196 2.48301 19.8171 2.41683C20.4022 2.35064 21.002 2.33507 21.5755 2.21632C22.1344 2.22313 22.6749 2.07713 23.2328 2.07519C24.0357 1.95936 24.8581 1.96617 25.6522 1.82893C26.3443 1.81823 27.0228 1.68099 27.7159 1.67028C28.753 1.55543 29.799 1.48437 30.8381 1.3812V1.3812ZM30.6748 2.19977L30.6631 2.27277C30.1936 2.29224 29.728 2.36719 29.2663 2.44505C29.0554 2.47133 28.8434 2.48496 28.6325 2.49177L28.616 2.56672C28.4352 2.57159 28.2544 2.5784 28.0746 2.59592C27.3465 2.74289 26.5932 2.80519 25.8525 2.89765C25.5686 3.02127 25.244 2.96773 24.9417 2.99012V3.06604C24.3205 3.09524 23.714 3.2646 23.0919 3.27239L23.0783 3.34928C22.8634 3.3522 22.6496 3.36193 22.4357 3.37459C22.3862 3.40379 22.286 3.46024 22.2355 3.48944C22.1461 3.78436 22.0625 4.08123 21.9555 4.37031C21.9206 4.49684 21.8963 4.62824 21.8321 4.74407C21.6717 5.2064 21.5453 5.67944 21.3908 6.14372C21.3101 6.39289 21.2576 6.64985 21.1779 6.9C21.1468 7.02945 21.1313 7.16475 21.07 7.28544C20.9689 7.64071 20.8902 8.00279 20.7784 8.35611C20.7638 8.47485 20.7512 8.5936 20.7395 8.71332L20.6656 8.70748C20.653 8.82233 20.6394 8.93621 20.6248 9.05107C20.5305 9.30705 20.4917 9.57861 20.4304 9.84433C20.3536 10.0614 20.3546 10.294 20.3546 10.5218C20.3322 10.4167 20.3109 10.3125 20.2895 10.2084C20.2574 10.7671 20.0999 11.3102 20.0066 11.8611C19.9969 11.9195 19.9784 12.0363 19.9697 12.0947C19.8384 12.2884 19.8948 12.5424 19.8491 12.7624C19.7286 13.1683 19.7305 13.5985 19.6207 14.0063C19.5906 14.2467 19.5731 14.4881 19.5663 14.7305L19.4875 14.7431C19.4817 14.9738 19.473 15.2035 19.4671 15.4332C20.1155 15.5539 20.7842 15.4819 21.4268 15.6405C21.4326 15.7787 21.4452 15.9179 21.4841 16.0523C21.6513 16.2226 21.8826 16.3014 22.1179 16.3151L22.114 16.3832C22.3619 16.3842 22.6097 16.3958 22.8576 16.4211C22.9762 16.464 23.0996 16.4873 23.226 16.4932C23.957 16.5477 24.6802 16.7093 25.416 16.7015L25.4219 16.7774C26.3764 16.793 27.3309 16.8329 28.2865 16.8163C28.4478 16.8056 28.6238 16.8115 28.7618 16.7102C28.9902 16.6187 29.2284 16.5457 29.4383 16.4134C30.9013 16.3141 32.3739 16.3696 33.8388 16.4182C34.0157 16.5204 34.2266 16.5019 34.422 16.5409C34.979 16.6129 35.534 16.7394 36.0988 16.7044L36.1182 16.7823C37.2147 16.8095 38.3111 16.8007 39.4086 16.7793L39.4271 16.7063C39.9199 16.718 40.402 16.5993 40.8929 16.571C40.8803 16.4679 40.9036 16.3472 40.818 16.2683C40.4088 15.6405 39.9967 15.0147 39.5855 14.3888C39.4484 14.1961 39.3201 13.9995 39.1957 13.8009C38.9449 13.4038 38.6776 13.0184 38.4229 12.6251C38.2888 12.4363 38.1566 12.2485 38.0322 12.0548C37.2506 10.9101 36.4866 9.75381 35.6954 8.61599C35.5612 8.43397 35.4358 8.24612 35.3075 8.06021C34.9139 7.50931 34.5318 6.95061 34.145 6.39484C33.9962 6.19239 33.8534 5.98507 33.7095 5.77872C33.31 5.19764 32.893 4.62921 32.4867 4.053C32.3117 3.80675 32.1299 3.56633 31.9676 3.31229C31.9034 3.25779 31.8471 3.19355 31.814 3.11373C31.5992 2.80811 31.3746 2.50832 31.1589 2.20269C30.9975 2.18809 30.8361 2.1988 30.6748 2.19977V2.19977ZM20.9145 3.72693C20.8076 3.74056 20.7006 3.75419 20.5947 3.76976C20.1349 3.94885 19.611 3.92647 19.16 4.12016C19.0423 4.12989 18.9237 4.13768 18.8052 4.14352L18.8071 4.21847C18.3327 4.2574 17.8642 4.37031 17.4093 4.50365C17.21 4.52799 17.0098 4.53675 16.8096 4.53285C16.9145 4.55524 17.0195 4.5786 17.1245 4.60099C16.6268 4.63603 16.132 4.74601 15.6567 4.89104C15.5099 4.90759 15.3632 4.91829 15.2173 4.92608L15.2076 4.99713C14.8616 5.02925 14.5272 5.13632 14.1841 5.18985C13.8283 5.24533 13.4657 5.36797 13.2198 5.64537C12.518 6.47952 11.8609 7.35163 11.2543 8.2578C11.1309 8.45928 10.9987 8.65395 10.8713 8.85251C10.7411 9.07637 10.606 9.29732 10.466 9.51437C10.3309 9.73824 10.2133 9.97184 10.0791 10.1967C9.94887 10.4313 9.84097 10.6795 9.67573 10.8926C9.67378 10.9218 9.67087 10.9783 9.66892 11.0075C9.48715 11.1953 9.46188 11.4776 9.28594 11.6713C9.28788 11.7073 9.29177 11.7793 9.29371 11.8153L9.19943 11.8358C9.09445 12.194 8.90004 12.5142 8.75617 12.8558C8.69008 13.0135 8.62009 13.1712 8.54038 13.323C8.44901 13.5138 8.39457 13.7182 8.36055 13.9275C8.26626 14.2136 8.33431 14.5124 8.46456 14.7743C8.54232 14.8366 8.60551 14.9232 8.70077 14.9621C8.73673 14.9923 8.80964 15.0517 8.84657 15.0818C9.7496 15.1451 10.6585 15.1373 11.5644 15.1568C12.5345 15.2327 13.5085 15.2969 14.4815 15.2746C14.9053 15.2298 15.3214 15.3378 15.7432 15.3437C16.5189 15.4225 17.2995 15.3865 18.0771 15.4001C18.4231 15.3923 18.7643 15.5481 19.1075 15.4332C19.2562 14.673 19.3349 13.9012 19.5041 13.143C19.6421 12.1249 19.9337 11.1379 20.1194 10.1285C20.2282 9.51827 20.4848 8.9294 20.513 8.30841C20.6054 8.04659 20.6297 7.76432 20.7386 7.50736C20.7502 7.45383 20.7726 7.34676 20.7833 7.29225C20.8707 7.04113 20.9242 6.77931 21.0098 6.52721C21.0282 6.42599 21.0486 6.32573 21.07 6.22548C21.1245 6.13301 21.1614 6.03373 21.1808 5.92764C21.3053 5.50327 21.4394 5.08279 21.5696 4.66036C21.6931 4.2866 21.7709 3.89629 21.9526 3.54297C21.5969 3.52059 21.2508 3.62668 20.9145 3.72693V3.72693Z" fill="white"/>
<path d="M22.8858 11.3258L22.8994 11.2518C24.4333 11.1915 25.9701 11.2635 27.5059 11.2392C27.9326 11.2431 28.3603 11.2226 28.7861 11.2596C29.0981 11.3696 29.4092 11.4845 29.694 11.6558C29.9691 11.8894 30.2694 12.1006 30.4988 12.3838C30.6767 12.5814 30.8196 12.8053 30.9596 13.0301C30.9615 13.0593 30.9664 13.1177 30.9683 13.1469C31.085 13.3065 31.155 13.5139 31.3416 13.6083L31.3591 13.6764C31.7751 13.6725 32.1912 13.6706 32.6082 13.6647L32.6111 13.5859C33.2565 13.6112 33.902 13.5674 34.5484 13.5849L34.5561 13.6715C34.6174 13.6764 34.7399 13.6871 34.8011 13.692C35.1471 13.8604 35.4145 14.1329 35.6915 14.3928C35.8324 14.5904 35.9578 14.8016 36.1279 14.9768C36.0298 14.9213 35.9296 14.8678 35.8295 14.8171L35.8217 14.7597C35.639 14.678 35.4631 14.5826 35.2959 14.4736C35.2414 14.4638 35.1335 14.4463 35.0791 14.4375C34.7583 14.2633 34.3724 14.3548 34.0225 14.3324C33.5413 14.3675 33.0427 14.2984 32.5741 14.4259C31.8432 14.4473 31.1083 14.5067 30.3773 14.4414L30.3725 14.3694C29.8738 14.3081 29.6658 13.8117 29.483 13.4117C29.2138 12.8179 28.9105 12.1619 28.2981 11.8563C27.9793 11.7541 27.6352 11.8261 27.3066 11.794C26.8624 11.7005 26.4046 11.7696 25.9545 11.7492C24.9232 11.7735 23.886 11.7005 22.8586 11.7872C22.5291 11.8271 22.2054 11.8991 21.8788 11.9575C22.0061 11.8329 22.1383 11.7122 22.2734 11.5964C22.4668 11.4845 22.6622 11.3657 22.8858 11.3258V11.3258Z" fill="white"/>
<path d="M67.9468 12.9775C68.7264 12.8374 69.5283 12.9386 70.3166 12.9162C70.3302 12.961 70.3574 13.0515 70.3711 13.0963C70.2107 13.0982 70.0483 13.0992 69.8967 13.1576C69.4807 13.2034 69.0345 13.106 68.6398 13.2676C68.4649 13.2919 68.2899 13.3075 68.1159 13.3211C68.0576 13.2072 68.0012 13.0934 67.9468 12.9775Z" fill="white"/>
<path d="M65.2066 13.5576C66.0124 13.4213 66.8318 13.4749 67.6406 13.3688C67.6989 13.4418 67.7572 13.5157 67.8156 13.5897C67.8447 13.6335 67.903 13.7201 67.9322 13.7639C67.0117 13.9275 66.0562 13.7776 65.1356 13.9333C64.8003 13.9557 64.463 13.9596 64.1286 13.9859C64.116 14.1075 64.1043 14.2302 64.0936 14.3518L64.0022 14.3616L64.0129 14.493C63.1954 14.3226 62.3614 14.2526 61.543 14.0959C61.263 14.0686 60.9811 14.0598 60.7012 14.0618L60.7051 13.9829C59.9391 13.9975 59.1858 13.8262 58.4188 13.8525C57.1027 13.7552 55.7827 13.7873 54.4646 13.7902C54.4685 13.7347 54.4772 13.6238 54.4821 13.5683C54.5977 13.5605 54.7134 13.5527 54.8301 13.544C54.9185 13.506 55.0118 13.4865 55.109 13.4846C56.4067 13.4778 57.7063 13.4466 59.004 13.4846C59.3238 13.4982 59.6553 13.4427 59.9654 13.5469C60.2414 13.5673 60.5214 13.5459 60.7964 13.5868C61.4156 13.7455 62.062 13.6929 62.6929 13.7834C63.5357 13.8077 64.3658 13.6004 65.2066 13.5576V13.5576Z" fill="white"/>
<path d="M47.6748 13.9674C48.3232 13.9732 48.9725 13.9353 49.6218 13.9401C49.6743 14.1124 49.7268 14.2857 49.7774 14.4599C49.3477 14.4648 48.9171 14.4599 48.4943 14.5397C47.5854 14.5465 46.6824 14.6507 45.7755 14.6847C45.4732 14.7529 45.1611 14.7392 44.854 14.746L44.8618 14.8288C43.9665 14.8298 43.0761 14.9602 42.1945 15.0984C41.9826 15.1218 41.7707 15.1373 41.5588 15.1451L41.5549 15.223C41.3673 15.2288 41.1806 15.2386 40.994 15.2473C40.9493 15.1227 40.9026 14.9991 40.8569 14.8765C40.7772 14.7908 40.7772 14.6701 40.752 14.564C40.9677 14.5543 41.1874 14.5543 41.3954 14.4852C41.6715 14.4589 41.9495 14.4482 42.2265 14.4443L42.2343 14.3674C42.5784 14.3626 42.9225 14.3489 43.2657 14.3236C44.0929 14.1893 44.9463 14.2195 45.7745 14.0978C46.4092 14.0783 47.044 14.0404 47.6787 14.0501L47.6748 13.9674Z" fill="white"/>
<path d="M104.199 21.7219C104.534 21.8251 104.742 22.1463 104.966 22.3974C105.209 22.6719 105.153 23.0573 105.126 23.3931C105.094 23.4038 105.029 23.4253 104.997 23.436C104.327 23.6559 103.627 23.7435 102.936 23.8681C100.526 24.3246 98.0888 24.6273 95.6529 24.9038C94.8928 25.0021 94.1171 24.9797 93.3696 25.1578C92.6542 25.2814 91.9212 25.2649 91.201 25.3281C90.4466 25.225 89.7001 25.4294 88.9468 25.405C88.1332 25.3836 87.3235 25.5033 86.5108 25.4848C86.33 25.4761 86.1541 25.5092 85.9821 25.551C84.661 25.6026 83.3332 25.5685 82.0113 25.5199C82.2018 25.4381 82.4137 25.478 82.6159 25.4673C83.1758 25.4712 83.7357 25.4235 84.2956 25.4556C85.1646 25.4907 86.0326 25.4089 86.8987 25.3466C87.9154 25.371 88.9196 25.1841 89.9363 25.2006C90.6605 25.1023 91.407 25.1714 92.1166 24.9797C92.3752 24.9349 92.6396 24.9368 92.902 24.9398C93.4298 24.9933 93.947 24.8492 94.4719 24.8249C95.582 24.7422 96.6891 24.6225 97.7895 24.4541C98.6225 24.3713 99.4526 24.2614 100.275 24.1008C101.633 23.9236 102.974 23.6433 104.318 23.3785C104.276 23.3717 104.193 23.3591 104.151 23.3523L104.114 23.3464C104.356 23.2763 104.669 23.3075 104.846 23.0982C104.905 22.8782 104.814 22.668 104.72 22.4763C104.578 22.2816 104.457 22.0743 104.33 21.8708C104.297 21.8339 104.232 21.7599 104.199 21.7219V21.7219Z" fill="white"/>
<path d="M98.2327 26.6372C98.9034 26.3929 99.6179 26.2528 100.332 26.354C100.635 26.427 100.938 26.501 101.223 26.6295C101.421 26.7531 101.617 26.8825 101.792 27.0402C101.889 27.1716 101.996 27.2933 102.109 27.412C102.119 27.4996 102.131 27.5872 102.143 27.6758C102.112 27.5473 102.052 27.4402 101.963 27.3536C101.874 27.2709 101.788 27.1862 101.706 27.1015L101.611 27.1298L101.627 27.0305C101.351 26.9545 101.102 26.8008 100.82 26.7463C100.088 26.6304 99.3156 26.6791 98.6478 27.0217C98.3134 27.2543 98.0004 27.5356 97.839 27.9191C97.7943 28.1839 97.7846 28.4574 97.876 28.7143C98.0276 29.0132 98.2891 29.2283 98.5525 29.4278C99.372 29.8103 100.354 29.8531 101.185 29.4823C101.582 29.3324 101.899 29.0297 102.142 28.6881C102.415 28.6579 102.681 28.582 102.95 28.5245C103.351 28.4311 103.753 28.3289 104.16 28.2598L104.155 28.1975C104.652 28.1537 105.115 27.9444 105.607 27.8666L105.616 27.8052C105.862 27.816 106.059 27.6427 106.117 27.4101L106.135 27.4091C106.157 27.4081 106.199 27.4062 106.22 27.4052C106.214 27.046 106.202 26.6869 106.183 26.3287C106.234 26.3258 106.335 26.3199 106.385 26.317C106.506 26.7424 106.707 27.194 106.545 27.6369C106.434 27.9211 106.145 28.0476 105.884 28.1547C105.447 28.3007 105.011 28.4467 104.571 28.58C104.201 28.7348 103.794 28.7776 103.418 28.9129C103.342 28.9275 103.192 28.9567 103.116 28.9713C102.978 29.0716 102.795 29.0453 102.638 29.0823C102.28 29.2166 101.891 29.2399 101.525 29.3421L101.54 29.4239C101.349 29.53 101.163 29.6439 100.976 29.7548C100.247 30.0663 99.4206 30.1091 98.6536 29.9261C97.8983 29.8746 97.1518 30.0838 96.3994 30.1335C96.0242 30.2717 95.6092 30.2074 95.2165 30.2347L95.2058 30.3116C94.2172 30.3388 93.2374 30.5121 92.2479 30.5296C92.0894 30.5335 91.9319 30.5423 91.7842 30.5958C91.514 30.6201 91.2418 30.6182 90.9735 30.6367C90.7937 30.7194 90.5944 30.697 90.4049 30.7077C89.6992 30.7126 88.9993 30.8294 88.2936 30.8206C88.2333 30.7924 88.1118 30.7379 88.0515 30.7106C88.4715 30.6766 88.9089 30.7068 89.3035 30.5316C90.1337 30.443 90.9657 30.3379 91.8007 30.3067L91.8172 30.2337C92.8855 30.2035 93.9421 29.9729 95.0104 29.9174L95.0289 29.8483C95.9154 29.8142 96.7863 29.601 97.6718 29.5271C97.5785 29.2779 97.3462 29.1183 97.2169 28.8886C97.0857 28.4963 97.0682 28.033 97.2189 27.6466C97.4298 27.23 97.7924 26.8806 98.223 26.6956L98.2327 26.6372Z" fill="white"/>
<path d="M1.35697 28.2238C1.59804 27.7945 1.92173 27.3108 2.44469 27.2251C2.92002 27.1463 3.34091 27.4607 3.6335 27.8014C4.28379 28.5664 4.63567 29.5281 4.94381 30.4702C5.41914 31.9838 5.65535 33.5625 5.79629 35.1383C5.82351 36.5331 5.84101 37.9299 5.78268 39.3237C5.6777 40.1384 5.56786 40.9589 5.33068 41.7473C5.16252 42.3274 4.93409 42.9007 4.5686 43.3874C4.3392 43.6901 3.98246 43.9168 3.59559 43.9246C3.08818 43.8536 2.67895 43.4759 2.42622 43.0477C1.2899 41.1662 0.836926 38.9635 0.590027 36.8047C0.538508 36.3463 0.53462 35.8829 0.4345 35.4313C0.286749 34.2468 0.389786 33.0544 0.448108 31.8679C0.598775 30.625 0.787351 29.3548 1.35697 28.2238ZM4.13799 29.9261C4.13313 30.0867 4.12632 30.2473 4.12146 30.4089L4.04953 30.4235C4.00384 30.9569 3.8697 31.4796 3.84346 32.0159C3.62864 33.7679 3.74042 35.5452 4.01454 37.2855C4.04175 37.4091 4.02328 37.5551 4.11563 37.6573C4.12535 37.7732 4.13215 37.889 4.13799 38.0058L4.20992 38.0155C4.26435 38.5752 4.4607 39.1086 4.64539 39.6361C4.71441 39.823 4.78634 40.0089 4.86993 40.189C4.95353 40.3953 5.01574 40.627 5.21695 40.7516L5.18877 40.554L5.28111 40.5267C5.285 40.3467 5.29569 40.1676 5.31513 39.9894C5.44636 39.7218 5.38123 39.4074 5.42886 39.1212C5.54745 38.6112 5.4726 38.0837 5.52898 37.5678C5.57661 37.1785 5.57078 36.7852 5.52509 36.3959C5.48621 35.9102 5.51926 35.4206 5.45802 34.9359C5.41428 34.4035 5.31221 33.8779 5.285 33.3445L5.21793 33.326C5.20529 32.8753 5.09059 32.4364 4.99241 31.9984C4.90201 31.8572 4.91076 31.682 4.88257 31.5234C4.73774 31.1379 4.65122 30.7321 4.48792 30.3525C4.42182 30.2094 4.36642 30.0605 4.31684 29.9115C4.27213 29.9154 4.1827 29.9223 4.13799 29.9261Z" fill="white"/>
<path d="M40.261 35.6386C40.8452 35.4235 41.4741 35.4381 42.0875 35.4575C42.417 35.4692 42.7495 35.5189 43.0586 35.6405C43.1723 35.6571 43.286 35.6736 43.4017 35.6892L43.4056 35.7603C43.705 35.8284 43.9674 35.9977 44.2629 36.0805L44.2814 36.1379C45.3574 36.6947 46.2799 37.5181 47.0644 38.435C47.6962 39.1455 48.2298 39.9349 48.7314 40.7408C48.8636 40.9705 48.989 41.2031 49.1183 41.4338C49.2369 41.645 49.3652 41.8543 49.4371 42.0879L49.5042 42.1093C49.6082 42.4675 49.8065 42.7867 49.9513 43.1284C50.0534 43.361 50.1487 43.5975 50.2167 43.8428L50.2789 43.8506C50.3013 43.9616 50.3324 44.0706 50.3732 44.1776C50.4821 44.4151 50.5589 44.6653 50.6123 44.9203L50.6842 44.9213C50.6901 44.9855 50.7027 45.112 50.7085 45.1763C50.865 45.4907 50.9525 45.8343 51.006 46.1798L51.0633 46.1856C51.1401 46.6499 51.3239 47.0899 51.3783 47.559H51.4454C51.5144 48.2277 51.6961 48.8808 51.7827 49.5495C51.8828 49.8434 51.8565 50.1597 51.8682 50.4654L51.946 50.4751C51.946 50.843 51.9673 51.2109 52.0159 51.5759C52.0889 52.6466 52.0791 53.7221 52.0441 54.7948C52.0053 55.262 51.9479 55.7282 51.945 56.1973L51.8672 56.2119C51.8595 56.4981 51.8429 56.7833 51.8352 57.0704L51.7574 57.0733C51.7496 57.1385 51.7341 57.2699 51.7273 57.3361C51.6825 57.524 51.6514 57.7148 51.6106 57.9046C51.5562 58.1382 51.4998 58.3718 51.4395 58.6054C51.2743 59.0404 51.2062 59.5164 50.9924 59.9349C50.901 60.2114 50.7892 60.48 50.6599 60.7409C50.5346 60.9511 50.4471 61.1808 50.3324 61.3959C50.1545 61.6461 50.0135 61.9205 49.8444 62.1765C49.7278 62.3186 49.6111 62.4607 49.5003 62.6077C49.0026 63.2131 48.4106 63.7923 47.6845 64.1066L47.6651 64.1641C47.3229 64.2994 46.9885 64.4668 46.6172 64.5018L46.6056 64.5748C45.896 64.6235 45.1835 64.6215 44.4739 64.5729L44.4641 64.5028C44.1774 64.46 43.8965 64.3831 43.6292 64.2731C43.5077 64.2215 43.3852 64.1767 43.2714 64.1125C42.9808 64.0054 42.7261 63.8302 42.4617 63.6755C41.1203 62.851 40.0841 61.6392 39.1519 60.3914C38.9371 60.0186 38.6873 59.6682 38.4637 59.3013C38.3286 59.0706 38.2236 58.8224 38.0593 58.6102C38.0545 58.583 38.0438 58.5275 38.038 58.5002C37.8805 58.3027 37.7988 58.0613 37.6832 57.8413C37.6297 57.7352 37.5762 57.6291 37.5257 57.523C37.4596 57.3546 37.3886 57.1882 37.2817 57.0432C37.2807 57.0149 37.2798 56.9604 37.2788 56.9322C37.2001 56.8193 37.1485 56.6918 37.1019 56.5643C37.028 56.3589 36.9473 56.1565 36.8715 55.9521C36.6975 55.662 36.6557 55.3194 36.5293 55.0099C36.3641 54.6283 36.2922 54.2156 36.1376 53.8321C36.124 53.7144 36.1123 53.5966 36.1036 53.4808C36.0851 53.4817 36.0492 53.4847 36.0317 53.4866C35.9325 52.9639 35.7916 52.449 35.7099 51.9225L35.6467 51.9195C35.5767 51.3229 35.4757 50.7282 35.3619 50.1393C35.3454 49.4161 35.1792 48.7075 35.2093 47.9824C35.1947 46.6703 35.1908 45.3573 35.2463 44.0462L35.326 44.0423C35.2783 43.2802 35.5884 42.5658 35.6477 41.8144L35.7226 41.8105C35.7274 41.7463 35.7381 41.6168 35.743 41.5516C35.8985 41.2168 35.9238 40.8381 36.0842 40.5043C36.1979 40.1957 36.3233 39.8911 36.4166 39.5757L36.4885 39.5553C36.5488 39.2818 36.7238 39.056 36.8044 38.7893L36.8948 38.7747C36.8939 38.7396 36.8919 38.6695 36.89 38.6345C37.2856 38.0836 37.621 37.4714 38.1254 37.009C38.4589 36.646 38.8545 36.355 39.2598 36.0776C39.4931 35.9656 39.7225 35.8449 39.9587 35.7398C40.054 35.6902 40.1541 35.6561 40.261 35.6386V35.6386ZM40.7976 38.4243C40.7033 38.5839 40.6071 38.7445 40.506 38.9002C40.1755 39.4103 39.8829 39.9563 39.6943 40.5354L39.6331 40.5413C39.6156 40.6561 39.5825 40.7661 39.5349 40.8712C39.4717 41.0649 39.4183 41.2615 39.3444 41.4513C39.3366 41.5136 39.3201 41.6402 39.3113 41.7034L39.2326 41.7132C39.2239 41.828 39.2132 41.9438 39.2025 42.0597C39.0333 42.6038 38.9371 43.1761 38.9186 43.7455L38.8418 43.7572C38.8146 44.8745 38.7855 45.9929 38.8234 47.1113C38.8088 47.6378 38.9488 48.1518 38.9633 48.6774C39.0674 49.1494 39.0722 49.64 39.1996 50.1062C39.2345 50.296 39.2093 50.5072 39.3084 50.6815C39.4241 51.0708 39.4338 51.4922 39.5874 51.8689C39.6049 52.013 39.6195 52.159 39.6321 52.305L39.7031 52.3108C39.7799 52.741 39.9422 53.1489 40.0209 53.5781L40.0899 53.5839C40.0987 53.6472 40.1152 53.7728 40.124 53.8351C40.2435 54.0862 40.3174 54.3558 40.4097 54.6186C40.472 54.7325 40.5196 54.8532 40.5682 54.9748C40.6528 55.2084 40.7218 55.4527 40.8598 55.662C40.9531 55.9121 41.0999 56.1399 41.1796 56.3969L41.2428 56.4173C41.4353 56.9088 41.7414 57.3468 42.0156 57.7965C42.6824 58.8185 43.5018 59.7432 44.4447 60.518C44.6615 60.6893 44.8734 60.8684 45.1154 61.0066C45.3244 61.1662 45.5519 61.3005 45.7774 61.4378C46.0184 61.5526 46.241 61.7113 46.5054 61.7726L46.5229 61.8378C46.8447 61.9381 47.146 62.0967 47.4784 62.1668L47.4882 62.2359C47.5514 62.2437 47.6777 62.2583 47.7409 62.2661C48.0131 62.3848 48.3066 62.4471 48.6041 62.4549C49.0668 61.8388 49.51 61.2071 49.9115 60.5511C49.9154 60.5228 49.9241 60.4664 49.928 60.4381C50.0592 60.261 50.137 60.0527 50.2381 59.858C50.2935 59.7403 50.3256 59.6137 50.381 59.4969C50.5025 59.277 50.5686 59.0336 50.6658 58.8029C50.7795 58.5148 50.8505 58.2121 50.9506 57.9192C50.9584 57.8549 50.9749 57.7264 50.9827 57.6622L51.0624 57.6632C51.0721 57.5152 51.0838 57.3673 51.1013 57.2213C51.3307 56.503 51.3365 55.7379 51.4619 54.9992C51.492 53.9197 51.5008 52.8393 51.4561 51.7609C51.354 51.4562 51.4045 51.1282 51.3666 50.8148C51.2772 50.0945 51.214 49.3694 51.0517 48.6608C50.6356 47.086 50.1739 45.515 49.5645 44.0024C49.5052 43.8652 49.4478 43.7289 49.3963 43.5907C49.2923 43.3591 49.1854 43.1294 49.1125 42.887L49.0512 42.8675C48.9764 42.6553 48.885 42.45 48.7888 42.2475C48.5205 41.7355 48.2366 41.2343 47.9489 40.734L47.8974 40.7116C47.7876 40.4215 47.562 40.1977 47.3997 39.9388C46.658 38.9187 45.7832 37.9668 44.7023 37.3049C44.5516 37.192 44.3912 37.0947 44.225 37.01C44.1745 36.9847 44.0734 36.936 44.0228 36.9117C43.8323 36.8046 43.634 36.7141 43.4328 36.6314C43.2141 36.5487 42.9934 36.427 42.7543 36.4455C42.0078 37.0061 41.3662 37.6865 40.7976 38.4243V38.4243Z" fill="white"/>
<path d="M77.5554 50.7915C77.709 50.7759 77.8422 50.7029 77.9812 50.6445L78.0463 50.6669C78.2261 50.7516 78.4215 50.8032 78.6179 50.8382C76.9178 51.027 75.5229 52.5406 75.3168 54.2147C75.2215 55.045 75.4821 55.9803 76.1878 56.4826C76.8555 56.9848 77.7829 57.0072 78.5382 56.6996C80.1867 56.0718 81.3756 54.2098 80.9624 52.4413C80.7855 51.7191 80.2179 51.0913 79.4849 50.919C79.7659 50.7107 80.1109 50.9005 80.4152 50.9404C80.5892 50.9862 80.7447 51.0825 80.9041 51.1672C81.2842 51.3891 81.605 51.6967 81.8781 52.0413C81.9753 52.2048 82.0725 52.3693 82.1619 52.5386C82.1775 52.6447 82.2154 52.744 82.2747 52.8345C82.3651 53.3387 82.298 53.8487 82.2766 54.3558L82.195 54.3627C82.1872 54.4259 82.1726 54.5525 82.1658 54.6157C82.124 54.7082 82.0851 54.8026 82.0492 54.898C81.9909 55.0625 81.9121 55.2192 81.8227 55.3701C81.5068 55.8781 81.0742 56.3083 80.6057 56.6772C80.109 57.0053 79.5705 57.2943 78.9775 57.3946L78.9785 57.4608C78.3544 57.5114 77.7119 57.6934 77.0937 57.5036C76.9265 57.4793 76.7496 57.4987 76.6009 57.4092C76.2704 57.3391 75.937 57.2632 75.6366 57.1036C75.5744 57.0958 75.45 57.0812 75.3878 57.0734L75.3839 56.9975C75.1146 56.9225 74.8813 56.761 74.615 56.6802L74.5917 56.612C74.268 56.5137 74.0065 56.2908 73.7188 56.1244C73.3717 55.9034 72.982 55.6786 72.8245 55.2747C72.771 55.1501 72.7253 55.0206 72.6806 54.8941C72.6369 54.5301 72.6408 54.1096 72.9081 53.8254C73.5525 53.1732 74.1863 52.5046 74.9231 51.9527C75.1564 51.8018 75.3829 51.6393 75.6288 51.5089C75.8339 51.3667 76.0692 51.2811 76.2918 51.1701C76.699 50.9998 77.1277 50.8976 77.5554 50.7915V50.7915Z" fill="white"/>
<path d="M76.2257 52.6633C76.3423 52.5815 76.4862 52.5844 76.6242 52.5767C76.873 52.9825 76.7632 53.4867 76.7311 53.9345C76.6728 54.023 76.632 54.1194 76.6077 54.2235C76.5348 54.3764 76.4599 54.5292 76.3812 54.68C76.1751 54.9175 76.0555 55.2952 75.7114 55.3575C75.6891 55.1706 75.6628 54.9847 75.6045 54.8066C75.5831 54.5399 75.587 54.2722 75.6016 54.0065C75.6891 53.5091 75.8572 53.0234 76.2257 52.6633V52.6633Z" fill="white"/>
<path d="M30.5805 0H31.4174C31.151 0.0486667 30.8866 0.109013 30.6174 0.13724C24.2282 0.82344 17.8535 1.71307 11.5683 3.06989C10.9403 3.15652 10.3863 3.47577 9.79721 3.68796C10.5292 3.13219 11.4672 2.98132 12.3459 2.80807C18.1218 1.58069 23.9793 0.777693 29.8427 0.115827C30.0925 0.1022 30.3404 0.07008 30.5805 0V0Z" fill="#B9B9B9"/>
<path d="M19.5283 12.3856C19.8637 11.0288 20.0542 9.63111 20.513 8.30835C20.4848 8.92934 20.2282 9.5182 20.1193 10.1285C19.9337 11.1378 19.6421 12.1248 19.504 13.1429C19.3349 13.9011 19.2562 14.673 19.1074 15.4332C18.7643 15.548 18.4231 15.3923 18.0771 15.4001C17.2994 15.3864 16.5189 15.4224 15.7432 15.3436C15.3213 15.3378 14.9053 15.2297 14.4815 15.2745C13.5085 15.2969 12.5345 15.2326 11.5644 15.1567C10.6584 15.1373 9.74958 15.145 8.84655 15.0818C8.80961 15.0516 8.73671 14.9922 8.70074 14.9621C9.07012 14.9747 9.44047 14.963 9.80985 14.9981C11.4954 15.1246 13.1887 15.0876 14.8722 15.2249C15.6178 15.2404 16.3634 15.2307 17.107 15.2803C17.7524 15.3602 18.4037 15.3592 19.053 15.3582C19.1453 14.3576 19.3786 13.3775 19.5283 12.3856Z" fill="#B9B9B9"/>
<path d="M66.0941 13.3892C66.6355 13.2909 67.1847 13.3016 67.732 13.2811C67.7641 13.3824 67.7922 13.4855 67.8156 13.5897C67.7572 13.5157 67.6989 13.4417 67.6406 13.3687C66.8319 13.4748 66.0124 13.4213 65.2066 13.5576C64.3658 13.6004 63.5356 13.8077 62.6929 13.7834C62.062 13.6928 61.4156 13.7454 60.7964 13.5868C61.6275 13.4661 62.446 13.7717 63.2781 13.6782C64.2122 13.5449 65.1492 13.4154 66.0941 13.3892V13.3892Z" fill="#B9B9B9"/>
<path d="M103.601 20.6113C103.8 20.7953 103.928 21.0357 104.015 21.2897C102.502 21.5886 100.966 21.7501 99.44 21.9672C98.7129 22.0363 97.9859 22.1823 97.2549 22.1434C97.9839 22.01 98.7256 21.9555 99.4604 21.8552C100.943 21.7015 102.409 21.4211 103.889 21.2547C103.787 21.0425 103.69 20.8294 103.601 20.6113Z" fill="#B9B9B9"/>
<path d="M54.7824 21.4153C56.3581 21.5243 57.9211 21.7559 59.4978 21.8377C60.1772 21.9243 60.8645 21.9214 61.54 22.0372C62.0922 22.0664 62.6453 22.083 63.1925 22.1696C64.1966 22.1891 65.192 22.3302 66.1971 22.3448C67.0613 22.4782 67.938 22.4266 68.8041 22.5395C69.4253 22.6096 70.0522 22.5473 70.6753 22.6047C72.0624 22.7692 73.4651 22.6465 74.8541 22.811C76.2762 22.849 77.6993 22.8441 79.1224 22.85C80.2529 22.9424 81.3882 22.887 82.5216 22.9035C84.1731 22.7935 85.8324 22.8792 87.4858 22.8071C88.2596 22.7205 89.0392 22.6962 89.8178 22.6952C90.437 22.6991 91.0474 22.556 91.6685 22.5765C92.3898 22.6105 93.0984 22.4052 93.8206 22.4636C93.7361 22.5434 93.6369 22.6076 93.5174 22.595C92.8982 22.6222 92.2751 22.5901 91.6627 22.6903C89.496 22.8159 87.3264 22.8889 85.1588 22.9424C82.3369 23.0437 79.5112 22.996 76.6874 22.9755C75.6629 22.8266 74.6267 22.9347 73.5992 22.8422C72.3618 22.8013 71.1283 22.7312 69.8909 22.6991C69.0287 22.5619 68.1499 22.6738 67.2897 22.519C66.1786 22.4879 65.0725 22.3672 63.9624 22.3234C63.5094 22.2806 63.0594 22.2085 62.6035 22.2222C60.7896 22.0295 58.9641 21.9399 57.1532 21.7277C56.4154 21.6878 55.6835 21.5749 54.9447 21.5418C54.9583 21.6722 54.972 21.8036 54.9846 21.935C54.901 21.7676 54.833 21.5944 54.7824 21.4153V21.4153Z" fill="#B9B9B9"/>
<path d="M94.5089 24.7265C97.5941 24.4394 100.67 24.016 103.707 23.3941C103.853 23.3581 104.001 23.3444 104.152 23.3522C104.193 23.359 104.276 23.3717 104.318 23.3785C102.974 23.6432 101.633 23.9236 100.275 24.1007C99.4527 24.2613 98.6225 24.3713 97.7895 24.454C96.6892 24.6224 95.582 24.7421 94.4719 24.8249C93.947 24.8492 93.4299 24.9932 92.9021 24.9397C93.4114 24.7382 93.9791 24.8365 94.5089 24.7265V24.7265Z" fill="#B9B9B9"/>
<path d="M102.936 23.8681C103.627 23.7435 104.327 23.6559 104.997 23.4359C104.94 23.6111 104.753 23.6218 104.605 23.6559C101.39 24.3061 98.1355 24.7587 94.8743 25.075C94.3727 25.0993 93.8721 25.2385 93.3696 25.1577C94.1171 24.9796 94.8928 25.002 95.6529 24.9037C98.0888 24.6273 100.526 24.3246 102.936 23.8681V23.8681Z" fill="#B9B9B9"/>
<path d="M90.8851 25.0331C91.2953 25.0107 91.7055 24.9114 92.1166 24.9796C91.4071 25.1713 90.6605 25.1022 89.9364 25.2005C88.9196 25.184 87.9155 25.3709 86.8987 25.3465C86.0326 25.4088 85.1646 25.4906 84.2956 25.4555L84.3024 25.3699C85.3337 25.3378 86.366 25.2979 87.3964 25.2473C88.0457 25.1305 88.7096 25.2229 89.3599 25.1227C89.8644 25.0448 90.3767 25.075 90.8851 25.0331V25.0331Z" fill="#B9B9B9"/>
<path d="M88.9468 25.405C89.7002 25.4294 90.4467 25.2249 91.201 25.3281C90.3631 25.5218 89.498 25.4109 88.6513 25.5218C87.7629 25.5452 86.8695 25.6299 85.9821 25.551C86.1541 25.5092 86.3301 25.4761 86.5109 25.4848C87.3235 25.5033 88.1332 25.3836 88.9468 25.405Z" fill="#B9B9B9"/>
<path d="M106.089 25.6697C106.215 25.8712 106.319 26.0872 106.385 26.3169C106.335 26.3199 106.234 26.3257 106.183 26.3286C106.202 26.6868 106.214 27.046 106.22 27.4051C106.199 27.4061 106.157 27.408 106.135 27.409C106.202 26.826 105.984 26.241 106.089 25.6697V25.6697Z" fill="#B9B9B9"/>
<path d="M87.5782 30.6337C88.1546 30.623 88.7271 30.4897 89.3035 30.5315C88.9089 30.7067 88.4715 30.6766 88.0515 30.7106C88.1118 30.7379 88.2333 30.7924 88.2936 30.8206L88.3879 30.8644C87.2088 30.88 86.0375 31.0678 84.8565 31.0153C84.6825 31.0153 84.4852 30.9793 84.3462 31.1126C84.282 31.0435 84.2188 30.9734 84.1576 30.9043C84.7185 30.8518 85.2851 30.8712 85.8441 30.7953C86.4176 30.6941 87.0056 30.7544 87.5782 30.6337V30.6337Z" fill="#B9B9B9"/>
<path d="M0.217736 35.6201C0.209959 34.6594 0.0408238 33.6792 0.242037 32.7312C0.348961 33.7318 0.236204 34.7333 0.291611 35.7359C0.327576 35.66 0.398536 35.5071 0.434501 35.4312C0.534622 35.8829 0.53851 36.3462 0.590028 36.8046C0.836927 38.9635 1.2899 41.1661 2.42622 43.0476C2.37859 43.0884 2.28138 43.1692 2.23278 43.2101C1.17228 41.5389 0.683344 39.5659 0.406312 37.6241C0.341185 36.9564 0.205099 36.2936 0.217736 35.6201Z" fill="#B9B9B9"/>
<path d="M78.0463 50.6668C78.8288 50.6084 79.7095 50.5247 80.4152 50.9403C80.1109 50.9004 79.7658 50.7106 79.4849 50.9189C79.1953 50.8926 78.9056 50.8673 78.6179 50.8381C78.4215 50.8031 78.2262 50.7515 78.0463 50.6668V50.6668Z" fill="#B9B9B9"/>
<path d="M31.4174 0H36.9289C37.376 0.0749467 37.8339 0.0194667 38.282 0.100253C39.0654 0.164493 39.8538 0.121667 40.6382 0.174227C41.2768 0.28324 41.9281 0.22484 42.5697 0.31828C43.9665 0.357213 45.3565 0.511 46.7533 0.565507C46.8262 0.579133 46.973 0.60736 47.0469 0.62196C48.4097 0.70664 49.7686 0.853613 51.1304 0.95776C52.293 1.10863 53.4672 1.20499 54.6337 1.34515C54.9195 1.41133 55.213 1.42301 55.5027 1.47363C56.3192 1.56707 57.1309 1.6936 57.9396 1.83668C58.3585 1.9418 58.7921 2.00117 59.1887 2.18319C61.9473 3.35995 64.5942 4.78685 67.1419 6.36755C70.5762 8.49039 73.8325 10.8819 77.1501 13.1799C77.4699 13.3892 77.7595 13.6773 78.1503 13.7425C78.7053 13.833 79.2633 13.907 79.8203 13.9936C81.6545 14.2973 83.5014 14.5299 85.3405 14.8112C87.061 15.0565 88.7825 15.2959 90.4962 15.585C92.7776 15.9354 95.0483 16.3491 97.3064 16.828C97.8867 16.9633 98.4738 17.0684 99.0512 17.2202C100.208 17.5268 101.454 17.6806 102.453 18.3931C103.384 19.0306 103.96 20.0283 104.524 20.9773C105.037 21.7978 105.484 22.6592 105.872 23.5469C106.004 23.8749 106.133 24.2029 106.255 24.5358C106.573 25.3894 106.815 26.2683 107.033 27.1531C107.204 27.8996 107.364 28.6501 107.482 29.4073C108.774 30.4322 109.466 32.011 109.829 33.5829C109.868 33.7124 109.901 33.8428 109.94 33.9732C110.006 34.3275 110.068 34.6838 110.152 35.0342C110.289 36.0484 110.032 37.0567 109.927 38.0612C109.894 38.7085 109.707 39.347 109.785 39.9991C109.962 41.1973 109.922 42.4179 109.874 43.6248C109.712 44.7383 109.569 45.9141 108.932 46.8748C108.718 47.2446 108.302 47.3906 107.945 47.5794C107.053 48.0428 106.156 48.4973 105.272 48.9762C105.093 49.4375 104.848 49.8794 104.502 50.2367C103.211 51.6441 101.415 52.4091 99.7355 53.2394C98.7586 53.6939 97.7817 54.1504 96.8145 54.6254C96.1749 54.97 95.4857 55.2045 94.817 55.4849C92.8145 56.282 90.7684 56.9614 88.7213 57.633C88.3315 57.7576 87.9077 57.8374 87.5898 58.1119C87.1514 58.4837 86.7782 58.9246 86.3709 59.3305C86.1629 59.533 85.9694 59.7792 85.6807 59.8668C82.7724 60.6971 79.8174 61.3745 76.8235 61.8076C74.3652 62.1941 71.8826 62.3877 69.4009 62.523C67.452 62.5493 65.5031 62.5883 63.5561 62.5318C63.3636 62.1376 63.1565 61.7512 62.968 61.356C62.7998 61.0066 62.7395 60.5725 62.3886 60.3486C61.7568 59.9077 60.9393 59.6683 60.1782 59.8318C59.2101 61.2382 58.3469 62.7333 57.1639 63.9791C56.6633 64.4862 56.1452 64.9904 55.5173 65.3389C54.9272 65.6961 54.2313 65.7798 53.5673 65.9122C52.4923 66.0845 51.4182 66.2674 50.3343 66.3813C49.4663 66.4534 48.5944 66.5984 47.7225 66.4981C47.0605 66.4086 46.4306 66.1808 45.79 66.0027C45.0989 65.8022 44.4583 65.4703 43.7867 65.2201C42.3626 64.4619 41.0727 63.4487 40.02 62.2242C38.8749 60.9054 37.9622 59.3957 37.2458 57.8053C37.0203 57.2923 36.7957 56.7794 36.6062 56.2528C35.6662 53.7076 35.0762 51.0406 34.7204 48.3542C31.2881 46.8816 27.8529 45.4138 24.4206 43.9411C20.3915 42.2251 16.375 40.4731 12.3352 38.7815C12.2847 39.8259 12.0057 40.842 11.6859 41.8319C11.3253 42.7945 10.9423 43.8097 10.1647 44.5193C9.16929 44.6449 8.19531 44.896 7.19605 44.9991C6.50201 45.0692 5.80116 45.3028 5.10324 45.1403C4.59291 45.0702 4.11953 44.8639 3.64128 44.6857C3.04445 44.3305 2.60509 43.7864 2.23279 43.2102C2.2814 43.1693 2.3786 43.0885 2.42623 43.0476C2.67896 43.4759 3.08819 43.8535 3.5956 43.9246C3.98247 43.9168 4.33921 43.69 4.56861 43.3873C4.9341 42.9006 5.16253 42.3273 5.3307 41.7472C5.56787 40.9588 5.67771 40.1383 5.7827 39.3236C5.84102 37.9298 5.82352 36.5331 5.7963 35.1383C5.65536 33.5625 5.41915 31.9837 4.94382 30.4702C4.63568 29.528 4.28381 28.5664 3.63351 27.8013C3.34092 27.4607 2.92003 27.1463 2.4447 27.2251C1.92174 27.3108 1.59805 27.7945 1.35698 28.2237C0.787367 29.3548 0.598791 30.625 0.448124 31.8679C0.389802 33.0544 0.286765 34.2467 0.434516 35.4313C0.39855 35.5072 0.327591 35.66 0.291625 35.7359C0.236219 34.7334 0.348976 33.7318 0.242051 32.7313C0.258576 32.1404 0.2508 31.5486 0.338283 30.9627C0.465621 29.9796 0.225526 29.0063 0.227471 28.0242C0.203169 26.2411 0.111797 24.4239 0.582266 22.6845C0.696967 22.3 0.794172 21.9078 0.805836 21.5039C0.823333 20.8206 0.917621 20.1422 0.952615 19.4599C1.09064 18.6189 1.15383 17.7633 1.37254 16.937C1.48627 16.5116 1.59416 16.0824 1.76233 15.6746C1.90133 15.3183 2.05297 14.966 2.25224 14.6389C3.65878 12.0246 5.02353 9.38488 6.56908 6.84837C7.29908 5.50031 8.51997 4.49291 9.79723 3.68796C10.3863 3.47577 10.9404 3.15652 11.5683 3.06989C17.8535 1.71307 24.2282 0.82344 30.6174 0.13724C30.8867 0.109013 31.1511 0.0486667 31.4174 0ZM30.8381 1.38116C29.799 1.48433 28.753 1.55539 27.7159 1.67024C27.0228 1.68095 26.3443 1.81819 25.6522 1.82889C24.8581 1.96613 24.0357 1.95932 23.2328 2.07515C22.6749 2.07709 22.1344 2.22309 21.5755 2.21628C21.002 2.33503 20.4022 2.3506 19.817 2.41679C19.5196 2.48297 19.2154 2.48297 18.9131 2.49271L18.9014 2.5696C18.5719 2.58031 18.2404 2.58225 17.9128 2.62703C17.6873 2.72631 17.4336 2.71949 17.1954 2.75551C16.7921 2.77887 16.3984 2.88691 15.994 2.88204L15.9882 2.96185C15.7228 2.96769 15.4526 2.96283 15.195 3.03777C14.6156 3.17696 14.011 3.18864 13.4375 3.34632C13.3189 3.35605 13.2013 3.36579 13.0827 3.3726L13.0682 3.44268C12.587 3.47285 12.1194 3.59744 11.6451 3.67628C11.4847 3.74539 11.3088 3.7522 11.1387 3.77069L11.1348 3.83785C10.8801 3.88652 10.6371 3.97704 10.4096 4.09968C9.50465 4.48707 8.73673 5.12557 8.02909 5.79912C7.68984 6.18456 7.29908 6.52912 7.04149 6.98172C7.29228 6.93889 7.54015 6.87952 7.78899 6.82599C8.34889 6.65663 8.9467 6.63229 9.50562 6.47656C9.59991 6.47267 9.78946 6.46585 9.88374 6.46293C9.94207 6.94376 9.47257 7.23965 9.26941 7.62899C9.14305 7.82365 9.01182 8.01637 8.87671 8.2052C8.74743 8.40376 8.61523 8.60135 8.48595 8.80088C8.35083 9.01209 8.20891 9.21941 8.0806 9.43452C7.82496 9.84137 7.54598 10.2327 7.32144 10.657L7.26409 10.6745C7.16688 10.9208 7.01233 11.1379 6.86944 11.3588C6.76349 11.5428 6.65365 11.7248 6.54575 11.9078C6.40772 12.1209 6.26094 12.3312 6.15304 12.5628C5.67285 13.2159 5.42304 14.0968 4.67262 14.5075C4.07968 14.7518 3.41966 14.5796 2.79755 14.6419C2.73534 14.7616 2.66244 14.8764 2.57981 14.9845C2.5769 15.0117 2.57107 15.0672 2.56815 15.0945C2.39901 15.2911 2.34166 15.5509 2.19391 15.7612C2.19197 15.7904 2.18905 15.8488 2.18808 15.878C2.11421 15.9899 2.0588 16.1126 2.01214 16.2391C1.9616 16.4396 1.90716 16.6411 1.81579 16.828C1.80996 16.8922 1.79926 17.0197 1.79343 17.0839L1.71761 17.0849C1.704 17.2348 1.68845 17.3828 1.66901 17.5317C1.52029 18.1809 1.4017 18.8467 1.40267 19.5153L1.32199 19.5144C1.32588 19.9553 1.29672 20.3952 1.2763 20.8361C1.20049 21.1865 1.19368 21.5574 1.0401 21.8883C1.03524 21.9526 1.02455 22.083 1.01969 22.1482L0.944838 22.1531C0.93609 22.558 0.816528 22.9483 0.780563 23.3503C0.698911 23.8652 0.734877 24.3888 0.650309 24.9027C0.654197 25.1208 0.590043 25.3875 0.732933 25.5724C0.730017 25.2599 0.839858 24.9709 0.937062 24.6798L0.994412 24.6584C1.18493 24.1104 1.67095 23.6822 2.22891 23.5371C2.51566 23.5313 2.76742 23.7123 3.0289 23.8116C3.70058 24.2321 4.13411 24.9115 4.5171 25.586C4.5171 25.623 4.5171 25.696 4.5171 25.732L4.6075 25.7466C4.68818 26.0367 4.83981 26.3004 4.93021 26.5876C4.97396 26.682 5.01089 26.7793 5.04297 26.8796C5.13726 27.1375 5.22474 27.3974 5.30931 27.6592C5.47164 28.0232 5.50275 28.433 5.66411 28.799C5.66994 28.8632 5.6816 28.9927 5.68743 29.0579L5.76034 29.0618C5.7827 29.2039 5.80991 29.346 5.84491 29.4871C5.90614 29.7139 5.95863 29.9456 6.04903 30.1636C6.06362 30.2794 6.07722 30.3962 6.08889 30.513L6.15693 30.5082C6.21525 30.8547 6.31926 31.1924 6.44174 31.5214C6.44854 31.5856 6.46313 31.7131 6.46993 31.7764L6.55255 31.7842C6.56033 31.8484 6.57394 31.9759 6.58074 32.0402C6.69058 32.301 6.78196 32.5697 6.85875 32.8432L6.92679 32.8636C6.95206 33.107 7.19313 33.2062 7.39434 33.2753C7.49252 33.3045 7.59167 33.3347 7.68984 33.3649C7.78608 33.4058 7.88425 33.4398 7.98437 33.4681C8.28376 33.5654 8.58024 33.6734 8.88837 33.7425L8.89809 33.8126C8.96128 33.8204 9.08667 33.837 9.14985 33.8447C9.3394 33.9226 9.53381 33.9859 9.72725 34.0521C9.83611 34.0832 9.94595 34.1105 10.0568 34.1329L10.0655 34.2029C10.1287 34.2097 10.2531 34.2253 10.3163 34.2331C10.5311 34.3197 10.7498 34.3966 10.9685 34.4745C11.0696 34.4979 11.1678 34.5319 11.2621 34.5767C11.5508 34.6789 11.8473 34.7597 12.136 34.8629C12.2371 34.8872 12.3343 34.9222 12.4295 34.966C12.7182 35.0682 13.0137 35.151 13.3024 35.2512C13.4035 35.2765 13.5017 35.3106 13.5969 35.3554C13.8847 35.4576 14.1782 35.5413 14.4679 35.6396C14.569 35.6668 14.6672 35.7009 14.7624 35.7437C15.1464 35.8878 15.5488 35.9783 15.9279 36.134C16.3128 36.2752 16.7143 36.3686 17.0953 36.5234C17.4803 36.6635 17.8798 36.7609 18.2618 36.9098C18.359 36.9419 18.4562 36.974 18.5534 37.0081C18.8421 37.1132 19.1434 37.1794 19.4273 37.3001C19.5254 37.3303 19.6236 37.3624 19.7208 37.3984C20.0095 37.5016 20.3099 37.5687 20.5937 37.6894C20.6919 37.7186 20.7891 37.7507 20.8853 37.7877C21.175 37.8919 21.4763 37.9581 21.7602 38.0787C21.8583 38.107 21.9565 38.1401 22.0527 38.1771C22.3414 38.2812 22.6418 38.3493 22.9266 38.4681C23.2581 38.5868 23.5905 38.7036 23.9288 38.8049C24.3127 38.9479 24.7025 39.0735 25.0943 39.1932C25.868 39.4638 26.6476 39.7208 27.4272 39.9738C28.2019 40.2415 28.9795 40.5004 29.7591 40.7515C30.1703 40.9053 30.5921 41.0279 31.0053 41.1759C31.6011 41.3394 32.1814 41.5604 32.647 41.9799C32.685 41.9896 32.7588 42.0081 32.7958 42.0178C32.8172 41.9555 32.8589 41.8319 32.8794 41.7706C32.892 41.3599 32.9076 40.9501 32.9144 40.5413L32.9882 40.5364C32.9941 40.258 33.0086 39.9797 33.0368 39.7032C33.1408 39.2283 33.1389 38.7319 33.2692 38.2647C33.2808 38.1459 33.2925 38.0272 33.3012 37.9094L33.377 37.9133C33.3868 37.7614 33.3994 37.6096 33.4159 37.4587C33.5151 37.1784 33.5277 36.8728 33.656 36.6041C33.6696 36.4873 33.6823 36.3705 33.6939 36.2547L33.761 36.2586C33.8329 35.8401 33.9962 35.4449 34.1411 35.0488C34.2548 34.7723 34.3987 34.5066 34.4696 34.2146L34.5309 34.2039C34.6008 33.9888 34.7107 33.7902 34.8254 33.5975C35.6166 32.1473 36.8152 30.8741 38.3413 30.2006L38.3588 30.1373C38.7126 30.0419 39.0411 29.8609 39.4066 29.8064L39.4105 29.7421C39.984 29.6555 40.5361 29.4375 41.1213 29.4297C41.6025 29.4151 42.0992 29.3752 42.5667 29.5105C43.0975 29.5786 43.6097 29.7373 44.1171 29.9008C44.3602 29.9582 44.5973 30.039 44.8248 30.1422C44.9424 30.2016 45.0639 30.2502 45.1874 30.3008C45.4139 30.3884 45.6452 30.4692 45.861 30.5841C46.0846 30.7281 46.3334 30.8264 46.556 30.9734C46.8408 31.0707 47.0712 31.2713 47.322 31.4309C49.2301 32.6573 50.8272 34.3188 52.1725 36.135C52.2697 36.2635 52.3688 36.39 52.468 36.5185C53.0638 37.3643 53.6247 38.2345 54.1525 39.1251C54.2808 39.4112 54.4918 39.6526 54.5967 39.9505L54.656 39.968C54.7221 40.2386 54.9243 40.4498 54.9904 40.7213L55.0517 40.7389C55.1119 40.9306 55.215 41.1048 55.3238 41.2732C55.4648 41.611 55.6621 41.9244 55.7632 42.2787L55.8322 42.3001C55.9022 42.56 56.049 42.7887 56.151 43.0369C56.3532 43.4077 56.4874 43.8097 56.6614 44.1942C56.7867 44.4434 56.8373 44.7286 57.0093 44.9534C57.0103 44.9826 57.0132 45.041 57.0152 45.0702C57.1552 45.2824 57.2028 45.5393 57.3126 45.7691C57.4682 46.1126 57.5673 46.4806 57.7131 46.83C57.75 46.9254 57.787 47.0227 57.8229 47.12C57.892 47.2797 57.9542 47.4412 58.0076 47.6077C58.0397 47.705 58.0737 47.8023 58.1087 47.8997C58.1476 47.9941 58.1807 48.0914 58.2089 48.1917C58.4062 48.7221 58.5928 49.2575 58.76 49.7987C59.039 49.8853 59.3335 49.8901 59.6241 49.894L59.6397 49.9738C59.941 49.9738 60.2443 49.9797 60.5408 50.043C61.3563 50.1393 62.1777 50.1685 62.9952 50.2522C63.5405 50.297 64.0946 50.2366 64.6331 50.3515C65.9123 50.3885 67.1925 50.3943 68.4717 50.3827L68.4863 50.4615C69.0131 50.4148 69.5575 50.5277 70.0726 50.3953C71.6804 50.3924 73.2872 50.3651 74.894 50.3661L74.9027 50.2814C75.729 50.2941 76.5552 50.2668 77.3814 50.2435C78.2475 50.1383 79.1253 50.2113 79.9923 50.113C80.4813 50.0916 80.9702 50.078 81.4601 50.0683C81.5836 50.0605 81.7235 50.0799 81.8344 50.003C81.9491 49.9884 82.0657 49.9768 82.1833 49.967L82.1853 49.897C82.5877 49.8162 82.9678 49.5865 83.1884 49.2341C83.4664 48.7747 83.7872 48.3435 84.0982 47.9065C84.731 47.0879 85.4319 46.318 86.2426 45.6717C86.4603 45.4965 86.6858 45.332 86.923 45.1831C87.3001 44.93 87.6812 44.6711 88.1069 44.5057L88.1176 44.4482C88.2605 44.4288 88.419 44.4453 88.5444 44.3577C88.6474 44.3373 88.7524 44.3178 88.8574 44.3003C89.1373 44.2078 89.4367 44.1815 89.7089 44.0628C89.8226 44.0511 89.9373 44.0414 90.0539 44.0336L90.0656 43.9616C90.471 43.9032 90.8734 43.8058 91.2632 43.6803C91.3652 43.6637 91.4673 43.6482 91.5713 43.6316C91.9417 43.4749 92.3548 43.4389 92.7426 43.3318C92.87 43.2909 93.0022 43.2647 93.1363 43.2413C93.5378 43.0982 93.9674 43.0486 94.3727 42.9113C94.4981 42.8831 94.6255 42.8529 94.747 42.8043C94.8558 42.7829 94.9667 42.7615 95.0794 42.741C95.3584 42.6524 95.6519 42.6135 95.9299 42.5142C95.9854 42.5045 96.0981 42.486 96.1535 42.4772C96.5423 42.305 96.9846 42.2797 97.3861 42.1337C97.9557 41.9857 98.5195 41.8086 99.0978 41.6908L99.1076 41.6324C99.9085 41.4591 100.695 41.2109 101.473 40.9569C101.537 40.9481 101.664 40.9316 101.728 40.9228L101.726 40.8508C102.16 40.7924 102.551 40.5773 102.985 40.5179L102.989 40.4595C103.296 40.3797 103.606 40.2989 103.901 40.1763C103.963 40.1656 104.087 40.1461 104.15 40.1364L104.159 40.0682C104.436 40.003 104.702 39.8989 104.969 39.7996C105.071 39.7782 105.167 39.7402 105.258 39.6867C105.357 39.6585 105.456 39.6263 105.555 39.5894C105.793 39.4969 106.038 39.42 106.286 39.3538L106.301 39.2954C106.631 39.2205 106.931 39.054 107.26 38.9703L107.267 38.909C107.378 38.8886 107.488 38.8564 107.594 38.8126C107.897 38.6861 108.202 38.5664 108.516 38.47L108.533 38.4116C108.752 38.3435 108.963 38.2549 109.184 38.1907C109.209 38.1576 109.258 38.0914 109.283 38.0583C109.393 37.6008 109.429 37.1288 109.408 36.6606C109.438 36.8358 109.469 37.0129 109.498 37.1901C109.392 36.4747 109.747 35.7603 109.534 35.0575C109.504 34.7529 109.423 34.4579 109.366 34.1591C109.272 33.7562 109.165 33.3571 109.09 32.9512L109.019 32.9483C109.013 32.886 108.999 32.7605 108.992 32.6982C108.845 32.4247 108.811 32.1054 108.644 31.8416C108.547 31.5701 108.411 31.316 108.256 31.0737C107.941 30.5276 107.531 30.0264 107.032 29.6409C106.86 29.6098 106.7 29.7003 106.54 29.7383C106.577 29.8122 106.616 29.8852 106.656 29.9592C106.878 30.3028 107.009 30.8167 106.692 31.1447C106.689 31.1729 106.683 31.2304 106.68 31.2586C106.55 31.426 106.324 31.6012 106.396 31.8397C106.474 32.0003 106.574 32.1492 106.677 32.2962C106.682 32.3779 106.692 32.5424 106.697 32.6242C106.386 32.6933 106.125 32.8889 105.82 32.9736L105.804 33.0291C105.48 33.1031 105.185 33.2607 104.869 33.3571C104.568 33.5138 104.219 33.5401 103.919 33.7007C103.803 33.7153 103.69 33.7299 103.577 33.7435L103.575 33.8097C103.234 33.8944 102.89 33.9693 102.559 34.0891C102.443 34.1037 102.326 34.1173 102.211 34.129V34.1981C101.686 34.2759 101.186 34.4813 100.655 34.5222L100.654 34.5854C100.219 34.6662 99.7851 34.7606 99.3525 34.8531C98.7411 35.0118 98.1151 35.0965 97.5037 35.2493C97.2821 35.2804 97.0527 35.2755 96.8446 35.3612C96.1749 35.4868 95.5061 35.6425 94.8257 35.6863L94.8267 35.7642C94.675 35.77 94.5224 35.7788 94.3747 35.7943C93.7224 35.9248 93.0546 36.0289 92.3907 36.0737V36.1515C91.7832 36.173 91.1601 36.2664 90.6051 36.5214C90.0987 36.72 89.7565 37.155 89.3823 37.5269C89.2335 37.6768 89.1733 37.9074 88.9585 37.9843C89.1334 38.0252 89.2442 37.8442 89.2977 37.703L89.3842 37.7371L89.3609 37.6067L89.4668 37.6115C89.4989 37.5716 89.5621 37.4918 89.5932 37.4519C89.878 37.2456 90.1317 36.9935 90.4632 36.8523C90.5973 36.793 90.7324 36.7346 90.8695 36.6771C91.1737 36.5944 91.4838 36.5146 91.8036 36.536L91.8095 36.462C91.9912 36.4542 92.173 36.4387 92.3548 36.4192C93.0187 36.2859 93.702 36.2508 94.3562 36.0795C94.4991 36.0591 94.642 36.0425 94.7878 36.027C95.162 35.9209 95.5577 35.9121 95.9309 35.7963C96.1088 35.7749 96.2906 35.7612 96.4723 35.7534L96.4685 35.6834C97.0954 35.6259 97.701 35.4235 98.328 35.3729C98.3289 35.3544 98.3289 35.3164 98.3289 35.2979C98.4767 35.2853 98.6235 35.2707 98.7741 35.2551C99.0852 35.1539 99.4157 35.1256 99.7287 35.0264C99.9979 34.9991 100.261 34.9358 100.518 34.8502C100.92 34.7587 101.322 34.6614 101.729 34.5893L101.735 34.5309C102.142 34.4725 102.546 34.3723 102.937 34.2428C103.05 34.2263 103.165 34.2127 103.282 34.2L103.283 34.1338C103.627 34.0686 103.965 33.9761 104.291 33.8516C104.356 33.8447 104.485 33.8311 104.55 33.8243C104.549 33.8058 104.549 33.7669 104.548 33.7474C104.835 33.7017 105.108 33.6024 105.38 33.5041C105.488 33.472 105.598 33.4428 105.71 33.4155L105.713 33.3552C105.96 33.2919 106.202 33.1994 106.433 33.0865C106.573 33.0194 106.718 32.96 106.868 32.9162C106.922 33.3084 106.97 33.7026 106.949 34.1007C106.884 34.1066 106.755 34.1192 106.689 34.1251L106.676 34.1971C106.341 34.2613 106.041 34.4287 105.718 34.5261L105.705 34.5913C105.434 34.6633 105.209 34.8444 104.936 34.9086L104.925 34.9758C104.637 35.0527 104.369 35.1899 104.092 35.2979C103.985 35.3787 103.851 35.4069 103.731 35.4537C103.565 35.5072 103.403 35.5705 103.242 35.6308C103.139 35.6542 103.043 35.6931 102.956 35.7466C102.856 35.7778 102.758 35.8109 102.661 35.844C102.391 35.951 102.114 36.0503 101.824 36.0844V36.1554C101.76 36.1623 101.632 36.1749 101.569 36.1817C101.242 36.3121 100.9 36.3949 100.558 36.4689V36.5311C99.9989 36.5886 99.4692 36.8037 98.9102 36.8601L98.8995 36.9292C98.7829 36.9361 98.6672 36.9448 98.5525 36.9565C98.0373 37.0986 97.4969 37.1765 96.9661 37.2456L96.9574 37.3186C96.7649 37.3234 96.5734 37.3322 96.3829 37.3361L96.3703 37.413C95.9338 37.4227 95.5052 37.5152 95.0755 37.5853C94.8646 37.6106 94.6537 37.6271 94.4427 37.6339L94.4291 37.7079C93.9859 37.6836 93.5582 37.8189 93.1188 37.8432C92.418 37.9503 91.6996 37.961 91.0065 38.0904C90.8539 38.1021 90.7004 38.1089 90.5507 38.1157L90.5429 38.1897C90.0471 38.1897 89.5708 38.3396 89.0838 38.4029L89.0809 38.4778C88.7388 38.4837 88.3947 38.5167 88.0545 38.4759C87.6131 38.3513 87.2156 38.1011 86.8715 37.8023C86.4253 37.2018 86.0102 36.5769 85.5641 35.9763C85.0401 35.3116 84.5551 34.5942 83.8766 34.0744C83.3148 33.8593 82.717 34.0151 82.1367 33.9791C80.7418 34.0229 79.344 34.0229 77.9491 33.9703C77.3425 33.8934 76.7204 33.9713 76.1207 33.8545C75.7688 33.799 75.3965 33.871 75.0621 33.7357C74.9222 33.7241 74.7812 33.7124 74.6432 33.6987C74.2369 33.5839 73.8004 33.615 73.4009 33.4651C73.2493 33.4476 73.1005 33.435 72.9509 33.4233V33.3454C72.8342 33.3357 72.7176 33.324 72.6019 33.3123C72.1577 33.1585 71.7008 33.0408 71.2634 32.8675C71.0379 32.7585 70.7783 32.7176 70.583 32.558C70.5538 32.5541 70.4974 32.5473 70.4692 32.5434C70.2466 32.3935 69.9968 32.2913 69.7723 32.1473C69.5963 32.0392 69.4165 31.937 69.2542 31.8114C68.564 31.3345 67.9847 30.7213 67.4481 30.0828C66.7424 29.384 65.9706 28.7377 65.0977 28.2578C64.8489 28.1021 64.5884 27.9609 64.3094 27.8704L64.29 27.8081C64.0469 27.7361 63.8195 27.6242 63.5833 27.5356C63.4832 27.5035 63.3869 27.4655 63.2936 27.4227C62.8941 27.2825 62.4878 27.155 62.0708 27.0859L62.064 27.0178C61.9454 27.0081 61.8268 26.9983 61.7101 26.9866C61.2543 26.8445 60.7731 26.7998 60.3056 26.7063L60.3133 26.6382C60.1627 26.6275 60.012 26.6139 59.8642 26.5983C59.4463 26.4513 59.005 26.3783 58.5967 26.2012C58.3663 26.099 58.1301 26.0104 57.8929 25.9306L57.8706 25.8654C56.9326 25.4614 56.2521 24.638 55.769 23.76C55.6757 23.5654 55.5834 23.3717 55.4871 23.179C55.3481 22.8578 55.2188 22.5336 55.1012 22.2047C55.0633 22.1132 55.0264 22.0236 54.9846 21.935C54.9719 21.8036 54.9583 21.6722 54.9447 21.5418C55.6835 21.5749 56.4154 21.6878 57.1532 21.7277C58.9641 21.9399 60.7896 22.0295 62.6035 22.2222C63.0593 22.2085 63.5094 22.2806 63.9624 22.3234C65.0724 22.3672 66.1786 22.4879 67.2897 22.519C68.1499 22.6738 69.0287 22.5619 69.8909 22.6991C71.1283 22.7312 72.3618 22.8013 73.5992 22.8422C74.6267 22.9347 75.6629 22.8266 76.6874 22.9755C79.5112 22.996 82.3369 23.0437 85.1587 22.9424C87.3264 22.8889 89.496 22.8159 91.6627 22.6903C92.2751 22.5901 92.8981 22.6222 93.5173 22.595C93.6369 22.6076 93.736 22.5434 93.8206 22.4636C94.4758 22.484 95.1193 22.3409 95.7734 22.3292C96.1982 22.191 96.657 22.2825 97.0906 22.1862C97.1324 22.1755 97.214 22.154 97.2548 22.1433C97.9858 22.1823 98.7129 22.0363 99.44 21.9672C100.966 21.7501 102.502 21.5885 104.015 21.2897C103.928 21.0357 103.8 20.7953 103.601 20.6113C103.589 20.5811 103.562 20.5198 103.55 20.4887C102.942 19.5805 102.127 18.7406 101.053 18.4252L101.042 18.3551C100.979 18.3473 100.852 18.3327 100.79 18.3249C100.393 18.1536 99.9474 18.1429 99.5498 17.9765C99.4439 17.9619 99.3399 17.9473 99.2359 17.9337C98.9316 17.811 98.5992 17.7896 98.2842 17.7088C98.1695 17.702 98.0684 17.665 97.9819 17.5969C97.8147 17.5794 97.6485 17.5648 97.4833 17.5463C97.0011 17.3983 96.4966 17.3146 95.996 17.2611L95.9834 17.1852C95.823 17.1823 95.6636 17.1774 95.5061 17.1754L95.4974 17.0985C94.9443 17.0703 94.4106 16.8961 93.8576 16.8718L93.841 16.8017C93.6505 16.7949 93.461 16.7851 93.2734 16.7793L93.2636 16.7034C92.6328 16.6654 92.0048 16.5428 91.3856 16.4279C90.9822 16.4172 90.5963 16.2868 90.1949 16.2644C89.7176 16.1632 89.2219 16.1661 88.7514 16.0396C88.5405 16.0152 88.3295 16.0055 88.1186 16.0035L88.1099 15.9257C87.8649 15.9208 87.6219 15.9072 87.3799 15.8751C85.9461 15.6804 84.5143 15.4419 83.0718 15.3173L83.0533 15.2482C82.7267 15.2161 82.3709 15.2823 82.0657 15.1431C81.9257 15.1266 81.7848 15.1149 81.6467 15.1013C80.9556 14.9961 80.2606 14.8832 79.5627 14.8336L79.5617 14.7557C79.3479 14.7528 79.135 14.7411 78.9241 14.7119C78.4847 14.5844 78.0084 14.6273 77.5739 14.4822C77.152 14.4219 76.7282 14.4735 76.3054 14.4647C75.6862 14.4929 75.0602 14.4258 74.4478 14.5387C72.5727 14.5747 70.6938 14.5465 68.8206 14.635C66.8445 14.636 64.8693 14.672 62.8951 14.6847C62.7658 14.7158 62.6365 14.7314 62.5063 14.7314C61.4837 14.7207 60.462 14.7548 59.4404 14.7587L59.4424 14.8336C58.4169 14.8151 57.3914 14.857 56.3659 14.8716C55.9032 15.0146 55.3997 14.9037 54.9233 14.9757C54.4111 15.0555 53.8862 15.0059 53.3778 15.1013C52.8471 15.1168 52.3299 15.2414 51.8002 15.2589C51.179 15.3611 50.555 15.4818 49.928 15.5471L49.9222 15.623C49.8561 15.6269 49.7249 15.6366 49.6588 15.6405C49.406 15.7378 49.1407 15.7982 48.8782 15.8595C48.5118 15.9121 48.1424 15.9228 47.774 15.9267L47.7711 16.0045C47.4921 16.0065 47.2121 16.0143 46.9332 16.0376C46.7524 16.1165 46.5521 16.1028 46.3597 16.1155C45.6306 16.1729 44.9045 16.2771 44.1735 16.3043L44.1813 16.3841C43.8042 16.3841 43.427 16.3997 43.0508 16.4269C42.5454 16.5564 42.002 16.533 41.4819 16.5155C41.133 15.949 40.7257 15.4225 40.3612 14.8657C39.9879 14.3314 39.6292 13.7873 39.2472 13.2587C39.117 13.0631 38.9896 12.8655 38.8545 12.6738C38.7019 12.4645 38.558 12.2484 38.4151 12.0333C38.0283 11.5106 37.6851 10.9597 37.3031 10.4341C37.1729 10.2414 37.0426 10.0497 36.9036 9.86376L36.8745 9.79368C36.0628 8.65488 35.291 7.48883 34.4832 6.34808C34.3403 6.12908 34.1897 5.91495 34.0429 5.69984C33.4616 4.85888 32.8823 4.01792 32.3039 3.17501C32.1552 2.94823 31.9608 2.74577 31.8801 2.48103C32.789 2.49076 33.692 2.40316 34.5999 2.39537C35.4096 2.35547 36.2251 2.40997 37.031 2.32724C40.6275 2.26592 44.226 2.24353 47.8235 2.31848C48.6595 2.41387 49.5071 2.33697 50.3411 2.44696C50.6736 2.46935 51.006 2.46837 51.3385 2.49271C51.8672 2.63871 52.4417 2.53359 52.987 2.60756C53.6587 2.71755 54.3479 2.72241 55.0264 2.80807C55.5805 2.85868 56.1287 2.95212 56.6837 2.99495C57.2708 3.14095 57.8949 3.10201 58.483 3.26067C58.481 3.21784 58.4762 3.13219 58.4742 3.09033C58.2759 3.08157 58.0786 3.06989 57.8813 3.06503L57.892 2.97937C57.1415 2.8908 56.3989 2.72728 55.6436 2.67083L55.6446 2.59977C55.0692 2.62411 54.5112 2.47324 53.9406 2.44404C52.9258 2.33892 51.912 2.17345 50.8894 2.16956L50.8962 2.09072C50.6454 2.09072 50.3956 2.07904 50.1477 2.05957C49.3963 1.96808 48.6381 1.90189 47.8809 1.88535L47.8663 1.81429C47.5008 1.8104 47.1334 1.81916 46.7708 1.77536C46.2586 1.64883 45.7239 1.74421 45.2097 1.64201C44.6566 1.59043 44.0997 1.60892 43.5485 1.53787C43.1014 1.47947 42.6348 1.56512 42.2003 1.43956C41.5675 1.42204 40.9337 1.4016 40.2999 1.40063L40.296 1.31887C39.4718 1.31497 38.6377 1.33736 37.8203 1.24976C36.0356 1.21569 34.2509 1.1826 32.4662 1.21667C32.2709 1.21083 32.0765 1.22737 31.8889 1.27993C31.5379 1.31303 31.1822 1.29843 30.8381 1.38116V1.38116ZM67.9468 12.9775C68.0012 13.0933 68.0576 13.2072 68.1159 13.321C68.2899 13.3074 68.4649 13.2918 68.6398 13.2675C69.0345 13.1059 69.4807 13.2033 69.8967 13.1575C70.0483 13.0991 70.2107 13.0981 70.3711 13.0962C70.3574 13.0514 70.3302 12.9609 70.3166 12.9161C69.5283 12.9385 68.7264 12.8373 67.9468 12.9775ZM66.0941 13.3892C65.1492 13.4155 64.2122 13.5449 63.2781 13.6783C62.446 13.7717 61.6275 13.4661 60.7964 13.5868C60.5213 13.5459 60.2414 13.5673 59.9653 13.5469C59.6553 13.4427 59.3238 13.4982 59.004 13.4846C57.7063 13.4466 56.4067 13.4777 55.109 13.4846C55.0118 13.4865 54.9185 13.506 54.83 13.5439C54.7134 13.5527 54.5977 13.5605 54.482 13.5683C54.4772 13.6237 54.4684 13.7347 54.4645 13.7902C55.7826 13.7873 57.1027 13.7551 58.4188 13.8525C59.1858 13.8262 59.9391 13.9975 60.7051 13.9829L60.7012 14.0617C60.9811 14.0598 61.263 14.0686 61.543 14.0958C62.3614 14.2525 63.1954 14.3226 64.0129 14.4929L64.0022 14.3615L64.0936 14.3518C64.1043 14.2301 64.116 14.1075 64.1286 13.9858C64.463 13.9595 64.8003 13.9557 65.1356 13.9333C66.0562 13.7775 67.0117 13.9274 67.9322 13.7639C67.903 13.7201 67.8447 13.6335 67.8155 13.5897C67.7922 13.4855 67.764 13.3824 67.732 13.2811C67.1847 13.3016 66.6355 13.2909 66.0941 13.3892V13.3892ZM47.6748 13.9673L47.6787 14.0501C47.044 14.0403 46.4092 14.0783 45.7745 14.0978C44.9463 14.2194 44.0928 14.1893 43.2656 14.3236C42.9225 14.3489 42.5784 14.3625 42.2343 14.3674L42.2265 14.4443C41.9495 14.4482 41.6715 14.4589 41.3954 14.4851C41.1874 14.5543 40.9677 14.5543 40.7519 14.564C40.7772 14.6701 40.7772 14.7908 40.8569 14.8764C40.9026 14.9991 40.9493 15.1227 40.994 15.2473C41.1806 15.2385 41.3672 15.2288 41.5548 15.2229L41.5587 15.1451C41.7706 15.1373 41.9825 15.1217 42.1944 15.0983C43.0761 14.9601 43.9665 14.8297 44.8617 14.8287L44.854 14.746C45.1611 14.7392 45.4732 14.7528 45.7755 14.6847C46.6824 14.6506 47.5854 14.5465 48.4943 14.5397C48.9171 14.4598 49.3477 14.4647 49.7774 14.4598C49.7268 14.2856 49.6743 14.1124 49.6218 13.9401C48.9725 13.9352 48.3232 13.9732 47.6748 13.9673V13.9673ZM104.199 21.7219C104.232 21.7598 104.297 21.8338 104.33 21.8708C104.457 22.0742 104.578 22.2815 104.72 22.4762C104.814 22.668 104.905 22.8782 104.846 23.0982C104.669 23.3074 104.356 23.2763 104.114 23.3464L104.151 23.3522C104.001 23.3444 103.853 23.3581 103.707 23.3941C100.67 24.016 97.5941 24.4394 94.5088 24.7266C93.9791 24.8365 93.4114 24.7382 92.902 24.9397C92.6396 24.9368 92.3752 24.9349 92.1166 24.9796C91.7054 24.9115 91.2952 25.0108 90.885 25.0332C90.3767 25.075 89.8644 25.0448 89.3599 25.1227C88.7096 25.223 88.0457 25.1305 87.3964 25.2473C86.366 25.2979 85.3337 25.3378 84.3024 25.3699L84.2956 25.4556C83.7357 25.4235 83.1758 25.4712 82.6159 25.4673C82.4137 25.478 82.2018 25.4381 82.0113 25.5198C83.3332 25.5685 84.6611 25.6026 85.9821 25.551C86.8695 25.6298 87.7628 25.5451 88.6513 25.5218C89.4979 25.4108 90.3631 25.5218 91.201 25.3281C91.9212 25.2648 92.6542 25.2814 93.3696 25.1577C93.8721 25.2385 94.3727 25.0993 94.8743 25.075C98.1355 24.7587 101.39 24.3061 104.605 23.6559C104.753 23.6218 104.94 23.6111 104.997 23.4359C105.029 23.4252 105.094 23.4038 105.126 23.3931C105.153 23.0573 105.209 22.6719 104.966 22.3974C104.742 22.1463 104.534 21.8251 104.199 21.7219V21.7219ZM106.089 25.6697C105.984 26.2411 106.202 26.826 106.135 27.4091L106.117 27.41C106.059 27.6427 105.862 27.8159 105.616 27.8052L105.607 27.8665C105.115 27.9444 104.652 28.1537 104.155 28.1975L104.16 28.2598C103.753 28.3289 103.351 28.4311 102.95 28.5245C102.681 28.5819 102.415 28.6579 102.142 28.688C101.899 29.0297 101.582 29.3324 101.185 29.4823C100.354 29.8531 99.3719 29.8103 98.5525 29.4278C98.2891 29.2282 98.0276 29.0131 97.876 28.7143C97.7846 28.4573 97.7943 28.1838 97.839 27.9191C98.0004 27.5356 98.3134 27.2543 98.6478 27.0217C99.3156 26.6791 100.088 26.6304 100.82 26.7462C101.102 26.8007 101.351 26.9545 101.627 27.0304L101.611 27.1297L101.706 27.1015C101.788 27.1862 101.874 27.2709 101.963 27.3536C102.052 27.4402 102.112 27.5473 102.143 27.6758C102.131 27.5872 102.119 27.4996 102.109 27.412C101.996 27.2932 101.889 27.1716 101.792 27.0402C101.617 26.8825 101.421 26.753 101.223 26.6294C100.938 26.5009 100.635 26.427 100.332 26.354C99.6179 26.2527 98.9034 26.3929 98.2327 26.6372L98.223 26.6956C97.7924 26.8805 97.4298 27.23 97.2189 27.6466C97.0682 28.033 97.0857 28.4963 97.2169 28.8885C97.3462 29.1182 97.5785 29.2779 97.6718 29.527C96.7863 29.601 95.9154 29.8142 95.0289 29.8482L95.0104 29.9173C93.9421 29.9728 92.8855 30.2035 91.8172 30.2337L91.8007 30.3067C90.9657 30.3378 90.1337 30.4429 89.3035 30.5315C88.7271 30.4897 88.1546 30.623 87.5782 30.6337C87.0056 30.7544 86.4175 30.6941 85.844 30.7953C85.2851 30.8712 84.7184 30.8517 84.1575 30.9043C84.2188 30.9734 84.282 31.0435 84.3461 31.1126C84.4851 30.9793 84.6824 31.0153 84.8564 31.0153C86.0375 31.0678 87.2088 30.88 88.3879 30.8644L88.2936 30.8206C88.9993 30.8294 89.6991 30.7126 90.4049 30.7077C90.5944 30.697 90.7937 30.7194 90.9735 30.6366C91.2418 30.6181 91.514 30.6201 91.7842 30.5958C91.9319 30.5422 92.0894 30.5335 92.2478 30.5296C93.2374 30.5121 94.2172 30.3388 95.2058 30.3115L95.2165 30.2347C95.6092 30.2074 96.0242 30.2716 96.3994 30.1334C97.1518 30.0838 97.8983 29.8745 98.6536 29.9261C99.4205 30.1091 100.247 30.0663 100.976 29.7548C101.163 29.6438 101.349 29.53 101.54 29.4239L101.525 29.3421C101.891 29.2399 102.28 29.2165 102.638 29.0822C102.795 29.0452 102.978 29.0715 103.116 28.9713C103.192 28.9567 103.342 28.9275 103.418 28.9129C103.794 28.7776 104.201 28.7347 104.571 28.58C105.011 28.4466 105.447 28.3006 105.884 28.1546C106.145 28.0476 106.434 27.921 106.545 27.6368C106.707 27.194 106.506 26.7423 106.385 26.317C106.319 26.0873 106.215 25.8712 106.089 25.6697V25.6697ZM40.2611 35.6386C40.1541 35.6561 40.054 35.6902 39.9587 35.7398C39.7225 35.8449 39.4931 35.9656 39.2599 36.0776C38.8545 36.355 38.4589 36.646 38.1255 37.0091C37.621 37.4714 37.2856 38.0836 36.89 38.6345C36.892 38.6696 36.8939 38.7396 36.8949 38.7747L36.8045 38.7893C36.7238 39.056 36.5488 39.2818 36.4886 39.5553L36.4166 39.5757C36.3233 39.8911 36.1979 40.1957 36.0842 40.5043C35.9238 40.8381 35.8985 41.2168 35.743 41.5516C35.7381 41.6168 35.7274 41.7463 35.7226 41.8105L35.6477 41.8144C35.5884 42.5658 35.2784 43.2802 35.326 44.0424L35.2463 44.0463C35.1909 45.3573 35.1948 46.6704 35.2093 47.9824C35.1792 48.7075 35.3454 49.4161 35.362 50.1393C35.4757 50.7282 35.5768 51.3229 35.6468 51.9195L35.71 51.9225C35.7916 52.449 35.9325 52.9639 36.0317 53.4866C36.0492 53.4847 36.0852 53.4817 36.1036 53.4808C36.1124 53.5966 36.124 53.7144 36.1376 53.8321C36.2922 54.2156 36.3641 54.6283 36.5294 55.0099C36.6557 55.3194 36.6975 55.662 36.8715 55.9521C36.9474 56.1565 37.028 56.3589 37.1019 56.5643C37.1486 56.6918 37.2001 56.8193 37.2788 56.9322C37.2798 56.9604 37.2808 57.0149 37.2817 57.0432C37.3887 57.1882 37.4596 57.3546 37.5257 57.523C37.5763 57.6291 37.6297 57.7352 37.6832 57.8413C37.7989 58.0613 37.8805 58.3027 38.038 58.5003C38.0438 58.5275 38.0545 58.583 38.0594 58.6102C38.2237 58.8224 38.3286 59.0706 38.4637 59.3013C38.6873 59.6683 38.9371 60.0187 39.152 60.3914C40.0841 61.6393 41.1203 62.8511 42.4618 63.6755C42.7262 63.8302 42.9808 64.0054 43.2715 64.1125C43.3852 64.1767 43.5077 64.2215 43.6292 64.2731C43.8965 64.3831 44.1774 64.46 44.4642 64.5028L44.4739 64.5729C45.1835 64.6215 45.896 64.6235 46.6056 64.5748L46.6172 64.5018C46.9886 64.4668 47.3229 64.2994 47.6651 64.1641L47.6845 64.1066C48.4107 63.7923 49.0026 63.2131 49.5003 62.6077C49.6111 62.4607 49.7278 62.3186 49.8444 62.1765C50.0136 61.9205 50.1545 61.6461 50.3324 61.3959C50.4471 61.1808 50.5346 60.9511 50.66 60.7409C50.7892 60.48 50.901 60.2114 50.9924 59.9349C51.2063 59.5164 51.2743 59.0404 51.4395 58.6054C51.4998 58.3718 51.5562 58.1382 51.6106 57.9046C51.6515 57.7148 51.6826 57.524 51.7273 57.3361C51.7341 57.27 51.7496 57.1386 51.7574 57.0733L51.8352 57.0704C51.8429 56.7833 51.8595 56.4981 51.8672 56.2119L51.945 56.1973C51.9479 55.7282 52.0053 55.262 52.0442 54.7948C52.0791 53.7222 52.0889 52.6466 52.016 51.576C51.9674 51.211 51.946 50.843 51.946 50.4751L51.8682 50.4654C51.8565 50.1598 51.8828 49.8434 51.7827 49.5495C51.6962 48.8808 51.5144 48.2277 51.4454 47.559H51.3783C51.3239 47.0899 51.1402 46.6499 51.0634 46.1856L51.006 46.1798C50.9525 45.8343 50.8651 45.4907 50.7086 45.1763C50.7027 45.1121 50.6901 44.9855 50.6843 44.9213L50.6123 44.9203C50.5589 44.6653 50.4821 44.4151 50.3732 44.1777C50.3324 44.0706 50.3013 43.9616 50.2789 43.8506L50.2167 43.8428C50.1487 43.5975 50.0534 43.361 49.9514 43.1284C49.8065 42.7868 49.6082 42.4675 49.5042 42.1093L49.4371 42.0879C49.3652 41.8543 49.2369 41.645 49.1183 41.4338C48.989 41.2031 48.8636 40.9705 48.7314 40.7408C48.2299 39.9349 47.6962 39.1455 47.0644 38.435C46.2799 37.5181 45.3575 36.6947 44.2814 36.1379L44.263 36.0805C43.9675 35.9978 43.705 35.8284 43.4056 35.7603L43.4017 35.6892C43.2861 35.6736 43.1723 35.6571 43.0586 35.6405C42.7495 35.5189 42.417 35.4692 42.0875 35.4576C41.4742 35.4381 40.8453 35.4235 40.2611 35.6386V35.6386ZM77.5554 50.7915C77.1277 50.8975 76.699 50.9997 76.2918 51.1701C76.0692 51.281 75.8339 51.3667 75.6288 51.5088C75.3829 51.6392 75.1564 51.8018 74.9231 51.9526C74.1863 52.5045 73.5525 53.1732 72.9081 53.8253C72.6408 54.1095 72.6369 54.53 72.6806 54.894C72.7253 55.0206 72.771 55.15 72.8245 55.2746C72.982 55.6786 73.3717 55.9034 73.7188 56.1243C74.0065 56.2908 74.268 56.5137 74.5917 56.612L74.615 56.6801C74.8813 56.7609 75.1146 56.9225 75.3839 56.9974L75.3878 57.0733C75.45 57.0811 75.5744 57.0957 75.6366 57.1035C75.937 57.2631 76.2704 57.3391 76.6009 57.4091C76.7496 57.4987 76.9265 57.4792 77.0937 57.5036C77.7119 57.6934 78.3544 57.5113 78.9785 57.4607L78.9775 57.3945C79.5705 57.2943 80.109 57.0052 80.6057 56.6772C81.0742 56.3083 81.5068 55.8781 81.8227 55.37C81.9121 55.2191 81.9909 55.0624 82.0492 54.8979C82.0851 54.8026 82.124 54.7081 82.1658 54.6157C82.1726 54.5524 82.1872 54.4259 82.195 54.3626L82.2766 54.3558C82.298 53.8487 82.3651 53.3387 82.2747 52.8345C82.2154 52.744 82.1775 52.6447 82.1619 52.5386C82.0725 52.3692 81.9753 52.2047 81.8781 52.0412C81.605 51.6966 81.2842 51.3891 80.9041 51.1672C80.7447 51.0825 80.5892 50.9861 80.4152 50.9404C79.7095 50.5248 78.8288 50.6085 78.0463 50.6669L77.9812 50.6445C77.8422 50.7029 77.709 50.7759 77.5554 50.7915V50.7915Z" fill="#111111"/>
<path d="M30.6748 2.19976C30.8362 2.19879 30.9975 2.18808 31.1589 2.20268C31.3747 2.50831 31.5992 2.8081 31.814 3.11372C31.8471 3.19354 31.9035 3.25778 31.9676 3.31228C32.1299 3.56632 32.3117 3.80674 32.4867 4.05299C32.893 4.6292 33.31 5.19763 33.7095 5.77871C33.8534 5.98506 33.9963 6.19238 34.145 6.39483C34.5319 6.9506 34.9139 7.5093 35.3076 8.0602C35.4359 8.24611 35.5613 8.43396 35.6954 8.61598C36.4866 9.7538 37.2507 10.9101 38.0322 12.0548C38.1566 12.2485 38.2888 12.4363 38.4229 12.6251C38.6776 13.0184 38.9449 13.4038 39.1957 13.8009C39.3201 13.9995 39.4485 14.1961 39.5855 14.3888C39.9967 15.0147 40.4088 15.6405 40.8181 16.2683C40.9036 16.3472 40.8803 16.4679 40.8929 16.571C40.402 16.5993 39.9199 16.718 39.4271 16.7063L39.4086 16.7793C38.3112 16.8007 37.2147 16.8095 36.1182 16.7822L36.0988 16.7044C35.534 16.7394 34.979 16.6129 34.422 16.5409C34.2266 16.5019 34.0157 16.5204 33.8388 16.4182C32.3739 16.3695 30.9013 16.3141 29.4384 16.4133C29.2284 16.5457 28.9902 16.6187 28.7618 16.7102C28.6238 16.8114 28.4478 16.8056 28.2865 16.8163C27.331 16.8329 26.3764 16.7929 25.4219 16.7774L25.416 16.7015C24.6802 16.7092 23.957 16.5477 23.226 16.4932C23.0997 16.4873 22.9762 16.464 22.8576 16.4211C22.6097 16.3958 22.3619 16.3841 22.114 16.3832L22.1179 16.315C21.8827 16.3014 21.6513 16.2226 21.4841 16.0522C21.4452 15.9179 21.4326 15.7787 21.4268 15.6405C20.7843 15.4819 20.1155 15.5539 19.4671 15.4332C19.473 15.2035 19.4817 14.9738 19.4875 14.7431L19.5663 14.7305C19.5731 14.4881 19.5906 14.2467 19.6207 14.0063C19.7306 13.5985 19.7286 13.1683 19.8491 12.7624C19.8948 12.5424 19.8385 12.2884 19.9697 12.0947C19.9784 12.0363 19.9969 11.9195 20.0066 11.8611C20.0999 11.3102 20.2574 10.767 20.2895 10.2083C20.3109 10.3125 20.3323 10.4166 20.3546 10.5218C20.3546 10.294 20.3536 10.0614 20.4304 9.84432C20.4917 9.5786 20.5305 9.30704 20.6248 9.05106C20.6394 8.9362 20.653 8.82232 20.6657 8.70747L20.7395 8.71331C20.7512 8.59359 20.7638 8.47484 20.7784 8.3561C20.8902 8.00278 20.9689 7.6407 21.07 7.28543C21.1313 7.16474 21.1468 7.02944 21.1779 6.89999C21.2576 6.64984 21.3101 6.39288 21.3908 6.14371C21.5454 5.67943 21.6717 5.20639 21.8321 4.74406C21.8963 4.62823 21.9206 4.49683 21.9556 4.3703C22.0625 4.08122 22.1461 3.78435 22.2355 3.48943C22.2861 3.46023 22.3862 3.40378 22.4358 3.37458C22.6496 3.36192 22.8635 3.35219 23.0783 3.34927L23.0919 3.27238C23.714 3.26459 24.3205 3.09523 24.9417 3.06603V2.99011C25.244 2.96772 25.5686 3.02126 25.8525 2.89764C26.5932 2.80518 27.3465 2.74288 28.0746 2.59591C28.2544 2.57839 28.4352 2.57158 28.616 2.56671L28.6325 2.49176C28.8435 2.48495 29.0554 2.47132 29.2663 2.44504C29.728 2.36718 30.1936 2.29223 30.6631 2.27276L30.6748 2.19976V2.19976ZM22.8858 11.3257C22.6622 11.3656 22.4669 11.4844 22.2734 11.5963C22.1383 11.7121 22.0061 11.8328 21.8788 11.9574C22.2054 11.899 22.5291 11.827 22.8586 11.7871C23.886 11.7005 24.9232 11.7735 25.9546 11.7491C26.4046 11.7696 26.8624 11.7005 27.3067 11.7939C27.6352 11.826 27.9793 11.754 28.2981 11.8562C28.9105 12.1618 29.2138 12.8179 29.4831 13.4116C29.6658 13.8116 29.8738 14.308 30.3725 14.3693L30.3773 14.4414C31.1083 14.5066 31.8432 14.4472 32.5742 14.4258C33.0427 14.2983 33.5413 14.3674 34.0225 14.3324C34.3724 14.3547 34.7583 14.2633 35.0791 14.4375C35.1336 14.4462 35.2415 14.4638 35.2959 14.4735C35.4631 14.5825 35.639 14.6779 35.8218 14.7597L35.8295 14.8171C35.9297 14.8677 36.0298 14.9212 36.128 14.9767C35.9578 14.8015 35.8325 14.5903 35.6915 14.3927C35.4145 14.1328 35.1472 13.8603 34.8011 13.6919C34.7399 13.687 34.6174 13.6763 34.5562 13.6715L34.5484 13.5848C33.902 13.5673 33.2565 13.6111 32.6111 13.5858L32.6082 13.6647C32.1912 13.6705 31.7751 13.6724 31.3591 13.6763L31.3416 13.6082C31.155 13.5138 31.085 13.3065 30.9683 13.1468C30.9664 13.1176 30.9615 13.0592 30.9596 13.03C30.8196 12.8052 30.6767 12.5813 30.4989 12.3837C30.2695 12.1005 29.9691 11.8893 29.694 11.6557C29.4092 11.4844 29.0981 11.3695 28.7861 11.2595C28.3604 11.2226 27.9327 11.243 27.5059 11.2391C25.9701 11.2634 24.4333 11.1914 22.8994 11.2518L22.8858 11.3257Z" fill="#111111"/>
<path d="M20.9145 3.7269C21.2508 3.62664 21.5969 3.52055 21.9526 3.54294C21.7709 3.89626 21.6931 4.28656 21.5696 4.66032C21.4394 5.08275 21.3052 5.50323 21.1808 5.9276C21.1614 6.0337 21.1244 6.13298 21.07 6.22544C21.0486 6.3257 21.0282 6.42595 21.0097 6.52718C20.9242 6.77927 20.8707 7.0411 20.7833 7.29222C20.7726 7.34672 20.7502 7.45379 20.7385 7.50732C20.6297 7.76428 20.6054 8.04655 20.513 8.30838C20.0542 9.63114 19.8637 11.0288 19.5284 12.3857C19.3787 13.3775 19.1454 14.3576 19.053 15.3582C18.4037 15.3592 17.7524 15.3602 17.107 15.2804C16.3634 15.2307 15.6178 15.2405 14.8723 15.2249C13.1887 15.0876 11.4954 15.1246 9.80987 14.9981C9.44049 14.9631 9.07014 14.9747 8.70077 14.9621C8.60551 14.9232 8.54232 14.8365 8.46456 14.7742C8.33431 14.5124 8.26626 14.2136 8.36055 13.9274C8.39457 13.7182 8.44901 13.5138 8.54038 13.323C8.62009 13.1712 8.69007 13.0135 8.75617 12.8558C8.90004 12.5142 9.09444 12.1939 9.19942 11.8357L9.29371 11.8153C9.29177 11.7793 9.28788 11.7073 9.28594 11.6712C9.46188 11.4776 9.48715 11.1953 9.66892 11.0074C9.67087 10.9782 9.67378 10.9218 9.67573 10.8926C9.84097 10.6794 9.94887 10.4312 10.0791 10.1966C10.2133 9.9718 10.3309 9.7382 10.466 9.51434C10.606 9.29728 10.7411 9.07634 10.8713 8.85247C10.9987 8.65391 11.1309 8.45924 11.2543 8.25776C11.8609 7.35159 12.518 6.47948 13.2198 5.64534C13.4657 5.36794 13.8283 5.2453 14.1841 5.18982C14.5272 5.13628 14.8616 5.02922 15.2076 4.9971L15.2173 4.92604C15.3631 4.91826 15.5099 4.90755 15.6567 4.891C16.132 4.74598 16.6268 4.63599 17.1245 4.60095C17.0195 4.57856 16.9145 4.5552 16.8095 4.53282C17.0098 4.53671 17.21 4.52795 17.4093 4.50362C17.8642 4.37027 18.3327 4.25736 18.8071 4.21843L18.8052 4.14348C18.9237 4.13764 19.0423 4.12986 19.1599 4.12012C19.611 3.92643 20.1349 3.94882 20.5947 3.76972C20.7006 3.75415 20.8076 3.74052 20.9145 3.7269V3.7269Z" fill="#111111"/>
<path d="M4.13799 29.9261C4.18271 29.9222 4.27213 29.9154 4.31685 29.9115C4.36642 30.0604 4.42183 30.2093 4.48793 30.3524C4.65123 30.732 4.73774 31.1379 4.88258 31.5233C4.91077 31.682 4.90202 31.8572 4.99242 31.9983C5.0906 32.4363 5.2053 32.8753 5.21793 33.326L5.285 33.3444C5.31222 33.8778 5.41429 34.4034 5.45803 34.9358C5.51927 35.4206 5.48622 35.9102 5.5251 36.3958C5.57079 36.7852 5.57662 37.1784 5.52899 37.5677C5.47261 38.0836 5.54746 38.6112 5.42887 39.1212C5.38124 39.4073 5.44636 39.7217 5.31514 39.9894C5.2957 40.1675 5.285 40.3466 5.28112 40.5267L5.18877 40.5539L5.21696 40.7515C5.01575 40.6269 4.95354 40.3953 4.86994 40.1889C4.78635 40.0089 4.71441 39.823 4.6454 39.6361C4.46071 39.1085 4.26436 38.5751 4.20992 38.0155L4.13799 38.0057C4.13216 37.8889 4.12536 37.7731 4.11564 37.6573C4.02329 37.5551 4.04176 37.4091 4.01454 37.2855C3.74043 35.5452 3.62864 33.7678 3.84346 32.0158C3.86971 31.4795 4.00385 30.9569 4.04954 30.4235L4.12147 30.4089C4.12633 30.2473 4.13313 30.0867 4.13799 29.9261V29.9261Z" fill="#111111"/>
<path d="M40.7976 38.4243C41.3663 37.6865 42.0078 37.0061 42.7544 36.4455C42.9935 36.427 43.2141 36.5487 43.4328 36.6314C43.6341 36.7141 43.8324 36.8046 44.0229 36.9117C44.0734 36.936 44.1745 36.9847 44.2251 37.01C44.3913 37.0947 44.5517 37.192 44.7023 37.3049C45.7833 37.9668 46.6581 38.9187 47.3998 39.9388C47.5621 40.1977 47.7876 40.4216 47.8974 40.7116L47.949 40.734C48.2367 41.2343 48.5205 41.7356 48.7888 42.2475C48.885 42.45 48.9764 42.6554 49.0513 42.8675L49.1125 42.887C49.1854 43.1294 49.2923 43.3591 49.3963 43.5907C49.4479 43.7289 49.5052 43.8652 49.5645 44.0024C50.174 45.515 50.6357 47.086 51.0517 48.6608C51.2141 49.3694 51.2772 50.0945 51.3667 50.8148C51.4046 51.1282 51.354 51.4562 51.4561 51.7609C51.5008 52.8393 51.4921 53.9197 51.4619 54.9992C51.3365 55.7379 51.3307 56.503 51.1013 57.2213C51.0838 57.3673 51.0721 57.5152 51.0624 57.6632L50.9827 57.6622C50.9749 57.7265 50.9584 57.8549 50.9506 57.9192C50.8505 58.2121 50.7796 58.5149 50.6658 58.803C50.5686 59.0336 50.5025 59.277 50.381 59.4969C50.3256 59.6137 50.2935 59.7403 50.2381 59.8581C50.137 60.0527 50.0593 60.261 49.928 60.4382C49.9242 60.4664 49.9154 60.5228 49.9115 60.5511C49.5101 61.2071 49.0668 61.8388 48.6041 62.4549C48.3067 62.4471 48.0131 62.3848 47.7409 62.2661C47.6778 62.2583 47.5514 62.2437 47.4882 62.2359L47.4785 62.1668C47.1461 62.0967 46.8447 61.9381 46.523 61.8378L46.5055 61.7726C46.2411 61.7113 46.0185 61.5526 45.7774 61.4378C45.5519 61.3005 45.3244 61.1662 45.1155 61.0066C44.8734 60.8684 44.6615 60.6893 44.4447 60.518C43.5019 59.7432 42.6824 58.8185 42.0156 57.7965C41.7415 57.3469 41.4353 56.9089 41.2428 56.4173L41.1797 56.3969C41.0999 56.1399 40.9532 55.9122 40.8599 55.662C40.7218 55.4527 40.6528 55.2084 40.5682 54.9748C40.5196 54.8532 40.472 54.7325 40.4098 54.6186C40.3175 54.3558 40.2436 54.0862 40.124 53.8351C40.1153 53.7728 40.0987 53.6472 40.09 53.5839L40.021 53.5781C39.9422 53.1489 39.7799 52.741 39.7031 52.3108L39.6322 52.305C39.6195 52.159 39.6049 52.013 39.5874 51.8689C39.4339 51.4923 39.4241 51.0708 39.3085 50.6815C39.2093 50.5072 39.2346 50.296 39.1996 50.1062C39.0723 49.64 39.0674 49.1494 38.9634 48.6774C38.9488 48.1518 38.8088 47.6378 38.8234 47.1113C38.7855 45.9929 38.8147 44.8746 38.8419 43.7572L38.9187 43.7455C38.9371 43.1761 39.0334 42.6038 39.2025 42.0597C39.2132 41.9438 39.2239 41.828 39.2326 41.7132L39.3114 41.7034C39.3201 41.6402 39.3367 41.5136 39.3444 41.4513C39.4183 41.2615 39.4718 41.0649 39.535 40.8712C39.5826 40.7661 39.6156 40.6561 39.6331 40.5413L39.6944 40.5354C39.8829 39.9563 40.1755 39.4103 40.506 38.9002C40.6071 38.7445 40.7034 38.5839 40.7976 38.4243V38.4243Z" fill="#111111"/>
<path d="M75.3168 54.2146C75.5229 52.5405 76.9178 51.027 78.6179 50.8381C78.9056 50.8673 79.1953 50.8926 79.4849 50.9189C80.2178 51.0912 80.7855 51.719 80.9624 52.4412C81.3755 54.2098 80.1867 56.0718 78.5381 56.6996C77.7829 57.0071 76.8555 56.9847 76.1877 56.4825C75.482 55.9803 75.2215 55.0449 75.3168 54.2146ZM76.2257 52.6631C75.8573 53.0233 75.6891 53.509 75.6016 54.0063C75.587 54.2721 75.5831 54.5397 75.6045 54.8064C75.6628 54.9845 75.6891 55.1704 75.7115 55.3573C76.0556 55.295 76.1751 54.9174 76.3812 54.6799C76.4599 54.529 76.5348 54.3762 76.6077 54.2234C76.632 54.1192 76.6728 54.0229 76.7311 53.9343C76.7632 53.4866 76.873 52.9824 76.6242 52.5765C76.4862 52.5843 76.3423 52.5814 76.2257 52.6631V52.6631Z" fill="#111111"/>
</g>
<defs>
<filter id="filter0_f_95_430" x="31.2034" y="40.8959" width="81.4377" height="36.7442" filterUnits="userSpaceOnUse" color-interpolation-filters="sRGB">
<feFlood flood-opacity="0" result="BackgroundImageFix"/>
<feBlend mode="normal" in="SourceGraphic" in2="BackgroundImageFix" result="shape"/>
<feGaussianBlur stdDeviation="4.60273" result="effect1_foregroundBlur_95_430"/>
</filter>
<filter id="filter1_f_95_430" x="-5.80512" y="24.5596" width="51.4709" height="40.1687" filterUnits="userSpaceOnUse" color-interpolation-filters="sRGB">
<feFlood flood-opacity="0" result="BackgroundImageFix"/>
<feBlend mode="normal" in="SourceGraphic" in2="BackgroundImageFix" result="shape"/>
<feGaussianBlur stdDeviation="4.60273" result="effect1_foregroundBlur_95_430"/>
</filter>
<clipPath id="clip0_95_430">
<rect width="113" height="73" fill="white"/>
</clipPath>
</defs>
</svg>
