<?xml version="1.0" encoding="utf-8"?>
<!-- Generator: Adobe Illustrator 25.4.1, SVG Export Plug-In . SVG Version: 6.00 Build 0)  -->
<svg version="1.1" id="Capa_1" xmlns="http://www.w3.org/2000/svg" xmlns:xlink="http://www.w3.org/1999/xlink" x="0px" y="0px"
	 viewBox="0 0 1280 941.1" style="enable-background:new 0 0 1280 941.1;" xml:space="preserve">
<style type="text/css">
	.st0{fill:#F3EED5;}
	.st1{fill:#D2D1C9;}
	.st2{fill:#C0BFBC;}
	.st3{fill:#97979F;}
	.st4{fill:#A6ACB3;}
	.st5{fill:#EAD5C5;}
	.st6{fill:#E0A780;}
	.st7{fill:#837983;}
	.st8{fill:#A0A6A1;}
	.st9{fill:#ECEBE7;}
	.st10{fill:#F9CAA5;}
	.st11{fill:#F7B683;}
</style>
<g id="_x23_f3eed5ff">
	<path class="st0" d="M0,0h1280v308c-20.9-4.8-42.6-6.3-64-5.9c-25.4,2.8-46.9,17.8-69.3,28.7c-14.7,9.5-31.3,16-44.8,27.3
		c7.4,9.3,16.6,16.9,24.6,25.6c3.1,3.4,6.7,6.3,10.8,8.3c7.3,4.2,15.9,5.9,22.4,11.4c5.4,5.7,6,14.1,8.2,21.4
		c0.5,4.8,0.6,9.7,0.4,14.5c-0.6,4.7-1.6,9.3-2.4,14c-0.4,2.2-0.9,4.4-1.3,6.6c-1.6-0.5-3.2-0.9-4.7-1.5
		c-0.6-10.5,4.6-20.3,2.8-30.8c-1.1-8.3,1.7-20.2-7.9-24.3c-24.4-9-50.8-7.2-76.3-8.7c-0.1-1.1-0.2-2.1-0.3-3.2
		c10.4-5.3,22.3-5.1,33.3-7.9c2.5-0.5,5.9-3.2,4-5.9c-11.8-15.1-26.4-27.6-39.5-41.6c-4.3-5.2-7.9-10.8-12-16.1
		c-3.6-4.4-5.5-10.3-10.3-13.7c-35.6-19.1-72-38.5-111.8-47.2c-5.2-1.6-10.5-3-15.8-4.3c-19.1-5.7-39.4-6.3-59.2-5.8
		c-17.9-2.1-35.9-3.9-54-3.1c-65.2-2.4-130.5,0.6-195.2,8.8c-13.8,1.8-27.8,3.4-41.3,6.8c-10.7,2.9-22.2,1.8-32.6,6
		c-13.8,4.4-28.1,8.1-41.3,14.4c-10.9,5-21.1,11.3-30.6,18.5c-3.8-2.4-7.6-7.4-12.6-5.9c-8,3.4-16.6,5-25.1,6.2
		c-12.8-2.3-26.2-1.8-38.5-6.3c-16.6-4.9-34.2-4.4-51.1-2.5c-11.6,4.5-24.8,3.4-36.1-1.5c-8.6-3.5-18.5-3.6-25.7-10
		c-12.7-2.2-20.4-13.2-31.1-19.2c-7-3.6-13.8-9.9-22.2-8.6c-10,1.8-20.2,4.2-28.4,10.6c-3.6,3-8.5,3.7-12.6,1.2
		c-19.3-9.7-41.4-4.6-61.8-8.8c-5.3-0.8-10.9,0-15.8-2.6c-7.3-3.6-14.5-7.7-22.5-9.5c-4.7-1-9.4,0.8-14.1,0.6
		c-4.1-0.5-7.5-3.3-11.6-3.8c-20.9,1.4-42-4.8-62.8-0.3V0z"/>
	<path class="st0" d="M139.1,522c10.5,1.2,17.1,10,23.4,17.6c3.4,4.3,4.4,9.8,5.5,15c-13.4-0.3-26.4-3.7-39.8-3.3
		c0.3-2.1,0.5-4.3,0.8-6.4c1.1-2.9,2.2-5.8,3.3-8.7C134.6,531.6,138.2,527.3,139.1,522z"/>
</g>
<g id="_x23_d2d1c9ff">
	<path class="st1" d="M0,240.4c20.9-4.5,41.9,1.7,62.8,0.3c4.1,0.5,7.5,3.3,11.6,3.8c4.7,0.1,9.4-1.7,14.1-0.6
		c8,1.8,15.2,5.8,22.5,9.5c4.9,2.6,10.5,1.8,15.8,2.6c20.4,4.2,42.5-0.8,61.8,8.8c4.1,2.5,9,1.8,12.6-1.2
		c8.1-6.4,18.4-8.8,28.4-10.6c8.4-1.3,15.2,5,22.2,8.6c10.6,6.1,18.4,17,31.1,19.2c7.3,6.4,17.1,6.5,25.7,10
		c11.3,4.9,24.5,6,36.1,1.5c16.9-2,34.5-2.4,51.1,2.5c12.3,4.6,25.7,4,38.5,6.3c8.5-1.2,17.1-2.8,25.1-6.2c5-1.5,8.8,3.4,12.6,5.9
		c-24.2,17.3-46.8,36.7-68.4,57.1c-5.8,5.3-10.7,11.7-17.7,15.5c3.9-4.9,9.1-8.5,12.9-13.4c0.2-3.4-3.3-7.6-6.9-5.8
		c-8.8,3.4-15.1,10.8-22.4,16.5c-3.3,2.8-7.8,2-11.7,1.1c0.4-2.1,0.8-4.2,1.3-6.2c-2.8,1.5-5.8,3-9,2.8c-22.7-1-45.5-2.5-68-6.1
		c-10-0.5-20.2-2.3-30.1,0c-4.6,1.2-8.8-1.5-13-2.9c-5.4-2.3-11.6-0.7-15.9,3.1c7.3,3.9,16.4,7,24.2,2.3c1.5,3.5,2.7,7.2,3.5,10.9
		c-4.6-2.9-9.3-5.6-14.8-6.4c-12-2.8-22.8-8.9-34.7-12.1c-5.8-1.7-8.6-7.4-12.7-11.4c-4.1-4.3-9.9-6.1-14.9-9
		c-4.6-2.6-8.3-6.5-12.6-9.5c-6.7-5.8-16-5.3-24.1-7.9c-4-1.3-5-6.5-9.2-7.6c-3.4-1.4-8.1-1.5-9.7-5.5c-2.6-5.9-7-11.2-7.5-17.8
		c-0.3-4.3-2.9-7.9-6.3-10.4c-9.6-7-16.8-17-27.5-22.6c-4.3-2.4-8.3,2.1-12.6,1.9c-7.7-3.2-11.7-11.7-19.6-14.6
		c-6.3-1.9-13.1-0.6-19.5-1.7c-8.4-1.7-16.7,1.2-25.1,1.5V240.4z"/>
	<path class="st1" d="M617.8,254.9c64.7-8.3,130-11.3,195.2-8.8c18-0.8,36.1,0.9,54,3.1c19.8-0.4,40.1,0.1,59.2,5.8
		c-8-0.8-15.8-3-23.9-2.8c-14.5-0.9-29.4-0.9-43.3,3.8c-5.8,1.8-10.3,6.7-16.5,7.2c-5.3,0.4-10.3,2.5-15.2,4.3
		c1.2-1.9,2.5-3.9,3.8-5.8c-3.1,1.9-6.2,4.9-10.1,4.6c-77.3-7.7-155.1-3.8-232.3,3.2c-13.5,0.6-27,2.6-40.5,3.8
		c-6.1,0.5-12.1,2.9-18.3,2.1c5.2-2.9,11.2-4.2,16.3-7.3c-0.6-0.1-1.7-0.3-2.3-0.4c10.4-4.2,21.9-3.1,32.6-6
		C590,258.3,604,256.7,617.8,254.9z"/>
	<path class="st1" d="M504.3,321.1c18-12,39.1-20.6,61-21c0.5,8.4-5.1,15-8.4,22.1c-8.9,1.2-17.9-0.5-26.9,0.5
		c-7,0-13.7,2.9-20.8,2.9C506.5,325.8,505.6,322.9,504.3,321.1z"/>
	<path class="st1" d="M1146.6,330.8c22.4-10.9,43.9-25.9,69.3-28.7c21.4-0.4,43.1,1.1,64,5.9v37c-7.5,3.7-14.7,8.3-22.9,10.3
		c-6.4,1.5-9,8.3-14.4,11.3c-5.6,3-10.4,7.7-17,8.3c-17.5,2.9-34.5,8.3-52.2,10.6c-6.1,0.1-12.5-1.5-18.4,0.8
		c-5.8,2.3-12.2,2.7-17.8,5.7c-4.1-2-7.7-4.9-10.8-8.3c-8-8.7-17.2-16.3-24.6-25.6C1115.4,346.9,1132,340.3,1146.6,330.8z"/>
	<path class="st1" d="M378.3,387.8c29-28.9,59.7-56.5,92.4-81.2c1.2,0.5,2.5,1,3.7,1.5c-9.5,4.3-14,14.4-22.7,19.8
		c-6,8.5-11.8,17.3-18.4,25.5c-4.1,7.9-12,13.7-11.8,23.4c-6.3,2.4-13.1,1.5-19.7,2.4c-4.6,0.5-7.2,4.5-10.6,6.9
		c-3.7,1.4-7.7,1.1-11.6,1.6c3.9,0.5,7.9,0.9,11.8,1.4l-1,0.3C386.3,389.4,382.4,388.5,378.3,387.8z"/>
	<path class="st1" d="M877,315.4c6.3-0.4,12.7-0.6,19-0.5c3.6,9.2,5,19.1,7.6,28.6c4.5,1.6,9.2,3.3,12.6,6.7
		c-2.4-0.5-4.7-1.2-6.9-2.2c-22.2-11.6-53-8.9-69.2,11.5c0.3-4.5,4-7.4,7.2-10.1c9-6.5,19.9-10.1,30.9-11.6
		C878.8,330.3,877.9,322.8,877,315.4z"/>
	<path class="st1" d="M1035.9,323c4.8,4.9,7.4,11.5,11.1,17.2c4.3,8,9.5,15.5,13,23.9c-0.8,0.3-1.6,0.6-2.4,0.9
		C1052.5,349.9,1042.7,337.1,1035.9,323z"/>
	<path class="st1" d="M1250.4,374.5c4.6-3.3,10.2-1.5,15,0.4c0.8,3.8,1.3,7.7,1.4,11.6c-2.8,0.3-5.5,0.7-8.2,1.1
		c-3.1,8.6-12.6,10.8-18.8,16.4c-4.9,4.2-11.4,5.2-17.5,6.7c-6.5,1.3-3,10.3-6.3,14.3c-1.8,1.4-3.8,2.4-5.8,3.6
		c13,2.6,26.2-0.2,39.2,1.3c4.6,0.3,9.4,1.2,13.9-0.3c5.3-2.7,9.8-7.2,12.4-12.6c1.4-0.4,2.8-0.8,4.3-1.3v18.5
		c-19.4,0.1-38.6-2.5-58-1.8c-7.8,0.4-15.3-1.8-22.9-3.4c-9.8-0.2-19.5-0.7-29.1,1.6c-0.1,0.6-0.4,1.8-0.5,2.4
		c-0.4,2.1-0.9,4.3-1.3,6.4c0.2-4.9,0.1-9.7-0.4-14.5c3.4,0,6.6,1.2,9.9,1.6c4.5-1.2,8.4-4.3,13-5.4c10.7-2.3,22.3-7.9,26.3-18.8
		c6.7-2.5,15-1.1,20.6-6.4c4.9-4.8,10.2-9.1,15.5-13.5c-3,0.2-6.4,1.8-9.1,0.3C1241.2,378.7,1247.7,376.3,1250.4,374.5z"/>
	<path class="st1" d="M536.8,380.8c43.3-1.2,86.7,0.2,130,0.4c23.9,1.5,48,1.7,71.8,4.4c13,0.4,26,0,38.9,1.1
		c-6.7,2.6-14,3.2-21.1,3.5c0.1-0.6,0.4-1.8,0.5-2.4c1.4-0.1,2.9-0.2,4.3-0.3c-16.7-2.1-33.4,0.6-50,1.1c-18,0.4-36,2.3-54,2.2
		c10.5-1.5,21.2-2.2,31.6-4.8c-9.3-1-18.6-0.9-27.9-1.8c-24.4,1-48.7-0.8-73-0.6c-8.4-0.1-16.9,1.1-25.2-0.3
		C554.2,381.8,545.5,381,536.8,380.8z"/>
	<path class="st1" d="M842.5,388.6c3.6-0.5,7.3-1.4,11-0.8c16.3,3,33,1.1,49.4,3.2c-6.7,2.4-13.9,1.7-20.9,1.8
		c-12.9-0.3-25.7,0.6-38.5,1.1C843.1,392.2,842.8,390.4,842.5,388.6z"/>
	<path class="st1" d="M0,449c10.3-0.6,20.3,2.9,30.7,2.4c-0.6,2.5-1.4,4.9-1.5,7.5c1.8,3,6.4,3.8,9.3,2c2-3.2,3.3-6.8,6.4-9.1
		c1.2,3.9,2.2,7.9,3.6,11.8c-3,0.3-6,0.8-9,1.3c0.1,0.8,0.4,2.3,0.5,3.1c5,0.3,9.8,1.7,14,4.4c0.4-0.2,1.2-0.6,1.5-0.9
		c-2.3-3.6-2.3-7.8,0.4-11.2c3,0.8,6.1,1.6,9.2,2.3c1.6-4.8,3-9.6,4.5-14.4c2,0.8,4,1.7,6,2.5c-1.2,1.9-4.4,3.6-3.4,6.1
		c3.8,1.9,8.2,1.2,12.3,1.1c1.5,2.4,3.1,4.8,4.8,7c4.1,0.9,8.3-0.1,12.4,0.6c5.1,1.1,8.4,5.3,12.4,8.2c5.3-1.6,10.8-2.2,16.4-2.4
		c7.7-4.8,17.2-5.1,26-4.9c0.4-1.7,0.9-3.3,1.3-5c2.1,2.3,3.4,5.1,4.2,8.1c-4,3.1-9.4,9-5.9,14.1c0.1,1.7,0.1,3.3,0.1,5
		c-2.5-1.4-5-2.8-7.4-4.3c-1.6,3.9-1.6,8.3,1.3,11.6c-1.7-0.7-3.5-1.4-5.3-2c-1.5,3.9-2.1,8.1-2.6,12.2c-0.6-1.7-1.3-3.3-2-5
		c-2.9,4.9-8.5,4.8-13.5,4.1c0.5,6.9-8.4,10.8-12.4,5c0.3-6.7-6.2-9.4-11.2-12.1c-6.4,4.9-14.7,5.4-21.3,9.7c-4.5,2.7-9.9,3-15,3
		c-2.5-5-8-7.3-13.3-5.9c-3.7,1.2-7.1-0.6-9.7-3.1c-6.4,1.1-13.2,2.2-18,7c2.8,0.9,5.6,1.8,8.4,2.7c0.4,1.6,0.8,3.2,1.2,4.8
		c1.9-2.1,3.8-4.3,5.7-6.4c3.2,3,6.3,8.6,11.6,6.7c5.9-1.7,16.2-1,15.3,7.3c5.4-5.6,15.1-5.4,21.6-1.8c3.7-2.6,8.2-2.8,12.5-2.4
		c5.3,0.6,9.8-3,14.8-3.7c4.7,0.4,9.4,2.1,14.1,0.6c-1.4-2.1-2.8-4.3-4.1-6.4c4.5-1,9.1-0.4,13.4,1c-1.4,3.4-1.1,7.1-1.1,10.7
		c-0.9,5.3-4.5,9.5-6.8,14.3c0.5-2.3,0.9-4.6,0.7-6.9c-1.8-2.6-5.1-1.5-7.6-1.5c-4,0.3-7.8-2-11.8-1.6c-4.1,0.3-7.9,2.2-11.7,3.7
		c-4.7,2.3-9.6-1.5-14.5,0c-8,0.2-14.8,5.6-22.9,5c-2.2-6.7-8.8-13.4-16.3-10.6c-6.1,4-13.8-1.8-19.2,4.2
		c-4.3-5.4-9.8-14.8-17.9-9.9c-1.8-1.8-3.6-3.5-5.4-5.3c-2,3.1-4.1,6.2-5.7,9.5V449 M80.4,476.2c-1,1.5-1.9,2.9-2.9,4.4
		c-1.8,0-3.6,0.1-5.3,0.2c-0.7,5.1,6.1,8.3,10,5.4c3-1.9,6.6-1.3,9.9-1.2C95.5,477.1,86,475.7,80.4,476.2z"/>
	<path class="st1" d="M600.7,465c6.5-1.3,12.4-4.6,19.1-4.8c5.7,2.4,10.1,7,14.1,11.8c-16.1,4.4-33.1,4.2-49.5,6.6
		c-24,0.6-47.6,6.3-71.6,6.3c-5,0.2-10.2,2.2-15.1-0.1c3.4-0.6,7.1-1.2,9.6-3.9c3.9-4.5,10.4-4.1,15.7-5.9c4-1.9,5.9,4.4,9.8,3.2
		c2.2-2.3,3.4-5.4,4.8-8.2c1.1,2,2.2,4,3.3,6c1.1-1.9,2.3-3.9,3.4-5.8c1.4,0.2,2.8,0.4,4.2,0.6c0.4,0.5,0.8,1,1.2,1.5
		c0.2-0.3,0.5-0.9,0.6-1.2c3.2-1.2,6.6-0.9,9.9-0.4c4.1-0.6,8.2-1.9,12.5-1.6c-0.2,2.3-0.4,4.7-0.6,7c4.4-2,9-4.2,14-3.3
		C592.3,473.9,597.7,470.1,600.7,465z"/>
	<path class="st1" d="M734,528.2c7.3-3,18-2.4,22.4,5c-4.4-1.4-8.7-3.3-13.3-4.1c0.8,10.2,3.7,20.2,3.7,30.5
		c-1.9-1.2-1.9-3.5-2.2-5.4c-0.8-8.3-2.2-16.6-3.2-24.9c-2.6,0.5-5.2,1-7.7,1.5C733.8,530.1,733.9,528.8,734,528.2z"/>
	<path class="st1" d="M757.9,533c0.5,1.6,0.6,3.4,0,5c-3.9,11.9-8.1,23.6-12.8,35.2c-3.2,8-6,16.3-11.4,23.1
		c2.2-10,7.1-19.2,10.7-28.8C749.1,556.1,753.1,544.4,757.9,533z"/>
	<path class="st1" d="M138.6,557.9c2,5.8,1,12.1,2.4,18.1c-1.8-1.2-3.4-2.6-5-4.1C136.5,567.2,137.1,562.5,138.6,557.9z"/>
	<path class="st1" d="M710,558.9c8.1,17,11.3,36.1,17.2,54c0.8,1.6,2.8,1.9,4.2,2.7c1.6-3.2,3.9-5.9,7.8-4.9
		c-0.6,6.4,3.5,14.5-3.3,18.8c-0.5-2.9-0.9-5.8-1.1-8.7c-0.6,1.4-1.2,2.8-1.7,4.2c-1-2.8-1.8-5.6-2.8-8.3c-3.8,2.6-1.1,7.9-1.5,11.7
		c-6.1-17.9-9.8-36.5-15.5-54.5C711.8,569,709.7,564.1,710,558.9z"/>
	<path class="st1" d="M0,565.3c8.3-1.7,14.9,4.6,23,4.4c4.1,0.1,8,2.5,12.1,1.8c7.6-1.5,15.2,1.7,22.8,1c8.7-0.7,17.3,2.3,26,0.8
		c6.8-1.1,13.7,1.2,20.5-0.5c5.2-1.6,10.4,0.7,15.7,0.1c5.3,9.3,0.8,20.1,3.2,30c2.3,8.3,1.1,17,3.4,25.3c2,1.3,4.2,2.3,6.3,3.4
		c-2.7,0.8-5.5,1.4-8.3,2c0.6,2.2,1.2,4.4,1.9,6.6c-5.8,3.2-12.4,0.4-18.6,1c-24.3,0.9-48.7,4-73,2.2c-11.7,1-23.4,0.4-35.1,2V565.3
		z"/>
	<path class="st1" d="M759,579.2c6.5-3.2,12-8.4,19.1-10.3c-2.1,5.4-8,7.5-12.2,11c-7.4,4.7-14.3,11.1-23.3,12.6
		C745,585.2,753.3,583.2,759,579.2z"/>
	<path class="st1" d="M1179.2,577.4c1.7-2.1,3.6-4,5.6-5.8c1.7,3.9-3.1,5.7-4,8.5c2.7,3.5,1,8.7,3.5,11.8c7.3,1.3,15,1.8,22.4,1.4
		c-0.1-2.1-0.2-4.2-0.3-6.3c2.2,0.5,4.4,1,6.6,1.5c-0.7,1.5-1.3,2.9-1.9,4.4c4,1.3,8,0.2,11.8-1.1c5.6-2.1,10.3,2.9,15.7,3.6
		c6.8,1,13.6,0,20.4,0.1c7.1,0.1,14-3.5,21.2-1.9v47.8c-36.4,0.7-72.8-0.4-109.2,0.7c-0.1-2.8-0.1-5.6-0.1-8.3
		c0.4-6.6-0.1-13.5,3.2-19.4c-0.6,0-1.8,0.2-2.3,0.2c0.4-2,0.8-4,1.2-6c0.7,1.1,1.4,2.2,2.2,3.3C1176,600.5,1176,588.7,1179.2,577.4
		z"/>
	<path class="st1" d="M779.2,574.1c4.6,15,6.6,30.8,6.8,46.5c-2-1.1-1.6-3.5-1.7-5.4c0-7.8-0.4-15.6-2.2-23.2
		c-4.4,5.1-6.1,12.7-12.1,16.3c2.1-7.5,8.6-12.5,11.6-19.5C781.6,583.8,779.4,579.1,779.2,574.1z"/>
	<path class="st1" d="M147.2,576.5c3.1,0.7,6.5,1.6,9.5,0c0.7,1,1.4,2,2.1,3c-1,0.1-1.9,0.2-2.9,0.3c5.3,1.3,10.8,1.9,16.2,3
		c-7.6,2.6-15.5,0.5-23.1-0.6c-7.2-1.3-14.7-1.9-21.6-4.4c7.6-0.8,14.8,2.1,22.3,2.7C148.9,579,148,577.7,147.2,576.5z"/>
	<path class="st1" d="M1104.8,587.7c7.1,6.5,11,15.8,15.7,24.1c0.9-0.4,1.8-0.9,2.7-1.3c1-3.5,1.1-8,4.7-10
		c2.8,4.8,3.9,10.7,1.1,15.8c-0.9-0.4-1.9-0.8-2.8-1.2c1.3-2.8,2.4-5.7,2-8.8c-1.4,3-3.4,5.7-6,7.8c0.8,2.5,1.7,5,2.4,7.5
		c-4.7-6.2-8.3-13.1-12.4-19.7C1109.6,597.3,1105.8,593.1,1104.8,587.7z"/>
	<path class="st1" d="M701.2,614c10.4,6,19.9,13.7,28.9,21.6c1.6-0.8,3.2-1.6,4.8-2.4c0.3,0.8,0.5,1.6,0.8,2.5
		c-1.1,0.6-2.2,1.3-3.3,1.9c-0.3,1.5-0.6,3-0.8,4.5c-9.9-8.4-20-16.5-30.4-24.4C701.3,616.5,701.2,615.3,701.2,614z"/>
	<path class="st1" d="M750.3,681.2c0.1-3.2-1-7,1.3-9.6c0.9,9.9,0.9,19.9,0,29.8C750.5,694.8,750.9,687.9,750.3,681.2z"/>
	<path class="st1" d="M741.1,679.9c3.4,9.8,3.5,20.3,6,30.3c2.5-0.6,5-1.2,7.5-1.7c-4.2,7.7-15.9,5.2-22.1,1.3
		c-0.1-0.6-0.2-1.9-0.2-2.5c4.3,1.6,8.6,2.9,13.1,3.7C744.9,700.5,741,690.4,741.1,679.9z"/>
</g>
<g id="_x23_c0bfbcff">
	<path class="st2" d="M0,242.3c8.4-0.3,16.7-3.1,25.1-1.5c6.5,1.1,13.2-0.2,19.5,1.7c7.9,2.9,11.9,11.4,19.6,14.6
		c4.3,0.3,8.4-4.3,12.6-1.9c10.7,5.6,17.9,15.5,27.5,22.6c3.4,2.5,6,6,6.3,10.4c0.6,6.6,4.9,11.9,7.5,17.8c1.5,4,6.3,4.1,9.7,5.5
		c4.1,1.1,5.1,6.4,9.2,7.6c8,2.6,17.4,2,24.1,7.9c-6.9-2.4-14.3-4.1-21.6-3.4c-3.7,4-4.2,10.7-1.6,15.5c5.2-1.2,11.1-3.9,16.1-0.7
		c0.2,3.4-0.6,6.8-1.2,10.1c4.8,3.3,5.2,9.6,9.3,13.5c3.3,3.2,6.9,7.2,11.9,7c6.2,0.4,10.9-4.3,16.4-6.4c4.1-1.1,9.6-0.4,11.5,4
		c-2.3-0.3-4.6-0.6-6.9-0.9c-2.8,5.8-0.1,11.4,3.8,15.9c4.9-6.2,14.2-10.9,21.6-6.1c15.3,4,30.8,7.5,46,12c7.5,2,16,2.2,22.2,7.6
		c-3.6,0.8-7.2,1.3-10.9,1.6c1.1,0.2,2.3,0.4,3.4,0.6c-21.6,1.6-43.6,3.2-63.8,11.5c-21.9-5-43.7-11.4-66.3-12.1
		c-16.3-3.4-32.9-0.7-49.2-3.8c-10.8-0.9-21.9,2-32.4-1.5c-4.8-2-9.2,1.8-13.9,2.1c-7.8,0.4-15.9,1.5-23.5-1.1
		c-8.9,8.1-21.7,4.5-32.1,2.3V242.3z"/>
	<path class="st2" d="M867.6,260.1c26.7-6.5,55-2.2,80.7,6.7c12.6,5.6,26.4,8.6,38.4,15.6c11.3,6,23.3,10.7,33.6,18.4
		c7.4,4.8,16.2,8,21.7,15.4c-23.7-14.9-48.2-28.6-75-37c1-0.5,2-1.1,3-1.6c-13.9-4.6-27.1-11.2-41.6-13.9c-19-4.4-39.1-5.9-58.3-1.6
		c-9.9,2.2-17.5,9.1-26.1,14c-2.7,1.6-5.2,3.5-6.9,6.1c-7.4,11-14.5,22.4-19.4,34.8c-1.3,3-2.6,6.7-6.1,7.6
		c7-15.8,14.8-31.2,23.8-46c4-5,8-10.2,13.5-13.8C855.4,265.3,861.3,261.6,867.6,260.1z"/>
	<path class="st2" d="M942,259.2c39.8,8.7,76.2,28.1,111.8,47.2c4.8,3.4,6.7,9.3,10.3,13.7c-1.9-0.4-3.9-0.8-5.8-1.2
		c-0.3-2.1-0.7-4.1-1-6.2c-10.6-3.6-19.1-11.3-29.5-15.3c-19.1-12.6-40.7-20.5-61.6-29.5C958.3,264.4,949.9,262.5,942,259.2z"/>
	<path class="st2" d="M607,269c50.4-4,100.9-5.8,151.5-4.5c-7.1,3.5-15.3,2.2-22.8,3.8c20,2.3,40.5,2.6,60.1,7.3
		c-5,2-10.5,1-15.7,0.7c-25.8-2.7-51.4,3.3-77.1,2.5c-9-0.1-17.9,1.5-26.8,2.4c1.5-2.6,3.1-5.2,4.7-7.8c-7.6,0.7-15.1,1.2-22.7,2.3
		c1.3,1.9,2.5,3.9,3.8,5.8c-15.8,0.4-31.6,1.6-47.3,1.7c3.4-2.6,7.4-4.3,11.5-5.4c-7.6,1.3-15.3,0.7-23,1c-5.6,0.2-9.5,4.7-13.4,8.1
		c1.6,2,3.4,4.3,6.2,4.6c13.5,2.1,27.3-0.7,40.8,1.5c-4.5,2.5-8.5,5.9-11.2,10.3c-4-3.4-9.6-5.6-14.6-2.9c-7.2,4-16.2,1.8-23,6.7
		c-8.3-1.8-13.5-9.3-13.9-17.5c-8.2-4.3-18-5.3-26.6-1.7c-10.7,1.8-22.2,5-29.1,14c-3.7,5-10,7.1-13.6,12.2
		c-4.4,7.3-14.2,9.6-16.8,18.3c5.6-3.3,10.7-7.6,16.4-10.9c1.3,1.8,2.2,4.7,4.9,4.5c7,0,13.7-2.9,20.8-2.9c9-1,18,0.7,26.9-0.5
		c-1.9,3.3-3.1,7.2-6,9.8c-6,3.3-13.6,0.8-19.3,4.7c-6.5,7.1-17.3,5.3-23.9,12c-11.8,6.5-23.6,13.2-36.2,18
		c-3.6,0.8-3.5,4.3-3.4,7.2c-3.5,0.8-6.9,1.9-10.3,3.1c-11.5,1.4-24-0.7-34.5,5.3c-5.6,3.4-14.1-2.5-17.6,4.8
		c-2.5,0.2-4.9,0.6-7.3,1c0.5,1,0.9,2,1.4,3c-5.9,0.5-11.8,1.2-17.7,1.6c2.8-1.2,5.6-2.4,8.6-3.4l1-0.3c-3.9-0.5-7.9-0.9-11.8-1.4
		c3.9-0.5,7.9-0.2,11.6-1.6c3.5-2.4,6.1-6.5,10.6-6.9c6.5-0.8,13.4,0.1,19.7-2.4c-0.2-9.7,7.8-15.5,11.8-23.4
		c6.6-8.2,12.4-17,18.4-25.5c8.7-5.4,13.2-15.6,22.7-19.8c-1.3-0.5-2.5-1-3.7-1.5c12.7-9.2,25.7-18.5,40.4-24.4
		c-2.8-0.1-5.7-0.2-8.5-0.1c13.2-6.2,27.4-9.9,41.3-14.4c0.6,0.1,1.7,0.3,2.3,0.4c-5.2,3-11.1,4.4-16.3,7.3
		c6.2,0.8,12.2-1.6,18.3-2.1c13.5-1.2,26.9-3.2,40.5-3.8C594.7,270.3,600.9,269.7,607,269z"/>
	<path class="st2" d="M1257.1,355.4c8.2-2,15.4-6.6,22.9-10.3v70.5c-1.4,0.4-2.8,0.9-4.3,1.3c-2.6,5.4-7,9.9-12.4,12.6
		c-4.5,1.5-9.3,0.6-13.9,0.3c-13-1.5-26.3,1.2-39.2-1.3c1.9-1.1,4-2.2,5.8-3.6c3.3-4-0.3-13.1,6.3-14.3c6.1-1.4,12.6-2.5,17.5-6.7
		c6.2-5.6,15.7-7.8,18.8-16.4c2.7-0.4,5.5-0.7,8.2-1.1c-0.1-3.9-0.6-7.8-1.4-11.6c-4.8-1.8-10.4-3.7-15-0.4
		c-2.7,1.8-9.1,4.2-6.3,8.3c2.7,1.4,6.2-0.2,9.1-0.3c-5.3,4.4-10.6,8.7-15.5,13.5c-5.6,5.3-13.9,3.8-20.6,6.4
		c-4,10.8-15.7,16.5-26.3,18.8c-4.6,1.1-8.4,4.2-13,5.4c-3.3-0.5-6.5-1.6-9.9-1.6c-2.3-7.2-2.8-15.6-8.2-21.4
		c-6.5-5.5-15.2-7.3-22.4-11.4c5.5-3,11.9-3.5,17.8-5.7c5.9-2.3,12.3-0.6,18.4-0.8c17.6-2.3,34.6-7.7,52.2-10.6
		c6.6-0.6,11.5-5.3,17-8.3C1248.1,363.7,1250.7,356.9,1257.1,355.4z"/>
	<path class="st2" d="M0,420.4c5.4,0.1,10.7,1,16.1,1.7c4.2,0.7,8.4-2.3,12.5-0.7c14.5,4.2,29.7,5,44.6,7.3
		c8.8,0.6,17.3,3.5,26.2,3.1c4.6,0.1,8.9-1.8,13.5-1.7c5.3,2,9.9,9,16.1,5.9c5.7-2.9,12.1-0.2,18,0.3c4.9,0.2,8.2,6.3,13.4,4.3
		c4.8-1.3,5.5-7.6,10.1-9.1c3.2-1.2,6.3,0.6,9.2,1.8c-6.8,5.6-11.6,13-17.3,19.7c-1.5-0.8-3-1.5-4.5-2.2c0.2,1.2,0.3,2.3,0.5,3.5
		c-0.8,0.2-1.6,0.4-2.4,0.6c-0.4-1.3-0.7-2.7-1.2-4c-6.4-0.2-12.5-1.7-18.7-3c1.8,1.6,3.6,3.1,5.4,4.6c-7.1,6.7-16.5,3.3-25.1,3.4
		c-5.8-7.7-16.2-1.9-23.9-1.1c-5.5,0.5-4.4,6.4-3.1,10.1c-1.7-2.3-3.3-4.6-4.8-7c-4.1,0.2-8.5,0.8-12.3-1.1c-1-2.6,2.2-4.2,3.4-6.1
		c-2-0.8-4-1.7-6-2.5c-1.5,4.8-2.9,9.6-4.5,14.4c-3.1-0.8-6.1-1.5-9.2-2.3c-2.8,3.4-2.8,7.6-0.4,11.2c-0.4,0.2-1.1,0.7-1.5,0.9
		c-4.2-2.6-9-4.1-14-4.4c-0.1-0.8-0.4-2.3-0.5-3.1c3-0.5,6-0.9,9-1.3c-1.3-3.9-2.4-7.9-3.6-11.8c-3.1,2.3-4.5,5.9-6.4,9.1
		c-2.9,1.8-7.5,1-9.3-2c0.1-2.5,0.9-5,1.5-7.5c-10.4,0.5-20.4-2.9-30.7-2.4V420.4z"/>
	<path class="st2" d="M1212.4,471.6c3.4,0.3,6.3,2.6,9.7,3c3.8,0,7.5-2.4,11.2-0.9c8.4,3.2,17.7,2.2,26.3,4.8
		c3.7,1.2,6.4,4.7,10.3,5.2c4-1.1,7.1-4.3,10.1-7.1v43.9c-9.6,0.7-19.1,1.3-28.7,0.2c2.3,4.5,4,9.9,0.1,14
		c-5.2-2.1-8.6-6.4-11.3-11.1c-4.7-0.9-9.2,1.7-13.4,3.5c0.3,1.5,0.7,3.1,1,4.6c-6,5-13,9.4-20.8,10.9c-4.8,0.3-8.1-4-9-8.3
		c-2.8,1.7-5.3,4-6.3,7.3c5.4,2.8,11,6.1,17.2,6c5.6-0.5,9.9-4.5,14.2-7.7c6.2,2.1,13.6,5,19.6,0.8c4.5-3.6,10.9-0.9,15.4-4.5
		c6.4-4.4,14.5-4.4,21.9-5.4v62.8c-7.2-1.6-14,2-21.2,1.9c-6.8,0-13.6,0.9-20.4-0.1c-5.3-0.8-10.1-5.7-15.7-3.6
		c-3.8,1.3-7.8,2.4-11.8,1.1c0.6-1.5,1.3-2.9,1.9-4.4c-2.2-0.5-4.4-1-6.6-1.5c0.1,2.1,0.2,4.2,0.3,6.3c-7.5,0.3-15.1-0.2-22.4-1.4
		c-2.5-3.1-0.8-8.3-3.5-11.8c0.9-2.8,5.7-4.6,4-8.5c-2,1.8-3.9,3.7-5.6,5.8c0.3-1,0.5-2.1,0.8-3.1c-2.5,2.1-5.2,4-7.9,5.9
		c2.2-6,1.2-12.6,3.2-18.8c1.6-4.7-1.3-9.5-1-14.3c-1.3-14.3,2.2-28.7-0.7-42.9c0.3-7.7,0.6-15.5-0.8-23.1c4.4-3.1,9.8-2.3,14.8-1.5
		c0.8-1.8,1.6-3.6,2.4-5.4c4.1,3,9,4.9,14.2,4.6C1206.3,475.9,1208.3,471.9,1212.4,471.6z"/>
	<path class="st2" d="M192.5,497.7c7.3-5.3,15.2-11.1,24-13c6.8,2.6,14.8,0.1,20.9,4.2c-6.6,1.4-13.4,1.4-20,2.6
		c-0.5,1.3-1.1,2.5-1.6,3.8c6.2,0.3,12.5,0.4,18.7,1.3c0.1,1.1,0.1,2.2,0.2,3.3c-6.6,0.4-14.4-1.4-19.9,3.4
		c-2.9,2.4-7.2,2.5-9.8,5.4c2,0.5,4,0.9,6,1.3c-3.3,0-6.6,0-10,0c0.2,0.6,0.6,1.9,0.7,2.6c-6.4-0.2-12.9-0.1-19-2.3
		C184,504.6,188.3,500.8,192.5,497.7z"/>
	<path class="st2" d="M0,523c1.7-3.3,3.7-6.4,5.7-9.5c1.8,1.8,3.6,3.5,5.4,5.3c8.1-4.9,13.6,4.4,17.9,9.9c5.3-6,13.1-0.2,19.2-4.2
		c7.5-2.8,14.1,3.9,16.3,10.6c8.1,0.6,14.9-4.9,22.9-5c4.9-1.5,9.8,2.3,14.5,0c3.8-1.5,7.6-3.3,11.7-3.7c4-0.3,7.8,1.9,11.8,1.6
		c2.6,0,5.9-1.2,7.6,1.5c0.2,2.3-0.2,4.7-0.7,6.9c-1.1,2.9-2.2,5.8-3.3,8.7c-0.6,0.8-1.3,1.5-1.9,2.3c-0.1-2.5-0.3-5.1-0.5-7.6
		c1.5-1.6,3-3.2,4.5-4.9c-4.9,1.3-10.4,3.7-14.4-0.8c-1.3,2.2-2.6,4.4-3.9,6.7c-5-1.7-10.2-2.5-15.5-2.1c-2-2.1-4-4.2-6-6.2
		c-2.2,3.6,1,7.3,1.8,10.8c-5.8-0.3-9.1-4.9-11.2-9.7c-2.5,2.3-4.9,4.6-7.3,7c-8.2-3.9-12.7,4.8-17,10.2c5.8,4.7,13.5,1.6,20.1,3.2
		c11.9,3.8,24.6,2.8,36.9,3c3.3-0.4,7.8,1,9.9-2.5c1.1,0.3,2.2,0.6,3.3,0.8c-4,7-2.3,15.3-2.5,23c-0.2,16.7,0.4,33.4,1.5,50.1
		c-2.3-8.2-1.2-17-3.4-25.3c-2.4-9.9,2.1-20.7-3.2-30c-5.3,0.6-10.5-1.7-15.7-0.1c-6.8,1.7-13.7-0.6-20.5,0.5
		c-8.7,1.5-17.3-1.5-26-0.8c-7.7,0.6-15.2-2.5-22.8-1c-4.2,0.7-8-1.7-12.1-1.8c-8.1,0.3-14.7-6-23-4.4v-10
		c5.5-0.5,11.2-0.5,16.4,1.5c7.7,2.8,16.5,0.6,22.8-4.3c-6.6-5.1-14.6-7.2-22.3-9.9c-0.6-3.5-1.5-7-2.7-10.3
		c-4.1,2.1-4.2,6.8-5.6,10.6c-2.5,1.7-5.9-0.8-8.6-1V523z"/>
	<path class="st2" d="M576.8,574.7c6.8-2.3,13.8-4.6,21.1-5.1c2.1-0.4,2.6,2.1,3.5,3.5c-6.8,2.5-14.2,2.3-21.4,3.2
		c-9.4,0.6-18.8,2.7-28.2,1.5C560.2,577,568.5,576,576.8,574.7z"/>
	<path class="st2" d="M1155,581.1c2.5-0.3,5.2-0.7,7.4,0.7c-9,3.1-18.8,5.8-28.3,4.3c0.1-0.6,0.3-2,0.4-2.6
		C1141.3,582.1,1148.2,582.1,1155,581.1z"/>
	<path class="st2" d="M750,596c9.9,4.8,17.9,13,26.9,19.3c3.5,3.3,9.7,5.4,9.5,11.1c-11-7.1-21.3-15.1-31.8-22.9
		C751.9,601.9,750.4,599.1,750,596z"/>
	<path class="st2" d="M701.3,619.6c3.5,8.8,0.3,19.6,3.7,28.9c4.1-5.3,6.8-11.5,10.2-17.3c0.4,0.3,1.3,1,1.7,1.3
		c-3.2,6.8-8.3,12.7-11,19.7c-0.1,5.1,1.9,10,2.1,15C703.4,651.9,701.1,635.7,701.3,619.6z"/>
	<path class="st2" d="M1125,622.7c1.8-0.4,3.5-0.8,5.3-1.2c-2.7,3.6-1.4,7.9,0.1,11.7c-7.5,2-15.2,3.3-22.9,4
		c4.9-5.4,14-4.9,20.4-8.5C1126.9,626.7,1125.9,624.7,1125,622.7z"/>
	<path class="st2" d="M1005,666.4c5.1,0.9,7.9-4.9,12.9-4.1c9,0.3,17.9,1.1,26.9,1.8c2.8,7.7,5.3,15.5,9.4,22.7
		c-0.1,0.5-0.3,1.4-0.5,1.9c-13.6-1.1-27.6,0.6-41-2.7c-8-2.7-16.5-0.7-24.7-1.1c-7.6-0.1-15.4-0.7-22.7,1.8
		c-9.8,3.1-19.8-0.8-29.8-0.4c-14.9-0.7-29.7,1-44.5,0.5c-14,0.1-28.3,2.7-42.1-0.6c-5.6-0.8-11.9-2.4-17,0.9
		c5.7,3.5,12.4,5.1,19,3.4c5.9,0.4,11.9,1.9,17.9,0.9c0,0.4,0,1.1,0,1.5c-9.8-0.7-19.5,2.8-29.3,0.6c-5.4-1.3-10.8,0.5-16.1,1.6
		c-12.9-0.1-25.9-0.9-38.9,0.3c1.4-4,2.6-8,3.9-12c20.5-1.4,41-3.5,61.5-4.5c28.4-3.6,57.2-3.7,85.7-7.1
		C958.8,670.2,981.8,667.3,1005,666.4z"/>
	<path class="st2" d="M167,662.8c50.1,2.5,100.2,3.8,150.3,5c25.6,1.4,51.4-0.1,77,1c-7,1.9-14.2,0.2-21.3,0.1
		c-37-0.4-74,0.5-111-1.1c-20.9,0.3-41.8-1.2-62.7-1.2c-12.6-0.9-25.3,0-37.7,2.4C162.9,666.6,164.5,664.2,167,662.8z"/>
</g>
<path class="st3" d="M859,256c13.9-4.7,28.8-4.7,43.3-3.8c-0.5,0.3-1.4,0.8-1.9,1c-17.7-0.3-37,0.2-51.7,11.6
	c-5.4,3.6-9.4,8.8-13.5,13.8c-7.6,3.4-7.5,14.9-16.2,16.8c-0.6-2-1.3-3.9-1.9-5.8c-7.5,7.5-12.1,17.3-17.6,26.3
	c-8,13.1-15.4,26.7-21,41c-1.6,5.3-7.4,6.4-11.9,8.1c-15.5,6.1-32.5,4.8-48.8,6.1c-14.4,0.9-30.3-2.5-43.5,5.1
	c0.3,1.3,0.6,2.5,0.8,3.8c-2.9,0.5-5.8,1-8.6,1.3c-43.3-0.2-86.7-1.6-130-0.4c-43.8,1.4-87.5,3.3-131.2,6.2c3.5-7.3,12-1.4,17.6-4.8
	c10.4-5.9,23-3.9,34.5-5.3c18.1,1.5,36.2-1.9,54.4-1.8c66.7-2.4,133.4-4,200.2-5.9c8.9-0.6,15.1-7.8,22.7-11.5
	c7.1-4.2,15.6-3.8,23.5-5.3c-1.9-4.3-7-4.8-10.9-6.5c5.5-6.5,13.7-9.7,19.7-15.6c4.9-6.6,12.5-10.2,18.5-15.8
	c5.3-4.7,9.6-10.8,16.4-13.6c5.9-2.4,9.5-7.9,12.8-13.1c2.7-3.6-0.4-7.8-1.6-11.4c6-1.1,12.1-1.3,18.1-0.5c3.7,0.6,5.8-3,8-5.3
	c-26.7-4.1-53.8-6.3-80.8-6.3c-50.5-1.3-101.1,0.4-151.5,4.5c-6.1,0.8-12.3,1.3-18.4,0.4c77.2-7,155-10.9,232.3-3.2
	c3.9,0.3,6.9-2.7,10.1-4.6c-1.3,1.9-2.5,3.9-3.8,5.8c5-1.8,9.9-3.9,15.2-4.3C848.7,262.7,853.2,257.8,859,256z"/>
<path class="st3" d="M840.1,359.4c16.2-20.4,47.1-23.1,69.2-11.5c-6.8-0.2-13.5-2.3-20.3-1.9c-9.3-0.2-18.1,3.3-26.6,6.5
	c-3.8,1.5-8.1,2.7-10.6,6.2c16.6,0.3,33.2-2.4,49.7-1.1c-4.1,2.3-8.9,1.6-13.4,1.7c-11.2-0.2-22.4,1.6-33.5,1.3
	c-5-0.9-10,0.3-14.9,0.7C839.7,360.9,840,359.9,840.1,359.4z"/>
<path class="st3" d="M156.1,483.6c-3.5-5.1,1.9-11,5.9-14.1c1.2,4.5,4.2,8.2,7.1,11.7c-1,1.2-1.9,2.4-2.9,3.6
	C162.8,484,159.4,483.6,156.1,483.6z"/>
<path class="st3" d="M367.1,482.3c6.6,0.3,10-7.9,16.8-7.1c21.2,0.3,43,1.6,62.6,10.6c11,4,21.7,9,31.5,15.5
	c2.3,1.7,3.2,4.4,4.3,6.9c-14.4,1-28.8,4.1-43.3,3.4c-15.6,0.7-31.2,2-46.8,1.3c-21.1-0.3-42.3,1.8-63.3,0.1c6.1-6.4-4.1,9.3-2-1.1
	c-0.7-0.5-0.6-0.2-3.3-0.9c-3.4-0.5-3.4,0.9-4.9-2.4c-0.1-0.9-3.9-1.2-4-2.1c-4,1.1-12.5-8.3-18.5-7.5c-0.6-0.5-1.8-1.4-2.3-1.9
	c9.5-3.3,19.4-1.2,29.1-1.2c7.5-0.1,14.4,4.1,22,3.1c7.9-0.8,16.6,3,23.7-1.8c-10.3-3.6-21.3-0.8-31.9-1.4c-1.1-1.4-1.5-3.1-2.1-4.8
	c-11.4-2.4-23.9,2.3-34.7-2.8c4.7-1,9.5-1.3,14.3-1.5c-14.4-0.8-29,1-43.3-1c1.3-0.2,2.6-0.4,3.9-0.6c-1.6-1.7-3-3.7-4.1-5.9
	c5.4,0.5,9.7,4.7,15.2,4.2c13.3-0.4,26.5,0.4,39.7,0.4C339.4,481.5,353.3,482.8,367.1,482.3z"/>
<path class="st3" d="M80.4,476.2c5.6-0.5,15.1,0.9,11.6,8.7c-3.3-0.1-6.9-0.7-9.9,1.2c-3.9,2.8-10.7-0.3-10-5.4
	c1.8-0.1,3.5-0.1,5.3-0.2C78.4,479.2,79.4,477.7,80.4,476.2z"/>
<path class="st3" d="M8.6,542.8c1.4-3.8,1.5-8.5,5.6-10.6c1.2,3.3,2.1,6.8,2.7,10.3c7.8,2.6,15.7,4.8,22.3,9.9
	c-6.3,4.9-15.1,7.1-22.8,4.3c-5.3-2-10.9-2-16.4-1.5v-13.5C2.7,542.1,6.1,544.5,8.6,542.8z"/>
<path class="st3" d="M93.1,543.2c-0.8-3.5-4-7.3-1.8-10.8c2,2,4,4.1,6,6.2c5.3-0.4,10.5,0.4,15.5,2.1c1.3-2.2,2.6-4.4,3.9-6.7
	c4,4.5,9.6,2.1,14.4,0.8c-1.5,1.6-3,3.3-4.5,4.9c0.2,2.5,0.4,5.1,0.5,7.6c-1,2.4-1.8,4.8-2.6,7.2c-2,3.5-6.6,2.1-9.9,2.5
	c-12.3-0.2-25,0.8-36.9-3c-6.7-1.6-14.3,1.5-20.1-3.2c4.3-5.4,8.8-14,17-10.2c2.4-2.4,4.8-4.7,7.3-7C84,538.2,87.3,542.9,93.1,543.2
	z"/>
<path class="st3" d="M555.7,589.8c7.8-2,14.8,2.6,22,4.6c7.2,2.4,15,1.6,22.5,1.7c-0.6,9.3-2.4,18.5-4.6,27.6
	c-3.9,0.7-7.7,1.2-11.6,1.5c-1.9-3.1-1.1-8.4-4.9-9.8c-5.5,0.2-6,6.1-5.5,10.3c-2.1,0.3-4.2,0.5-6.3,0.8c0,0.6,0,1.9,0,2.5
	c11.1,5.8,23.6,0.6,35.3,1.6c-5.3,4.6-12.9,3.4-19.5,4.3c-7.4,0.2-16.7,1.9-22-4.7c-8.8-11.1-15.8-23.6-22.1-36.3
	C543,588.8,550.2,591.5,555.7,589.8z"/>
<path class="st3" d="M1266.4,691.5c4.6-0.2,9.2-1.3,13.6-2.7v19.8c-8.3,0.6-16.8,0.8-24.9-1.3c-8,0.8-16.3-0.5-24.1,1.5
	c-0.8-0.8-1.6-1.7-2.4-2.5c-14.5,3.6-28.4-4.4-42.9-3.6c-12-1.1-24,0.7-35.9-0.7c0.3-1.1,0.7-2.2,1.1-3.2
	c10.2,1.2,20.7-0.8,30.8-2.4c-3.7-1.1-7.4-2.2-11.1-3.5c8.7-2.1,17.7-1.5,26.6-0.9C1220.1,690.5,1243.3,691.4,1266.4,691.5z"/>
<path class="st3" d="M784.5,695.3c12.9-1.1,25.9-0.3,38.9-0.3c25.5,2.5,51.1-0.9,76.6-0.1c15.7-1.5,31.4,0.8,47-0.7
	c16.9,1.3,34-0.1,50.9,1.4c18.3-1.7,37-1.8,55.1,1.6c2.3,0.3,4.4-0.8,6.4-1.6c2.3,1.3,3.3,3.6,3.7,6.1c-22.4,0.7-44.7-0.4-67.1,0
	c-7.4,0.4-14.8-1.7-22.2-0.3c-9.7,1.5-19.2-1.2-28.9-1.6c-13.3,0-26.8,3-40,0c-5.4,0.8-10.6,0-15.9-0.9c-11.5,5.3-24.7,2-36.8,1.2
	c-9.3,2-18.8,3.3-28.3,1.6c-12.3,0.9-24.7,1-37,2C781.6,704.7,783,698.3,784.5,695.3z"/>
<path class="st3" d="M636,699.2c2.1,2.8,3.1,6.3,3.2,9.8c-7.1,0-14.3,0-21.3,1.8c-27.2,1.3-54.4,2.8-81.6,2.9
	c-1.4,0.6-2.7,1.6-4,2.3c-26.3-0.5-52.8,2.9-79.3,3.2c-8.3-0.1-16.4,2.2-24.7,1.5c-10.8-0.6-21.5,2.6-32.4,1.1
	c-3.9-0.8-7.4,1.2-11,2.2c-4.4,0.3-8.8-0.8-13.1-0.1c-25.3,2.9-50.8,3.7-76.3,2.9c1.2-1,2.2-2.8,4-2.7c24.4-2.2,48.9-6.5,73.5-5.5
	c19.5,1.6,39.1-1.1,58.6-0.5c0.6-0.7,1.2-1.3,1.8-2c12.1,2.4,25.3,0.4,36.3-5.2c2.8-0.7,5.7,3.5,8.2,1.1c4.6-4.4,11.4-1.7,17.1-2.8
	c7.4-1.3,14.8,0.5,22.1,1.9c-2.1-0.8-4.2-1.7-6.3-2.5c6.4-3.3,11.9,0,17.4,3.1c-0.2-1.3-0.5-2.6-0.7-3.9c8.7-0.8,17.6-1.2,26,1.8
	c0.4-1.2,0.9-2.3,1.4-3.5c3.6,1.3,7,3.4,10.8,4.2c8.1,0.8,14.1-7.1,22.4-5.8c-1.1,1-2.1,1.9-3.2,2.9c10.9,1.7,21.7-0.9,32.6-1.1
	c6.7-0.5,13.3-2.9,20-1.6C637,702.9,636.5,701.1,636,699.2z"/>
<g id="_x23_a6acb3ff">
	<path class="st4" d="M902.3,252.2c8.1-0.3,15.9,2,23.9,2.8c5.3,1.3,10.6,2.7,15.8,4.3c7.9,3.3,16.3,5.2,24.2,8.7
		c20.9,9,42.5,16.9,61.6,29.5c10.4,4,18.9,11.7,29.5,15.3c0.3,2.1,0.7,4.1,1,6.2c1.9,0.4,3.9,0.8,5.8,1.2c4,5.3,7.7,10.9,12,16.1
		c-7.5-4.3-13.3-10.8-20-16.1c-23.1-16.8-47.3-32.4-73.8-43.3c-26-11.8-53.4-20.6-81.9-23.7C900.9,252.9,901.8,252.4,902.3,252.2z"
		/>
	<path class="st4" d="M758.5,264.5c27,0.1,54.1,2.2,80.8,6.3c-2.2,2.3-4.3,5.9-8,5.3c-6-0.7-12.1-0.6-18.1,0.5
		c1.2,3.6,4.3,7.8,1.6,11.4c-3.3,5.1-6.9,10.7-12.8,13.1c-6.8,2.8-11.1,8.9-16.4,13.6c-5.9,5.5-13.5,9.1-18.5,15.8
		c-6,5.9-14.2,9.1-19.7,15.6c3.8,1.7,8.9,2.2,10.9,6.5c-7.9,1.6-16.3,1.2-23.5,5.3c-7.6,3.7-13.8,10.9-22.7,11.5
		c-66.7,1.8-133.5,3.5-200.2,5.9c-18.1-0.1-36.2,3.3-54.4,1.8c3.4-1.2,6.8-2.3,10.3-3.1c-0.1-2.9-0.2-6.5,3.4-7.2
		c12.7-4.8,24.4-11.4,36.2-18c6.6-6.8,17.4-4.9,23.9-12c5.7-3.9,13.3-1.4,19.3-4.7c2.9-2.6,4.2-6.5,6-9.8c3.3-7.2,8.9-13.8,8.4-22.1
		c-21.9,0.4-43,9-61,21c-5.7,3.3-10.7,7.5-16.4,10.9c2.6-8.7,12.4-11,16.8-18.3c3.5-5.1,9.9-7.2,13.6-12.2c6.9-9,18.4-12.2,29.1-14
		c8.6-3.6,18.4-2.6,26.6,1.7c0.4,8.2,5.5,15.7,13.9,17.5c6.8-4.9,15.8-2.7,23-6.7c5-2.7,10.6-0.5,14.6,2.9
		c2.7-4.4,6.7-7.8,11.2-10.3c-13.5-2.2-27.3,0.6-40.8-1.5c-2.8-0.3-4.6-2.5-6.2-4.6c3.9-3.4,7.8-7.8,13.4-8.1c7.7-0.3,15.4,0.3,23-1
		c-4.1,1.2-8.1,2.9-11.5,5.4c15.8,0,31.5-1.3,47.3-1.7c-1.3-1.9-2.5-3.8-3.8-5.8c7.5-1,15.1-1.6,22.7-2.3c-1.6,2.6-3.2,5.2-4.7,7.8
		c8.9-0.9,17.8-2.5,26.8-2.4c25.8,0.9,51.4-5.2,77.1-2.5c5.2,0.3,10.6,1.4,15.7-0.7c-19.6-4.7-40.1-5-60.1-7.3
		C743.2,266.7,751.3,268,758.5,264.5z"/>
	<path class="st4" d="M139.5,323.6c7.3-0.7,14.7,1,21.6,3.4c4.3,3,8,6.9,12.6,9.5c5,2.9,10.8,4.7,14.9,9c4.1,3.9,6.9,9.7,12.7,11.4
		c11.9,3.2,22.7,9.3,34.7,12.1c5.4,0.9,10.2,3.5,14.8,6.4c12.6,5.3,26,8.4,38.8,13.3c7.1,2.2,13.8,6.3,21.5,6
		c8.4,0.6,16.7-1.6,25.1-1c-17.9,4.5-36.6,1.9-54.9,3.7c-1.2-0.2-2.3-0.4-3.4-0.6c3.6-0.4,7.3-0.8,10.9-1.6
		c-6.2-5.4-14.7-5.6-22.2-7.6c-15.2-4.5-30.7-8-46-12c-7.4-4.8-16.8-0.1-21.6,6.1c-3.9-4.4-6.7-10-3.8-15.9c2.3,0.4,4.6,0.7,6.9,0.9
		c-1.9-4.4-7.3-5.1-11.5-4c-5.5,2.1-10.1,6.8-16.4,6.4c-5,0.1-8.6-3.8-11.9-7c-4.1-3.9-4.5-10.3-9.3-13.5c0.6-3.3,1.4-6.7,1.2-10.1
		c-4.9-3.3-10.9-0.5-16.1,0.7C135.3,334.3,135.9,327.7,139.5,323.6z"/>
	<path class="st4" d="M55.6,393.6c4.8-0.2,9.1-4.1,13.9-2.1c10.5,3.5,21.6,0.6,32.4,1.5c-8.5,0.7-17,3.6-25.5,1.8
		c-5.1-0.9-10.5-3.7-15.5-0.9c-6,3-13.3,0.4-18.9,4.4c7.6,2,15.2-0.6,22.7-1.7c3.8-0.7,6.3,3,9.1,4.8c7.4,5.2,17.4,2,25.3,5.7
		c2.5,2.4,3.1,6.1,4.3,9.3c5.1,0.8,9.6-1.6,14-3.8c3.8-2,7.5,1.6,11.5,1.2c7.8-1.9,14.8,4,22.6,1.1c13.5-3.8,27.6,0.8,40.9-3.5
		c0,0.8-0.1,1.6-0.1,2.4c0.9-0.5,1.8-1,2.8-1.5c4.2,1.5,8.7,1.8,13.1,1c-9.9,6.1-19.7,12.5-28.5,20.1c-2.9-1.2-6-3-9.2-1.8
		c-4.6,1.5-5.3,7.8-10.1,9.1c-5.1,2-8.5-4.1-13.4-4.3c-6-0.5-12.3-3.1-18-0.3c-6.3,3.1-10.8-3.9-16.1-5.9c-4.6,0-8.9,1.8-13.5,1.7
		c-8.9,0.3-17.4-2.5-26.2-3.1c-14.9-2.4-30-3.1-44.6-7.3c-4.2-1.6-8.3,1.3-12.5,0.7c-5.3-0.7-10.7-1.6-16.1-1.7v-25.6
		c10.4,2.2,23.2,5.8,32.1-2.3C39.7,395.1,47.8,394,55.6,393.6z"/>
	<path class="st4" d="M1168.3,439.4c0.3-2.2,0.8-4.3,1.3-6.4c0.3,5.1,1.1,10.1,1.5,15.1c4.6,0.4,9.3,1.1,13.9,1.1
		c14.8-1,29.7,0.4,44.5,1.4c5.5-0.3,11-1.4,16.6-0.5c11.3,1.7,22.6,0,33.9,0.3v26.3c-3,2.8-6,6-10.1,7.1c-3.9-0.5-6.6-4-10.3-5.2
		c-8.6-2.6-17.9-1.6-26.3-4.8c-3.7-1.5-7.5,0.9-11.2,0.9c-3.4-0.4-6.3-2.7-9.7-3c-4.1,0.3-6.2,4.3-8.2,7.2c-5.2,0.2-10-1.7-14.2-4.6
		c-0.8,1.8-1.6,3.6-2.4,5.4c-5-0.8-10.4-1.6-14.8,1.5c-1.8-9.2,0.9-21-6.8-27.8C1166.7,448.7,1167.7,444.1,1168.3,439.4z"/>
	<path class="st4" d="M572.9,451.8c2.5-0.5,5.1-0.6,7.7-0.1c-23.5,6.1-47.8,9.4-71.1,16.6c7.1,1.7,14.2-1.2,21.3-1.6
		c24.9-4.6,49.9-8.7,75.1-10.9c5-0.3,9.7,2.1,14,4.4c-6.7,0.2-12.6,3.5-19.1,4.8c-3,5-8.4,8.9-14.5,8c-5-0.9-9.6,1.3-14,3.3
		c0.2-2.3,0.4-4.7,0.6-7c-4.3-0.4-8.3,1-12.5,1.6c-3.3-0.5-6.7-0.8-9.9,0.4c-0.2,0.3-0.5,0.9-0.6,1.2c-0.4-0.5-0.8-1-1.2-1.5
		c-1.4-0.2-2.8-0.4-4.2-0.6c-1.2,1.9-2.3,3.9-3.4,5.8c-1.1-2-2.2-4-3.3-6c-1.4,2.8-2.5,5.9-4.8,8.2c-3.9,1.2-5.8-5.1-9.8-3.2
		c-5.3,1.8-11.8,1.4-15.7,5.9c-2.4,2.7-6.2,3.3-9.6,3.9c-11.8-4.2-23.5-8.8-35-13.7C499.3,464.1,536.1,457.7,572.9,451.8z"/>
	<path class="st4" d="M240.3,478.7c8.4-0.7,16.9-1.7,25.3-1.2c1.8,2.7,3.6,5.4,5.3,8.2c14.3,2,28.9,0.2,43.3,1
		c-4.8,0.2-9.6,0.5-14.3,1.5c10.8,5.1,23.3,0.4,34.7,2.8c0.6,1.6,1.1,3.4,2.1,4.8c10.6,0.6,21.6-2.3,31.9,1.4
		c-7.1,4.9-15.8,1.1-23.7,1.8c-7.6,0.9-14.5-3.2-22-3.1c-9.7,0-7.5,6.5-17,9.8c0.6,0.5-5.9-0.5-5.3,0c-4.7,2.6-13.2-0.5-16.7,3.6
		c0.6,1.4,1.3,2.9,1.9,4.3c-11.6,0.6-23.3,0.7-34.9-0.6c-16.4,0.2-32.8,0.3-49.1-0.4c-0.2-0.6-0.6-1.9-0.7-2.6c3.3,0,6.7,0,10,0
		c-2-0.4-4-0.8-6-1.3c2.6-2.9,6.9-3,9.8-5.4c5.5-4.7,13.2-2.9,19.9-3.4c-0.1-1.1-0.2-2.2-0.2-3.3c-6.2-0.8-12.4-1-18.7-1.3
		c0.5-1.3,1.1-2.5,1.6-3.8c6.6-1.2,13.4-1.2,20-2.6c-6.2-4.1-14.2-1.6-20.9-4.2C223.4,479.8,232.2,479.6,240.3,478.7z"/>
	<path class="st4" d="M81.8,507.9c6.7-4.3,15-4.8,21.3-9.7c5,2.6,11.5,5.4,11.2,12.1c4,5.8,12.9,2,12.4-5c5,0.7,10.5,0.8,13.5-4.1
		c0.7,1.7,1.3,3.3,2,5c-0.6,1.7-1.3,3.4-2,5.1c-4.3-1.4-8.9-2-13.4-1c1.3,2.2,2.7,4.3,4.1,6.4c-4.7,1.5-9.4-0.3-14.1-0.6
		c-5.1,0.8-9.5,4.3-14.8,3.7c-4.3-0.4-8.8-0.2-12.5,2.4c-6.5-3.6-16.2-3.8-21.6,1.8c1-8.3-9.4-9-15.3-7.3c-5.2,1.9-8.3-3.7-11.6-6.7
		c-1.9,2.2-3.8,4.3-5.7,6.4c-0.4-1.6-0.8-3.2-1.2-4.8c-2.8-0.9-5.6-1.8-8.4-2.7c4.8-4.8,11.6-5.9,18-7c2.7,2.5,6,4.3,9.7,3.1
		c5.4-1.4,10.8,0.9,13.3,5.9C71.9,510.9,77.3,510.6,81.8,507.9z"/>
	<path class="st4" d="M769.3,627.2c3.2-0.1,6.4-0.1,9.6,0.1c-0.5,4-0.9,7.9-1.3,11.9c-2.7-0.1-5.4-0.2-8.2-0.4
		C769.3,634.9,769.2,631,769.3,627.2z"/>
	<path class="st4" d="M126.7,640.2c0.6,1.1,1.3,2.2,2,3.2c1.3,1.8,2.6,3.7,4.1,5.3c-3.2,1.7-6.5,3.8-8,7.2c-1,2.6-2,5.3-1.8,8
		c3.8,5.8,11.3,6.8,17.6,7.6c11.9,1.2,23.8,2,35.6,4.3c-3.1,0.6-6.2,1.2-9.4,1.7c6.3,21.1,18.8,42.9,40.1,51.5
		c0.7,0.6,1.4,1.3,2.1,2c-5.3,0.2-10.6-0.8-15.6-2.4c-1.3,1.4-2.6,2.8-3.9,4.3c-0.4-0.1-1.1-0.3-1.5-0.4c-1-2.3-1.1-5.9-4-6.5
		c-3.8,1.4-7.5,3.6-11.7,3.7c2.8-6.4,9.8-5.7,15.2-8.1c-12.6-6.1-27.2-1.9-40.6-2c-13.2-1-26.3,2.4-39.5,0.2c6.7-3,14.3-1.4,21.3-3
		c7.1-1.5,14.1-2.8,21.4-3.2c-6.7-2.1-13.5,0.8-20.3-0.1c-5.7-0.7-11.5-0.8-17.2-0.8c1.9-1.4,3.9-3,6.4-3.3
		c12.7-2.6,25.8-1.1,38.7-1.6c6.5-1.1,13.1-0.8,19.7-1c-7.7-4.3-17-1.9-25.3-2.1c-7.2,0.1-14.3-1-21.5,0.2c1.1-1,2.2-2.2,3.5-3
		c9.9-2.1,20.2-2.8,30.2-5c-9-0.5-18.1-1.5-27.1-0.2c-11.9,1.4-23.9-0.4-35.8,1.2c-7.5,1-16-3.4-22.5,2.2c-2.2-1.7-4.3-3.7-7-4.6
		c-3.9,1.3-6.9,6.8-11.5,3.6c1.1-1.1,2.2-2.2,3.4-3.3c-5.7,1-11.5,1-17.3,0.6c0,1.9,0,3.8-0.1,5.7c-2.8,0.1-5.5,0.2-8.3,0.3
		c-0.5-1-0.9-2.1-1.4-3.1c2.8-0.9,5.5-1.8,8.2-2.7c-10.9,0.1-21.8-1.1-32.6-2.1c0.3-1.2,0.7-2.4,1-3.6c-4.4-1.3-9-1.7-13.5-0.7
		v-44.7c11.6-1.6,23.4-1,35.1-2c24.3,1.8,48.7-1.3,73-2.2C114.3,640.6,120.9,643.4,126.7,640.2z"/>
	<path class="st4" d="M180.7,647.3c11.3-3,23,0.9,34.4,1.5c6.7,0,11.6,4.9,17,8.1c-13.3,0-26.6-1.1-39.7-3.4
		C188,652.8,182.9,651.7,180.7,647.3z"/>
	<path class="st4" d="M299.6,724.1c13-10.7,22.2-25,28.4-40.5c6.1,0.5,11.2,4.2,17.1,5.3c9.9,1.6,19.9,1.4,29.9,1.3
		c5.7-1.1,11.5-1.2,17.1,0.6c42.9,3.2,85.9,3.1,128.9,3.9c15.1-0.4,30.1-1.2,45.2-1.2c0.6,2.8,1.2,5.7,1.9,8.5
		c20.2-0.5,40.5-1.4,60.7-2.2c1.5-3,2.9-6,4.3-9.1c1.1,2.7,2.1,5.5,2.9,8.3c0.5,1.8,1,3.7,1.5,5.6c-6.8-1.3-13.3,1.1-20,1.6
		c-10.9,0.1-21.7,2.7-32.6,1.1c1-1,2.1-1.9,3.2-2.9c-8.3-1.3-14.3,6.5-22.4,5.8c-3.8-0.8-7.2-2.9-10.8-4.2c-0.5,1.2-0.9,2.3-1.4,3.5
		c-8.4-3-17.3-2.6-26-1.8c0.2,1.3,0.4,2.6,0.7,3.9c-5.5-3-11-6.3-17.4-3.1c2.1,0.8,4.2,1.7,6.3,2.5c-7.3-1.3-14.6-3.2-22.1-1.9
		c-5.7,1.1-12.5-1.7-17.1,2.8c-2.5,2.4-5.4-1.8-8.2-1.1c-11,5.6-24.2,7.6-36.3,5.2c-0.6,0.6-1.2,1.3-1.8,2
		c-19.5-0.6-39.1,2.1-58.6,0.5C348.5,717.6,324,722,299.6,724.1z"/>
	<path class="st4" d="M988,684.9c8.2,0.4,16.7-1.5,24.7,1.1c13.4,3.4,27.3,1.7,41,2.7c0.1-0.5,0.4-1.4,0.5-1.9l0.1-0.5
		c1.3,3.3,2.9,6.5,5.2,9.4c-2.1,0.7-4.2,1.9-6.4,1.6c-18.1-3.4-36.8-3.3-55.1-1.6c-17-1.5-34-0.1-50.9-1.4
		c-15.7,1.5-31.4-0.8-47,0.7c-25.5-0.7-51.1,2.6-76.6,0.1c5.3-1.1,10.7-2.9,16.1-1.6c9.7,2.2,19.5-1.3,29.3-0.6c0-0.4,0-1.1,0-1.5
		c-6,1.1-11.9-0.4-17.9-0.9c-6.6,1.7-13.3,0.1-19-3.4c5.1-3.3,11.4-1.7,17-0.9c13.8,3.3,28.1,0.7,42.1,0.6
		c14.8,0.5,29.7-1.2,44.5-0.5c10-0.4,20,3.5,29.8,0.4C972.6,684.1,980.4,684.8,988,684.9z"/>
</g>
<g id="_x23_ead5c5ff">
	<path class="st5" d="M848.8,264.8c14.6-11.4,33.9-11.9,51.7-11.6c28.4,3.1,55.9,11.9,81.9,23.7c26.5,10.9,50.7,26.5,73.8,43.3
		c6.7,5.3,12.5,11.8,20,16.1c13.1,14,27.7,26.5,39.5,41.6c1.9,2.7-1.5,5.4-4,5.9c-11.1,2.9-23,2.6-33.3,7.9c0.1,1,0.2,2.1,0.3,3.2
		c25.5,1.5,51.9-0.3,76.3,8.7c9.6,4.1,6.8,16,7.9,24.3c1.8,10.5-3.5,20.3-2.8,30.8c-2-1.8-3.8-3.8-5.6-5.8
		c-1.4-12.9-0.8-25.8-0.8-38.8c0.2-4.5-1.6-9.8-6.6-10.8c-15.8-3.6-32.1-5.7-48.3-5.3c-9.3,0.5-18.6,1.8-27.8,2.9
		c-4.7,0.3-10.9,0.9-12.8-4.5c13.2-11.7,31.8-12,46.7-20.2c-3.5-6.7-7.3-13.5-13.3-18.2c-4.9-5.5-10-10.6-16.1-14.8
		c-10-10.3-21.6-18.6-33.3-26.8c-5.5-7.4-14.2-10.5-21.7-15.4c-10.3-7.7-22.4-12.4-33.6-18.4c-12-7-25.8-9.9-38.4-15.6
		c-25.7-8.9-53.9-13.2-80.7-6.7C861.3,261.6,855.4,265.3,848.8,264.8z"/>
	<path class="st5" d="M223.1,362.2c4.3-3.9,10.4-5.4,15.9-3.1c4.2,1.4,8.4,4.1,13,2.9c9.9-2.2,20.1-0.4,30.1,0
		c22.5,3.6,45.2,5.1,68,6.1c3.3,0.3,6.3-1.3,9-2.8c-0.5,2.1-0.9,4.1-1.3,6.2c-1.3-0.3-2.6-0.7-3.9-1c1,3.7,2.2,7.4,3.7,11
		c2.6,0.3,5.1,0.7,7.8,0.9c-2.7,0.2-5.4,0.6-8.1,0.9c0.2,1.9,0.4,3.8,0.6,5.7c-7.2,1.4-14.3,3.4-21.6,4.6c-8.4-0.6-16.7,1.6-25.1,1
		c-7.7,0.3-14.4-3.8-21.5-6c-12.8-4.9-26.2-8-38.8-13.3c-0.8-3.7-1.9-7.4-3.5-10.9C239.5,369.2,230.4,366.1,223.1,362.2z"/>
	<path class="st5" d="M777.5,386.7c2.8,0,5.6,0,8.3,0.2c5.5,0.1,9.5,4.9,15.1,4.4c5.8,0,11.8-0.3,17.4,1.5
		c-12.6,3.4-25.8,1.3-38.6,2.8c-12.9,1.1-25.7,3.7-38.7,3.6c-17.3,1.7-34.6,3.1-52,2.7c-24.8-0.4-49.1,7.2-71.1,18.3
		c9-7.7,20.6-11,30.4-17.2c-13.2,3.4-25.1,10.7-36.6,17.9c-6.9-3.1-13.4,2-19.8,4c-12.8,3.6-24.8,9.5-37.8,12.6
		c-9.1,2.8-17.8,7.3-27.6,7.3c-20.5,4.7-41.4,6.6-62.4,7.7c-8.7,1.4-17.6,1.1-26.3-0.4c6.2-11.8,20.7-14.9,31.9-20.1
		c8.1-4.5,17.6-5.4,25.4-10.4c16.2-6.9,34.6-9.1,48.9-20.2c-4.3-2.1-9-3.9-13.9-3.5c-11.6,0.9-23,3.2-34.3,5.5
		c-5.5,1.1-10.4,5.3-16.3,3.8c9-5.1,19.3-6.9,29-10.3c15.2-5.1,31.3-5.9,47.2-7.1c14,0.3,28.1-1.3,42,0.8c3,0.2,5.4,2.2,7.5,4.3
		c-12.3,5.1-25.6,6.8-37.9,11.6c-16.4,5.9-34.3,8.9-49.1,18.5c3.2,6.7,11,7,17.3,5.9c25-3.2,48.6-12.9,72-21.9
		c17.3-5.1,35-9.1,53-11.4c31.4-7.9,64.1-7.4,96.3-9.8c-0.1,0.6-0.4,1.8-0.5,2.4C763.5,389.8,770.8,389.3,777.5,386.7z"/>
	<path class="st5" d="M289.9,421c13.3-13.4,31-24.1,50.5-23.3c-13.6,9.7-29.1,17.9-39.2,31.6c-1.9,2-1,4.4,0.4,6.4
		c8.6-4.3,18.7-3.7,26.9-8.9c20.8-7.4,42.9-9.5,64.6-12.7c18.3-4.4,37.5-6.7,56.3-3.9c-3.1,7.6-12.3,7.6-18.1,12.1
		c-6.1,4.6-14,7.3-18.2,14.1c4.5-1.4,9-3,13.4-5c-9.8,7.2-20.4,13.4-29,22.1c-1.5,1.7-2.3,4-3.2,6c-8.8,3.1-18.5,1-27.1,4.5
		c6.5,2.2,13.5,1.9,20.2,2.6c-2.5,0.3-5,0.7-7.5,0.9c-24.6-1-49.2-1.3-73.8-0.4c-25.7,1.5-51.7,1.6-76.9,7.3
		c-9.2,2.3-17.7-3.4-26.2-5.9c-0.4-1.1-0.8-2.2-1.2-3.3c-2.6-0.7-5.1-1.5-7.7-2.2c4.9-2.7,9.5-6.6,15.2-7.3
		c14.1,0.2,27.6-5.3,41.8-4.3c7.4,1.1,11.7-5.8,17.9-8.2C278.6,438.8,283,428.5,289.9,421z"/>
	<path class="st5" d="M1145.3,470c10.8,6.1,16.3,18.2,19.8,29.7c-1.2-0.6-2.5-1.1-3.8-1.5c-2.9-4.1-5.8-8.3-9.6-11.7
		C1146.8,482.4,1147.9,475.3,1145.3,470z"/>
	<path class="st5" d="M178.8,583.9c3.1,2.1,7.5,2.9,9.7,6c-0.3,5.6-4.5,10.3-6.5,15.4c-2.5,2.9-4.9,5.8-7.4,8.7
		c-8.5,7.8-12.1,19.8-21.6,26.8c-6.4-9.8-6.9-22.4-7.1-33.7c2-6.2,3.3-12.7,2.6-19.3c8-0.8,15.8,1.9,23.8,1.5
		C175.4,589.5,176.9,586,178.8,583.9z"/>
</g>
<g id="_x23_e0a780ff">
	<path class="st6" d="M870,262.1c19.2-4.3,39.2-2.8,58.3,1.6c14.5,2.6,27.8,9.2,41.6,13.9c-1,0.5-2,1.1-3,1.6
		c-23.9-7.7-48.8-13.3-74-11.9c-11.7,0.7-23.8,4.3-32.3,12.6c-12.2,11.5-18.4,27.4-25.9,42c-10,21.4-20.9,42.6-28.9,64.9
		c12.2,1.1,24.5,2.2,36.7,1.9c0.3,1.8,0.6,3.5,0.9,5.3c12.8-0.5,25.7-1.4,38.5-1.1c7-0.1,14.2,0.6,20.9-1.8c4.6-1.6,9.1-3.8,14-3.6
		c17,0,34,0.3,51.1-0.3c20-0.5,40.4,1.1,60-4.1c12.6-3.4,25-7.6,36.6-13.4c4.3-2.3,9.1-5.3,10.4-10.4c1.3-5.3,0.5-10.9,0.3-16.3
		c6.1,4.2,11.2,9.3,16.1,14.8c6.1,4.7,9.8,11.5,13.3,18.2c-14.9,8.2-33.5,8.6-46.7,20.2c1.9,5.5,8.2,4.8,12.8,4.5
		c9.3-1.1,18.5-2.3,27.8-2.9c7.9,4.6,17.2,3.5,25.9,4.5c3.4,0.4,6.7,2.6,7,6.3c1.7,10.9,10,19.9,9.6,31.2c-3,2-6.8,1.1-10.2,1.5
		c-5.8-0.1-11.1,2.9-16,5.6c-6.7,2.6-10.5,11.6-18.7,10c-8.7-2-16.9-5.8-24.6-10.3c-10.4-3.9-21.7-4.4-32.7-3.4
		c-38.9,2.6-78.1,2.3-116.8,8.1c-12.9,1.8-26,1.8-38.8,4.3c-8.9,1.8-18,1.5-26.9,3.1c-8.4,1.4-17,2.1-25.4,0.3
		c-0.6,1.3-1.3,2.7-1.9,4c-6.2-12.1-3.3-26.5-7.8-39.2c-7.8,1.9-14.4,6.8-22.5,7.8c-5.9,1.7-8.3,8.2-12.2,12.5
		c-12.4-4.6-24.8-11.3-38.6-9.9c-0.3,4.3-1.3,8.8-0.3,13.1c2.1,1.2,4.6,1.6,6.9,2.3c15.5,5.1,27.5,17.3,36,30.7
		c2.1,2.9,3.9,7.1,8.1,7c7.7,0.4,15.5,0.9,23.2,1.5c3.8,0.5,7-2,9.3-4.8l0.5,0.4c0.3,0.2,0.8,0.6,1.1,0.8c7.5-7,15.8-13.9,26.3-15.8
		c49.9-10.4,100.8-15.7,151.7-16.1c13.4,0.9,26.6,2.9,39.9,4.6c7,1.2,15.9,3.4,18.2,11.1c2.5,10.6-5.4,19.2-10.5,27.5
		c-5.1,8.7-11.3,16.7-17.3,24.8c-2.3,3.3-6.4,4.3-10.2,4.9c-47,4.5-95.2,6.4-140,22.9c-14.9,5-27.9,14.2-40.1,23.9
		c-7,5.7-15.6,10.9-18.3,20c4.3,0.2,8.2,1.9,11.3,4.9c-3.3-0.9-6.6-2-9.8-2.9c0,2,0,4.1,0.1,6.1c7.3,0.8,14.4-1.3,21.5-2.6
		c12-2.3,24.1-3.9,36.2-5.7c30.6-4.4,60.8-11.3,91.3-16.8c26.9-5.8,54-11.2,80.6-18.5c3-1.2,7.6-1.4,8.8-4.9c0-4.7-4.1-9-1.9-13.7
		c3.7-10.4,9.2-20,12.7-30.4c3.6-9.5,5.4-20,11.9-28.1c7.3-9.8,13.9-21,24.8-27.4c6.9-3.8,14.2,1.1,21.1,2c4.5,0,8.8-1.8,13.2-2.4
		c1.8,2,3.6,4,5.6,5.8c1.5,0.6,3.1,1,4.7,1.5c0.4-2.2,0.9-4.4,1.3-6.6c7.8,6.8,5.1,18.6,6.8,27.8c1.4,7.7,1.1,15.4,0.8,23.1
		c2.9,14.2-0.6,28.6,0.7,42.9c-0.3,4.8,2.7,9.5,1,14.3c-2,6.1-0.9,12.7-3.2,18.8l-0.7,0.5c-1.1-19.6,2.2-39.9-4.1-58.9
		c-5.4-12-9.8-26.1-21.9-33.1c-7.5-4.9-17.5-2.6-23.8,3.1c-12.6,11.1-18.9,27.4-24,43c-7.3,22.6-10.3,46.3-14.8,69.5
		c-7.7-2.5-15.6-3.3-23.7-3.3c-14.1-4.4-26.6-15-42.1-14.1c-29.1,2.7-57.8,8.7-86.6,13.3c-15.1,3.3-30.4,5.8-45.2,10
		c-15.3,5.6-29.1,14.7-44.1,21c-8.3,3.3-17.2,4.2-25.8,6.1c-6.3,0.8-9.7,7.4-16.1,8c0.5-9.2,3.2-18,3.9-27.2
		c2.9-32.6,2.1-66.5-9.4-97.5c-7.2-18.3-20.8-37.1-41.4-40.6c-17.9-3.3-34.8,7.7-45.5,21.2c-0.3-0.3-0.9-1-1.2-1.3
		c-1,0.6-1.9,1.1-2.9,1.7c9.3-16.7,26.9-29.1,46.3-29.3c17.9,2.3,32.5,15.7,41.3,30.8c4.3,6.7,6.2,14.7,10.8,21.3
		c0-6.8-2.3-13.2-4.7-19.5c-7.3-19.4-20.8-38.3-41-45.6c-0.9,2-1.8,3.9-2.6,5.9c-0.3-2.5-0.6-5-1-7.5c-7.9,1.3-16-0.1-23.8,1.5
		c-14,4.9-25.1,15.2-36,25c2.9-7.2,11.3-10.7,12.9-18.3c-9.5,6.8-16.6,16.4-24,25.3c6-14.2,17.9-25,30-34.1
		c10.3-6.7,22.8-9.5,35-10.2c0-4.1,1.4-9.3-2.1-12.3c-4.4-2.6-9.8-1.2-14.5-0.2c-6.8,1.9-14,2.2-20.8,4.2c0.6,2.7,1,5.5,1,8.3
		c-3.6-2.2-2.7-6.4-3.5-9.9c-2.7-3.6-8.2-4.7-11.5-1.3c-2.2-3.5-6.5-3.5-10.2-3.1c-34.5,3.9-68.5,11.1-103,14.7
		c-1.6-0.7-3.2-1.5-4.7-2.3c13.9-4.5,23.5-16,35.3-24c11.5-7.2,23.3-14.5,36.6-17.9c-9.8,6.3-21.5,9.5-30.4,17.2
		c22-11.2,46.2-18.7,71.1-18.3c17.4,0.4,34.7-1,52-2.7c13,0.1,25.8-2.5,38.7-3.6c12.8-1.5,26,0.6,38.6-2.8
		c-5.6-1.8-11.6-1.5-17.4-1.5c-5.5,0.5-9.6-4.3-15.1-4.4c1.7-8.2,5.5-15.7,8.5-23.4c5.5-13,10.8-26.3,17.3-38.9
		c3.5-0.9,4.8-4.6,6.1-7.6c4.8-12.4,12-23.8,19.4-34.8c1.8-2.6,4.2-4.6,6.9-6.1C852.5,271.2,860.2,264.3,870,262.1 M1145.3,470
		c2.7,5.3,1.5,12.4,6.4,16.5c3.8,3.4,6.7,7.6,9.6,11.7c1.3,0.4,2.6,0.9,3.8,1.5C1161.6,488.2,1156.1,476.1,1145.3,470z"/>
	<path class="st6" d="M974.6,542.8c16.8-4.2,34.2-3.3,51.4-3.2c12.4-0.5,23.7,5.1,35.1,9c-0.8,3.2-1.6,7.3-5.3,8.2
		c-22.3,7.4-46,8.4-68.7,14.1c-17,5-35,4.8-52.3,8.7c-8.7,1.8-17.7,0.6-26.5,1.8c-5.5,0.7-11.3,4.3-16.5,0.8l0.3-0.8
		c0.2-0.4,0.5-1.2,0.7-1.6c-7.8,0.7-15.7,0-23.4-1.6c17.2-16.8,40.5-25.4,63.9-29.1C946.9,545.5,960.6,542.5,974.6,542.8z"/>
	<path class="st6" d="M504.2,559.3c21.3-1.7,42.6-5.2,64.1-4.2c-9.4,0.7-18.9,4-25.1,11.4c-0.9-1.2-1.4-3.4-3.4-3
		c-11.3,0.6-22.6,2.2-33.9,2c-5.9-0.2-12.5,2.6-17.6-1.6C493.3,561.5,498.8,560.4,504.2,559.3z"/>
	<path class="st6" d="M186.9,581.1c1.5-2,2.4-5.9,5.6-5.3c5.4,0.3,12.1,0.4,15.3,5.6c2.4,3.2,0.8,7.3,0.3,10.8
		c1.2-1.4,2.3-2.8,3.5-4.1c8,6.8,19.5,1.5,29,4.9c-0.3,1.2-0.7,2.3-1,3.5c15.5-1,30.8,2.5,46.2,2.5c16.9-0.3,33.6,2.4,50.5,1
		c11.2,0.8,22.4-0.6,33.6,0.3c8.4,0.6,16.6-3,25-1.9c10.8,1.4,21.6-0.4,32.2-1.9c2.9-0.8,5.3,1.4,7.6,2.9c4.4-0.6,8.8-1.5,13.2-2.3
		c6.2-1.6,11.7,2.8,17.2,4.9c7.7,3,11.1,11,16.9,16.2c3.7,4.5,7.1,9.4,10.6,14.1c2.3,3.6,4.7,7.3,8.1,10c5.8,5.1,14.2,6.6,19,13
		c2.5,3.8,7.1,4.3,11.3,4.2c-6.9,0.2-15.1,2.4-20.8-2.6c-12-12.4-22.6-26-34.7-38.3c-13.3-12-32.4-7.8-48.7-7.7
		c-69.6,2.1-139.4,1.9-209-2c-7.9,0-18.2-1.5-23,6.4c-8.6,13.3-15.3,28.8-28.7,38.2c-9.7,4.1-20.6,1.5-30.5-0.6
		c-0.8-0.4-1.6-0.8-2.4-1.3c0.5-0.2,1.6-0.5,2.2-0.6c-0.9-0.7-1.9-1.5-2.8-2.2c-1.5-1.6-2.8-3.5-4.1-5.3c6.1,1.9,11.9,4.7,18.2,6.1
		c6.5-3.7,10.9-10.2,15.4-16c4.1-6.5,9.9-12,12.2-19.5c2.5-2.9,4.9-5.8,7.4-8.7c3.3-3.1,5.9-6.8,9.5-9.5c3.5,0.1,7.5,3.6,10.6,0.6
		c3.1-3.9,4.3-9,4.7-13.8C201.8,577,192.4,575.3,186.9,581.1z"/>
	<path class="st6" d="M659.7,584.9c0.7-5.2,5.9-7.6,10.6-7.1c-3.3,17-7.1,33.9-9.5,51.1c-0.4,4.4-5.2,3.4-8.1,2.5
		C653,615.6,656.5,600.2,659.7,584.9 M661,589c-2.4,13.5-6.2,26.9-6.6,40.7c1.4,0.1,2.8,0.2,4.3,0.3c2.9-16.6,5.9-33.2,9.3-49.7
		C663.5,580.6,661.4,585,661,589z"/>
</g>
<g id="_x23_837983ff">
	<path class="st7" d="M860.7,279.8c8.5-8.3,20.6-11.9,32.3-12.6c25.2-1.4,50.2,4.3,74,11.9c26.8,8.4,51.4,22.1,75,37
		c11.7,8.2,23.3,16.5,33.3,26.8c0.2,5.4,0.9,10.9-0.3,16.3c-1.3,5.1-6,8.1-10.4,10.4c-11.7,5.8-24.1,10-36.6,13.4
		c-19.6,5.2-40,3.6-60,4.1c-17,0.7-34,0.3-51.1,0.3c-5-0.2-9.5,2-14,3.6c-16.4-2.1-33.1-0.2-49.4-3.2c-3.7-0.6-7.4,0.3-11,0.8
		c-12.3,0.3-24.5-0.8-36.7-1.9c8-22.3,18.9-43.4,28.9-64.9C842.2,307.2,848.5,291.3,860.7,279.8 M877,315.4c0.8,7.5,1.7,15,1.1,22.5
		c-11,1.4-21.8,5.1-30.9,11.6c-3.2,2.6-6.9,5.6-7.2,10.1c-0.1,0.5-0.4,1.4-0.6,1.9c5-0.5,9.9-1.6,14.9-0.7
		c11.2,0.3,22.3-1.4,33.5-1.3c4.5-0.2,9.3,0.6,13.4-1.7c-16.5-1.4-33.1,1.3-49.7,1.1c2.5-3.5,6.8-4.6,10.6-6.2
		c8.5-3.2,17.3-6.7,26.6-6.5c6.9-0.4,13.5,1.6,20.3,1.9c2.2,1,4.6,1.6,6.9,2.2c-3.5-3.5-8.1-5.1-12.6-6.7c-2.6-9.5-4-19.3-7.6-28.6
		C889.7,314.8,883.4,315,877,315.4 M954,315.1c8.3,20.8,12.8,42.7,17.7,64.5c-1.3,0.5-2.6,1-3.9,1.5c1.8,0.1,3.6,0.1,5.4,0.2
		c-0.4-3.4-0.9-6.7-1.4-10.1c8.1-2,13.8,4.9,21.4,6c5.9,1.5,12,4.1,18.2,2.6c4.1-0.9,9.9-0.6,11.5-5.6c0.1,0.7,0.2,2,0.3,2.6
		c3.1-0.8,6.1-1.8,9.1-2.9c-2.3-8-6.9-15.1-10.8-22.4c-3.5-7-11.6-9.9-15.5-16.6C994.3,318.9,972.7,315.7,954,315.1 M1035.9,323
		c6.8,14.2,16.6,27,21.7,41.9c0.8-0.3,1.6-0.6,2.4-0.9c-3.5-8.4-8.7-15.9-13-23.9C1043.3,334.4,1040.7,327.9,1035.9,323z"/>
	<path class="st7" d="M819.1,295.4c8.6-1.9,8.5-13.4,16.2-16.8c-8.9,14.8-16.7,30.2-23.8,46c-6.5,12.6-11.7,25.8-17.3,38.9
		c-3,7.7-6.8,15.3-8.5,23.4c-2.8-0.2-5.5-0.2-8.3-0.2c-12.9-1.1-26-0.6-38.9-1.1c-23.8-2.7-47.9-2.8-71.8-4.4
		c2.9-0.3,5.8-0.8,8.6-1.3c-0.3-1.3-0.6-2.5-0.8-3.8c13.1-7.6,29-4.2,43.5-5.1c16.3-1.3,33.2,0,48.8-6.1c4.5-1.7,10.3-2.9,11.9-8.1
		c5.6-14.4,13-27.9,21-41c5.5-9,10.1-18.7,17.6-26.3C817.9,291.5,818.5,293.5,819.1,295.4z"/>
	<path class="st7" d="M391.8,354c3.6-1.8,7.1,2.4,6.9,5.8c-3.8,4.9-9,8.5-12.9,13.4c-3.6,2.6-6.4,6.2-10.3,8.4
		c-3.4,0.9-6.9,0.7-10.4,0.8c-2.6-0.2-5.2-0.6-7.8-0.9c-1.4-3.6-2.7-7.3-3.7-11c1.3,0.3,2.6,0.7,3.9,1c3.8,1,8.4,1.7,11.7-1.1
		C376.7,364.8,383,357.5,391.8,354z"/>
	<path class="st7" d="M581.3,447.2c34.5-3.6,68.6-10.8,103-14.7c3.7-0.4,8-0.4,10.2,3.1c-3.3,4.9-6.7,10.3-12.4,12.6
		c-16.8,8.1-27.8,26-46.4,30.6c-21.3,2-42.7,3.3-64,6c-20.2,2.3-40.5,3.8-60.8,6.1c-4.8,0.6-9.7,0.8-14.5,0.6c0.3-1,0.7-1.9,1-2.9
		c-13.5-6.3-27.6-10.9-41.7-15.5c-10.1-3.8-20.9-0.6-31.1,1.3c5.2,3.1,11.4,3.8,16.9,6c10.9,4.1,21.6,8.8,31.8,14.2
		c5.3,2.8,10.7,7.7,9.9,14.3c-1.1,10.2-5.4,19.8-8.9,29.4c-3.5,8.5-7,17.7-14.7,23.4c-8.4,5.9-19,6.2-28.8,7.2
		c-37.6,3-75.3,3.6-112.9,3.5c-31.1,0.2-62.3-0.8-93.3-2.9c-11-1.1-23.9-1.1-31.8-10.2c-5.7-8.3-7.8-18.2-10.5-27.8
		c-2.3-8.1-3.8-16.5-4-24.9c-0.2-3.5,2.3-6.3,4.5-8.8c13.3-9,28.1-15.5,43.4-20.3c-4.8-2.2-10.1-2.6-15.4-2.6
		c0.5-0.4,1.4-1.1,1.9-1.5c-12-3.8-24.1-8-35-14.5c8.6,2.4,16.6,6.6,25.1,9.4c8.5,2.6,17,8.3,26.2,5.9c25.2-5.7,51.2-5.8,76.9-7.3
		c24.6-0.9,49.2-0.6,73.8,0.4c13.3,0.9,26.6,2.1,39.8,4.2c7.3,1.3,14.6,0.1,21.8-1.1C487.9,462.5,534.8,455.8,581.3,447.2
		 M572.9,451.8c-36.8,5.9-73.6,12.3-110.2,19.4c11.5,4.9,23.2,9.5,35,13.7c4.9,2.2,10,0.2,15.1,0.1c24-0.1,47.6-5.7,71.6-6.3
		c16.5-2.4,33.4-2.2,49.5-6.6c-3.9-4.7-8.3-9.3-14.1-11.8c-4.3-2.3-9-4.7-14-4.4c-25.2,2.2-50.2,6.3-75.1,10.9
		c-7.1,0.4-14.2,3.3-21.3,1.6c23.3-7.2,47.6-10.5,71.1-16.6C578,451.2,575.4,451.3,572.9,451.8 M367.1,482.3
		c-13.8,0.5-27.7-0.8-41.4,1.5c-13.2,0-26.5-0.8-39.7-0.4c-5.5,0.5-9.9-3.7-15.2-4.2c1,2.2,2.4,4.1,4.1,5.9
		c-1.3,0.2-2.6,0.4-3.9,0.6c-1.7-2.7-3.5-5.4-5.3-8.2c-8.5-0.5-16.9,0.5-25.3,1.2c-8.1,0.9-16.8,1.2-23.7,6c-8.9,2-16.7,7.7-24,13
		c-4.3,3.2-8.5,6.9-9.6,12.4c6.1,2.2,12.6,2.1,19,2.3c16.4,0.7,32.8,0.6,49.1,0.4c11.6,1.3,23.3,1.2,34.9,0.6
		c3.5-1.3,4.7,0.4,8.6,0.4c3.3,1.5,7.9-1.4,8.1,1.4c2.1,0.2,4.4,0.2,6.6,0.3c-0.6,1.5,5.6-1.6,5-0.1c4.9-0.3,1.7-0.3,6.6,0
		c0.1-1.1,3.4-0.8,3.4-1.8c4-1.9,1,1.9,4.6-0.7c21,1.7,42.2-0.4,63.3-0.1c15.6,0.7,31.2-0.6,46.8-1.3c14.5,0.7,28.8-2.4,43.3-3.4
		c-1-2.5-2-5.2-4.3-6.9c-9.8-6.5-20.4-11.5-31.5-15.5c-19.6-9-41.4-10.3-62.6-10.6C377.1,474.4,373.7,482.6,367.1,482.3z"/>
	<path class="st7" d="M706.6,501.2c10.8-13.5,27.6-24.5,45.5-21.2c20.6,3.5,34.2,22.3,41.4,40.6c11.5,31.1,12.3,64.9,9.4,97.5
		c-0.6,9.2-3.4,18-3.9,27.2c6.4-0.6,9.8-7.2,16.1-8c8.6-1.9,17.6-2.8,25.8-6.1c15-6.3,28.8-15.4,44.1-21c14.8-4.2,30.1-6.7,45.2-10
		c28.8-4.6,57.5-10.6,86.6-13.3c15.5-1,28.1,9.6,42.1,14.1c8,0,16,0.7,23.7,3.3c4.5-23.3,7.5-46.9,14.8-69.5
		c5.1-15.6,11.4-31.9,24-43c6.3-5.8,16.4-8.1,23.8-3.1c12.1,7,16.5,21.1,21.9,33.1c6.3,19,3.1,39.3,4.1,58.9l0.7-0.5
		c2.7-1.9,5.4-3.8,7.9-5.9c-0.3,1-0.6,2.1-0.8,3.1c-3.2,11.3-3.2,23-4.2,34.6c-0.7-1.1-1.5-2.2-2.2-3.3c-0.4,2-0.8,4-1.2,6
		c0.6-0.1,1.8-0.2,2.3-0.2c-3.3,5.9-2.8,12.9-3.2,19.4c-2,22.6-6.3,46.1-20,64.8c-0.4,1.1-0.8,2.1-1.1,3.2
		c11.9,1.4,23.9-0.4,35.9,0.7c14.5-0.8,28.4,7.2,42.9,3.6c0.8,0.8,1.6,1.7,2.4,2.5c7.9-2,16.1-0.7,24.1-1.5
		c8.2,2.1,16.6,1.9,24.9,1.3V728c-6.3,1-14-0.9-18.8,4.4c-2.6,2.8-6.3,0-9.1-0.8c-4.2,4.9-11,4.3-16.7,5.8
		c-6.1,1.5-12.3,0.1-18.4,0.3c-10.8,0.2-21.1,4.4-31.9,4.1c-17-0.1-34,0.6-51,1.6c-12.7-1.2-25.4-0.3-37.9,1.7
		c-20.9-0.5-41.8-2-62.7-1.4c-12.8,3-26.2,1.6-39.1,4.5c-6.3,1.5-13.1,0.2-19.2,3c-6,2.8-12.7,4.8-19.4,3.8
		c-7.2-1.2-14.5,1.2-20.4,5.4c-2.2-5.3-8.1-6.6-13.3-6.6c-23.7,0.4-47.3,2.1-71,2.7c-5.3-0.1-10.5-1.2-15.7,0
		c-10.4,2.3-21.2,1.9-31.7,1c-12.7-1.3-25.2,3.1-37.9,1.8c-11.7-1.6-22.1,5.8-33.7,5.5c-6.8-0.7-11.6,4.8-17.6,6.6
		c0.5-1.2,1-2.4,1.5-3.5c-3.2-1.4-6.3-3.5-9.8-3.6c-5.1,0.7-9.4,4.4-14.7,4.1c-7-0.4-13.3,3.9-20.3,3.2c-6.9-0.8-14.8,0.8-20.4-4.3
		c-11.2,4.3-23.2,2.9-34.6,0.4c-14,1.1-28,0-42,1.5c-11.9-1.5-22.9,5.5-34.8,4c-9.6-1.6-19.3-1.9-28.9-3.6
		c-13.8,0.3-27.6-0.6-41.3-2.1c-3.5,5.1-8.8,2.7-13.2,0.3c-6.4,1.1-12.6,0.2-18.9-1c-10.1,1.3-20.1-1.3-30.1-2.4
		c-0.5,0.8-1.1,1.5-1.6,2.3c-9.5-2-19.2-3.6-28.9-2.9c0.4,1,0.8,2.1,1.2,3.2c-5.7-1.7-11.5-3-17.1-5c0.3,0.8,0.5,1.6,0.8,2.4
		c-11.2,0.5-22.6-0.5-33.7,1.8c-0.9-1.1-1.9-2.2-2.8-3.3c-4.7,1.6-9.7,2.5-14.6,1c-9.5-1.2-18.9-2.3-28.3-4
		c-7.1-1.6-13.6,4.3-20.6,1.9c-4.9-1-7.8-6.9-13.2-5.7c-5.1,0.8-10.1-0.5-15.1-1c-11.5,0.6-23,0.2-34.4,2.5
		c-0.5-1.5-0.9-3.1-1.4-4.6c-1.8,1.3-3.5,2.6-5.3,3.9c-5.4-3.6-11.8-1.9-17.8-2.5c-2.9-0.2-3.6-3.2-4.4-5.4c3.8,0,7.9-0.1,10.6-3.2
		c-1-0.9-2-1.7-3.1-2.6c7.5-3.6,15.8-5.4,22.9-9.7c4.7-0.4,9.4-1,14-1.8c-2.4-0.9-4.9-1.6-7.3-2.5c-21.4-8.5-33.8-30.4-40.1-51.5
		c3.1-0.6,6.3-1.1,9.4-1.7c-11.8-2.3-23.7-3.1-35.6-4.3c-6.3-0.9-13.9-1.8-17.6-7.6c-0.2-2.8,0.8-5.5,1.8-8
		c2.7,4.3,5.5,9.5,11.1,10.3c8.4,1.6,17,3.5,25.7,2.8c12.4-2.4,25.1-3.2,37.7-2.4c20.9,0,41.8,1.5,62.7,1.2c37,1.6,74,0.7,111,1.1
		c7.1,0,14.3,1.8,21.3-0.1c-25.6-1-51.4,0.4-77-1c-50.1-1.2-100.2-2.6-150.3-5c-10.9-1.3-22.1-3.5-31.2-10c9.9,2,20.8,4.7,30.5,0.6
		c13.4-9.4,20.1-24.9,28.7-38.2c4.9-7.8,15.1-6.4,23-6.4c69.6,3.8,139.4,4.1,209,2c16.3-0.1,35.4-4.3,48.7,7.7
		c12.1,12.2,22.8,25.9,34.7,38.3c5.7,5.1,13.9,2.8,20.8,2.6c34.2-2.7,68.6-3.2,102.3-9.8c8.2-1.8,15.9,3,24.2,2.5
		c7.5-35.4,11.4-71.7,24.5-105.7C688.4,530.4,695.3,514.3,706.6,501.2 M734,528.2c0,0.7-0.1,2-0.2,2.6c2.6-0.5,5.1-1,7.7-1.5
		c1,8.3,2.4,16.6,3.2,24.9c0.2,2,0.3,4.3,2.2,5.4c-0.1-10.3-2.9-20.3-3.7-30.5c4.6,0.8,8.8,2.7,13.3,4.1
		C752,525.8,741.3,525.1,734,528.2 M731.5,528.8c-1.7,11.5,0.1,23.2-1.5,34.7c-4.5-5.3-7.7-11.5-11.2-17.4c3-5.7,9.3-8.9,11.5-15
		c-9.8,5.5-15,16.6-19,26.6c0.4,0.3,1.1,0.9,1.4,1.2c1.3-3.5,2.9-6.9,4.7-10.2c5,6,8.6,13,12.8,19.5c0.7,13-2.3,26.2-0.4,39.2
		c3.7-19.8,2.7-40.2,3.1-60.3C732.3,541.1,733.9,534.6,731.5,528.8 M1114.1,547.4c1.9-2,3.7-4.2,5.5-6.3c2.6,6.4,3.8,13.4,7.5,19.4
		c-0.7-7.5-4.8-14.1-6.6-21.4c2.9-2.7,7.1-4.1,9.1-7.8C1121.8,533.2,1116.5,540.1,1114.1,547.4 M1129,544.1
		c-1.3,16.3-3.2,32.6-5.2,48.9c-0.4,1.7,1.2,2.7,2.4,3.6c-1.6-9.6,2.2-19,2.1-28.6c1.1,2.8,2.2,5.7,3.6,8.4c0.2-4.3-2.3-8-3-12.1
		c0.5-11.1,2.6-22.2,1.8-33.4C1129.1,535.1,1129.4,539.7,1129,544.1 M1131.3,531.9c1.8,1,3.6,1.9,5.5,2.7c1.2,8.6,1.3,17.2,1.9,25.8
		c2.3-8.2-0.8-16.9-0.3-25.4c3,2.6,5.8,5.3,8.8,7.9C1144.2,537.2,1138.5,530.3,1131.3,531.9 M757.9,533
		c-4.8,11.4-8.8,23.1-13.5,34.6c-3.6,9.6-8.4,18.8-10.7,28.8c5.4-6.8,8.2-15.2,11.4-23.1c4.6-11.6,8.9-23.3,12.8-35.2
		C758.5,536.3,758.3,534.6,757.9,533 M759.7,535.3c0.9,3.8,4.3,6.4,5.6,9.9c-0.3,10.2-3.6,20-4,30.2c5.1-8.1,2.8-18.9,5.8-27.9
		c3.7,4.2,5.3,9.7,7.9,14.5C772.2,552.2,767.2,542.5,759.7,535.3 M1139.8,562c-3.6,8-8.8,15.5-10.8,24.1c4.2-4.5,6.5-10.2,9.2-15.7
		c3.8-8.7,8.5-17.1,10.6-26.3C1144.9,549.5,1143.1,556.1,1139.8,562 M1109.9,560.3c1.2-2.8,2.3-5.6,3.5-8.4c2.1,8,3.2,16.1,4.4,24.3
		c-4-1.9-8.4-3.8-10.7-7.9c0,1.7,0,3.3,0,5c3.8,1.7,7.4,3.7,11.1,5.6c1.1,6.3,2.2,12.5,2.7,18.9c-1.8,1.9-3.3,4.1-4,6.7
		c1.9-1,3.5-2.4,4.9-4.1c0.2,2,0.5,4,0.8,6c0.9-8.9-1-17.7-2.5-26.4c-1.8-10.8-3.5-21.6-6.2-32.2
		C1112,551.7,1110.6,555.9,1109.9,560.3 M710,558.9c-0.3,5.2,1.8,10.1,3.3,15c5.8,18,9.5,36.6,15.5,54.5c0.4-3.8-2.3-9.1,1.5-11.7
		c0.9,2.8,1.8,5.6,2.8,8.3c0.6-1.4,1.2-2.8,1.7-4.2c0.2,2.9,0.6,5.8,1.1,8.7c6.8-4.3,2.8-12.4,3.3-18.8c-3.9-1-6.2,1.7-7.8,4.9
		c-1.5-0.8-3.5-1.1-4.2-2.7C721.3,595,718.1,575.9,710,558.9 M708.8,563.9c-4.8,15.5-6.8,31.7-7.6,47.8c0.4,0,1.1,0.1,1.5,0.2
		c0.2-5.6,0.4-11.2,1.2-16.7c4.6,0.1,9.2,0.4,13.8,0.7c0-1.2,0.1-2.4,0.1-3.6c-4.5-0.2-9-0.4-13.5-0.9c0.8-6.2,1.9-12.3,3.6-18.3
		C708.7,570.1,710.3,566.9,708.8,563.9 M759,579.2c-5.7,4-14,6-16.4,13.3c9-1.5,15.8-7.9,23.3-12.6c4.2-3.5,10.1-5.6,12.2-11
		C771,570.8,765.5,576,759,579.2 M747.5,569.8c-0.5,4.6-0.4,9.2,0.9,13.6C750.8,579.3,749,574,747.5,569.8 M779.2,574.1
		c0.3,5,2.4,9.8,2.4,14.8c-2.9,7-9.5,12-11.6,19.5c5.9-3.6,7.7-11.2,12.1-16.3c1.8,7.6,2.2,15.4,2.2,23.2c0.1,1.9-0.3,4.3,1.7,5.4
		C785.7,604.9,783.8,589.1,779.2,574.1 M1155,581.1c-6.8,0.9-13.8,0.9-20.5,2.5c-0.1,0.7-0.3,2-0.4,2.6c9.5,1.4,19.4-1.3,28.3-4.3
		C1160.2,580.4,1157.5,580.8,1155,581.1 M1104.8,587.7c1,5.4,4.8,9.6,7.4,14.2c4.1,6.6,7.6,13.5,12.4,19.7c-0.7-2.5-1.6-5-2.4-7.5
		c2.6-2.1,4.5-4.8,6-7.8c0.4,3.1-0.7,6.1-2,8.8c0.9,0.4,1.9,0.8,2.8,1.2c2.7-5.1,1.7-11-1.1-15.8c-3.5,2.1-3.7,6.5-4.7,10
		c-0.9,0.4-1.8,0.9-2.7,1.3C1115.8,603.5,1111.9,594.2,1104.8,587.7 M723.1,592.3c0,1.3,0,2.6,0,3.8c1.7,0,3.4,0.1,5.1,0.1
		c-0.1-1.3-0.1-2.6-0.2-3.9C726.4,592.3,724.8,592.3,723.1,592.3 M750,596c0.4,3.1,1.9,5.9,4.6,7.6c10.5,7.7,20.9,15.8,31.8,22.9
		c0.1-5.7-6-7.8-9.5-11.1C767.9,609,759.9,600.8,750,596 M1153.9,610.2c3.6-2.6,6-6.2,9.1-9.3c0.6,7.3,0.2,14.6,0.2,22
		c0.4,0.3,1.1,1,1.4,1.4c0.3-9.3-0.2-18.6-1-27.9C1160.9,601.3,1155.5,604.6,1153.9,610.2 M1142,598c1.9,6.4,6.8,11.2,10.7,16.5
		c4.1,4.5,6.7,10.2,11.6,13.9c-2.1-6.7-7-11.9-10.8-17.7C1149.7,606.4,1147,601.1,1142,598 M1134.9,606.1c3,2.8,6.5,5.5,7.5,9.6
		c4.9,17.3,8.8,34.9,12.2,52.6c5.1-7.4,6.3-16.7,7.5-25.4c-4.1-1.4-7.7-3.7-11.5-5.5c1.5,4.8,7.3,5.3,10.1,8.9
		c-0.8,6.6-3.3,12.8-5.1,19.2c-3.6-18.8-7.7-37.5-11.9-56.1C1142.9,605,1138.2,605.2,1134.9,606.1 M1105.1,618.2
		c3.9-2.7,9-6.1,9.3-11.2C1110.6,610,1107.4,613.9,1105.1,618.2 M701.2,614c0,1.2,0.1,2.5,0.1,3.7c10.4,7.8,20.5,16,30.4,24.4
		c0.3-1.5,0.5-3,0.8-4.5c1.1-0.6,2.2-1.3,3.3-1.9c-0.3-0.8-0.6-1.6-0.8-2.5c-1.6,0.8-3.2,1.6-4.8,2.4
		C721.1,627.7,711.6,620,701.2,614 M760.8,623.5c2.8-2.6,4.8-5.9,6.1-9.5C762.9,615.1,759.6,619.3,760.8,623.5 M744.3,621.5
		c-0.4,5.7,7,7.7,7.3,13.2c1.3,9.3,2,18.7,1.6,28.1c-1.8-1.9-3.5-3.8-5.2-5.7c-0.2,0.5-0.7,1.6-1,2.1c2.2,4.4,7.3,7.5,7.1,12.9
		c0.4,12.8-0.2,25.6,1.3,38.3c2.7-11.9,0.1-24.4,1.4-36.5c4.7,5.6,8.6,11.9,12.3,18.3c-2.7,6.1-8.7,9.8-11.5,15.8
		c9.2-7,15.6-17.7,18.3-28.9c-2.3,3.5-3.8,7.3-5.5,11.1c-4.2-4.9-6.6-10.9-10.7-15.8c-1.4-1.8-3.3-3.7-3.1-6.2
		c0-11.4-0.8-22.7-0.9-34.1c0.1-5-4.4-8.1-7-11.9c2.3-1.9,5.4-3.2,6.6,0.5c7.9,17.8,14.8,36.2,21.4,54.5c1.3-2.7-0.2-5.5-0.9-8.1
		c-6.3-18.1-11.6-36.7-19.8-54C752.1,617.1,747.2,618,744.3,621.5 M701.3,619.6c-0.1,16,2.1,32.3,6.7,47.7c-0.2-5.1-2.2-10-2.1-15
		c2.7-7,7.8-12.9,11-19.7c-0.4-0.3-1.3-1-1.7-1.3c-3.4,5.8-6.1,11.9-10.2,17.3C701.6,639.2,704.8,628.5,701.3,619.6 M1132.5,620.3
		c-0.9,4.7,2.3,9,1.3,13.6c-3.5,13.8-10.1,26.6-13.8,40.3c7-11.8,11-25.1,16.1-37.8c2.2-4.4-0.6-8.8-2-12.9c3.5,0.4,5.3,3.1,5.1,6.5
		c0.3,18.1,0.2,36.3-1.1,54.4c-2-0.5-4.1-0.6-5.9-1.6c-1.4-8.6,0.1-17.7-2.8-26.1c-0.5,8.6,1.7,17.1,1.8,25.8
		c-3.6-1.8-6.4-4.7-8.8-7.9c-0.3,0.2-0.9,0.6-1.2,0.9c3.8,4.9,8.7,10.6,15.5,10.3c8.9-0.4,15.4-8.4,17.6-16.4
		c-1.5,1.8-3,3.7-4.5,5.6c-3-6.3-5-12.9-8.4-19c-0.9-6.8,0.4-13.7-0.2-20.5c2.1,0.9,4.2,1.7,6.3,2.4c-0.7-2.5-3-3.8-4.9-5.4
		c-1.3-2.2-0.9-4.9-1.6-7.3C1138.7,622.7,1135.4,621.7,1132.5,620.3 M1125,622.7c1,2,1.9,4,2.9,6.1c-6.4,3.6-15.4,3.1-20.4,8.5
		c7.7-0.8,15.4-2,22.9-4c-1.5-3.8-2.8-8.1-0.1-11.7C1128.5,621.9,1126.7,622.3,1125,622.7 M769.3,627.2c0,3.9,0,7.7,0.2,11.6
		c2.7,0.2,5.4,0.3,8.2,0.4c0.4-4,0.8-7.9,1.3-11.9C775.6,627.1,772.5,627.1,769.3,627.2 M783.1,643.3c-4.7,0.3-9.4,0.5-14.1,0.8
		c0.1,0.7,0.4,2.1,0.5,2.8c4.5,0,8.9-0.2,13.4-0.4c-0.6,9.1-3.6,17.8-4.7,26.8c5.1-14.5,7.3-30.1,7.8-45.4
		C782.3,631.7,784.9,638.4,783.1,643.3 M737.4,639.2c0.2,2.9,1.9,6.4-0.3,8.9c-8.7,8.7-20.3,14.3-28.5,23.6
		c11-4.6,20.4-12.3,30.5-18.5c4.5-2.1,1.5-7.8,1.8-11.6c2.8,1.8,4.9,4.8,4,8.3c-4,19.7-10.7,38.7-15,58.3c8-17.9,12.2-37.3,18.1-56
		c2.3-6.5-5.1-10.4-9.1-14.1C738.6,638.5,737.8,639,737.4,639.2 M180.7,647.3c2.2,4.3,7.3,5.4,11.7,6.3c13.1,2.3,26.4,3.4,39.7,3.4
		c-5.4-3.2-10.3-8.1-17-8.1C203.7,648.2,192,644.3,180.7,647.3 M1005,666.4c-23.2,0.9-46.2,3.8-69.4,5.2
		c-28.5,3.4-57.3,3.5-85.7,7.1c-20.5,1.1-41,3.1-61.5,4.5c-1.2,4-2.4,8-3.9,12c-1.5,3-2.9,9.5,2.5,8.7c12.3-1,24.7-1.1,37-2
		c9.4,1.7,19,0.4,28.3-1.6c12.1,0.8,25.3,4.1,36.8-1.2c5.3,1,10.5,1.7,15.9,0.9c13.2,2.9,26.7-0.1,40,0c9.6,0.4,19.2,3,28.9,1.6
		c7.4-1.3,14.8,0.7,22.2,0.3c22.4-0.4,44.8,0.6,67.1,0c-0.3-2.5-1.4-4.8-3.7-6.1c-2.3-2.8-3.9-6-5.2-9.4l-0.1,0.5
		c-4-7.2-6.6-15-9.4-22.7c-9-0.7-17.9-1.5-26.9-1.8C1012.9,661.6,1010.1,667.3,1005,666.4 M720.8,694.4c-3.8-4.6-5.6-10.3-8.8-15.3
		c3,10.1,8.1,20.9,17,27c-1.3-4.1-4.9-6.8-7.5-10c1.8-10.4,3.8-20.8,4.2-31.3C721.4,673.7,723.2,684.8,720.8,694.4 M750.3,681.2
		c0.6,6.7,0.2,13.5,1.4,20.2c0.8-9.9,0.8-19.9,0-29.8C749.3,674.3,750.5,678,750.3,681.2 M741.1,679.9c-0.1,10.5,3.8,20.6,4.2,31.1
		c-4.5-0.8-8.9-2.1-13.1-3.7c0.1,0.6,0.2,1.9,0.2,2.5c6.3,3.9,18,6.4,22.1-1.3c-2.5,0.5-5,1.1-7.5,1.7
		C744.5,700.3,744.5,689.7,741.1,679.9 M299.6,724.1c-1.8-0.1-2.8,1.7-4,2.7c25.5,0.8,51,0,76.3-2.9c4.4-0.6,8.7,0.4,13.1,0.1
		c3.6-1,7.1-3,11-2.2c10.9,1.5,21.5-1.8,32.4-1.1c8.3,0.7,16.4-1.6,24.7-1.5c26.4-0.3,52.9-3.7,79.3-3.2c1.4-0.7,2.6-1.7,4-2.3
		c27.2-0.1,54.4-1.6,81.6-2.9c7-1.8,14.1-1.8,21.3-1.8c0-3.5-1.1-6.9-3.2-9.8c-0.8-2.9-1.8-5.6-2.9-8.3c-1.4,3-2.8,6.1-4.3,9.1
		c-20.2,0.8-40.5,1.7-60.7,2.2c-0.6-2.8-1.3-5.7-1.9-8.5c-15.1,0-30.1,0.8-45.2,1.2c-43-0.8-86-0.7-128.9-3.9
		c-5.6-1.8-11.4-1.8-17.1-0.6c-10,0.1-20,0.3-29.9-1.3c-5.9-1.1-11-4.8-17.1-5.3C321.8,699.2,312.6,713.5,299.6,724.1z"/>
	<path class="st7" d="M161.5,489.3c4.8,0,7.1-4.3,9.6-7.7c3.7,1.4,7.1,3.5,9.9,6.3c-3.9,0.7-8,0.6-11.9,0.1c0.9,0.6,1.9,1.2,2.8,1.8
		c-3.4,1.1-6.9,1.8-10.4,2.2C161.5,491.2,161.5,490.3,161.5,489.3z"/>
	<path class="st7" d="M642.3,564.4c1.3-11,11-17.4,18.6-24.2c-10.9,32.7-17,66.8-20.3,101.1c-5-0.6-7.8-5.3-7.1-10.1
		C634.8,608.7,638.9,586.6,642.3,564.4z"/>
	<path class="st7" d="M568.3,555.1c11.7-0.1,23.8-2.6,35.4,0.5c9,3.4,8.1,14.6,8,22.4c-1.2,17.7-2.5,36.1-9.1,52.7
		c-11.8-0.9-24.2,4.2-35.3-1.6c0-0.6,0-1.9,0-2.5c2.1-0.3,4.2-0.5,6.3-0.8c-0.4-4.2,0-10.1,5.5-10.3c3.8,1.4,3,6.7,4.9,9.8
		c3.9-0.4,7.8-0.9,11.6-1.5c2.3-9,4-18.3,4.6-27.6c-7.5-0.1-15.2,0.7-22.5-1.7c-7.2-2-14.2-6.6-22-4.6c-5.5,1.7-12.7-1-16.7,4.1
		c-1.3-2.3-2.7-5.6-5.9-5.1c-12.7-0.2-25.4,1.8-38.1,1.2c-4,0.1-6.1-3.5-7.5-6.7c16.2-2.8,32.9-1.9,49.2-4.2c1.6-3.5,3-7,4.5-10.5
		c0.7-0.7,1.3-1.4,2-2.1C549.4,559.1,558.9,555.8,568.3,555.1 M576.8,574.7c-8.3,1.3-16.6,2.3-25,3c9.4,1.2,18.8-0.9,28.2-1.5
		c7.1-0.9,14.5-0.7,21.4-3.2c-0.9-1.4-1.4-3.8-3.5-3.5C590.6,570.1,583.6,572.4,576.8,574.7z"/>
	<path class="st7" d="M127.8,555.2c6.1-0.1,12.1,1,18.2,1.6c6,5,8.9,12.3,10.7,19.7c-3,1.7-6.4,0.8-9.5,0c0.9,1.3,1.7,2.6,2.5,3.9
		c-7.5-0.6-14.8-3.4-22.3-2.7c7,2.5,14.4,3.1,21.6,4.4c7.6,1.1,15.5,3.3,23.1,0.6c-5.4-1.1-10.8-1.7-16.2-3c1-0.1,1.9-0.2,2.9-0.3
		c6.7,0.8,13.9,0.8,19.9,4.4c-1.9,2.2-3.4,5.6-6.7,5.4c-8,0.4-15.8-2.3-23.8-1.5c0.7,6.6-0.5,13.1-2.6,19.3
		c-3.8,8.3-5.4,18.4-12.6,24.5c-2.1-1-4.3-2.1-6.3-3.4c-1-16.7-1.7-33.4-1.5-50.1C125.5,570.5,123.8,562.2,127.8,555.2 M138.6,557.9
		c-1.5,4.6-2.1,9.3-2.7,14.1c1.6,1.4,3.2,2.9,5,4.1C139.7,570.1,140.6,563.7,138.6,557.9 M135.3,593.3c0,7-0.1,14.1,1.3,21
		c0.3-7,0.7-14,1.2-20.9C137.2,593.4,135.9,593.3,135.3,593.3z"/>
	<path class="st7" d="M1141.2,658.6c3.1,5.5,5.6,11.5,7.5,17.6c-1.1,4-5.7,5.9-8.9,8.1C1139.9,675.7,1140.6,667.1,1141.2,658.6z"/>
</g>
<g id="_x23_a0a6a1ff">
	<g id="XMLID_00000128442915547980378570000003156608984425899946_">
		<g>
			<path class="st3" d="M896.9,828.1C896.9,828.1,896.9,828.1,896.9,828.1c-2.8-2.3,6.3-7.9,2.9-9c7.8-1.5-10.1-13.9-2.3-12.9
				c-3.5-3.5-24.5,6.7-28,3.2c-5.7,0.4-7.3,9-13.7,7.3c1.1-1.2,2.3-2.4,3.5-3.6c-3-3.1-5.7-7.8-10.6-7.8c-5.1-0.1-10.3-0.4-15-2.4
				c1.4-1.2,2.8-2.4,4.2-3.6c-5,0.2-9.4,3-14.3,3.6c-0.1,0.9-0.2,1.9-0.3,2.8c-7.8,1.4-16.2,2.1-23.4-1.9c2.5-0.7,4.9-1.5,7.3-2.5
				c-8.8,0.9-18,2.6-26-2.6c5.6-1.1,11,1,16.3,2.3c-0.6-1.5-1.2-3-1.8-4.5c-4.9,0.1-10.2-1.9-14.8,0.7c-6.2,3.4-13.2,5-19.2,8.8
				c-0.2,1-0.5,2-0.7,3.1c-9.6-3.2-19.7-4.5-29.7-2.3c-11.2-0.9-22.7,2.8-33.5-1c-4.1-0.6-8.3,1.6-12.2-0.4
				c-8-4.1-16.8,0.4-25.2-1.6c-3.9,0.7-4.2-3.6-5-6.4c-1.4,0.5-2.9,1.1-4.3,1.6c1,1.2,1.9,2.4,2.9,3.6c-10.2-1.3-14.8,9.3-21.5,14.9
				c4.6,0.3,58.4,117.6,62.8,119.2c-3,3.1-51.5,1.5-54.5,4.6H0.8v-126c3.9-0.7,7.9-0.8,11.8-0.7c-0.6,1.1-1.2,2.3-1.9,3.4
				c4,0.9,8.2,0.8,12.1-0.6c7-2.3,14.5-2,21.8-2.6c5.4-0.5,10.9,1.6,16.1-0.6c2.8-1.2,5.5,0.6,8.1,1.5c3.6-1.1,7.4-1.4,11.1-1.4
				c3.6-0.1,7.2,0,10.8-0.4c5.3,0.7,11.8-3.8,15.9,1.3c1.4-0.3,2.9-0.7,4.3-1c-0.3-1.5-0.5-2.9-0.8-4.4c1.4-0.4,2.9-0.8,4.3-1.1
				c0.2-2.1,0.3-4.2,0.5-6.3c-2.1,1.7-4,4.1-6.7,4.9c-9-1.1-18.1-5.8-27.1-2.4c4.9,4.4,12-1.1,16.2,4.7c-5.8,0.6-11.7,2.3-17.5,2.3
				c-0.9,0-1.9,0-2.8-0.2c0.7-2.2,1.4-4.5,2.1-6.7c-6.3-5.3-17.2-4.7-22.7,1.6c-6-1.8-12.3-3.5-18.7-2.1c0.1-0.4,0.4-1.3,0.5-1.8
				c7.3-3.2,15.2-4.2,23-4.3c0.4-1.8,0.8-3.6,1.1-5.3c1,0.8,2.1,1.6,3.1,2.4c7.3-4.5,15.5-0.8,23.4-1.1c10.6-0.5,21.1,1.3,31.6,1.3
				c4-0.1,7.8,1.2,11.3,3.3c0.8-0.7,1.5-1.3,2.3-2c-3.3-1.6-6.5-3.5-8.9-6.3c4.3-0.5,8.6-0.8,12.9-1.1c-0.3,1.6-0.6,3.3-0.9,4.9
				c0.6,0.1,1.8,0.4,2.4,0.5c2.2-1.7,4.3-3.5,6.5-5.2c0.6,1.5,1.1,3,1.7,4.5c-2.4,0.6-4.8,1.2-7.2,1.8c3.8,1.4,7.8,3.4,12,3.1
				c5.5-0.8,10.3-4.1,15.8-4.7c1.3,2,2.1,4.3,3.1,6.5c4.6-2.5,9.8-3.2,14.9-2.5c0.1-1,0.2-2,0.3-3c-3.9-0.4-8.1-1-10.9-4.1
				c-0.7,2.1-1.6,4.1-2.6,6.1c-0.5-2.1-1-4.3-1.4-6.4c-2.5-0.7-5-1.4-7.4-2.3c4.9-2.5,10.5-2.8,15.8-3.5c-3.4-3.3-7.3-6.1-10.1-9.9
				c-3-4.9-1.4-10.8-2.4-16.2c-4.3-2.2-9.3-3-14-3.9c-6.9-1.3-13.1,2.6-19.5,4.2c0.9-1.4,1.8-2.8,2.8-4.2c-1.5-0.5-3-1-4.5-1.5
				c-1.4,2.5-2.9,4.9-4.4,7.3c-0.4-0.2-1.3-0.6-1.8-0.8c0.6-1.8,3-3.6,1.8-5.5c-8-2.8-16.5-1.6-24.8-2.6c6.7-1.4,13.4-3,20.1-4.8
				c5.3-1.6,11.3-1.2,16.1-4.2c-3.9-1-7.9-0.9-11.9-0.7c10.9-5.1,23.6-2.8,35.1-5.2c9.4,0.6,18.6-2.2,27.9-3.4
				c3.5-0.5,6.9-0.7,10.5-0.5c-7.1,4.4-15.4,6.1-22.9,9.7c1,0.8,2,1.7,3.1,2.6c-2.7,3.1-6.8,3.2-10.6,3.2c0.8,2.2,1.5,5.3,4.4,5.4
				c6,0.6,12.4-1.1,17.8,2.5c1.8-1.3,3.5-2.6,5.3-3.9c0.5,1.5,0.9,3.1,1.4,4.6c11.3-2.3,22.9-1.9,34.3-2.5c5,0.5,10,1.9,15.1,1
				c5.4-1.1,8.4,4.7,13.2,5.7c7,2.4,13.5-3.6,20.6-1.9c9.4,1.6,18.9,2.7,28.3,4c4.9,1.5,9.9,0.6,14.6-1c0.9,1.1,1.8,2.2,2.8,3.3
				c11.1-2.3,22.5-1.3,33.7-1.8c-0.3-0.8-0.6-1.6-0.8-2.4c5.6,2,11.4,3.3,17.1,5c-0.4-1.1-0.8-2.1-1.2-3.2
				c9.8-0.7,19.4,0.9,28.9,2.9c0.5-0.8,1.1-1.5,1.6-2.3c10,1.1,20,3.7,30.1,2.4c6.3,1.2,12.5,2.1,18.9,1c4.4,2.4,9.7,4.8,13.2-0.3
				c13.7,1.5,27.5,2.5,41.3,2.1c9.6,1.7,19.3,2,28.9,3.6c11.9,1.5,22.9-5.6,34.8-4c14-1.4,28-0.4,42-1.5c11.4,2.5,23.4,3.9,34.6-0.4
				c5.6,5,13.5,3.5,20.4,4.3c7,0.7,13.3-3.6,20.3-3.2c5.3,0.3,9.6-3.4,14.7-4.1c3.6,0.1,6.7,2.2,9.8,3.6c-0.5,1.2-1,2.3-1.5,3.5
				c6-1.9,10.8-7.3,17.6-6.6c11.6,0.3,22-7.2,33.7-5.5c12.7,1.3,25.2-3.1,37.9-1.8c10.6,0.9,21.3,1.3,31.7-1c5.2-1.2,10.5,0,15.7,0
				c23.7-0.5,47.3-2.2,71-2.6c5.2,0,11.1,1.3,13.3,6.6c5.9-4.2,13.2-6.5,20.4-5.4c6.7,1,13.4-1,19.4-3.8c6-2.8,12.8-1.5,19.2-3
				c12.8-2.9,26.2-1.5,39.1-4.5c20.9-0.6,41.8,0.9,62.7,1.4c12.5-1.9,25.2-2.9,37.9-1.7c17-1,33.9-1.7,51-1.6
				c10.8,0.4,21.1-3.9,31.9-4.1c6.1-0.3,12.4,1.1,18.4-0.4c5.7-1.4,12.5-0.9,16.7-5.8c2.9,0.8,6.5,3.6,9.2,0.8
				c4.8-5.3,12.4-3.5,18.8-4.4v213.1l-315.6-12c-14.9,1.7-19.4,2.6-31.7,3.1c0.2-1.6-13.9-0.1-13.7-1.7c-11.9-0.6-4,2.9-27.4,4.3
				c0.4,1.2-28.8-2.7-28.3-1.4c-0.1-0.1-0.2-0.2-0.3-0.3c-0.8-1.8,1.6-11.3,4.5-22.3c0-0.1,0-0.1,0-0.2c4.7-17.5,11-38.7,8.8-39.3
				c0.2-1.6,5.1-17.9,5.4-19.7c1.5,0,23.3-2.1,25.1-2.1c0.1,0.1,0.1,0.1,0,0c0.1,0,0.1,0,0,0C906.9,848.2,897.3,828.7,896.9,828.1z"
				/>
			<path class="st8" d="M1280.8,641.5v47.3c-4.4,1.5-8.9,2.5-13.6,2.7c-23.1-0.1-46.3-1.1-69.4,0.4c-8.8-0.5-17.8-1.1-26.6,1
				c3.7,1.2,7.4,2.3,11.1,3.5c-10.1,1.6-20.6,3.6-30.8,2.4c13.7-18.7,18-42.2,20-64.8c-0.1,2.8,0,5.5,0.1,8.3
				C1208,641.1,1244.4,642.2,1280.8,641.5z"/>
			<path class="st8" d="M1280.8,520.6v10.3c-7.4,1.1-15.5,1-21.9,5.4c-4.5,3.6-10.8,0.9-15.4,4.5c-6.1,4.2-13.4,1.3-19.6-0.8
				c-4.3,3.2-8.7,7.1-14.2,7.7c-6.3,0.1-11.8-3.3-17.2-6.1c1-3.2,3.5-5.5,6.3-7.3c0.9,4.3,4.2,8.6,9,8.3c7.8-1.5,14.8-5.8,20.8-10.9
				c-0.4-1.5-0.7-3.1-1-4.6c4.2-1.7,8.7-4.4,13.4-3.5c2.6,4.8,6.1,9,11.3,11.1c3.9-4.1,2.2-9.5-0.1-14
				C1261.7,521.9,1271.2,521.3,1280.8,520.6z"/>
			<path class="st8" d="M1022.3,351.7c3.8,7.3,8.5,14.4,10.7,22.4c-3,1.1-6,2.1-9.1,2.9c-0.1-0.7-0.2-2-0.3-2.6
				c-1.5,4.9-7.3,4.6-11.5,5.6c-6.2,1.5-12.3-1.1-18.2-2.6c-7.6-1.1-13.3-7.9-21.4-6c0.5,3.3,1,6.7,1.4,10.1
				c-1.8-0.1-3.6-0.1-5.4-0.2c1.3-0.5,2.6-1,3.9-1.5c-4.9-21.8-9.5-43.7-17.7-64.5c18.6,0.6,40.2,3.8,52,20
				C1010.7,341.8,1018.8,344.7,1022.3,351.7z"/>
			<path class="st8" d="M907.7,849.7C907.9,849.7,907.9,849.7,907.7,849.7C907.8,849.8,907.8,849.8,907.7,849.7z"/>
			<path class="st8" d="M907.7,849.7c-1.8,0-23.6,2.1-25.1,2.1c0,0,0,0,0,0c-0.1,0-0.1,0,0,0c-0.3,1.8-5.2,18.1-5.4,19.7
				c2.2,0.6-4.1,21.8-8.8,39.3c4.4-20.3,9.3-37.8,9.4-46.4c-3.5-3.5-4.8-51.3-8.3-54.8c3.5,3.5,24.5-6.7,28-3.2
				c-7.8-1.1,10,11.3,2.3,12.9c3.5,1.1-5.7,6.7-2.8,9c0,0,0,0,0,0C897.3,828.7,906.9,848.2,907.7,849.7z"/>
			<path class="st8" d="M892.9,581.3l-0.3,0.8c-0.9,2.3-1.6,4.6-2.4,6.8c-12.3,2.6-24.8,4.4-37.2,6.9c0.3-2.4,0.6-4.7,0.9-7.1
				c8.7-2,17.4-6.4,26.5-4.5c0,0.1,0,0.1-0.1,0.2c-1.7,3.8-5.9,4.9-9.6,5.8c4.2-0.5,8.4-1.1,12.6-2c-1-1.3-2-2.5-3-3.8
				c1.3,0,2.7,0,4,0.1c0.4,1.2,0.8,2.4,1.2,3.6c0.3-1.8,0.5-3.6,0.8-5.3C888.6,582.3,890.8,581.9,892.9,581.3z"/>
			<path class="st8" d="M882.6,851.7C882.6,851.7,882.6,851.7,882.6,851.7C882.5,851.7,882.5,851.7,882.6,851.7z"/>
			<path class="st8" d="M877.8,864.3c-0.1,8.6-5,26.1-9.4,46.4c0,0.1,0,0.1,0,0.2c-4.7,6.1-6.9,19.3-4.5,22.3
				c0.1,0.2,0.2,0.3,0.3,0.3l-95.7,7.7c-31.5-0.9-38.6-1.5-73-4.6c-4.4-1.5-58.3-118.9-62.8-119.2c6.6-5.6,11.3-16.2,21.5-14.9
				c-1-1.2-1.9-2.4-2.9-3.6c1.4-0.5,2.9-1.1,4.3-1.6c0.8,2.7,1.1,7,5,6.4c8.4,2,17.3-2.5,25.2,1.6c3.9,2,8.1-0.2,12.2,0.4
				c10.9,3.8,22.3,0,33.5,1c10-2.2,20.1-0.9,29.7,2.3c0.2-1,0.4-2.1,0.7-3.1c6-3.8,13-5.3,19.2-8.8c4.5-2.6,9.9-0.5,14.8-0.7
				c0.6,1.5,1.2,3,1.8,4.5c-5.3-1.3-10.7-3.4-16.3-2.3c8,5.3,17.2,3.5,26,2.6c-2.4,1-4.8,1.8-7.3,2.5c7.2,4,15.6,3.3,23.4,1.9
				c0.1-1,0.2-1.9,0.3-2.8c4.9-0.6,9.3-3.4,14.3-3.6c-1.4,1.2-2.8,2.4-4.2,3.6c4.8,2,9.9,2.4,15,2.4c4.9,0,7.5,4.7,10.6,7.8
				c-1.2,1.2-2.3,2.4-3.5,3.6c6.4,1.7,8-6.9,13.7-7.3C873,813,874.3,860.8,877.8,864.3z"/>
			<path class="st8" d="M868.3,910.9c-3,11-5.3,20.5-4.5,22.3C861.4,930.1,863.7,916.9,868.3,910.9z"/>
			<path class="st8" d="M503.4,282.1c2.8-0.1,5.7,0.1,8.5,0.1c-14.7,5.8-27.7,15.1-40.4,24.4c-32.7,24.7-63.4,52.3-92.4,81.2
				c-6.9,0.2-13.7,1.4-20.6,1.3c-0.2-1.9-0.4-3.8-0.6-5.7c2.7-0.4,5.4-0.7,8.1-1c3.5-0.1,7,0.1,10.4-0.8c3.9-2.2,6.6-5.9,10.3-8.4
				c7-3.8,12-10.2,17.7-15.5c21.6-20.4,44.2-39.9,68.4-57.1C482.3,293.4,492.5,287,503.4,282.1z"/>
			<path class="st8" d="M218.2,408.9c-3.1,1.3-6.2,2.8-9.3,4.2c-4.4,0.8-8.9,0.4-13.1-1c-0.9,0.5-1.8,1-2.8,1.5c0-0.8,0-1.6,0.1-2.4
				c-13.3,4.3-27.4-0.3-40.9,3.5c-7.8,2.9-14.9-3-22.6-1.1c-3.9,0.4-7.6-3.2-11.4-1.2c-4.4,2.2-8.9,4.6-14,3.8
				c-1.2-3.1-1.7-6.9-4.3-9.3c-8-3.7-17.9-0.5-25.3-5.7c-2.9-1.8-5.3-5.5-9.2-4.8c-7.5,1.1-15.1,3.8-22.7,1.7c5.6-4,13-1.3,18.9-4.4
				c5-2.8,10.4,0,15.5,0.9c8.5,1.9,17-1,25.5-1.8c16.3,3.1,33,0.4,49.2,3.8C174.6,397.5,196.3,403.9,218.2,408.9z"/>
			<path class="st8" d="M194.3,728.6c5.1,1.6,10.3,2.6,15.6,2.4c-0.7-0.7-1.4-1.3-2.1-2c2.4,0.9,4.8,1.7,7.3,2.5
				c-4.6,0.8-9.3,1.4-14,1.8c-3.5-0.2-7,0.1-10.5,0.5l-0.1-1C191.7,731.4,193,730,194.3,728.6z"/>
			<path class="st8" d="M190.4,732.8l0.1,1c-9.3,1.3-18.4,4-27.9,3.4c-11.6,2.4-24.2,0.1-35.1,5.2c4-0.2,8-0.3,11.9,0.7
				c-4.8,3.1-10.8,2.7-16.1,4.2c-6.7,1.8-13.3,3.4-20.1,4.8c8.3,1,16.8-0.2,24.8,2.6c1.2,1.9-1.1,3.7-1.8,5.5
				c0.4,0.2,1.3,0.6,1.8,0.8c1.5-2.4,3-4.9,4.4-7.3c1.5,0.5,3,1,4.5,1.5c-0.9,1.4-1.9,2.8-2.8,4.2c6.4-1.7,12.6-5.6,19.5-4.2
				c4.8,0.9,9.7,1.7,14,3.9c1.1,5.3-0.6,11.3,2.4,16.2c2.8,3.8,6.8,6.6,10.1,9.9c-5.4,0.8-10.9,1-15.8,3.5c2.5,0.8,4.9,1.6,7.4,2.3
				c0.4,2.1,0.9,4.3,1.4,6.4c1-2,1.8-4,2.6-6.1c2.8,3.1,7,3.6,10.9,4.1c-0.1,1-0.2,2-0.3,3c-5.1-0.7-10.3-0.1-14.9,2.5
				c-0.9-2.2-1.8-4.5-3.1-6.5c-5.6,0.6-10.4,3.9-15.8,4.7c-4.2,0.3-8.1-1.7-12-3.1c2.4-0.6,4.8-1.2,7.2-1.8c-0.6-1.5-1.1-3-1.7-4.5
				c-2.2,1.7-4.3,3.5-6.5,5.2c-0.6-0.1-1.8-0.4-2.4-0.5c0.3-1.6,0.6-3.3,0.9-4.9c-4.3,0.3-8.6,0.6-12.9,1.1c2.5,2.7,5.7,4.6,8.9,6.3
				c-0.8,0.7-1.5,1.3-2.3,2c-3.4-2-7.3-3.4-11.3-3.3c-10.6,0-21-1.8-31.6-1.3c-7.8,0.3-16.1-3.4-23.4,1.1c-1.1-0.8-2.1-1.6-3.1-2.4
				c-0.4,1.8-0.8,3.6-1.1,5.3c-7.9,0-15.8,1-23,4.3c-0.1,0.4-0.4,1.3-0.5,1.8c6.3-1.4,12.6,0.3,18.7,2.1c5.5-6.3,16.3-6.9,22.7-1.6
				c-0.7,2.2-1.4,4.5-2.1,6.7c0.9,0.1,1.9,0.2,2.8,0.2l0,2.3c-3.8,0.1-7.5,0.3-11.1,1.4c-2.6-1-5.3-2.7-8.1-1.5
				c-5.2,2.2-10.7,0-16.1,0.6c-7.3,0.5-14.8,0.3-21.8,2.6c-3.9,1.4-8,1.5-12.1,0.6c0.6-1.2,1.2-2.3,1.9-3.4c-4-0.1-7.9,0-11.8,0.7
				v-125c4.5-1,9.1-0.6,13.5,0.7c-0.3,1.2-0.7,2.4-1,3.6c10.9,1,21.7,2.1,32.6,2c-2.7,0.9-5.5,1.8-8.2,2.7c0.5,1,0.9,2.1,1.4,3.1
				c2.8-0.1,5.5-0.2,8.3-0.3c0-1.9,0-3.8,0.1-5.7c5.8,0.4,11.6,0.4,17.3-0.6c-1.1,1.1-2.3,2.2-3.4,3.3c4.6,3.2,7.6-2.3,11.5-3.6
				c2.7,0.9,4.8,2.9,7,4.6c6.5-5.6,15-1.2,22.5-2.2c11.9-1.7,23.9,0.1,35.8-1.2c9-1.3,18.1-0.2,27.1,0.2c-9.9,2.2-20.2,2.8-30.2,5
				c-1.3,0.8-2.4,2-3.5,3c7.1-1.1,14.3-0.1,21.5-0.2c8.4,0.2,17.7-2.2,25.3,2.1c-6.6,0.2-13.2-0.1-19.7,1c-12.9,0.5-26-1-38.7,1.6
				c-2.4,0.3-4.4,1.9-6.4,3.3c5.8,0,11.5,0.1,17.2,0.8c6.8,0.9,13.6-2,20.3,0.1c-7.2,0.4-14.3,1.7-21.4,3.2c-7,1.6-14.6,0-21.3,3
				c13.2,2.2,26.3-1.2,39.5-0.1c13.4,0.1,28-4.1,40.6,2c-5.4,2.4-12.4,1.7-15.2,8.1c4.2,0,7.9-2.2,11.7-3.6c2.9,0.6,3,4.2,4,6.5
				C189.3,732.6,190,732.8,190.4,732.8z"/>
			<path class="st8" d="M158.6,450.8c1.5,0.7,3,1.5,4.5,2.2c-2.4,2.2-4,5.1-4.6,8.4c-0.4,1.7-0.9,3.3-1.3,5
				c-8.8-0.2-18.3,0.1-26,4.9c-5.5,0.2-11,0.7-16.4,2.4c-4-2.9-7.3-7.1-12.4-8.2c-4.1-0.7-8.3,0.3-12.3-0.6
				c-1.3-3.7-2.4-9.6,3.1-10.1c7.7-0.8,18.1-6.6,23.9,1.1c8.6,0,17.9,3.4,25.1-3.4c-1.8-1.5-3.6-3-5.4-4.6c6.2,1.4,12.3,2.8,18.7,3
				c0.5,1.3,0.9,2.6,1.2,4c0.8-0.2,1.6-0.4,2.4-0.6C158.9,453.1,158.8,452,158.6,450.8z"/>
			<path class="st8" d="M115,802.4c-0.2,2.1-0.4,4.2-0.5,6.3c-1.4,0.4-2.9,0.7-4.3,1.1c0.3,1.5,0.6,2.9,0.8,4.4
				c-1.4,0.3-2.9,0.7-4.3,1c-4.1-5-10.6-0.5-15.9-1.3c-3.6,0.4-7.2,0.3-10.8,0.4l0-2.3c5.8,0,11.7-1.7,17.5-2.3
				c-4.2-5.8-11.3-0.3-16.2-4.7c9-3.4,18.2,1.3,27.1,2.4C111,806.5,112.9,804.1,115,802.4z"/>
		</g>
		<g>
		</g>
	</g>
</g>
<path class="st9" d="M405.5,387.1c43.7-2.9,87.4-4.9,131.2-6.2c8.7,0.2,17.4,1,26,2.5c8.3,1.5,16.8,0.2,25.2,0.3
	c24.3-0.2,48.7,1.6,73,0.6c9.3,0.9,18.6,0.8,27.9,1.8c-10.4,2.6-21.1,3.3-31.6,4.8c18,0.1,36-1.8,54-2.2c16.7-0.5,33.4-3.1,50-1.1
	c-1.5,0.1-2.9,0.2-4.3,0.3c-32.1,2.4-64.8,1.9-96.3,9.8c-17.9,2.3-35.6,6.3-53,11.4c-23.4,9-47,18.7-72,21.9
	c-6.4,1.1-14.2,0.8-17.3-5.9c14.8-9.6,32.7-12.6,49.1-18.5c12.3-4.8,25.7-6.5,37.9-11.6c-2.1-2.1-4.4-4-7.5-4.3
	c-13.9-2.2-28-0.6-42-0.8c-15.9,1.3-32,2-47.2,7.1c-9.7,3.4-20,5.2-29,10.3c-18.6,6.3-36,15.4-53.4,24.2c-4.3,1.9-8.8,3.6-13.4,5
	c4.2-6.8,12.1-9.5,18.2-14.1c5.8-4.5,15-4.5,18.1-12.1c-18.8-2.8-38-0.5-56.3,3.9c-21.7,3.3-43.8,5.3-64.6,12.7
	c-8.2,5.2-18.3,4.6-26.9,8.9c-1.4-1.9-2.3-4.4-0.4-6.4c10.1-13.8,25.6-22,39.2-31.6c-19.4-0.8-37.2,9.9-50.5,23.3
	c-6.9,7.4-11.3,17.7-20.9,22.2c-6.2,2.4-10.5,9.3-17.9,8.2c-14.2-1-27.7,4.5-41.8,4.3c-5.7,0.7-10.3,4.5-15.2,7.3
	c2.6,0.7,5.1,1.5,7.7,2.2c0.4,1.1,0.8,2.2,1.2,3.3c-8.5-2.8-16.5-7-25.1-9.4c10.9,6.5,23,10.7,35,14.5c-0.5,0.4-1.4,1.1-1.9,1.5
	c5.2,0,10.6,0.4,15.4,2.6c-15.3,4.8-30.1,11.3-43.4,20.3c-3,1.9-5.7,4.3-7.2,7.5c-9.6,1.1-18.2-4.1-25.6-9.4
	c-2.8-3.4-2.8-7.7-1.3-11.6c2.4,1.5,4.9,2.9,7.4,4.3c0-1.7-0.1-3.3-0.1-5c3.4,0,6.8,0.4,10.1,1.1c1-1.2,1.9-2.4,2.9-3.6
	c-2.9-3.5-5.9-7.1-7.1-11.7c-0.8-3-2.1-5.8-4.2-8.1c0.5-3.3,2.2-6.2,4.6-8.4c5.6-6.7,10.4-14.1,17.3-19.7c8.8-7.6,18.6-14,28.5-20.1
	c3.1-1.5,6.2-2.9,9.3-4.2c20.2-8.4,42.3-9.9,63.8-11.5c18.2-1.9,37,0.8,54.9-3.7c7.3-1.2,14.4-3.2,21.6-4.6
	c6.9,0.1,13.7-1.2,20.6-1.3c4,0.7,8,1.6,12.1,1.6c-2.9,1-5.8,2.2-8.6,3.4c5.9-0.4,11.8-1.1,17.7-1.6c-0.5-1-0.9-2-1.4-3
	C400.6,387.7,403.1,387.3,405.5,387.1 M161.5,489.3c0,0.9,0,1.9,0,2.8c3.5-0.4,7-1.1,10.4-2.2c-0.9-0.6-1.9-1.2-2.8-1.8
	c4,0.5,8,0.6,11.9-0.1c-2.8-2.9-6.2-5-9.9-6.3C168.6,485.1,166.3,489.3,161.5,489.3z"/>
<path class="st9" d="M731.5,528.8c2.4,5.8,0.8,12.2,1.3,18.3c-0.4,20.1,0.6,40.5-3.1,60.3c-1.9-13,1.1-26.1,0.4-39.2
	c-4.1-6.5-7.8-13.5-12.8-19.5c-1.8,3.3-3.4,6.7-4.7,10.2c-0.4-0.3-1.1-0.9-1.4-1.2c4-10,9.3-21.1,19-26.6c-2.2,6.1-8.6,9.3-11.5,15
	c3.5,5.9,6.8,12.1,11.2,17.4C731.6,552,729.8,540.3,731.5,528.8z"/>
<path class="st9" d="M1114.1,547.4c2.3-7.3,7.7-14.2,15.4-16.1c-2,3.6-6.2,5-9.1,7.8c1.8,7.3,5.9,13.9,6.6,21.4
	c-3.7-5.9-4.8-13-7.5-19.4C1117.8,543.3,1116,545.4,1114.1,547.4z"/>
<path class="st9" d="M1129,544.1c0.4-4.5,0.2-9.1,1.8-13.4c0.8,11.1-1.3,22.3-1.8,33.4c0.7,4.1,3.3,7.8,3,12.1
	c-1.4-2.7-2.5-5.5-3.6-8.4c0,9.6-3.7,19.1-2.1,28.6c-1.2-0.9-2.8-1.8-2.4-3.6C1125.7,576.8,1127.7,560.5,1129,544.1z"/>
<path class="st9" d="M1131.3,531.9c7.2-1.6,12.9,5.3,15.8,11c-3-2.6-5.8-5.3-8.8-7.9c-0.5,8.4,2.6,17.2,0.3,25.4
	c-0.6-8.6-0.6-17.3-1.9-25.8C1134.9,533.8,1133.1,532.9,1131.3,531.9z"/>
<path class="st9" d="M759.7,535.3c7.5,7.2,12.5,16.9,15.3,26.8c-2.6-4.9-4.3-10.3-7.9-14.5c-3,9-0.7,19.8-5.8,27.9
	c0.4-10.2,3.7-20,4-30.2C764,541.6,760.6,539.1,759.7,535.3z"/>
<path class="st9" d="M1139.8,562c3.2-5.8,5-12.5,9-17.9c-2.1,9.3-6.8,17.7-10.6,26.3c-2.6,5.5-5,11.2-9.2,15.7
	C1131,577.4,1136.2,570,1139.8,562z"/>
<path class="st9" d="M1109.9,560.3c0.6-4.4,2.1-8.6,4-12.5c2.7,10.6,4.5,21.4,6.2,32.2c1.5,8.7,3.4,17.5,2.5,26.4
	c-0.4-2-0.6-4-0.8-6c-1.4,1.7-3,3.1-4.9,4.1c0.8-2.5,2.3-4.7,4-6.7c-0.5-6.3-1.7-12.6-2.7-18.9c-3.7-1.9-7.3-3.9-11.1-5.6
	c0-1.7,0-3.3,0-5c2.3,4.1,6.7,6,10.7,7.9c-1.2-8.1-2.3-16.3-4.4-24.3C1112.2,554.7,1111.1,557.5,1109.9,560.3z"/>
<path class="st9" d="M708.8,563.9c1.5,3,0,6.2-0.8,9.2c-1.8,6-2.8,12.1-3.6,18.3c4.5,0.5,9,0.6,13.5,0.9c0,1.2-0.1,2.4-0.1,3.6
	c-4.6-0.3-9.2-0.6-13.8-0.7c-0.8,5.5-1,11.1-1.2,16.7c-0.4,0-1.1-0.1-1.5-0.2C702,595.6,704,579.4,708.8,563.9z"/>
<path class="st9" d="M747.5,569.8c1.5,4.2,3.3,9.5,0.9,13.6C747.1,579,747,574.3,747.5,569.8z"/>
<path class="st9" d="M723.1,592.3c1.6,0,3.3,0,4.9,0.1c0.1,1.3,0.1,2.6,0.2,3.9c-1.7,0-3.4-0.1-5.1-0.1
	C723.1,594.9,723.1,593.6,723.1,592.3z"/>
<path class="st9" d="M135.3,593.3c0.6,0,1.9,0.1,2.5,0.1c-0.5,7-0.9,13.9-1.2,20.9C135.2,607.4,135.3,600.3,135.3,593.3z"/>
<path class="st9" d="M1153.9,610.2c1.6-5.7,6.9-8.9,9.8-13.9c0.8,9.3,1.3,18.6,1,27.9c-0.4-0.3-1.1-1-1.4-1.4
	c-0.1-7.3,0.4-14.7-0.2-22C1160,604,1157.5,607.7,1153.9,610.2z"/>
<path class="st9" d="M1142,598c4.9,3,7.7,8.4,11.4,12.7c3.8,5.8,8.7,11,10.8,17.7c-4.9-3.7-7.5-9.4-11.6-13.9
	C1148.8,609.2,1143.9,604.4,1142,598z"/>
<path class="st9" d="M1134.9,606.1c3.3-0.9,7.9-1.1,8.7,3.3c4.3,18.6,8.3,37.4,11.9,56.1c1.8-6.3,4.3-12.6,5.1-19.2
	c-2.8-3.6-8.6-4.1-10.1-8.9c3.8,1.8,7.5,4.1,11.5,5.5c-1.2,8.7-2.4,18-7.5,25.4c-3.4-17.7-7.3-35.3-12.2-52.6
	C1141.4,611.6,1138,608.9,1134.9,606.1z"/>
<path class="st9" d="M1105.1,618.2c2.3-4.3,5.5-8.1,9.3-11.2C1114,612.1,1109,615.5,1105.1,618.2z"/>
<path class="st9" d="M760.8,623.5c-1.2-4.2,2.1-8.4,6.1-9.5C765.6,617.6,763.6,620.9,760.8,623.5z"/>
<path class="st9" d="M744.3,621.5c2.9-3.5,7.7-4.4,11.7-6.2c8.3,17.3,13.5,35.9,19.8,54c0.7,2.6,2.3,5.4,0.9,8.1
	c-6.6-18.4-13.4-36.7-21.4-54.5c-1.2-3.8-4.3-2.4-6.6-0.5c2.6,3.7,7.1,6.9,7,11.9c0.1,11.4,0.9,22.7,0.9,34.1
	c-0.2,2.5,1.7,4.4,3.1,6.2c4.1,4.9,6.6,10.9,10.7,15.8c1.6-3.8,3.2-7.6,5.5-11.1c-2.7,11.1-9.1,21.9-18.3,28.9
	c2.8-6,8.7-9.8,11.5-15.8c-3.7-6.4-7.6-12.6-12.3-18.3c-1.3,12.1,1.3,24.6-1.4,36.5c-1.5-12.7-0.9-25.5-1.3-38.3
	c0.1-5.3-4.9-8.5-7.1-12.9c0.2-0.5,0.7-1.6,1-2.1c1.7,1.9,3.4,3.8,5.2,5.7c0.4-9.4-0.3-18.8-1.6-28.1
	C751.4,629.1,744,627.1,744.3,621.5z"/>
<path class="st9" d="M1132.5,620.3c2.9,1.4,6.2,2.4,8.4,4.8c0.8,2.4,0.4,5.1,1.6,7.3c1.9,1.5,4.2,2.8,4.9,5.4
	c-2.2-0.7-4.3-1.6-6.3-2.4c0.6,6.8-0.7,13.7,0.2,20.5c3.4,6.1,5.4,12.7,8.4,19c1.5-1.9,3-3.7,4.5-5.6c-2.2,8.1-8.7,16-17.6,16.4
	c-6.8,0.4-11.8-5.3-15.5-10.3c0.3-0.2,0.9-0.6,1.2-0.9c2.4,3.2,5.2,6.1,8.8,7.9c0-8.6-2.3-17.1-1.8-25.8c2.9,8.4,1.4,17.5,2.8,26.1
	c1.8,1,3.9,1.2,5.9,1.6c1.3-18.1,1.4-36.3,1.1-54.4c0.3-3.4-1.5-6.2-5.1-6.5c1.4,4.1,4.2,8.5,2,12.9c-5.1,12.7-9.1,26-16.1,37.8
	c3.6-13.7,10.3-26.5,13.8-40.3C1134.9,629.3,1131.6,625,1132.5,620.3 M1141.2,658.6c-0.6,8.5-1.3,17.1-1.4,25.7
	c3.2-2.2,7.8-4.1,8.9-8.1C1146.7,670.1,1144.3,664.1,1141.2,658.6z"/>
<path class="st9" d="M783.1,643.3c1.8-4.9-0.8-11.6,2.9-15.5c-0.5,15.3-2.7,30.9-7.8,45.4c1.1-9,4-17.7,4.7-26.8
	c-4.5,0.2-8.9,0.3-13.4,0.4c-0.1-0.7-0.4-2.1-0.5-2.8C773.7,643.8,778.4,643.6,783.1,643.3z"/>
<path class="st9" d="M737.4,639.2c0.4-0.3,1.2-0.8,1.6-1c4,3.7,11.4,7.6,9.1,14.1c-5.9,18.7-10.1,38.1-18.1,56
	c4.3-19.6,11-38.6,15-58.3c0.9-3.5-1.2-6.5-4-8.3c-0.3,3.8,2.7,9.5-1.8,11.6c-10.1,6.2-19.5,13.8-30.5,18.5
	c8.1-9.3,19.7-14.9,28.5-23.6C739.3,645.7,737.7,642.2,737.4,639.2z"/>
<path class="st9" d="M124.8,655.9c1.5-3.4,4.8-5.5,8-7.2c0.9,0.8,1.8,1.5,2.8,2.2c-0.6,0.2-1.6,0.5-2.2,0.6c0.8,0.4,1.6,0.8,2.4,1.3
	c9.1,6.4,20.3,8.7,31.2,10c-2.4,1.5-4.1,3.8-5.4,6.2c-8.6,0.7-17.2-1.2-25.7-2.8C130.3,665.4,127.5,660.2,124.8,655.9z"/>
<path class="st9" d="M720.8,694.4c2.4-9.7,0.6-20.7,4.9-29.5c-0.3,10.5-2.4,21-4.2,31.3c2.6,3.2,6.3,5.8,7.5,10
	c-8.9-6.1-14-16.9-17-27C715.1,684.1,717,689.8,720.8,694.4z"/>
<g id="_x23_f9caa5ff">
	<path class="st10" d="M530.4,397.8c4.9-0.4,9.5,1.4,13.9,3.5c-14.3,11-32.7,13.3-48.9,20.2c-7.8,5.1-17.4,5.9-25.4,10.4
		c-11.2,5.2-25.7,8.4-31.9,20.1c8.7,1.5,17.6,1.9,26.3,0.4c20.9-1.1,41.9-3,62.4-7.7c9.8,0,18.5-4.5,27.6-7.3c13-3.1,25-9,37.8-12.6
		c6.4-2.1,12.9-7.1,19.8-4c-11.8,8-21.4,19.5-35.3,24c1.6,0.8,3.1,1.6,4.7,2.3c-46.5,8.6-93.3,15.3-139.9,23.3
		c-7.2,1.2-14.6,2.4-21.8,1.1c-13.2-2.1-26.5-3.4-39.8-4.2c2.5-0.2,5-0.6,7.5-0.9c-6.8-0.6-13.7-0.3-20.2-2.6
		c8.6-3.5,18.3-1.4,27.1-4.5c0.9-2.1,1.6-4.3,3.2-6c8.6-8.7,19.2-14.9,29-22.1c17.4-8.8,34.8-18,53.4-24.2
		c5.9,1.5,10.8-2.7,16.3-3.8C507.4,401,518.8,398.7,530.4,397.8z"/>
	<path class="st10" d="M1098.7,397.8c16.2-0.3,32.5,1.7,48.3,5.3c5,0.9,6.7,6.3,6.6,10.8c-0.1,12.9-0.6,25.9,0.8,38.8
		c-4.4,0.6-8.7,2.4-13.2,2.4c-6.9-0.9-14.2-5.8-21.1-2c-10.9,6.3-17.4,17.6-24.8,27.4c-6.5,8.1-8.3,18.6-11.9,28.1
		c-3.5,10.4-9,20.1-12.7,30.4c-2.1,4.7,1.9,9,1.9,13.7c-1.2,3.6-5.8,3.7-8.8,4.9c1.3-2.5,5.1-5.1,3-8.2
		c-5.7-8.8-16.6-11.5-26.1-13.9c-14-3.8-28.4,0.2-42.5,0c-29.3,3-58.8,5.3-87.1,13.8c-12.1,5.3-25.4,7.7-36.3,15.5
		c-9.7,4.5-17.5,11.9-26.6,17.5c-3.7,2.1-2.3,6.7-1.8,10.1c2.3-1.2,4.5-2.5,6.8-3.6c-0.3,2.3-0.6,4.7-0.9,7.1
		c12.4-2.5,24.8-4.3,37.2-6.9c0.8,1.3,1.6,2.7,2.4,4c-12.1,1.8-24.2,3.3-36.2,5.7c-7.1,1.2-14.2,3.4-21.5,2.6c0-2,0-4.1-0.1-6.1
		c3.3,1,6.5,2,9.8,2.9c-3.1-2.9-7-4.7-11.3-4.9c2.8-9.1,11.4-14.3,18.3-20c12.2-9.7,25.1-19,40.1-23.9c44.8-16.5,93-18.4,140-22.9
		c3.8-0.5,7.9-1.5,10.2-4.9c6-8.1,12.2-16,17.3-24.8c5.1-8.3,13-16.9,10.5-27.5c-2.3-7.7-11.2-10-18.2-11.1
		c-13.3-1.8-26.5-3.7-39.9-4.6c-50.9,0.4-101.8,5.6-151.7,16.1c-10.5,1.8-18.7,8.7-26.3,15.8c-0.3-0.2-0.8-0.6-1.1-0.8
		c-0.6-5.5-1.4-11.1-0.3-16.5c1.2-1.2,3-1.3,4.6-1.6c45-7.3,90.2-14.1,135.7-17c21-0.8,41.9-3.5,63-3.3c9.8,0.1,20.9-2.7,29.4,3.7
		c10.9,5.5,15.1,17.7,24.6,24.9c8.8-9,16.4-19.2,25.9-27.5c5-2.7,10.2-5.7,16-5.6c3.4-0.4,7.2,0.5,10.2-1.5
		c0.5-11.4-7.9-20.3-9.6-31.2c-0.3-3.7-3.6-5.9-7-6.3C1115.9,401.3,1106.7,402.5,1098.7,397.8z"/>
	<path class="st10" d="M1170.1,430.6c9.6-2.3,19.3-1.8,29.1-1.6c7.5,1.6,15.1,3.8,22.9,3.4c19.4-0.7,38.6,1.9,58,1.8v16.3
		c-11.3-0.3-22.7,1.4-33.9-0.3c-5.5-0.9-11.1,0.1-16.6,0.5c-14.8-0.9-29.6-2.4-44.5-1.4c-4.7,0-9.3-0.7-13.9-1.1
		c-0.5-5-1.2-10.1-1.5-15.1C1169.7,432.4,1169.9,431.2,1170.1,430.6z"/>
	<path class="st10" d="M750.6,444.9c7.3-2.5,15.2-1.9,22.5,0c3.4,11.5,9.8,22.3,19,30.1c5.5,3.4,12.8,1.9,18.2-1.4
		c-5.1,0.4-10.5,2.4-15.5,0.6c-5.1-2.7-8.3-7.8-11.7-12.2c-4-4.4-5.3-10.3-4-16c9.9,5.7,22.3,8,29.3,17.6c4.5,7.1,14.6-1.3,19.8,5.1
		c2.8,4.5,1.5,10.3,3.2,15.3c-2.3,2.8-5.5,5.2-9.3,4.8c-7.7-0.7-15.4-1.1-23.2-1.5c-4.2,0.1-6-4.2-8.1-7
		c-8.6-13.5-20.5-25.7-36-30.7C753.4,448,752,446.4,750.6,444.9z"/>
	<path class="st10" d="M424.7,474.6c10.1-1.9,21-5.1,31.1-1.3c14.1,4.6,28.3,9.2,41.7,15.5c-0.3,1-0.7,1.9-1,2.9
		c4.8,0.2,9.7,0,14.5-0.6c20.2-2.4,40.5-3.9,60.8-6.1c1.5,0.3,3,0.6,4.6,0.9c-8.8,2.4-18.4,0.7-27,4.2c5.1,2,10.5,1,15.8,0.8
		c14.3,0.3,28.5-0.6,42.8,0.1c5.4-0.1,15.1-1.6,14.9,6.4c1.1,12.8-12.5,17.7-20.8,24c-5.3,9.1,6.1,15.9,7.2,24.4
		c0.9,8.5,6.6,15.8,6.2,24.6c0.1,20.5-3.3,41.2-9.6,60.7c-1.9,7.2-9.1,11.1-16,11.9c-18.2,2.5-36.5,2.6-54.8,4
		c-7.5,0.1-15,0.7-22.4-0.4c-8.4-1.8-13.3-9.3-19.7-14.1c-3.5-4.7-6.9-9.5-10.6-14.1c-3.1-7.8-9.7-13.1-14.5-19.6
		c-2.3-3.1-4.1-8.4-0.3-11.1c5.3-3.7,12.5-0.4,17.8-4.2c5.7-3.8,12.9-2.7,19.3-3.9c8.7-1.5,17.6-1,26.4-1.9c5.5,0.1,6.2-6.7,10.3-9
		c-1.5,3.5-3,7-4.5,10.5c-16.3,2.3-32.9,1.4-49.2,4.2c1.4,3.2,3.4,6.9,7.5,6.7c12.7,0.6,25.4-1.4,38.1-1.2c3.2-0.5,4.6,2.8,5.9,5.1
		c6.3,12.7,13.3,25.1,22.1,36.3c5.3,6.6,14.6,4.9,22,4.7c6.5-0.9,14.1,0.3,19.5-4.3c6.6-16.6,7.9-35,9.1-52.7c0.2-7.8,1-19-8-22.4
		c-11.5-3.1-23.6-0.6-35.4-0.5c-21.4-0.9-42.7,2.6-64.1,4.2c-4.4-0.1-11.9,1.7-12.9-4.4c-3.4-10.5,8.7-15.5,14.8-21.6
		c8.7-4.4,16.2-10.7,21.1-19.2c-12.3-6.3-27.3-4.5-40.4-2.1c-7.8,15.5-10.3,33.9-21.4,47.6c-9.8,11.1-25.6,12.3-39.4,12.8
		c-53.2,5-106.6,3.7-160,3.4c-13.8-1.4-27.7-1.5-41.6-2.3c-11.1-1.5-23.6-0.4-32.8-7.9c-3.8-2.6-5.5-7-6.8-11.2
		c2.1,2.3,4.3,4.5,6.6,6.6c0.4-0.4,1.2-1.2,1.6-1.6c7.9,9.1,20.8,9.2,31.8,10.2c31,2.1,62.2,3.1,93.3,2.9
		c37.7,0.2,75.4-0.4,112.9-3.5c9.8-1,20.5-1.3,28.8-7.2c7.6-5.7,11.1-14.9,14.7-23.4c3.5-9.6,7.8-19.1,8.9-29.4
		c0.8-6.6-4.6-11.5-9.9-14.3c-10.3-5.5-20.9-10.1-31.8-14.2C436,478.3,429.9,477.7,424.7,474.6z"/>
	<path class="st10" d="M144.7,494c1.8,0.6,3.6,1.2,5.3,2c7.4,5.3,16.1,10.5,25.6,9.4c-1.3,10.9,2.2,21.4,4.1,31.9
		c-4-9.1-4.6-19.1-7.3-28.6c-7.9-1.6-15.1-5.9-23.1-6.6c-2.6,4.9-6.8,12.6-1.3,17.1c5.1,4.6,8.8,10.7,14.4,14.7
		c3.5,2.3,3.7,6.9,5.5,10.4c1.6,4.1,5.2,7.8,4.9,12.5c-8.4,5.2-17.8-2.1-26.9,0.1c-6.1-0.5-12.1-1.7-18.2-1.6
		c-1.1-0.2-2.2-0.5-3.3-0.8c0.8-2.4,1.7-4.8,2.6-7.2c0.6-0.8,1.3-1.5,1.9-2.3c-0.3,2.1-0.5,4.3-0.8,6.4c13.4-0.4,26.4,3,39.8,3.3
		c-1.1-5.2-2-10.7-5.5-15c-6.2-7.6-12.8-16.5-23.4-17.6c-0.1-3.6-0.4-7.3,1.1-10.7c0.7-1.7,1.4-3.4,2-5.1
		C142.6,502.1,143.2,497.9,144.7,494z"/>
</g>
<g id="_x23_f7b683ff">
	<path class="st11" d="M799,431.5c8-1,14.7-5.9,22.5-7.8c4.5,12.7,1.6,27.1,7.8,39.2c0.6-1.3,1.3-2.7,1.9-4c8.4,1.9,17,1.2,25.4-0.3
		c8.9-1.6,18-1.3,26.9-3.1c12.8-2.5,25.9-2.5,38.8-4.3c38.6-5.8,77.8-5.4,116.8-8.1c10.9-1,22.3-0.5,32.7,3.4
		c7.7,4.5,15.9,8.4,24.6,10.3c8.1,1.6,11.9-7.4,18.7-10c-9.5,8.3-17.1,18.5-25.9,27.5c-9.4-7.1-13.7-19.4-24.6-24.9
		c-8.6-6.4-19.6-3.6-29.4-3.7c-21-0.2-42,2.5-63,3.3c-45.5,2.9-90.7,9.7-135.7,17c-1.6,0.3-3.4,0.4-4.6,1.6
		c-1.2,5.4-0.3,11.1,0.3,16.5l-0.5-0.4c-1.7-4.9-0.4-10.7-3.2-15.3c-5.3-6.4-15.3,2-19.8-5.1c-7.1-9.7-19.5-11.9-29.3-17.6
		c-1.4,5.7,0,11.6,4,16c3.5,4.4,6.7,9.5,11.7,12.2c5,1.9,10.4-0.2,15.5-0.6c-5.3,3.2-12.6,4.8-18.2,1.4c-9.3-7.8-15.6-18.6-19-30.1
		c-7.4-1.9-15.2-2.6-22.5,0c1.4,1.5,2.8,3.1,4.3,4.6c-2.3-0.7-4.8-1.1-6.9-2.3c-1-4.3-0.1-8.8,0.3-13.1c13.7-1.4,26.1,5.3,38.6,9.9
		C790.6,439.8,793.1,433.2,799,431.5z"/>
	<path class="st11" d="M694.5,435.6c3.3-3.4,8.8-2.2,11.5,1.3c0.8,3.5-0.1,7.7,3.5,9.9c-0.1-2.8-0.4-5.6-1-8.3
		c6.8-2.1,13.9-2.3,20.8-4.2c4.7-1.1,10-2.4,14.5,0.2c3.5,3,2.2,8.3,2.1,12.3c-12.2,0.7-24.6,3.4-35,10.2c-12.2,9.1-24,19.9-30,34.1
		c7.4-8.9,14.4-18.5,24-25.3c-1.7,7.6-10.1,11.1-12.9,18.3c10.9-9.7,22-20.1,36-25c7.8-1.6,15.9-0.2,23.8-1.5c0.4,2.5,0.7,5,1,7.5
		c0.9-2,1.7-3.9,2.6-5.9c20.2,7.3,33.7,26.2,41,45.6c2.4,6.2,4.7,12.7,4.7,19.5c-4.6-6.6-6.5-14.6-10.8-21.3
		c-8.8-15.1-23.4-28.5-41.3-30.8c-19.4,0.2-37,12.6-46.3,29.3c1-0.6,1.9-1.1,2.9-1.7c0.3,0.3,0.9,1,1.2,1.3
		c-11.3,13.1-18.2,29.2-24.3,45.2c-13.1,34-17,70.3-24.5,105.7c-8.2,0.5-15.9-4.4-24.2-2.5c-33.7,6.6-68.2,7.1-102.3,9.8
		c-4.1,0.1-8.8-0.4-11.3-4.2c-4.8-6.4-13.2-7.8-19-13c-3.4-2.7-5.8-6.4-8.1-10c6.5,4.8,11.3,12.4,19.7,14.1c7.4,1.1,15,0.5,22.4,0.4
		c18.3-1.4,36.6-1.5,54.8-4c6.9-0.8,14.2-4.6,16-11.9c6.4-19.5,9.7-40.2,9.6-60.7c0.5-8.8-5.2-16.1-6.2-24.6
		c-1.1-8.5-12.5-15.3-7.2-24.4c8.3-6.3,21.9-11.2,20.8-24c0.2-8-9.5-6.5-14.9-6.4c-14.3-0.6-28.5,0.3-42.8-0.1
		c-5.3,0.2-10.8,1.2-15.8-0.8c8.6-3.5,18.1-1.8,27-4.2c-1.5-0.3-3-0.6-4.6-0.9c21.3-2.7,42.7-4,64-6c18.6-4.7,29.6-22.6,46.4-30.6
		C687.9,445.9,691.2,440.6,694.5,435.6 M642.3,564.4c-3.4,22.2-7.6,44.3-8.8,66.8c-0.7,4.8,2.1,9.5,7.1,10.1
		c3.2-34.3,9.4-68.4,20.3-101.1C653.3,547,643.7,553.4,642.3,564.4 M659.7,584.9c-3.1,15.3-6.7,30.7-7,46.4c2.9,1,7.7,2,8.1-2.5
		c2.5-17.2,6.3-34.1,9.5-51.1C665.5,577.3,660.4,579.7,659.7,584.9z"/>
	<path class="st11" d="M175.6,505.4c1.6-3.2,4.3-5.6,7.2-7.5c-2.2,2.5-4.7,5.2-4.5,8.8c0.2,8.4,1.8,16.8,4,24.9
		c2.6,9.5,4.8,19.5,10.5,27.8c-0.4,0.4-1.2,1.2-1.6,1.6c-2.3-2.1-4.4-4.4-6.6-6.6c1.4,4.2,3,8.6,6.8,11.2c9.2,7.5,21.7,6.3,32.8,7.9
		c13.9,0.8,27.8,1,41.6,2.3c53.3,0.3,106.8,1.6,160-3.4c13.9-0.4,29.6-1.7,39.4-12.8c11.1-13.8,13.6-32.2,21.4-47.6
		c13.1-2.3,28.1-4.2,40.4,2.1c-4.9,8.5-12.4,14.9-21.1,19.2c-6,6.1-18.1,11.1-14.8,21.6c1,6.2,8.5,4.4,12.9,4.4
		c-5.4,1.1-10.9,2.2-15.9,4.6c5.1,4.2,11.7,1.4,17.6,1.6c11.3,0.2,22.6-1.4,33.9-2c1.9-0.4,2.4,1.8,3.4,3c-0.7,0.7-1.3,1.4-2,2.1
		c-4.2,2.3-4.9,9.1-10.3,9c-8.8,0.8-17.7,0.3-26.4,1.9c-6.5,1.2-13.6,0-19.3,3.9c-5.3,3.8-12.6,0.5-17.8,4.2c-3.8,2.7-2,8,0.3,11.1
		c4.8,6.5,11.4,11.9,14.5,19.6c-5.9-5.2-9.3-13.2-16.9-16.2c-5.5-2.1-11-6.5-17.2-4.9c-4.4,0.8-8.8,1.7-13.2,2.3
		c-2.3-1.5-4.7-3.6-7.6-2.9c-10.7,1.5-21.5,3.2-32.2,1.9c-8.5-1.1-16.6,2.6-25,1.9c-11.2-1-22.4,0.5-33.6-0.3
		c-16.9,1.4-33.7-1.3-50.5-1c-15.4,0-30.8-3.5-46.2-2.5c0.3-1.2,0.7-2.3,1-3.5c-9.4-3.4-20.9,1.9-29-4.9c-1.2,1.4-2.4,2.8-3.5,4.1
		c0.5-3.5,2.1-7.6-0.3-10.8c-3.2-5.2-9.9-5.3-15.3-5.6c-3.2-0.6-4.1,3.3-5.6,5.3c5.4-5.8,14.8-4.1,19.7,1.4
		c-0.4,4.8-1.6,10-4.7,13.8c-3.1,3-7.1-0.5-10.6-0.6c-3.6,2.7-6.3,6.4-9.5,9.5c2.1-5.1,6.2-9.8,6.5-15.4c-2.2-3.1-6.6-3.9-9.7-6
		c-6-3.6-13.2-3.6-19.9-4.4c-0.7-1-1.5-2-2.1-3c-1.9-7.4-4.7-14.6-10.7-19.7c9-2.2,18.5,5.2,26.9-0.1c0.3-4.7-3.3-8.3-4.9-12.5
		c-1.7-3.5-1.9-8-5.5-10.4c-5.7-4-9.3-10.1-14.4-14.7c-5.5-4.5-1.3-12.1,1.3-17.1c8,0.8,15.2,5,23.1,6.6c2.7,9.5,3.4,19.5,7.3,28.6
		C177.8,526.8,174.3,516.3,175.6,505.4z"/>
	<path class="st11" d="M998.1,535.5c14.2,0.3,28.5-3.8,42.5,0c9.5,2.4,20.4,5.1,26.1,13.9c2.1,3-1.7,5.6-3,8.2
		c-26.6,7.3-53.6,12.7-80.6,18.5c-30.4,5.6-60.6,12.5-91.3,16.8c-0.8-1.3-1.6-2.7-2.4-4c0.8-2.3,1.5-4.6,2.4-6.9
		c5.3,3.6,11,0,16.5-0.8c8.8-1.2,17.7,0,26.5-1.8c17.3-3.9,35.2-3.7,52.3-8.7c22.7-5.7,46.4-6.7,68.7-14.1c3.8-0.9,4.5-5,5.3-8.2
		c-11.4-3.9-22.7-9.5-35.1-9c-17.2-0.1-34.6-1-51.4,3.2c-14-0.3-27.8,2.7-41.2,6.2c-23.4,3.7-46.7,12.3-63.9,29.1
		c7.7,1.6,15.5,2.3,23.4,1.6c-0.2,0.4-0.5,1.2-0.7,1.6c-2.1,0.6-4.3,1.1-6.5,1.5c-0.3,1.8-0.5,3.5-0.8,5.3c-0.4-1.2-0.8-2.4-1.2-3.6
		c-1.4,0-2.7-0.1-4-0.1c1,1.3,1.9,2.5,3,3.8c-4.2,0.9-8.4,1.5-12.6,2c3.8-0.9,8-2,9.7-5.9c-9.1-1.9-17.8,2.5-26.5,4.5
		c-2.3,1.1-4.6,2.4-6.8,3.6c-0.5-3.4-2-8,1.8-10.1c9.1-5.6,16.9-13,26.6-17.5c10.9-7.8,24.2-10.2,36.3-15.5
		C939.3,540.8,968.8,538.5,998.1,535.5z"/>
	<path class="st11" d="M661,589c0.4-4,2.5-8.4,7-8.8c-3.4,16.5-6.5,33.1-9.3,49.7c-1.4-0.1-2.8-0.2-4.3-0.3
		C654.8,615.9,658.5,602.5,661,589z"/>
	<path class="st11" d="M133.1,631.6c7.2-6.1,8.9-16.2,12.6-24.5c0.2,11.4,0.8,23.9,7.1,33.7c9.6-7.1,13.1-19,21.6-26.8
		c-2.3,7.5-8.1,13-12.2,19.5c-4.4,5.9-8.9,12.4-15.4,16c-6.2-1.4-12.1-4.2-18.2-6.1c-0.7-1.1-1.4-2.1-2-3.2
		c-0.7-2.2-1.3-4.4-1.9-6.6C127.6,632.9,130.4,632.3,133.1,631.6z"/>
</g>
<polyline class="st3" points="619.9,941.1 1280,941.1 908,916.7 "/>
</svg>
